<?xml version="1.0" encoding="UTF-8" standalone="yes"?><svg xmlns="http://www.w3.org/2000/svg" xmlns:xlink="http://www.w3.org/1999/xlink" height="90pt" style="width:259px;height:90px;" version="1.1" viewBox="0 0 259 90" width="259pt"><defs><filter height="300%" id="f1" width="300%" x="-1" y="-1"><feGaussianBlur result="blurOut" stdDeviation="2.0"/><feColorMatrix in="blurOut" result="blurOut2" type="matrix" values="0 0 0 0 0 0 0 0 0 0 0 0 0 0 0 0 0 0 .4 0"/><feOffset dx="4.0" dy="4.0" in="blurOut2" result="blurOut3"/><feBlend in="SourceGraphic" in2="blurOut3" mode="normal"/></filter></defs><g><rect fill="#FEFECE" filter="url(#f1)" height="73.6094" style="stroke: #A80036; stroke-width: 1.5;" width="244" x="6" y="8"/><ellipse cx="54.25" cy="24" fill="#ADD1B2" rx="11" ry="11" style="stroke: #A80036; stroke-width: 1.0;"/><path d="M57.2188,29.6406 Q56.6406,29.9375 56,30.0859 Q55.3594,30.2344 54.6563,30.2344 Q52.1563,30.2344 50.8359,28.5859 Q49.5156,26.9375 49.5156,23.8125 Q49.5156,20.6875 50.8359,19.0313 Q52.1563,17.375 54.6563,17.375 Q55.3594,17.375 56.0078,17.5313 Q56.6563,17.6875 57.2188,17.9844 L57.2188,20.7031 Q56.5938,20.125 56,19.8516 Q55.4063,19.5781 54.7813,19.5781 Q53.4375,19.5781 52.75,20.6484 Q52.0625,21.7188 52.0625,23.8125 Q52.0625,25.9063 52.75,26.9766 Q53.4375,28.0469 54.7813,28.0469 Q55.4063,28.0469 56,27.7734 Q56.5938,27.5 57.2188,26.9219 L57.2188,29.6406 Z "/><text fill="#000000" font-family="sans-serif" font-size="12" lengthAdjust="spacingAndGlyphs" textLength="139" x="74.75" y="28.1543">DocumentationWidget</text><line style="stroke: #A80036; stroke-width: 1.5;" x1="7" x2="249" y1="40" y2="40"/><line style="stroke: #A80036; stroke-width: 1.5;" x1="7" x2="249" y1="48" y2="48"/><ellipse cx="17" cy="59.9023" fill="#84BE84" rx="3" ry="3" style="stroke: #038048; stroke-width: 1.0;"/><text fill="#000000" font-family="sans-serif" font-size="11" lengthAdjust="spacingAndGlyphs" textLength="218" x="26" y="62.2104">search_wordnet(term : String) : String</text><ellipse cx="17" cy="72.707" fill="#84BE84" rx="3" ry="3" style="stroke: #038048; stroke-width: 1.0;"/><text fill="#000000" font-family="sans-serif" font-size="11" lengthAdjust="spacingAndGlyphs" textLength="172" x="26" y="75.0151">search(string : String) : String</text></g></svg>