<?xml version="1.0" encoding="UTF-8" standalone="yes"?><svg xmlns="http://www.w3.org/2000/svg" xmlns:xlink="http://www.w3.org/1999/xlink" height="90pt" style="width:251px;height:90px;" version="1.1" viewBox="0 0 251 90" width="251pt"><defs><filter height="300%" id="f1" width="300%" x="-1" y="-1"><feGaussianBlur result="blurOut" stdDeviation="2.0"/><feColorMatrix in="blurOut" result="blurOut2" type="matrix" values="0 0 0 0 0 0 0 0 0 0 0 0 0 0 0 0 0 0 .4 0"/><feOffset dx="4.0" dy="4.0" in="blurOut2" result="blurOut3"/><feBlend in="SourceGraphic" in2="blurOut3" mode="normal"/></filter></defs><g><rect fill="#FEFECE" filter="url(#f1)" height="73.6094" style="stroke: #A80036; stroke-width: 1.5;" width="236" x="6" y="8"/><ellipse cx="68.75" cy="24" fill="#ADD1B2" rx="11" ry="11" style="stroke: #A80036; stroke-width: 1.0;"/><path d="M71.7188,29.6406 Q71.1406,29.9375 70.5,30.0859 Q69.8594,30.2344 69.1563,30.2344 Q66.6563,30.2344 65.3359,28.5859 Q64.0156,26.9375 64.0156,23.8125 Q64.0156,20.6875 65.3359,19.0313 Q66.6563,17.375 69.1563,17.375 Q69.8594,17.375 70.5078,17.5313 Q71.1563,17.6875 71.7188,17.9844 L71.7188,20.7031 Q71.0938,20.125 70.5,19.8516 Q69.9063,19.5781 69.2813,19.5781 Q67.9375,19.5781 67.25,20.6484 Q66.5625,21.7188 66.5625,23.8125 Q66.5625,25.9063 67.25,26.9766 Q67.9375,28.0469 69.2813,28.0469 Q69.9063,28.0469 70.5,27.7734 Q71.0938,27.5 71.7188,26.9219 L71.7188,29.6406 Z "/><text fill="#000000" font-family="sans-serif" font-size="12" lengthAdjust="spacingAndGlyphs" textLength="102" x="89.25" y="28.1543">HierarchyWidget</text><line style="stroke: #A80036; stroke-width: 1.5;" x1="7" x2="241" y1="40" y2="40"/><line style="stroke: #A80036; stroke-width: 1.5;" x1="7" x2="241" y1="48" y2="48"/><ellipse cx="17" cy="59.9023" fill="#84BE84" rx="3" ry="3" style="stroke: #038048; stroke-width: 1.0;"/><text fill="#000000" font-family="sans-serif" font-size="11" lengthAdjust="spacingAndGlyphs" textLength="204" x="26" y="62.2104">hide(node : QTreeWidgetItem) : void</text><ellipse cx="17" cy="72.707" fill="#84BE84" rx="3" ry="3" style="stroke: #038048; stroke-width: 1.0;"/><text fill="#000000" font-family="sans-serif" font-size="11" lengthAdjust="spacingAndGlyphs" textLength="210" x="26" y="75.0151">show(node : QTreeWidgetItem) : void</text></g></svg>