<?xml version="1.0" encoding="UTF-8" standalone="yes"?><svg xmlns="http://www.w3.org/2000/svg" xmlns:xlink="http://www.w3.org/1999/xlink" height="449pt" style="width:508px;height:449px;" version="1.1" viewBox="0 0 508 449" width="508pt"><defs><filter height="300%" id="f1" width="300%" x="-1" y="-1"><feGaussianBlur result="blurOut" stdDeviation="2.0"/><feColorMatrix in="blurOut" result="blurOut2" type="matrix" values="0 0 0 0 0 0 0 0 0 0 0 0 0 0 0 0 0 0 .4 0"/><feOffset dx="4.0" dy="4.0" in="blurOut2" result="blurOut3"/><feBlend in="SourceGraphic" in2="blurOut3" mode="normal"/></filter></defs><g><rect fill="#FEFECE" filter="url(#f1)" height="432.1406" style="stroke: #A80036; stroke-width: 1.5;" width="493" x="6" y="8"/><ellipse cx="210.25" cy="24" fill="#ADD1B2" rx="11" ry="11" style="stroke: #A80036; stroke-width: 1.0;"/><path d="M213.2188,29.6406 Q212.6406,29.9375 212,30.0859 Q211.3594,30.2344 210.6563,30.2344 Q208.1563,30.2344 206.8359,28.5859 Q205.5156,26.9375 205.5156,23.8125 Q205.5156,20.6875 206.8359,19.0313 Q208.1563,17.375 210.6563,17.375 Q211.3594,17.375 212.0078,17.5313 Q212.6563,17.6875 213.2188,17.9844 L213.2188,20.7031 Q212.5938,20.125 212,19.8516 Q211.4063,19.5781 210.7813,19.5781 Q209.4375,19.5781 208.75,20.6484 Q208.0625,21.7188 208.0625,23.8125 Q208.0625,25.9063 208.75,26.9766 Q209.4375,28.0469 210.7813,28.0469 Q211.4063,28.0469 212,27.7734 Q212.5938,27.5 213.2188,26.9219 L213.2188,29.6406 Z "/><text fill="#000000" font-family="sans-serif" font-size="12" lengthAdjust="spacingAndGlyphs" textLength="76" x="230.75" y="28.1543">MainWindow</text><line style="stroke: #A80036; stroke-width: 1.5;" x1="7" x2="498" y1="40" y2="40"/><ellipse cx="17" cy="51.9023" fill="none" rx="3" ry="3" style="stroke: #038048; stroke-width: 1.0;"/><text fill="#000000" font-family="sans-serif" font-size="11" lengthAdjust="spacingAndGlyphs" textLength="130" x="26" y="54.2104">ontologyAdded : Signal</text><ellipse cx="17" cy="64.707" fill="none" rx="3" ry="3" style="stroke: #038048; stroke-width: 1.0;"/><text fill="#000000" font-family="sans-serif" font-size="11" lengthAdjust="spacingAndGlyphs" textLength="147" x="26" y="67.0151">ontologyRemoved : Signal</text><ellipse cx="17" cy="77.5117" fill="none" rx="3" ry="3" style="stroke: #038048; stroke-width: 1.0;"/><text fill="#000000" font-family="sans-serif" font-size="11" lengthAdjust="spacingAndGlyphs" textLength="146" x="26" y="79.8198">updateRequested : Signal</text><rect fill="none" height="6" style="stroke: #C82930; stroke-width: 1.0;" width="6" x="14" y="87.3164"/><text fill="#000000" font-family="sans-serif" font-size="11" lengthAdjust="spacingAndGlyphs" textLength="101" x="26" y="92.6245">widgets : Widget[]</text><line style="stroke: #A80036; stroke-width: 1.5;" x1="7" x2="498" y1="99.2188" y2="99.2188"/><ellipse cx="17" cy="111.1211" fill="#84BE84" rx="3" ry="3" style="stroke: #038048; stroke-width: 1.0;"/><text fill="#000000" font-family="sans-serif" font-size="11" lengthAdjust="spacingAndGlyphs" textLength="75" x="26" y="113.4292">synchronize()</text><polygon fill="#FFFF44" points="17,118.9258,21,122.9258,17,126.9258,13,122.9258" style="stroke: #B38D22; stroke-width: 1.0;"/><text fill="#000000" font-family="sans-serif" font-size="11" lengthAdjust="spacingAndGlyphs" textLength="122" x="26" y="126.2339">_showOptionDialog_()</text><polygon fill="#FFFF44" points="17,131.7305,21,135.7305,17,139.7305,13,135.7305" style="stroke: #B38D22; stroke-width: 1.0;"/><text fill="#000000" font-family="sans-serif" font-size="11" lengthAdjust="spacingAndGlyphs" textLength="314" x="26" y="139.0386">_addWidget_(widgetType : String, widgetMenu : QMenu)</text><ellipse cx="17" cy="149.5352" fill="#84BE84" rx="3" ry="3" style="stroke: #038048; stroke-width: 1.0;"/><text fill="#000000" font-family="sans-serif" font-size="11" lengthAdjust="spacingAndGlyphs" textLength="363" x="26" y="151.8433">createPySumoWidget(widgetType : String, widgetMenu : QMenu)</text><ellipse cx="17" cy="162.3398" fill="#84BE84" rx="3" ry="3" style="stroke: #038048; stroke-width: 1.0;"/><text fill="#000000" font-family="sans-serif" font-size="11" lengthAdjust="spacingAndGlyphs" textLength="269" x="26" y="164.6479">addDeleteWidgetAction(widget : PySUMOWidget)</text><ellipse cx="17" cy="175.1445" fill="#84BE84" rx="3" ry="3" style="stroke: #038048; stroke-width: 1.0;"/><text fill="#000000" font-family="sans-serif" font-size="11" lengthAdjust="spacingAndGlyphs" textLength="467" x="26" y="177.4526">addOrRestoreWidget(widget : PySUMOWidget, menu : QMenu, directAdd : Boolean)</text><ellipse cx="17" cy="187.9492" fill="#84BE84" rx="3" ry="3" style="stroke: #038048; stroke-width: 1.0;"/><text fill="#000000" font-family="sans-serif" font-size="11" lengthAdjust="spacingAndGlyphs" textLength="152" x="26" y="190.2573">closeEvent(event : QEvent)</text><ellipse cx="17" cy="200.7539" fill="#84BE84" rx="3" ry="3" style="stroke: #038048; stroke-width: 1.0;"/><text fill="#000000" font-family="sans-serif" font-size="11" lengthAdjust="spacingAndGlyphs" textLength="101" x="26" y="203.062">createStatusBar()</text><ellipse cx="17" cy="213.5586" fill="#84BE84" rx="3" ry="3" style="stroke: #038048; stroke-width: 1.0;"/><text fill="#000000" font-family="sans-serif" font-size="11" lengthAdjust="spacingAndGlyphs" textLength="140" x="26" y="215.8667">setupStatusConnection()</text><ellipse cx="17" cy="226.3633" fill="#84BE84" rx="3" ry="3" style="stroke: #038048; stroke-width: 1.0;"/><text fill="#000000" font-family="sans-serif" font-size="11" lengthAdjust="spacingAndGlyphs" textLength="105" x="26" y="228.6714">displayLog(socket)</text><polygon fill="#FFFF44" points="17,234.168,21,238.168,17,242.168,13,238.168" style="stroke: #B38D22; stroke-width: 1.0;"/><text fill="#000000" font-family="sans-serif" font-size="11" lengthAdjust="spacingAndGlyphs" textLength="250" x="26" y="241.4761">_updateStatusbar_(wrappedWidget : Widget)</text><polygon fill="#FFFF44" points="17,246.9727,21,250.9727,17,254.9727,13,250.9727" style="stroke: #B38D22; stroke-width: 1.0;"/><text fill="#000000" font-family="sans-serif" font-size="11" lengthAdjust="spacingAndGlyphs" textLength="225" x="26" y="254.2808">_deleteWidget_(widget : PySUMOWidget)</text><ellipse cx="17" cy="264.7773" fill="#84BE84" rx="3" ry="3" style="stroke: #038048; stroke-width: 1.0;"/><text fill="#000000" font-family="sans-serif" font-size="11" lengthAdjust="spacingAndGlyphs" textLength="222" x="26" y="267.0854">connectWidget(widget : PySUMOWidget)</text><ellipse cx="17" cy="277.582" fill="#84BE84" rx="3" ry="3" style="stroke: #038048; stroke-width: 1.0;"/><text fill="#000000" font-family="sans-serif" font-size="11" lengthAdjust="spacingAndGlyphs" textLength="292" x="26" y="279.8901">disconnectWidget(widget : PySUMOWidget, callback)</text><ellipse cx="17" cy="290.3867" fill="#84BE84" rx="3" ry="3" style="stroke: #038048; stroke-width: 1.0;"/><text fill="#000000" font-family="sans-serif" font-size="11" lengthAdjust="spacingAndGlyphs" textLength="129" x="26" y="292.6948">getDefaultOutputPath()</text><polygon fill="#FFFF44" points="17,298.1914,21,302.1914,17,306.1914,13,302.1914" style="stroke: #B38D22; stroke-width: 1.0;"/><text fill="#000000" font-family="sans-serif" font-size="11" lengthAdjust="spacingAndGlyphs" textLength="93" x="26" y="305.4995">_newOntology_()</text><polygon fill="#FFFF44" points="17,310.9961,21,314.9961,17,318.9961,13,314.9961" style="stroke: #B38D22; stroke-width: 1.0;"/><text fill="#000000" font-family="sans-serif" font-size="11" lengthAdjust="spacingAndGlyphs" textLength="127" x="26" y="318.3042">_openLocalOntology_()</text><polygon fill="#FFFF44" points="17,323.8008,21,327.8008,17,331.8008,13,327.8008" style="stroke: #B38D22; stroke-width: 1.0;"/><text fill="#000000" font-family="sans-serif" font-size="11" lengthAdjust="spacingAndGlyphs" textLength="141" x="26" y="331.1089">_openRemoteOntology_()</text><ellipse cx="17" cy="341.6055" fill="#84BE84" rx="3" ry="3" style="stroke: #038048; stroke-width: 1.0;"/><text fill="#000000" font-family="sans-serif" font-size="11" lengthAdjust="spacingAndGlyphs" textLength="308" x="26" y="343.9136">addOntology(ontology : Ontology, newversion : String)</text><ellipse cx="17" cy="354.4102" fill="#84BE84" rx="3" ry="3" style="stroke: #038048; stroke-width: 1.0;"/><text fill="#000000" font-family="sans-serif" font-size="11" lengthAdjust="spacingAndGlyphs" textLength="234" x="26" y="356.7183">notifyOntologyAdded(ontology : Ontology)</text><polygon fill="#FFFF44" points="17,362.2148,21,366.2148,17,370.2148,13,366.2148" style="stroke: #B38D22; stroke-width: 1.0;"/><text fill="#000000" font-family="sans-serif" font-size="11" lengthAdjust="spacingAndGlyphs" textLength="189" x="26" y="369.5229">_ClearRecentOntologiesHistory_()</text><polygon fill="#FFFF44" points="17,375.0195,21,379.0195,17,383.0195,13,379.0195" style="stroke: #B38D22; stroke-width: 1.0;"/><text fill="#000000" font-family="sans-serif" font-size="11" lengthAdjust="spacingAndGlyphs" textLength="352" x="26" y="382.3276">_deleteOntology_(ontology : Ontology, ontologyMenu : QMenu)</text><polygon fill="#FFFF44" points="17,387.8242,21,391.8242,17,395.8242,13,391.8242" style="stroke: #B38D22; stroke-width: 1.0;"/><text fill="#000000" font-family="sans-serif" font-size="11" lengthAdjust="spacingAndGlyphs" textLength="219" x="26" y="395.1323">_updateOntology_(ontology : Ontology)</text><polygon fill="#FFFF44" points="17,400.6289,21,404.6289,17,408.6289,13,404.6289" style="stroke: #B38D22; stroke-width: 1.0;"/><text fill="#000000" font-family="sans-serif" font-size="11" lengthAdjust="spacingAndGlyphs" textLength="351" x="26" y="407.937">_revertOntology_(ontology : Ontology, ontologyMenu : QMenu)</text><polygon fill="#FFFF44" points="17,413.4336,21,417.4336,17,421.4336,13,417.4336" style="stroke: #B38D22; stroke-width: 1.0;"/><text fill="#000000" font-family="sans-serif" font-size="11" lengthAdjust="spacingAndGlyphs" textLength="269" x="26" y="420.7417">_showOntologyProperties_(ontology : Ontology)</text><polygon fill="#FFFF44" points="17,426.2383,21,430.2383,17,434.2383,13,430.2383" style="stroke: #B38D22; stroke-width: 1.0;"/><text fill="#000000" font-family="sans-serif" font-size="11" lengthAdjust="spacingAndGlyphs" textLength="341" x="26" y="433.5464">_closeOntology(ontology : Ontology, ontologyMenu : QMenu)</text></g></svg>