<?xml version="1.0" encoding="UTF-8" standalone="yes"?><svg xmlns="http://www.w3.org/2000/svg" xmlns:xlink="http://www.w3.org/1999/xlink" height="180pt" style="width:751px;height:180px;" version="1.1" viewBox="0 0 751 180" width="751pt"><defs><filter height="300%" id="f1" width="300%" x="-1" y="-1"><feGaussianBlur result="blurOut" stdDeviation="2.0"/><feColorMatrix in="blurOut" result="blurOut2" type="matrix" values="0 0 0 0 0 0 0 0 0 0 0 0 0 0 0 0 0 0 .4 0"/><feOffset dx="4.0" dy="4.0" in="blurOut2" result="blurOut3"/><feBlend in="SourceGraphic" in2="blurOut3" mode="normal"/></filter></defs><g><rect fill="#FEFECE" filter="url(#f1)" height="163.2422" style="stroke: #A80036; stroke-width: 1.5;" width="736" x="6" y="8"/><ellipse cx="347.25" cy="24" fill="#ADD1B2" rx="11" ry="11" style="stroke: #A80036; stroke-width: 1.0;"/><path d="M350.2188,29.6406 Q349.6406,29.9375 349,30.0859 Q348.3594,30.2344 347.6563,30.2344 Q345.1563,30.2344 343.8359,28.5859 Q342.5156,26.9375 342.5156,23.8125 Q342.5156,20.6875 343.8359,19.0313 Q345.1563,17.375 347.6563,17.375 Q348.3594,17.375 349.0078,17.5313 Q349.6563,17.6875 350.2188,17.9844 L350.2188,20.7031 Q349.5938,20.125 349,19.8516 Q348.4063,19.5781 347.7813,19.5781 Q346.4375,19.5781 345.75,20.6484 Q345.0625,21.7188 345.0625,23.8125 Q345.0625,25.9063 345.75,26.9766 Q346.4375,28.0469 347.7813,28.0469 Q348.4063,28.0469 349,27.7734 Q349.5938,27.5 350.2188,26.9219 L350.2188,29.6406 Z "/><text fill="#000000" font-family="sans-serif" font-size="12" lengthAdjust="spacingAndGlyphs" textLength="45" x="367.75" y="28.1543">InfoLog</text><line style="stroke: #A80036; stroke-width: 1.5;" x1="7" x2="741" y1="40" y2="40"/><rect fill="none" height="6" style="stroke: #C82930; stroke-width: 1.0;" width="6" x="14" y="48.9023"/><text fill="#000000" font-family="sans-serif" font-size="11" lengthAdjust="spacingAndGlyphs" textLength="139" x="26" y="54.2104">default_log_path : String</text><rect fill="none" height="6" style="stroke: #C82930; stroke-width: 1.0;" width="6" x="14" y="61.707"/><text fill="#000000" font-family="sans-serif" font-size="11" lengthAdjust="spacingAndGlyphs" textLength="159" x="26" y="67.0151">default_socket_path : String</text><rect fill="none" height="6" style="stroke: #C82930; stroke-width: 1.0;" width="6" x="14" y="74.5117"/><text fill="#000000" font-family="sans-serif" font-size="11" lengthAdjust="spacingAndGlyphs" textLength="95" x="26" y="79.8198">filename : String</text><rect fill="none" height="6" style="stroke: #C82930; stroke-width: 1.0;" width="6" x="14" y="87.3164"/><text fill="#000000" font-family="sans-serif" font-size="11" lengthAdjust="spacingAndGlyphs" textLength="83" x="26" y="92.6245">socket : String</text><rect fill="none" height="6" style="stroke: #C82930; stroke-width: 1.0;" width="6" x="14" y="100.1211"/><text fill="#000000" font-family="sans-serif" font-size="11" lengthAdjust="spacingAndGlyphs" textLength="113" x="26" y="105.4292">root_logger : logger</text><rect fill="none" height="6" style="stroke: #C82930; stroke-width: 1.0;" width="6" x="14" y="112.9258"/><text fill="#000000" font-family="sans-serif" font-size="11" lengthAdjust="spacingAndGlyphs" textLength="174" x="26" y="118.2339">f_handler : RotatingFileHandler</text><rect fill="none" height="6" style="stroke: #C82930; stroke-width: 1.0;" width="6" x="14" y="125.7305"/><text fill="#000000" font-family="sans-serif" font-size="11" lengthAdjust="spacingAndGlyphs" textLength="150" x="26" y="131.0386">s_handler : SocketHandler</text><line style="stroke: #A80036; stroke-width: 1.5;" x1="7" x2="741" y1="137.6328" y2="137.6328"/><ellipse cx="17" cy="149.5352" fill="#84BE84" rx="3" ry="3" style="stroke: #038048; stroke-width: 1.0;"/><text fill="#000000" font-family="sans-serif" font-size="11" lengthAdjust="spacingAndGlyphs" textLength="710" x="26" y="151.8433">__init__(loglevel="WARNING" : String, filename=default_log_path : String, socket_path=default_socket_path : String) : InfoLog</text><ellipse cx="17" cy="162.3398" fill="#84BE84" rx="3" ry="3" style="stroke: #038048; stroke-width: 1.0;"/><text fill="#000000" font-family="sans-serif" font-size="11" lengthAdjust="spacingAndGlyphs" textLength="127" x="26" y="164.6479">set_loglevel(level : int)</text></g></svg>