<?xml version="1.0" encoding="UTF-8" standalone="yes"?><svg xmlns="http://www.w3.org/2000/svg" xmlns:xlink="http://www.w3.org/1999/xlink" height="390pt" style="width:382px;height:390px;" version="1.1" viewBox="0 0 382 390" width="382pt"><defs><filter height="300%" id="f1" width="300%" x="-1" y="-1"><feGaussianBlur result="blurOut" stdDeviation="2.0"/><feColorMatrix in="blurOut" result="blurOut2" type="matrix" values="0 0 0 0 0 0 0 0 0 0 0 0 0 0 0 0 0 0 .4 0"/><feOffset dx="4.0" dy="4.0" in="blurOut2" result="blurOut3"/><feBlend in="SourceGraphic" in2="blurOut3" mode="normal"/></filter></defs><g><rect fill="#FEFECE" filter="url(#f1)" height="99.2188" style="stroke: #A80036; stroke-width: 1.5;" width="186" x="96.5" y="282"/><ellipse cx="161.75" cy="298" fill="#ADD1B2" rx="11" ry="11" style="stroke: #A80036; stroke-width: 1.0;"/><path d="M164.7188,303.6406 Q164.1406,303.9375 163.5,304.0859 Q162.8594,304.2344 162.1563,304.2344 Q159.6563,304.2344 158.3359,302.5859 Q157.0156,300.9375 157.0156,297.8125 Q157.0156,294.6875 158.3359,293.0313 Q159.6563,291.375 162.1563,291.375 Q162.8594,291.375 163.5078,291.5313 Q164.1563,291.6875 164.7188,291.9844 L164.7188,294.7031 Q164.0938,294.125 163.5,293.8516 Q162.9063,293.5781 162.2813,293.5781 Q160.9375,293.5781 160.25,294.6484 Q159.5625,295.7188 159.5625,297.8125 Q159.5625,299.9063 160.25,300.9766 Q160.9375,302.0469 162.2813,302.0469 Q162.9063,302.0469 163.5,301.7734 Q164.0938,301.5 164.7188,300.9219 L164.7188,303.6406 Z "/><text fill="#000000" font-family="sans-serif" font-size="12" lengthAdjust="spacingAndGlyphs" textLength="47" x="182.25" y="302.1543">QtNode</text><line style="stroke: #A80036; stroke-width: 1.5;" x1="97.5" x2="281.5" y1="314" y2="314"/><line style="stroke: #A80036; stroke-width: 1.5;" x1="97.5" x2="281.5" y1="322" y2="322"/><text fill="#000000" font-family="sans-serif" font-size="11" lengthAdjust="spacingAndGlyphs" textLength="77" x="102.5" y="336.2104">setCallback(f)</text><text fill="#000000" font-family="sans-serif" font-size="11" lengthAdjust="spacingAndGlyphs" textLength="83" x="102.5" y="349.0151">setNode(node)</text><text fill="#000000" font-family="sans-serif" font-size="11" lengthAdjust="spacingAndGlyphs" textLength="168" x="102.5" y="361.8198">itemChange(itemChange, val)</text><text fill="#000000" font-family="sans-serif" font-size="11" lengthAdjust="spacingAndGlyphs" textLength="174" x="102.5" y="374.6245">mouseDoubleClickEvent(event)</text><rect fill="#FEFECE" filter="url(#f1)" height="214.4609" style="stroke: #A80036; stroke-width: 1.5;" width="367" x="6" y="8"/><ellipse cx="144.75" cy="24" fill="#ADD1B2" rx="11" ry="11" style="stroke: #A80036; stroke-width: 1.0;"/><path d="M147.7188,29.6406 Q147.1406,29.9375 146.5,30.0859 Q145.8594,30.2344 145.1563,30.2344 Q142.6563,30.2344 141.3359,28.5859 Q140.0156,26.9375 140.0156,23.8125 Q140.0156,20.6875 141.3359,19.0313 Q142.6563,17.375 145.1563,17.375 Q145.8594,17.375 146.5078,17.5313 Q147.1563,17.6875 147.7188,17.9844 L147.7188,20.7031 Q147.0938,20.125 146.5,19.8516 Q145.9063,19.5781 145.2813,19.5781 Q143.9375,19.5781 143.25,20.6484 Q142.5625,21.7188 142.5625,23.8125 Q142.5625,25.9063 143.25,26.9766 Q143.9375,28.0469 145.2813,28.0469 Q145.9063,28.0469 146.5,27.7734 Q147.0938,27.5 147.7188,26.9219 L147.7188,29.6406 Z "/><text fill="#000000" font-family="sans-serif" font-size="12" lengthAdjust="spacingAndGlyphs" textLength="81" x="165.25" y="28.1543">GraphWidget</text><line style="stroke: #A80036; stroke-width: 1.5;" x1="7" x2="372" y1="40" y2="40"/><line style="stroke: #A80036; stroke-width: 1.5;" x1="7" x2="372" y1="48" y2="48"/><text fill="#000000" font-family="sans-serif" font-size="11" lengthAdjust="spacingAndGlyphs" textLength="50" x="12" y="62.2104">refresh()</text><text fill="#000000" font-family="sans-serif" font-size="11" lengthAdjust="spacingAndGlyphs" textLength="136" x="12" y="75.0151">_updateActiveOntology()</text><text fill="#000000" font-family="sans-serif" font-size="11" lengthAdjust="spacingAndGlyphs" textLength="115" x="12" y="87.8198">searchNode(search)</text><text fill="#000000" font-family="sans-serif" font-size="11" lengthAdjust="spacingAndGlyphs" textLength="109" x="12" y="100.6245">addRelation(qnode)</text><text fill="#000000" font-family="sans-serif" font-size="11" lengthAdjust="spacingAndGlyphs" textLength="96" x="12" y="113.4292">changeScale(val)</text><text fill="#000000" font-family="sans-serif" font-size="11" lengthAdjust="spacingAndGlyphs" textLength="64" x="12" y="126.2339">renewplot()</text><text fill="#000000" font-family="sans-serif" font-size="11" lengthAdjust="spacingAndGlyphs" textLength="29" x="12" y="139.0386">plot()</text><text fill="#000000" font-family="sans-serif" font-size="11" lengthAdjust="spacingAndGlyphs" textLength="355" x="12" y="151.8433">createQtNode(node, posx, posy, color = QColor(255,150,150))</text><text fill="#000000" font-family="sans-serif" font-size="11" lengthAdjust="spacingAndGlyphs" textLength="55" x="12" y="164.6479">initMenu()</text><text fill="#000000" font-family="sans-serif" font-size="11" lengthAdjust="spacingAndGlyphs" textLength="132" x="12" y="177.4526">showContextMenu(pos)</text><text fill="#000000" font-family="sans-serif" font-size="11" lengthAdjust="spacingAndGlyphs" textLength="56" x="12" y="190.2573">newRoot()</text><text fill="#000000" font-family="sans-serif" font-size="11" lengthAdjust="spacingAndGlyphs" textLength="71" x="12" y="203.062">newVariant()</text><text fill="#000000" font-family="sans-serif" font-size="11" lengthAdjust="spacingAndGlyphs" textLength="266" x="12" y="215.8667">createGV(variant='instance', r=None, d=None)</text><path d="M189.5,222.307 C189.5,243.166 189.5,264.072 189.5,281.8696 " fill="none" style="stroke: #A80036; stroke-width: 1.0;"/></g></svg>