<?xml version="1.0" encoding="UTF-8" standalone="yes"?><svg xmlns="http://www.w3.org/2000/svg" xmlns:xlink="http://www.w3.org/1999/xlink" height="703pt" style="width:500px;height:703px;" version="1.1" viewBox="0 0 500 703" width="500pt"><defs><filter height="300%" id="f1" width="300%" x="-1" y="-1"><feGaussianBlur result="blurOut" stdDeviation="2.0"/><feColorMatrix in="blurOut" result="blurOut2" type="matrix" values="0 0 0 0 0 0 0 0 0 0 0 0 0 0 0 0 0 0 .4 0"/><feOffset dx="4.0" dy="4.0" in="blurOut2" result="blurOut3"/><feBlend in="SourceGraphic" in2="blurOut3" mode="normal"/></filter></defs><g><rect fill="#FEFECE" filter="url(#f1)" height="329.7031" style="stroke: #A80036; stroke-width: 1.5;" width="219" x="185.5" y="8"/><ellipse cx="259.25" cy="24" fill="#ADD1B2" rx="11" ry="11" style="stroke: #A80036; stroke-width: 1.0;"/><path d="M262.2188,29.6406 Q261.6406,29.9375 261,30.0859 Q260.3594,30.2344 259.6563,30.2344 Q257.1563,30.2344 255.8359,28.5859 Q254.5156,26.9375 254.5156,23.8125 Q254.5156,20.6875 255.8359,19.0313 Q257.1563,17.375 259.6563,17.375 Q260.3594,17.375 261.0078,17.5313 Q261.6563,17.6875 262.2188,17.9844 L262.2188,20.7031 Q261.5938,20.125 261,19.8516 Q260.4063,19.5781 259.7813,19.5781 Q258.4375,19.5781 257.75,20.6484 Q257.0625,21.7188 257.0625,23.8125 Q257.0625,25.9063 257.75,26.9766 Q258.4375,28.0469 259.7813,28.0469 Q260.4063,28.0469 261,27.7734 Q261.5938,27.5 262.2188,26.9219 L262.2188,29.6406 Z "/><text fill="#000000" font-family="sans-serif" font-size="12" lengthAdjust="spacingAndGlyphs" textLength="63" x="279.75" y="28.1543">TextEditor</text><line style="stroke: #A80036; stroke-width: 1.5;" x1="186.5" x2="403.5" y1="40" y2="40"/><line style="stroke: #A80036; stroke-width: 1.5;" x1="186.5" x2="403.5" y1="48" y2="48"/><text fill="#000000" font-family="sans-serif" font-size="11" lengthAdjust="spacingAndGlyphs" textLength="119" x="191.5" y="62.2104">__init__(mainwindow)</text><text fill="#000000" font-family="sans-serif" font-size="11" lengthAdjust="spacingAndGlyphs" textLength="100" x="191.5" y="75.0151">setTextChanged()</text><text fill="#000000" font-family="sans-serif" font-size="11" lengthAdjust="spacingAndGlyphs" textLength="96" x="191.5" y="87.8198">_initNumberBar()</text><text fill="#000000" font-family="sans-serif" font-size="11" lengthAdjust="spacingAndGlyphs" textLength="150" x="191.5" y="100.6245">_updateOntologySelector()</text><text fill="#000000" font-family="sans-serif" font-size="11" lengthAdjust="spacingAndGlyphs" textLength="95" x="191.5" y="113.4292">_hideLines(lines)</text><text fill="#000000" font-family="sans-serif" font-size="11" lengthAdjust="spacingAndGlyphs" textLength="101" x="191.5" y="126.2339">_showLines(lines)</text><text fill="#000000" font-family="sans-serif" font-size="11" lengthAdjust="spacingAndGlyphs" textLength="70" x="191.5" y="139.0386">_zoomOut_()</text><text fill="#000000" font-family="sans-serif" font-size="11" lengthAdjust="spacingAndGlyphs" textLength="60" x="191.5" y="151.8433">_zoomIn_()</text><text fill="#000000" font-family="sans-serif" font-size="11" lengthAdjust="spacingAndGlyphs" textLength="200" x="191.5" y="164.6479">showOtherOntology(ontologyname)</text><text fill="#000000" font-family="sans-serif" font-size="11" lengthAdjust="spacingAndGlyphs" textLength="151" x="191.5" y="177.4526">expandIfBracketRemoved()</text><text fill="#000000" font-family="sans-serif" font-size="11" lengthAdjust="spacingAndGlyphs" textLength="80" x="191.5" y="190.2573">increaseSize()</text><text fill="#000000" font-family="sans-serif" font-size="11" lengthAdjust="spacingAndGlyphs" textLength="84" x="191.5" y="203.062">decreaseSize()</text><text fill="#000000" font-family="sans-serif" font-size="11" lengthAdjust="spacingAndGlyphs" textLength="62" x="191.5" y="215.8667">expandAll()</text><text fill="#000000" font-family="sans-serif" font-size="11" lengthAdjust="spacingAndGlyphs" textLength="45" x="191.5" y="228.6714">hideAll()</text><text fill="#000000" font-family="sans-serif" font-size="11" lengthAdjust="spacingAndGlyphs" textLength="100" x="191.5" y="241.4761">getLayoutWidget()</text><text fill="#000000" font-family="sans-serif" font-size="11" lengthAdjust="spacingAndGlyphs" textLength="207" x="191.5" y="254.2808">numberbarPaint(number_bar, event)</text><text fill="#000000" font-family="sans-serif" font-size="11" lengthAdjust="spacingAndGlyphs" textLength="102" x="191.5" y="267.0854">initAutocomplete()</text><text fill="#000000" font-family="sans-serif" font-size="11" lengthAdjust="spacingAndGlyphs" textLength="111" x="191.5" y="279.8901">searchCompletion()</text><text fill="#000000" font-family="sans-serif" font-size="11" lengthAdjust="spacingAndGlyphs" textLength="109" x="191.5" y="292.6948">toggleVisibility(line)</text><text fill="#000000" font-family="sans-serif" font-size="11" lengthAdjust="spacingAndGlyphs" textLength="81" x="191.5" y="305.4995">hideFrom(line)</text><text fill="#000000" font-family="sans-serif" font-size="11" lengthAdjust="spacingAndGlyphs" textLength="167" x="191.5" y="318.3042">insertCompletion(completion)</text><text fill="#000000" font-family="sans-serif" font-size="11" lengthAdjust="spacingAndGlyphs" textLength="50" x="191.5" y="331.1089">commit()</text><rect fill="#FEFECE" filter="url(#f1)" height="124.8281" style="stroke: #A80036; stroke-width: 1.5;" width="378" x="6" y="570"/><ellipse cx="120.25" cy="586" fill="#ADD1B2" rx="11" ry="11" style="stroke: #A80036; stroke-width: 1.0;"/><path d="M123.2188,591.6406 Q122.6406,591.9375 122,592.0859 Q121.3594,592.2344 120.6563,592.2344 Q118.1563,592.2344 116.8359,590.5859 Q115.5156,588.9375 115.5156,585.8125 Q115.5156,582.6875 116.8359,581.0313 Q118.1563,579.375 120.6563,579.375 Q121.3594,579.375 122.0078,579.5313 Q122.6563,579.6875 123.2188,579.9844 L123.2188,582.7031 Q122.5938,582.125 122,581.8516 Q121.4063,581.5781 120.7813,581.5781 Q119.4375,581.5781 118.75,582.6484 Q118.0625,583.7188 118.0625,585.8125 Q118.0625,587.9063 118.75,588.9766 Q119.4375,590.0469 120.7813,590.0469 Q121.4063,590.0469 122,589.7734 Q122.5938,589.5 123.2188,588.9219 L123.2188,591.6406 Z "/><text fill="#000000" font-family="sans-serif" font-size="12" lengthAdjust="spacingAndGlyphs" textLength="141" x="140.75" y="590.1543">SyntaxHighlightSetting</text><line style="stroke: #A80036; stroke-width: 1.5;" x1="7" x2="383" y1="602" y2="602"/><line style="stroke: #A80036; stroke-width: 1.5;" x1="7" x2="383" y1="610" y2="610"/><text fill="#000000" font-family="sans-serif" font-size="11" lengthAdjust="spacingAndGlyphs" textLength="366" x="12" y="624.2104">__init__( expression, font_weight, font_color, expression_end='')</text><text fill="#000000" font-family="sans-serif" font-size="11" lengthAdjust="spacingAndGlyphs" textLength="84" x="12" y="637.0151">createFormat()</text><text fill="#000000" font-family="sans-serif" font-size="11" lengthAdjust="spacingAndGlyphs" textLength="70" x="12" y="649.8198">get_format()</text><text fill="#000000" font-family="sans-serif" font-size="11" lengthAdjust="spacingAndGlyphs" textLength="64" x="12" y="662.6245">getValues()</text><text fill="#000000" font-family="sans-serif" font-size="11" lengthAdjust="spacingAndGlyphs" textLength="55" x="12" y="675.4292">serialize()</text><text fill="#000000" font-family="sans-serif" font-size="11" lengthAdjust="spacingAndGlyphs" textLength="106" x="12" y="688.2339">deserialize( string)</text><rect fill="#FEFECE" filter="url(#f1)" height="73.6094" style="stroke: #A80036; stroke-width: 1.5;" width="141" x="124.5" y="417"/><ellipse cx="139.5" cy="433" fill="#ADD1B2" rx="11" ry="11" style="stroke: #A80036; stroke-width: 1.0;"/><path d="M142.4688,438.6406 Q141.8906,438.9375 141.25,439.0859 Q140.6094,439.2344 139.9063,439.2344 Q137.4063,439.2344 136.0859,437.5859 Q134.7656,435.9375 134.7656,432.8125 Q134.7656,429.6875 136.0859,428.0313 Q137.4063,426.375 139.9063,426.375 Q140.6094,426.375 141.2578,426.5313 Q141.9063,426.6875 142.4688,426.9844 L142.4688,429.7031 Q141.8438,429.125 141.25,428.8516 Q140.6563,428.5781 140.0313,428.5781 Q138.6875,428.5781 138,429.6484 Q137.3125,430.7188 137.3125,432.8125 Q137.3125,434.9063 138,435.9766 Q138.6875,437.0469 140.0313,437.0469 Q140.6563,437.0469 141.25,436.7734 Q141.8438,436.5 142.4688,435.9219 L142.4688,438.6406 Z "/><text fill="#000000" font-family="sans-serif" font-size="12" lengthAdjust="spacingAndGlyphs" textLength="109" x="153.5" y="437.1543">SyntaxHighlighter</text><line style="stroke: #A80036; stroke-width: 1.5;" x1="125.5" x2="264.5" y1="449" y2="449"/><line style="stroke: #A80036; stroke-width: 1.5;" x1="125.5" x2="264.5" y1="457" y2="457"/><text fill="#000000" font-family="sans-serif" font-size="11" lengthAdjust="spacingAndGlyphs" textLength="109" x="130.5" y="471.2104">__init__( document)</text><text fill="#000000" font-family="sans-serif" font-size="11" lengthAdjust="spacingAndGlyphs" textLength="111" x="130.5" y="484.0151">highlightBlock( text)</text><rect fill="#FEFECE" filter="url(#f1)" height="112.0234" style="stroke: #A80036; stroke-width: 1.5;" width="190" x="301" y="398"/><ellipse cx="356.75" cy="414" fill="#ADD1B2" rx="11" ry="11" style="stroke: #A80036; stroke-width: 1.0;"/><path d="M359.7188,419.6406 Q359.1406,419.9375 358.5,420.0859 Q357.8594,420.2344 357.1563,420.2344 Q354.6563,420.2344 353.3359,418.5859 Q352.0156,416.9375 352.0156,413.8125 Q352.0156,410.6875 353.3359,409.0313 Q354.6563,407.375 357.1563,407.375 Q357.8594,407.375 358.5078,407.5313 Q359.1563,407.6875 359.7188,407.9844 L359.7188,410.7031 Q359.0938,410.125 358.5,409.8516 Q357.9063,409.5781 357.2813,409.5781 Q355.9375,409.5781 355.25,410.6484 Q354.5625,411.7188 354.5625,413.8125 Q354.5625,415.9063 355.25,416.9766 Q355.9375,418.0469 357.2813,418.0469 Q357.9063,418.0469 358.5,417.7734 Q359.0938,417.5 359.7188,416.9219 L359.7188,419.6406 Z "/><text fill="#000000" font-family="sans-serif" font-size="12" lengthAdjust="spacingAndGlyphs" textLength="70" x="377.25" y="418.1543">NumberBar</text><line style="stroke: #A80036; stroke-width: 1.5;" x1="302" x2="490" y1="430" y2="430"/><line style="stroke: #A80036; stroke-width: 1.5;" x1="302" x2="490" y1="438" y2="438"/><text fill="#000000" font-family="sans-serif" font-size="11" lengthAdjust="spacingAndGlyphs" textLength="74" x="307" y="452.2104">__init__( edit)</text><text fill="#000000" font-family="sans-serif" font-size="11" lengthAdjust="spacingAndGlyphs" textLength="102" x="307" y="465.0151">paintEvent( event)</text><text fill="#000000" font-family="sans-serif" font-size="11" lengthAdjust="spacingAndGlyphs" textLength="108" x="307" y="477.8198">adjustWidth( count)</text><text fill="#000000" font-family="sans-serif" font-size="11" lengthAdjust="spacingAndGlyphs" textLength="163" x="307" y="490.6245">updateContents( rect, scroll)</text><text fill="#000000" font-family="sans-serif" font-size="11" lengthAdjust="spacingAndGlyphs" textLength="178" x="307" y="503.4292">mouseDoubleClickEvent( event)</text><path d="M354.482,338.312 C360.444,354.781 366.233,370.774 371.503,385.331 " fill="none" style="stroke: #A80036; stroke-width: 1.0;"/><polygon fill="#A80036" points="375.992,397.73,377.7113,390.7269,371.9081,386.4463,370.1888,393.4494,375.992,397.73" style="stroke: #A80036; stroke-width: 1.0;"/><path d="M236.107,338.312 C227.494,362.341 219.245,385.355 212.427,404.378 " fill="none" style="stroke: #A80036; stroke-width: 1.0;"/><polygon fill="#A80036" points="207.949,416.873,213.7392,412.5749,211.9987,405.577,206.2085,409.8751,207.949,416.873" style="stroke: #A80036; stroke-width: 1.0;"/><path d="M195,491.143 C195,513.735 195,543.424 195,569.676 " fill="none" style="stroke: #A80036; stroke-width: 1.0;"/></g></svg>