<?xml version="1.0" encoding="UTF-8" standalone="yes"?><svg xmlns="http://www.w3.org/2000/svg" xmlns:xlink="http://www.w3.org/1999/xlink" height="381pt" style="width:454px;height:381px;" version="1.1" viewBox="0 0 454 381" width="454pt"><defs><filter height="300%" id="f1" width="300%" x="-1" y="-1"><feGaussianBlur result="blurOut" stdDeviation="2.0"/><feColorMatrix in="blurOut" result="blurOut2" type="matrix" values="0 0 0 0 0 0 0 0 0 0 0 0 0 0 0 0 0 0 .4 0"/><feOffset dx="4.0" dy="4.0" in="blurOut2" result="blurOut3"/><feBlend in="SourceGraphic" in2="blurOut3" mode="normal"/></filter></defs><g><rect fill="#FEFECE" filter="url(#f1)" height="163.2422" style="stroke: #A80036; stroke-width: 1.5;" width="312" x="69.5" y="8"/><ellipse cx="170.25" cy="24" fill="#ADD1B2" rx="11" ry="11" style="stroke: #A80036; stroke-width: 1.0;"/><path d="M173.2188,29.6406 Q172.6406,29.9375 172,30.0859 Q171.3594,30.2344 170.6563,30.2344 Q168.1563,30.2344 166.8359,28.5859 Q165.5156,26.9375 165.5156,23.8125 Q165.5156,20.6875 166.8359,19.0313 Q168.1563,17.375 170.6563,17.375 Q171.3594,17.375 172.0078,17.5313 Q172.6563,17.6875 173.2188,17.9844 L173.2188,20.7031 Q172.5938,20.125 172,19.8516 Q171.4063,19.5781 170.7813,19.5781 Q169.4375,19.5781 168.75,20.6484 Q168.0625,21.7188 168.0625,23.8125 Q168.0625,25.9063 168.75,26.9766 Q169.4375,28.0469 170.7813,28.0469 Q171.4063,28.0469 172,27.7734 Q172.5938,27.5 173.2188,26.9219 L173.2188,29.6406 Z "/><text fill="#000000" font-family="sans-serif" font-size="12" lengthAdjust="spacingAndGlyphs" textLength="102" x="190.75" y="28.1543">SyntaxController</text><line style="stroke: #A80036; stroke-width: 1.5;" x1="70.5" x2="380.5" y1="40" y2="40"/><rect fill="none" height="6" style="stroke: #C82930; stroke-width: 1.0;" width="6" x="77.5" y="48.9023"/><text fill="#000000" font-family="sans-serif" font-size="11" lengthAdjust="spacingAndGlyphs" textLength="117" x="89.5" y="54.2104">actionlog : ActionLog</text><rect fill="none" height="6" style="stroke: #C82930; stroke-width: 1.0;" width="6" x="77.5" y="61.707"/><text fill="#000000" font-family="sans-serif" font-size="11" lengthAdjust="spacingAndGlyphs" textLength="131" x="89.5" y="67.0151">index : IndexAbstractor</text><line style="stroke: #A80036; stroke-width: 1.5;" x1="70.5" x2="380.5" y1="73.6094" y2="73.6094"/><ellipse cx="80.5" cy="85.5117" fill="#84BE84" rx="3" ry="3" style="stroke: #038048; stroke-width: 1.0;"/><text fill="#000000" font-family="sans-serif" font-size="11" lengthAdjust="spacingAndGlyphs" textLength="286" x="89.5" y="87.8198">__init__(index : IndexAbstractor) : SyntaxController</text><ellipse cx="80.5" cy="98.3164" fill="#84BE84" rx="3" ry="3" style="stroke: #038048; stroke-width: 1.0;"/><text fill="#000000" font-family="sans-serif" font-size="11" lengthAdjust="spacingAndGlyphs" textLength="145" x="89.5" y="100.6245">parse_partial(code_block)</text><ellipse cx="80.5" cy="111.1211" fill="#84BE84" rx="3" ry="3" style="stroke: #038048; stroke-width: 1.0;"/><text fill="#000000" font-family="sans-serif" font-size="11" lengthAdjust="spacingAndGlyphs" textLength="140" x="89.5" y="113.4292">parse_patch(code_block)</text><ellipse cx="80.5" cy="123.9258" fill="#84BE84" rx="3" ry="3" style="stroke: #038048; stroke-width: 1.0;"/><text fill="#000000" font-family="sans-serif" font-size="11" lengthAdjust="spacingAndGlyphs" textLength="131" x="89.5" y="126.2339">add_ontology(ontology)</text><ellipse cx="80.5" cy="136.7305" fill="#84BE84" rx="3" ry="3" style="stroke: #038048; stroke-width: 1.0;"/><text fill="#000000" font-family="sans-serif" font-size="11" lengthAdjust="spacingAndGlyphs" textLength="153" x="89.5" y="139.0386">remove_ontology(ontology)</text><ellipse cx="80.5" cy="149.5352" fill="#84BE84" rx="3" ry="3" style="stroke: #038048; stroke-width: 1.0;"/><text fill="#000000" font-family="sans-serif" font-size="11" lengthAdjust="spacingAndGlyphs" textLength="84" x="89.5" y="151.8433">undo(ontology)</text><ellipse cx="80.5" cy="162.3398" fill="#84BE84" rx="3" ry="3" style="stroke: #038048; stroke-width: 1.0;"/><text fill="#000000" font-family="sans-serif" font-size="11" lengthAdjust="spacingAndGlyphs" textLength="82" x="89.5" y="164.6479">redo(ontology)</text><rect fill="#FEFECE" filter="url(#f1)" height="124.8281" style="stroke: #A80036; stroke-width: 1.5;" width="439" x="6" y="248"/><ellipse cx="193.75" cy="264" fill="#ADD1B2" rx="11" ry="11" style="stroke: #A80036; stroke-width: 1.0;"/><path d="M196.7188,269.6406 Q196.1406,269.9375 195.5,270.0859 Q194.8594,270.2344 194.1563,270.2344 Q191.6563,270.2344 190.3359,268.5859 Q189.0156,266.9375 189.0156,263.8125 Q189.0156,260.6875 190.3359,259.0313 Q191.6563,257.375 194.1563,257.375 Q194.8594,257.375 195.5078,257.5313 Q196.1563,257.6875 196.7188,257.9844 L196.7188,260.7031 Q196.0938,260.125 195.5,259.8516 Q194.9063,259.5781 194.2813,259.5781 Q192.9375,259.5781 192.25,260.6484 Q191.5625,261.7188 191.5625,263.8125 Q191.5625,265.9063 192.25,266.9766 Q192.9375,268.0469 194.2813,268.0469 Q194.9063,268.0469 195.5,267.7734 Q196.0938,267.5 196.7188,266.9219 L196.7188,269.6406 Z "/><text fill="#000000" font-family="sans-serif" font-size="12" lengthAdjust="spacingAndGlyphs" textLength="55" x="214.25" y="268.1543">Ontology</text><line style="stroke: #A80036; stroke-width: 1.5;" x1="7" x2="444" y1="280" y2="280"/><rect fill="none" height="6" style="stroke: #C82930; stroke-width: 1.0;" width="6" x="14" y="288.9023"/><text fill="#000000" font-family="sans-serif" font-size="11" lengthAdjust="spacingAndGlyphs" textLength="78" x="26" y="294.2104">name : String</text><rect fill="none" height="6" style="stroke: #C82930; stroke-width: 1.0;" width="6" x="14" y="301.707"/><text fill="#000000" font-family="sans-serif" font-size="11" lengthAdjust="spacingAndGlyphs" textLength="84" x="26" y="307.0151">revision : Float</text><rect fill="none" height="6" style="stroke: #C82930; stroke-width: 1.0;" width="6" x="14" y="314.5117"/><text fill="#000000" font-family="sans-serif" font-size="11" lengthAdjust="spacingAndGlyphs" textLength="71" x="26" y="319.8198">path : String</text><rect fill="none" height="6" style="stroke: #C82930; stroke-width: 1.0;" width="6" x="14" y="327.3164"/><text fill="#000000" font-family="sans-serif" font-size="11" lengthAdjust="spacingAndGlyphs" textLength="61" x="26" y="332.6245">url : String</text><rect fill="none" height="6" style="stroke: #C82930; stroke-width: 1.0;" width="6" x="14" y="340.1211"/><text fill="#000000" font-family="sans-serif" font-size="11" lengthAdjust="spacingAndGlyphs" textLength="91" x="26" y="345.4292">active : Boolean</text><line style="stroke: #A80036; stroke-width: 1.5;" x1="7" x2="444" y1="352.0234" y2="352.0234"/><ellipse cx="17" cy="363.9258" fill="#84BE84" rx="3" ry="3" style="stroke: #038048; stroke-width: 1.0;"/><text fill="#000000" font-family="sans-serif" font-size="11" lengthAdjust="spacingAndGlyphs" textLength="413" x="26" y="366.2339">__init__(path : String, name=None : String, url=None : String) : Ontology</text><path d="M225.5,171.115 C225.5,194.699 225.5,220.208 225.5,242.825 " fill="none" style="stroke: #A80036; stroke-width: 1.0;"/><polygon fill="#A80036" points="225.5,247.904,229.5,238.904,225.5,242.904,221.5,238.904,225.5,247.904" style="stroke: #A80036; stroke-width: 1.0;"/><text fill="#000000" font-family="sans-serif" font-size="13" lengthAdjust="spacingAndGlyphs" textLength="30" x="226.5" y="214.0669">uses</text><polygon fill="#000000" points="237,223.1328,240,229.1328,243,223.1328,237,223.1328" style="stroke: #000000; stroke-width: 1.0;"/></g></svg>