<?xml version="1.0" encoding="UTF-8" standalone="yes"?><svg xmlns="http://www.w3.org/2000/svg" xmlns:xlink="http://www.w3.org/1999/xlink" height="330pt" style="width:556px;height:330px;" version="1.1" viewBox="0 0 556 330" width="556pt"><defs><filter height="300%" id="f1" width="300%" x="-1" y="-1"><feGaussianBlur result="blurOut" stdDeviation="2.0"/><feColorMatrix in="blurOut" result="blurOut2" type="matrix" values="0 0 0 0 0 0 0 0 0 0 0 0 0 0 0 0 0 0 .4 0"/><feOffset dx="4.0" dy="4.0" in="blurOut2" result="blurOut3"/><feBlend in="SourceGraphic" in2="blurOut3" mode="normal"/></filter></defs><g><rect fill="#FEFECE" filter="url(#f1)" height="99.2188" style="stroke: #A80036; stroke-width: 1.5;" width="245" x="140.5" y="8"/><ellipse cx="238.25" cy="24" fill="#FF7700" rx="11" ry="11" style="stroke: #A80036; stroke-width: 1.0;"/><path d="M233.9688,17.6094 L236.8906,17.6094 L238.3594,23.0469 L239.8281,17.6094 L242.7656,17.6094 L242.7656,30 L240.6563,30 L240.6563,20.0781 L239.3438,25.5 L237.4063,25.5 L236.0781,20.0781 L236.0781,30 L233.9688,30 L233.9688,17.6094 Z "/><text fill="#000000" font-family="sans-serif" font-size="12" lengthAdjust="spacingAndGlyphs" textLength="41" x="258.75" y="28.1543">Parser</text><line style="stroke: #A80036; stroke-width: 1.5;" x1="141.5" x2="384.5" y1="40" y2="40"/><line style="stroke: #A80036; stroke-width: 1.5;" x1="141.5" x2="384.5" y1="48" y2="48"/><ellipse cx="151.5" cy="59.9023" fill="#84BE84" rx="3" ry="3" style="stroke: #038048; stroke-width: 1.0;"/><text fill="#000000" font-family="sans-serif" font-size="11" lengthAdjust="spacingAndGlyphs" textLength="219" x="160.5" y="62.2104">kifparse(Ontology, Graph=None) : AST</text><ellipse cx="151.5" cy="72.707" fill="#84BE84" rx="3" ry="3" style="stroke: #038048; stroke-width: 1.0;"/><text fill="#000000" font-family="sans-serif" font-size="11" lengthAdjust="spacingAndGlyphs" textLength="171" x="160.5" y="75.0151">astmerge((AST1, AST2)) : AST</text><ellipse cx="151.5" cy="85.5117" fill="#84BE84" rx="3" ry="3" style="stroke: #038048; stroke-width: 1.0;"/><text fill="#000000" font-family="sans-serif" font-size="11" lengthAdjust="spacingAndGlyphs" textLength="148" x="160.5" y="87.8198">kifserialize(AST, Ontology)</text><ellipse cx="151.5" cy="98.3164" fill="#84BE84" rx="3" ry="3" style="stroke: #038048; stroke-width: 1.0;"/><text fill="#000000" font-family="sans-serif" font-size="11" lengthAdjust="spacingAndGlyphs" textLength="175" x="160.5" y="100.6245">wparse(datafiles) : (File, Pos)[]</text><rect fill="#FEFECE" filter="url(#f1)" height="137.6328" style="stroke: #A80036; stroke-width: 1.5;" width="514" x="6" y="184"/><ellipse cx="197.75" cy="200" fill="#ADD1B2" rx="11" ry="11" style="stroke: #A80036; stroke-width: 1.0;"/><path d="M200.7188,205.6406 Q200.1406,205.9375 199.5,206.0859 Q198.8594,206.2344 198.1563,206.2344 Q195.6563,206.2344 194.3359,204.5859 Q193.0156,202.9375 193.0156,199.8125 Q193.0156,196.6875 194.3359,195.0313 Q195.6563,193.375 198.1563,193.375 Q198.8594,193.375 199.5078,193.5313 Q200.1563,193.6875 200.7188,193.9844 L200.7188,196.7031 Q200.0938,196.125 199.5,195.8516 Q198.9063,195.5781 198.2813,195.5781 Q196.9375,195.5781 196.25,196.6484 Q195.5625,197.7188 195.5625,199.8125 Q195.5625,201.9063 196.25,202.9766 Q196.9375,204.0469 198.2813,204.0469 Q198.9063,204.0469 199.5,203.7734 Q200.0938,203.5 200.7188,202.9219 L200.7188,205.6406 Z "/><text fill="#000000" font-family="sans-serif" font-size="12" lengthAdjust="spacingAndGlyphs" textLength="122" x="218.25" y="204.1543">AbstractSyntaxTree</text><line style="stroke: #A80036; stroke-width: 1.5;" x1="7" x2="519" y1="216" y2="216"/><rect fill="none" height="6" style="stroke: #C82930; stroke-width: 1.0;" width="6" x="14" y="224.9023"/><text fill="#000000" font-family="sans-serif" font-size="11" lengthAdjust="spacingAndGlyphs" textLength="105" x="26" y="230.2104">parent_node : AST</text><rect fill="none" height="6" style="stroke: #C82930; stroke-width: 1.0;" width="6" x="14" y="237.707"/><text fill="#000000" font-family="sans-serif" font-size="11" lengthAdjust="spacingAndGlyphs" textLength="78" x="26" y="243.0151">name : String</text><rect fill="none" height="6" style="stroke: #C82930; stroke-width: 1.0;" width="6" x="14" y="250.5117"/><text fill="#000000" font-family="sans-serif" font-size="11" lengthAdjust="spacingAndGlyphs" textLength="120" x="26" y="255.8198">element_type : Enum</text><line style="stroke: #A80036; stroke-width: 1.5;" x1="7" x2="519" y1="262.4141" y2="262.4141"/><ellipse cx="17" cy="274.3164" fill="#84BE84" rx="3" ry="3" style="stroke: #038048; stroke-width: 1.0;"/><text fill="#000000" font-family="sans-serif" font-size="11" lengthAdjust="spacingAndGlyphs" textLength="488" x="26" y="276.6245">__init__(ontology : Ontology, parent=None : AbstractSyntaxTree) : AbstractSyntaxTree</text><ellipse cx="17" cy="287.1211" fill="#84BE84" rx="3" ry="3" style="stroke: #038048; stroke-width: 1.0;"/><text fill="#000000" font-family="sans-serif" font-size="11" lengthAdjust="spacingAndGlyphs" textLength="119" x="26" y="289.4292">get_children() : AST[]</text><ellipse cx="17" cy="299.9258" fill="#84BE84" rx="3" ry="3" style="stroke: #038048; stroke-width: 1.0;"/><text fill="#000000" font-family="sans-serif" font-size="11" lengthAdjust="spacingAndGlyphs" textLength="83" x="26" y="302.2339">add_child(AST)</text><ellipse cx="17" cy="312.7305" fill="#84BE84" rx="3" ry="3" style="stroke: #038048; stroke-width: 1.0;"/><text fill="#000000" font-family="sans-serif" font-size="11" lengthAdjust="spacingAndGlyphs" textLength="105" x="26" y="315.0386">remove_child(AST)</text><path d="M263,107.328 C263,130.504 263,158.587 263,183.822 " fill="none" style="stroke: #A80036; stroke-width: 1.0;"/><text fill="#000000" font-family="sans-serif" font-size="13" lengthAdjust="spacingAndGlyphs" textLength="30" x="264" y="150.0669">uses</text><polygon fill="#000000" points="274.5,159.1328,277.5,165.1328,280.5,159.1328,274.5,159.1328" style="stroke: #000000; stroke-width: 1.0;"/><path d="M533.081,240.0685 C546.862,243.2711 555,247.5816 555,253 C555,259.9355 541.666,265.0559 520.233,268.3612 " fill="none" style="stroke: #A80036; stroke-width: 1.0;"/><polygon fill="none" points="520.233,237.6388,525.3852,242.6841,532.024,239.8687,526.8718,234.8234,520.233,237.6388" style="stroke: #A80036; stroke-width: 1.0;"/><text fill="#000000" font-family="sans-serif" font-size="13" lengthAdjust="spacingAndGlyphs" textLength="24" x="528.2259" y="234.0344">0..n</text><text fill="#000000" font-family="sans-serif" font-size="13" lengthAdjust="spacingAndGlyphs" textLength="8" x="527.9884" y="265.6689">1</text></g></svg>