<?xml version="1.0" encoding="UTF-8" standalone="yes"?><svg xmlns="http://www.w3.org/2000/svg" xmlns:xlink="http://www.w3.org/1999/xlink" height="799pt" style="width:765px;height:799px;" version="1.1" viewBox="0 0 765 799" width="765pt"><defs><filter height="300%" id="f1" width="300%" x="-1" y="-1"><feGaussianBlur result="blurOut" stdDeviation="2.0"/><feColorMatrix in="blurOut" result="blurOut2" type="matrix" values="0 0 0 0 0 0 0 0 0 0 0 0 0 0 0 0 0 0 .4 0"/><feOffset dx="4.0" dy="4.0" in="blurOut2" result="blurOut3"/><feBlend in="SourceGraphic" in2="blurOut3" mode="normal"/></filter></defs><g><text fill="#000000" font-family="sans-serif" font-size="18" lengthAdjust="spacingAndGlyphs" textLength="41" x="227.5" y="29.4531">User</text><line style="stroke: #000000; stroke-width: 2.0;" x1="10" x2="10" y1="12.7451" y2="792.6045"/><ellipse cx="244" cy="43.6982" fill="#000000" filter="url(#f1)" rx="10" ry="10" style="stroke: none; stroke-width: 1.0;"/><rect fill="#FEFECE" filter="url(#f1)" height="33.9688" rx="12.5" ry="12.5" style="stroke: #A80036; stroke-width: 1.5;" width="115" x="186.5" y="73.6982"/><text fill="#000000" font-family="sans-serif" font-size="12" lengthAdjust="spacingAndGlyphs" textLength="95" x="196.5" y="94.8369">Starts Program</text><rect fill="#FEFECE" filter="url(#f1)" height="33.9688" rx="12.5" ry="12.5" style="stroke: #A80036; stroke-width: 1.5;" width="98" x="195" y="127.667"/><text fill="#000000" font-family="sans-serif" font-size="12" lengthAdjust="spacingAndGlyphs" textLength="78" x="205" y="148.8057">Adds .kif-File</text><polygon fill="#FEFECE" filter="url(#f1)" points="199.5,181.6357,288.5,181.6357,300.5,194.4404,288.5,207.2451,199.5,207.2451,187.5,194.4404,199.5,181.6357" style="stroke: #A80036; stroke-width: 1.5;"/><text fill="#000000" font-family="sans-serif" font-size="11" lengthAdjust="spacingAndGlyphs" textLength="85" x="199.5" y="191.8462">Documentation</text><text fill="#000000" font-family="sans-serif" font-size="11" lengthAdjust="spacingAndGlyphs" textLength="74" x="199.5" y="204.6509">Widget active</text><text fill="#000000" font-family="sans-serif" font-size="11" lengthAdjust="spacingAndGlyphs" textLength="23" x="164.5" y="191.8462">true</text><text fill="#000000" font-family="sans-serif" font-size="11" lengthAdjust="spacingAndGlyphs" textLength="28" x="300.5" y="191.8462">false</text><rect fill="#FEFECE" filter="url(#f1)" height="33.9688" rx="12.5" ry="12.5" style="stroke: #A80036; stroke-width: 1.5;" width="224" x="252" y="227.2451"/><text fill="#000000" font-family="sans-serif" font-size="12" lengthAdjust="spacingAndGlyphs" textLength="204" x="262" y="248.3838">Activates Documentation Widget</text><polygon fill="#FEFECE" filter="url(#f1)" points="244,271.2139,256,283.2139,244,295.2139,232,283.2139,244,271.2139" style="stroke: #A80036; stroke-width: 1.5;"/><rect fill="#FEFECE" filter="url(#f1)" height="33.9688" rx="12.5" ry="12.5" style="stroke: #A80036; stroke-width: 1.5;" width="448" x="20" y="315.2139"/><text fill="#000000" font-family="sans-serif" font-size="12" lengthAdjust="spacingAndGlyphs" textLength="428" x="30" y="336.3525">Searches for information about a term in the Documentation Widget</text><polygon fill="#FEFECE" filter="url(#f1)" points="206,423.1514,282,423.1514,294,435.9561,282,448.7607,206,448.7607,194,435.9561,206,423.1514" style="stroke: #A80036; stroke-width: 1.5;"/><text fill="#000000" font-family="sans-serif" font-size="11" lengthAdjust="spacingAndGlyphs" textLength="76" x="206" y="433.3618">Graph Widget</text><text fill="#000000" font-family="sans-serif" font-size="11" lengthAdjust="spacingAndGlyphs" textLength="33" x="210" y="446.1665">active</text><text fill="#000000" font-family="sans-serif" font-size="11" lengthAdjust="spacingAndGlyphs" textLength="23" x="171" y="433.3618">true</text><text fill="#000000" font-family="sans-serif" font-size="11" lengthAdjust="spacingAndGlyphs" textLength="28" x="294" y="433.3618">false</text><rect fill="#FEFECE" filter="url(#f1)" height="33.9688" rx="12.5" ry="12.5" style="stroke: #A80036; stroke-width: 1.5;" width="162" x="261" y="468.7607"/><text fill="#000000" font-family="sans-serif" font-size="12" lengthAdjust="spacingAndGlyphs" textLength="142" x="271" y="489.8994">Activates GraphWidget</text><polygon fill="#FEFECE" filter="url(#f1)" points="244,512.7295,256,524.7295,244,536.7295,232,524.7295,244,512.7295" style="stroke: #A80036; stroke-width: 1.5;"/><rect fill="#FEFECE" filter="url(#f1)" height="33.9688" rx="12.5" ry="12.5" style="stroke: #A80036; stroke-width: 1.5;" width="204" x="142" y="556.7295"/><text fill="#000000" font-family="sans-serif" font-size="12" lengthAdjust="spacingAndGlyphs" textLength="184" x="152" y="577.8682">Clicks around in GraphWidget</text><rect fill="#FEFECE" filter="url(#f1)" height="33.9688" rx="12.5" ry="12.5" style="stroke: #A80036; stroke-width: 1.5;" width="57" x="215.5" y="718.6357"/><text fill="#000000" font-family="sans-serif" font-size="12" lengthAdjust="spacingAndGlyphs" textLength="37" x="225.5" y="739.7744">Saves</text><ellipse cx="244" cy="782.6045" fill="none" filter="url(#f1)" rx="10" ry="10" style="stroke: #000000; stroke-width: 1.0;"/><ellipse cx="244.5" cy="783.1045" fill="#000000" filter="url(#f1)" rx="6" ry="6" style="stroke: none; stroke-width: 1.0;"/><text fill="#000000" font-family="sans-serif" font-size="18" lengthAdjust="spacingAndGlyphs" textLength="77" x="586.5" y="29.4531">pySUMO</text><line style="stroke: #000000; stroke-width: 2.0;" x1="486" x2="486" y1="12.7451" y2="792.6045"/><rect fill="#FEFECE" filter="url(#f1)" height="33.9688" rx="12.5" ry="12.5" style="stroke: #A80036; stroke-width: 1.5;" width="258" x="496" y="369.1826"/><text fill="#000000" font-family="sans-serif" font-size="12" lengthAdjust="spacingAndGlyphs" textLength="238" x="506" y="390.3213">Searches for existing term in WordNet</text><rect fill="#FEFECE" filter="url(#f1)" height="33.9688" rx="12.5" ry="12.5" style="stroke: #A80036; stroke-width: 1.5;" width="205" x="522.5" y="610.6982"/><text fill="#000000" font-family="sans-serif" font-size="12" lengthAdjust="spacingAndGlyphs" textLength="185" x="532.5" y="631.8369">Adds relation to GraphWidget</text><rect fill="#FEFECE" filter="url(#f1)" height="33.9688" rx="12.5" ry="12.5" style="stroke: #A80036; stroke-width: 1.5;" width="168" x="541" y="664.667"/><text fill="#000000" font-family="sans-serif" font-size="12" lengthAdjust="spacingAndGlyphs" textLength="148" x="551" y="685.8057">Synchronizes TextEdtior</text><line style="stroke: #000000; stroke-width: 2.0;" x1="764" x2="764" y1="12.7451" y2="792.6045"/><line style="stroke: #A80036; stroke-width: 1.5;" x1="244" x2="244" y1="53.6982" y2="73.6982"/><polygon fill="#A80036" points="240,63.6982,244,73.6982,248,63.6982,244,67.6982" style="stroke: #A80036; stroke-width: 1.0;"/><line style="stroke: #A80036; stroke-width: 1.5;" x1="244" x2="244" y1="107.667" y2="127.667"/><polygon fill="#A80036" points="240,117.667,244,127.667,248,117.667,244,121.667" style="stroke: #A80036; stroke-width: 1.0;"/><line style="stroke: #A80036; stroke-width: 1.5;" x1="124" x2="187.5" y1="194.4404" y2="194.4404"/><line style="stroke: #A80036; stroke-width: 1.5;" x1="124" x2="124" y1="194.4404" y2="244.2295"/><polygon fill="#A80036" points="120,234.2295,124,244.2295,128,234.2295,124,238.2295" style="stroke: #A80036; stroke-width: 1.0;"/><line style="stroke: #A80036; stroke-width: 1.5;" x1="300.5" x2="364" y1="194.4404" y2="194.4404"/><line style="stroke: #A80036; stroke-width: 1.5;" x1="364" x2="364" y1="194.4404" y2="227.2451"/><polygon fill="#A80036" points="360,217.2451,364,227.2451,368,217.2451,364,221.2451" style="stroke: #A80036; stroke-width: 1.0;"/><line style="stroke: #A80036; stroke-width: 1.5;" x1="124" x2="124" y1="244.2295" y2="283.2139"/><line style="stroke: #A80036; stroke-width: 1.5;" x1="124" x2="232" y1="283.2139" y2="283.2139"/><polygon fill="#A80036" points="222,279.2139,232,283.2139,222,287.2139,226,283.2139" style="stroke: #A80036; stroke-width: 1.0;"/><line style="stroke: #A80036; stroke-width: 1.5;" x1="364" x2="364" y1="261.2139" y2="283.2139"/><line style="stroke: #A80036; stroke-width: 1.5;" x1="256" x2="364" y1="283.2139" y2="283.2139"/><polygon fill="#A80036" points="266,279.2139,256,283.2139,266,287.2139,262,283.2139" style="stroke: #A80036; stroke-width: 1.0;"/><line style="stroke: #A80036; stroke-width: 1.5;" x1="244" x2="244" y1="161.6357" y2="181.6357"/><polygon fill="#A80036" points="240,171.6357,244,181.6357,248,171.6357,244,175.6357" style="stroke: #A80036; stroke-width: 1.0;"/><line style="stroke: #A80036; stroke-width: 1.5;" x1="244" x2="244" y1="295.2139" y2="315.2139"/><polygon fill="#A80036" points="240,305.2139,244,315.2139,248,305.2139,244,309.2139" style="stroke: #A80036; stroke-width: 1.0;"/><line style="stroke: #A80036; stroke-width: 1.5;" x1="146" x2="194" y1="435.9561" y2="435.9561"/><line style="stroke: #A80036; stroke-width: 1.5;" x1="146" x2="146" y1="435.9561" y2="485.7451"/><polygon fill="#A80036" points="142,475.7451,146,485.7451,150,475.7451,146,479.7451" style="stroke: #A80036; stroke-width: 1.0;"/><line style="stroke: #A80036; stroke-width: 1.5;" x1="294" x2="342" y1="435.9561" y2="435.9561"/><line style="stroke: #A80036; stroke-width: 1.5;" x1="342" x2="342" y1="435.9561" y2="468.7607"/><polygon fill="#A80036" points="338,458.7607,342,468.7607,346,458.7607,342,462.7607" style="stroke: #A80036; stroke-width: 1.0;"/><line style="stroke: #A80036; stroke-width: 1.5;" x1="146" x2="146" y1="485.7451" y2="524.7295"/><line style="stroke: #A80036; stroke-width: 1.5;" x1="146" x2="232" y1="524.7295" y2="524.7295"/><polygon fill="#A80036" points="222,520.7295,232,524.7295,222,528.7295,226,524.7295" style="stroke: #A80036; stroke-width: 1.0;"/><line style="stroke: #A80036; stroke-width: 1.5;" x1="342" x2="342" y1="502.7295" y2="524.7295"/><line style="stroke: #A80036; stroke-width: 1.5;" x1="256" x2="342" y1="524.7295" y2="524.7295"/><polygon fill="#A80036" points="266,520.7295,256,524.7295,266,528.7295,262,524.7295" style="stroke: #A80036; stroke-width: 1.0;"/><line style="stroke: #A80036; stroke-width: 1.5;" x1="244" x2="244" y1="536.7295" y2="556.7295"/><polygon fill="#A80036" points="240,546.7295,244,556.7295,248,546.7295,244,550.7295" style="stroke: #A80036; stroke-width: 1.0;"/><line style="stroke: #A80036; stroke-width: 1.5;" x1="244" x2="244" y1="752.6045" y2="772.6045"/><polygon fill="#A80036" points="240,762.6045,244,772.6045,248,762.6045,244,766.6045" style="stroke: #A80036; stroke-width: 1.0;"/><line style="stroke: #A80036; stroke-width: 1.5;" x1="625" x2="625" y1="644.667" y2="664.667"/><polygon fill="#A80036" points="621,654.667,625,664.667,629,654.667,625,658.667" style="stroke: #A80036; stroke-width: 1.0;"/><line style="stroke: #A80036; stroke-width: 1.5;" x1="244" x2="244" y1="349.1826" y2="354.1826"/><line style="stroke: #A80036; stroke-width: 1.5;" x1="244" x2="625" y1="354.1826" y2="354.1826"/><line style="stroke: #A80036; stroke-width: 1.5;" x1="625" x2="625" y1="354.1826" y2="369.1826"/><polygon fill="#A80036" points="621,359.1826,625,369.1826,629,359.1826,625,363.1826" style="stroke: #A80036; stroke-width: 1.0;"/><line style="stroke: #A80036; stroke-width: 1.5;" x1="625" x2="625" y1="403.1514" y2="408.1514"/><line style="stroke: #A80036; stroke-width: 1.5;" x1="244" x2="625" y1="408.1514" y2="408.1514"/><line style="stroke: #A80036; stroke-width: 1.5;" x1="244" x2="244" y1="408.1514" y2="423.1514"/><polygon fill="#A80036" points="240,413.1514,244,423.1514,248,413.1514,244,417.1514" style="stroke: #A80036; stroke-width: 1.0;"/><line style="stroke: #A80036; stroke-width: 1.5;" x1="244" x2="244" y1="590.6982" y2="595.6982"/><line style="stroke: #A80036; stroke-width: 1.5;" x1="244" x2="625" y1="595.6982" y2="595.6982"/><line style="stroke: #A80036; stroke-width: 1.5;" x1="625" x2="625" y1="595.6982" y2="610.6982"/><polygon fill="#A80036" points="621,600.6982,625,610.6982,629,600.6982,625,604.6982" style="stroke: #A80036; stroke-width: 1.0;"/><line style="stroke: #A80036; stroke-width: 1.5;" x1="625" x2="625" y1="698.6357" y2="703.6357"/><line style="stroke: #A80036; stroke-width: 1.5;" x1="244" x2="625" y1="703.6357" y2="703.6357"/><line style="stroke: #A80036; stroke-width: 1.5;" x1="244" x2="244" y1="703.6357" y2="718.6357"/><polygon fill="#A80036" points="240,708.6357,244,718.6357,248,708.6357,244,712.6357" style="stroke: #A80036; stroke-width: 1.0;"/></g></svg>