<?xml version="1.0" encoding="UTF-8" standalone="yes"?><svg xmlns="http://www.w3.org/2000/svg" xmlns:xlink="http://www.w3.org/1999/xlink" height="103pt" style="width:285px;height:103px;" version="1.1" viewBox="0 0 285 103" width="285pt"><defs><filter height="300%" id="f1" width="300%" x="-1" y="-1"><feGaussianBlur result="blurOut" stdDeviation="2.0"/><feColorMatrix in="blurOut" result="blurOut2" type="matrix" values="0 0 0 0 0 0 0 0 0 0 0 0 0 0 0 0 0 0 .4 0"/><feOffset dx="4.0" dy="4.0" in="blurOut2" result="blurOut3"/><feBlend in="SourceGraphic" in2="blurOut3" mode="normal"/></filter></defs><g><rect fill="#FEFECE" filter="url(#f1)" height="86.4141" style="stroke: #A80036; stroke-width: 1.5;" width="270" x="6" y="8"/><ellipse cx="111.25" cy="24" fill="#ADD1B2" rx="11" ry="11" style="stroke: #A80036; stroke-width: 1.0;"/><path d="M114.2188,29.6406 Q113.6406,29.9375 113,30.0859 Q112.3594,30.2344 111.6563,30.2344 Q109.1563,30.2344 107.8359,28.5859 Q106.5156,26.9375 106.5156,23.8125 Q106.5156,20.6875 107.8359,19.0313 Q109.1563,17.375 111.6563,17.375 Q112.3594,17.375 113.0078,17.5313 Q113.6563,17.6875 114.2188,17.9844 L114.2188,20.7031 Q113.5938,20.125 113,19.8516 Q112.4063,19.5781 111.7813,19.5781 Q110.4375,19.5781 109.75,20.6484 Q109.0625,21.7188 109.0625,23.8125 Q109.0625,25.9063 109.75,26.9766 Q110.4375,28.0469 111.7813,28.0469 Q112.4063,28.0469 113,27.7734 Q113.5938,27.5 114.2188,26.9219 L114.2188,29.6406 Z "/><text fill="#000000" font-family="sans-serif" font-size="12" lengthAdjust="spacingAndGlyphs" textLength="51" x="131.75" y="28.1543">Updater</text><line style="stroke: #A80036; stroke-width: 1.5;" x1="7" x2="275" y1="40" y2="40"/><line style="stroke: #A80036; stroke-width: 1.5;" x1="7" x2="275" y1="48" y2="48"/><ellipse cx="17" cy="59.9023" fill="#84BE84" rx="3" ry="3" style="stroke: #038048; stroke-width: 1.0;"/><text fill="#000000" font-family="sans-serif" font-size="11" lengthAdjust="spacingAndGlyphs" textLength="155" x="26" y="62.2104">check_for_update(ontology,</text><text fill="#000000" font-family="sans-serif" font-size="11" lengthAdjust="spacingAndGlyphs" textLength="145" x="26" y="75.0151">function=None) : Boolean</text><ellipse cx="17" cy="85.5117" fill="#84BE84" rx="3" ry="3" style="stroke: #038048; stroke-width: 1.0;"/><text fill="#000000" font-family="sans-serif" font-size="11" lengthAdjust="spacingAndGlyphs" textLength="244" x="26" y="87.8198">update(ontology, function=None) : Boolean</text></g></svg>