<?xml version="1.0" encoding="UTF-8" standalone="yes"?><svg xmlns="http://www.w3.org/2000/svg" xmlns:xlink="http://www.w3.org/1999/xlink" height="490pt" style="width:970px;height:490px;" version="1.1" viewBox="0 0 970 490" width="970pt"><defs><filter height="300%" id="f1" width="300%" x="-1" y="-1"><feGaussianBlur result="blurOut" stdDeviation="2.0"/><feColorMatrix in="blurOut" result="blurOut2" type="matrix" values="0 0 0 0 0 0 0 0 0 0 0 0 0 0 0 0 0 0 .4 0"/><feOffset dx="4.0" dy="4.0" in="blurOut2" result="blurOut3"/><feBlend in="SourceGraphic" in2="blurOut3" mode="normal"/></filter></defs><g><rect fill="#FEFECE" filter="url(#f1)" height="176.0469" style="stroke: #A80036; stroke-width: 1.5;" width="713" x="6" y="8"/><ellipse cx="308.75" cy="24" fill="#ADD1B2" rx="11" ry="11" style="stroke: #A80036; stroke-width: 1.0;"/><path d="M311.7188,29.6406 Q311.1406,29.9375 310.5,30.0859 Q309.8594,30.2344 309.1563,30.2344 Q306.6563,30.2344 305.3359,28.5859 Q304.0156,26.9375 304.0156,23.8125 Q304.0156,20.6875 305.3359,19.0313 Q306.6563,17.375 309.1563,17.375 Q309.8594,17.375 310.5078,17.5313 Q311.1563,17.6875 311.7188,17.9844 L311.7188,20.7031 Q311.0938,20.125 310.5,19.8516 Q309.9063,19.5781 309.2813,19.5781 Q307.9375,19.5781 307.25,20.6484 Q306.5625,21.7188 306.5625,23.8125 Q306.5625,25.9063 307.25,26.9766 Q307.9375,28.0469 309.2813,28.0469 Q309.9063,28.0469 310.5,27.7734 Q311.0938,27.5 311.7188,26.9219 L311.7188,29.6406 Z "/><text fill="#000000" font-family="sans-serif" font-size="12" lengthAdjust="spacingAndGlyphs" textLength="99" x="329.25" y="28.1543">IndexAbstractor</text><line style="stroke: #A80036; stroke-width: 1.5;" x1="7" x2="718" y1="40" y2="40"/><rect fill="none" height="6" style="stroke: #C82930; stroke-width: 1.0;" width="6" x="14" y="48.9023"/><text fill="#000000" font-family="sans-serif" font-size="11" lengthAdjust="spacingAndGlyphs" textLength="57" x="26" y="54.2104">root : AST</text><rect fill="none" height="6" style="stroke: #C82930; stroke-width: 1.0;" width="6" x="14" y="61.707"/><text fill="#000000" font-family="sans-serif" font-size="11" lengthAdjust="spacingAndGlyphs" textLength="129" x="26" y="67.0151">ontologies : Ontology[]</text><rect fill="none" height="6" style="stroke: #C82930; stroke-width: 1.0;" width="6" x="14" y="74.5117"/><text fill="#000000" font-family="sans-serif" font-size="11" lengthAdjust="spacingAndGlyphs" textLength="293" x="26" y="79.8198">index : HashMap&lt;name : String, elements : AST[]&gt;</text><rect fill="none" height="6" style="stroke: #C82930; stroke-width: 1.0;" width="6" x="14" y="87.3164"/><text fill="#000000" font-family="sans-serif" font-size="11" lengthAdjust="spacingAndGlyphs" textLength="105" x="26" y="92.6245">wordnet : WordNet</text><line style="stroke: #A80036; stroke-width: 1.5;" x1="7" x2="718" y1="99.2188" y2="99.2188"/><ellipse cx="17" cy="111.1211" fill="#84BE84" rx="3" ry="3" style="stroke: #038048; stroke-width: 1.0;"/><text fill="#000000" font-family="sans-serif" font-size="11" lengthAdjust="spacingAndGlyphs" textLength="77" x="26" y="113.4292">init_wordnet()</text><ellipse cx="17" cy="123.9258" fill="#84BE84" rx="3" ry="3" style="stroke: #038048; stroke-width: 1.0;"/><text fill="#000000" font-family="sans-serif" font-size="11" lengthAdjust="spacingAndGlyphs" textLength="135" x="26" y="126.2339">update_index(ast : AST)</text><ellipse cx="17" cy="136.7305" fill="#84BE84" rx="3" ry="3" style="stroke: #038048; stroke-width: 1.0;"/><text fill="#000000" font-family="sans-serif" font-size="11" lengthAdjust="spacingAndGlyphs" textLength="427" x="26" y="139.0386">search(term : String) : HashMap&lt;ontology : Ontology, elements : String[]&gt;</text><ellipse cx="17" cy="149.5352" fill="#84BE84" rx="3" ry="3" style="stroke: #038048; stroke-width: 1.0;"/><text fill="#000000" font-family="sans-serif" font-size="11" lengthAdjust="spacingAndGlyphs" textLength="271" x="26" y="151.8433">get_ontology_file(ontology : Ontology) : StringIO</text><ellipse cx="17" cy="162.3398" fill="#84BE84" rx="3" ry="3" style="stroke: #038048; stroke-width: 1.0;"/><text fill="#000000" font-family="sans-serif" font-size="11" lengthAdjust="spacingAndGlyphs" textLength="687" x="26" y="164.6479">get_graph(variant : (pos : int, term : String)[], major=2, minor=1, root=None : String, depth=None : int) : AbstractGraph</text><ellipse cx="17" cy="175.1445" fill="#84BE84" rx="3" ry="3" style="stroke: #038048; stroke-width: 1.0;"/><text fill="#000000" font-family="sans-serif" font-size="11" lengthAdjust="spacingAndGlyphs" textLength="221" x="26" y="177.4526">wordnet_locate(term : String) : String[]</text><rect fill="#FEFECE" filter="url(#f1)" height="60.8047" style="stroke: #A80036; stroke-width: 1.5;" width="208" x="753.5" y="65.5"/><ellipse cx="798.75" cy="81.5" fill="#FF7700" rx="11" ry="11" style="stroke: #A80036; stroke-width: 1.0;"/><path d="M794.4688,75.1094 L797.3906,75.1094 L798.8594,80.5469 L800.3281,75.1094 L803.2656,75.1094 L803.2656,87.5 L801.1563,87.5 L801.1563,77.5781 L799.8438,83 L797.9063,83 L796.5781,77.5781 L796.5781,87.5 L794.4688,87.5 L794.4688,75.1094 Z "/><text fill="#000000" font-family="sans-serif" font-size="12" lengthAdjust="spacingAndGlyphs" textLength="109" x="819.25" y="85.6543">IndexAbstractorM</text><line style="stroke: #A80036; stroke-width: 1.5;" x1="754.5" x2="960.5" y1="97.5" y2="97.5"/><line style="stroke: #A80036; stroke-width: 1.5;" x1="754.5" x2="960.5" y1="105.5" y2="105.5"/><ellipse cx="764.5" cy="117.4023" fill="#84BE84" rx="3" ry="3" style="stroke: #038048; stroke-width: 1.0;"/><text fill="#000000" font-family="sans-serif" font-size="11" lengthAdjust="spacingAndGlyphs" textLength="182" x="773.5" y="119.7104">normalize(term : String) : String</text><rect fill="#FEFECE" filter="url(#f1)" height="86.4141" style="stroke: #A80036; stroke-width: 1.5;" width="641" x="42" y="261"/><ellipse cx="312.75" cy="277" fill="#ADD1B2" rx="11" ry="11" style="stroke: #A80036; stroke-width: 1.0;"/><path d="M315.7188,282.6406 Q315.1406,282.9375 314.5,283.0859 Q313.8594,283.2344 313.1563,283.2344 Q310.6563,283.2344 309.3359,281.5859 Q308.0156,279.9375 308.0156,276.8125 Q308.0156,273.6875 309.3359,272.0313 Q310.6563,270.375 313.1563,270.375 Q313.8594,270.375 314.5078,270.5313 Q315.1563,270.6875 315.7188,270.9844 L315.7188,273.7031 Q315.0938,273.125 314.5,272.8516 Q313.9063,272.5781 313.2813,272.5781 Q311.9375,272.5781 311.25,273.6484 Q310.5625,274.7188 310.5625,276.8125 Q310.5625,278.9063 311.25,279.9766 Q311.9375,281.0469 313.2813,281.0469 Q313.9063,281.0469 314.5,280.7734 Q315.0938,280.5 315.7188,279.9219 L315.7188,282.6406 Z "/><text fill="#000000" font-family="sans-serif" font-size="12" lengthAdjust="spacingAndGlyphs" textLength="91" x="333.25" y="281.1543">AbstractGraph</text><line style="stroke: #A80036; stroke-width: 1.5;" x1="43" x2="682" y1="293" y2="293"/><rect fill="none" height="6" style="stroke: #C82930; stroke-width: 1.0;" width="6" x="50" y="301.9023"/><text fill="#000000" font-family="sans-serif" font-size="11" lengthAdjust="spacingAndGlyphs" textLength="166" x="62" y="307.2104">nodes : AbstractGraphNode[]</text><rect fill="none" height="6" style="stroke: #C82930; stroke-width: 1.0;" width="6" x="50" y="314.707"/><text fill="#000000" font-family="sans-serif" font-size="11" lengthAdjust="spacingAndGlyphs" textLength="110" x="62" y="320.0151">relations : Enum[][]</text><line style="stroke: #A80036; stroke-width: 1.5;" x1="43" x2="682" y1="326.6094" y2="326.6094"/><ellipse cx="53" cy="338.5117" fill="#84BE84" rx="3" ry="3" style="stroke: #038048; stroke-width: 1.0;"/><text fill="#000000" font-family="sans-serif" font-size="11" lengthAdjust="spacingAndGlyphs" textLength="615" x="62" y="340.8198">__init__(variant : (pos : int, term : String)[], major : int, minor : int, root : String, depth : int) : AbstractGraph</text><rect fill="#FEFECE" filter="url(#f1)" height="73.6094" style="stroke: #A80036; stroke-width: 1.5;" width="276" x="224.5" y="408"/><ellipse cx="296.25" cy="424" fill="#ADD1B2" rx="11" ry="11" style="stroke: #A80036; stroke-width: 1.0;"/><path d="M299.2188,429.6406 Q298.6406,429.9375 298,430.0859 Q297.3594,430.2344 296.6563,430.2344 Q294.1563,430.2344 292.8359,428.5859 Q291.5156,426.9375 291.5156,423.8125 Q291.5156,420.6875 292.8359,419.0313 Q294.1563,417.375 296.6563,417.375 Q297.3594,417.375 298.0078,417.5313 Q298.6563,417.6875 299.2188,417.9844 L299.2188,420.7031 Q298.5938,420.125 298,419.8516 Q297.4063,419.5781 296.7813,419.5781 Q295.4375,419.5781 294.75,420.6484 Q294.0625,421.7188 294.0625,423.8125 Q294.0625,425.9063 294.75,426.9766 Q295.4375,428.0469 296.7813,428.0469 Q297.4063,428.0469 298,427.7734 Q298.5938,427.5 299.2188,426.9219 L299.2188,429.6406 Z "/><text fill="#000000" font-family="sans-serif" font-size="12" lengthAdjust="spacingAndGlyphs" textLength="124" x="316.75" y="428.1543">AbstractGraphNode</text><line style="stroke: #A80036; stroke-width: 1.5;" x1="225.5" x2="499.5" y1="440" y2="440"/><rect fill="none" height="6" style="stroke: #C82930; stroke-width: 1.0;" width="6" x="232.5" y="448.9023"/><text fill="#000000" font-family="sans-serif" font-size="11" lengthAdjust="spacingAndGlyphs" textLength="78" x="244.5" y="454.2104">name : String</text><line style="stroke: #A80036; stroke-width: 1.5;" x1="225.5" x2="499.5" y1="460.8047" y2="460.8047"/><ellipse cx="235.5" cy="472.707" fill="#84BE84" rx="3" ry="3" style="stroke: #038048; stroke-width: 1.0;"/><text fill="#000000" font-family="sans-serif" font-size="11" lengthAdjust="spacingAndGlyphs" textLength="250" x="244.5" y="475.0151">__init__(name : String) : AbstractGraphNode</text><path d="M362.5,347.082 C362.5,364.606 362.5,384.8998 362.5,402.3753 " fill="none" style="stroke: #A80036; stroke-width: 1.0;"/><polygon fill="#A80036" points="362.5,407.702,366.5,398.702,362.5,402.702,358.5,398.702,362.5,407.702" style="stroke: #A80036; stroke-width: 1.0;"/><text fill="#000000" font-family="sans-serif" font-size="13" lengthAdjust="spacingAndGlyphs" textLength="8" x="353.8375" y="367.5032">1</text><text fill="#000000" font-family="sans-serif" font-size="13" lengthAdjust="spacingAndGlyphs" textLength="24" x="336.3625" y="396.8359">1..n</text><path d="M362.5,184.064 C362.5,208.665 362.5,234.51 362.5,255.799 " fill="none" style="stroke: #A80036; stroke-width: 1.0;"/><polygon fill="#A80036" points="362.5,260.828,366.5,251.828,362.5,255.828,358.5,251.828,362.5,260.828" style="stroke: #A80036; stroke-width: 1.0;"/><text fill="#000000" font-family="sans-serif" font-size="13" lengthAdjust="spacingAndGlyphs" textLength="30" x="363.5" y="227.0669">uses</text><polygon fill="#000000" points="374,236.1328,377,242.1328,380,236.1328,374,236.1328" style="stroke: #000000; stroke-width: 1.0;"/></g></svg>