<?xml version="1.0" encoding="UTF-8" standalone="yes"?><svg xmlns="http://www.w3.org/2000/svg" xmlns:xlink="http://www.w3.org/1999/xlink" height="1197pt" style="width:1915px;height:1197px;" version="1.1" viewBox="0 0 1915 1197" width="1915pt"><defs><filter height="300%" id="f1" width="300%" x="-1" y="-1"><feGaussianBlur result="blurOut" stdDeviation="2.0"/><feColorMatrix in="blurOut" result="blurOut2" type="matrix" values="0 0 0 0 0 0 0 0 0 0 0 0 0 0 0 0 0 0 .4 0"/><feOffset dx="4.0" dy="4.0" in="blurOut2" result="blurOut3"/><feBlend in="SourceGraphic" in2="blurOut3" mode="normal"/></filter></defs><g><polygon fill="#FFFFFF" filter="url(#f1)" points="14,16,82,16,89,38.2969,1908,38.2969,1908,1190,14,1190,14,16" style="stroke: #000000; stroke-width: 2.0;"/><line style="stroke: #000000; stroke-width: 2.0;" x1="14" x2="89" y1="38.2969" y2="38.2969"/><text fill="#000000" font-family="sans-serif" font-size="14" font-weight="bold" lengthAdjust="spacingAndGlyphs" textLength="62" x="17" y="31.9951">pysumo</text><polygon fill="#FFFFFF" filter="url(#f1)" points="1206,261,1260,261,1267,283.2969,1754,283.2969,1754,629,1206,629,1206,261" style="stroke: #000000; stroke-width: 2.0;"/><line style="stroke: #000000; stroke-width: 2.0;" x1="1206" x2="1267" y1="283.2969" y2="283.2969"/><text fill="#000000" font-family="sans-serif" font-size="14" font-weight="bold" lengthAdjust="spacingAndGlyphs" textLength="48" x="1209" y="276.9951">model</text><polygon fill="#FFFFFF" filter="url(#f1)" points="325,881,382,881,389,903.2969,1900,903.2969,1900,1182,325,1182,325,881" style="stroke: #000000; stroke-width: 2.0;"/><line style="stroke: #000000; stroke-width: 2.0;" x1="325" x2="389" y1="903.2969" y2="903.2969"/><text fill="#000000" font-family="sans-serif" font-size="14" font-weight="bold" lengthAdjust="spacingAndGlyphs" textLength="51" x="328" y="896.9951">logger</text><polygon fill="#FBFB77" filter="url(#f1)" points="1462,112,1462,137.1328,1900,137.1328,1900,122,1890,112,1462,112" style="stroke: #A80036; stroke-width: 1.0;"/><line style="stroke: #A80036; stroke-width: 1.0;" x1="1890" x2="1890" y1="112" y2="122"/><line style="stroke: #A80036; stroke-width: 1.0;" x1="1900" x2="1890" y1="122" y2="122"/><text fill="#000000" font-family="sans-serif" font-size="13" lengthAdjust="spacingAndGlyphs" textLength="417" x="1468" y="129.0669">AbstractSyntaxTree may be shortened to AST for ease of reading</text><rect fill="#FEFECE" filter="url(#f1)" height="176.0469" style="stroke: #A80036; stroke-width: 1.5;" width="713" x="314.5" y="464"/><ellipse cx="617.25" cy="480" fill="#ADD1B2" rx="11" ry="11" style="stroke: #A80036; stroke-width: 1.0;"/><path d="M620.2188,485.6406 Q619.6406,485.9375 619,486.0859 Q618.3594,486.2344 617.6563,486.2344 Q615.1563,486.2344 613.8359,484.5859 Q612.5156,482.9375 612.5156,479.8125 Q612.5156,476.6875 613.8359,475.0313 Q615.1563,473.375 617.6563,473.375 Q618.3594,473.375 619.0078,473.5313 Q619.6563,473.6875 620.2188,473.9844 L620.2188,476.7031 Q619.5938,476.125 619,475.8516 Q618.4063,475.5781 617.7813,475.5781 Q616.4375,475.5781 615.75,476.6484 Q615.0625,477.7188 615.0625,479.8125 Q615.0625,481.9063 615.75,482.9766 Q616.4375,484.0469 617.7813,484.0469 Q618.4063,484.0469 619,483.7734 Q619.5938,483.5 620.2188,482.9219 L620.2188,485.6406 Z "/><text fill="#000000" font-family="sans-serif" font-size="12" lengthAdjust="spacingAndGlyphs" textLength="99" x="637.75" y="484.1543">IndexAbstractor</text><line style="stroke: #A80036; stroke-width: 1.5;" x1="315.5" x2="1026.5" y1="496" y2="496"/><rect fill="none" height="6" style="stroke: #C82930; stroke-width: 1.0;" width="6" x="322.5" y="504.9023"/><text fill="#000000" font-family="sans-serif" font-size="11" lengthAdjust="spacingAndGlyphs" textLength="57" x="334.5" y="510.2104">root : AST</text><rect fill="none" height="6" style="stroke: #C82930; stroke-width: 1.0;" width="6" x="322.5" y="517.707"/><text fill="#000000" font-family="sans-serif" font-size="11" lengthAdjust="spacingAndGlyphs" textLength="129" x="334.5" y="523.0151">ontologies : Ontology[]</text><rect fill="none" height="6" style="stroke: #C82930; stroke-width: 1.0;" width="6" x="322.5" y="530.5117"/><text fill="#000000" font-family="sans-serif" font-size="11" lengthAdjust="spacingAndGlyphs" textLength="293" x="334.5" y="535.8198">index : HashMap&lt;name : String, elements : AST[]&gt;</text><rect fill="none" height="6" style="stroke: #C82930; stroke-width: 1.0;" width="6" x="322.5" y="543.3164"/><text fill="#000000" font-family="sans-serif" font-size="11" lengthAdjust="spacingAndGlyphs" textLength="105" x="334.5" y="548.6245">wordnet : WordNet</text><line style="stroke: #A80036; stroke-width: 1.5;" x1="315.5" x2="1026.5" y1="555.2188" y2="555.2188"/><ellipse cx="325.5" cy="567.1211" fill="#84BE84" rx="3" ry="3" style="stroke: #038048; stroke-width: 1.0;"/><text fill="#000000" font-family="sans-serif" font-size="11" lengthAdjust="spacingAndGlyphs" textLength="77" x="334.5" y="569.4292">init_wordnet()</text><ellipse cx="325.5" cy="579.9258" fill="#84BE84" rx="3" ry="3" style="stroke: #038048; stroke-width: 1.0;"/><text fill="#000000" font-family="sans-serif" font-size="11" lengthAdjust="spacingAndGlyphs" textLength="135" x="334.5" y="582.2339">update_index(ast : AST)</text><ellipse cx="325.5" cy="592.7305" fill="#84BE84" rx="3" ry="3" style="stroke: #038048; stroke-width: 1.0;"/><text fill="#000000" font-family="sans-serif" font-size="11" lengthAdjust="spacingAndGlyphs" textLength="427" x="334.5" y="595.0386">search(term : String) : HashMap&lt;ontology : Ontology, elements : String[]&gt;</text><ellipse cx="325.5" cy="605.5352" fill="#84BE84" rx="3" ry="3" style="stroke: #038048; stroke-width: 1.0;"/><text fill="#000000" font-family="sans-serif" font-size="11" lengthAdjust="spacingAndGlyphs" textLength="271" x="334.5" y="607.8433">get_ontology_file(ontology : Ontology) : StringIO</text><ellipse cx="325.5" cy="618.3398" fill="#84BE84" rx="3" ry="3" style="stroke: #038048; stroke-width: 1.0;"/><text fill="#000000" font-family="sans-serif" font-size="11" lengthAdjust="spacingAndGlyphs" textLength="687" x="334.5" y="620.6479">get_graph(variant : (pos : int, term : String)[], major=2, minor=1, root=None : String, depth=None : int) : AbstractGraph</text><ellipse cx="325.5" cy="631.1445" fill="#84BE84" rx="3" ry="3" style="stroke: #038048; stroke-width: 1.0;"/><text fill="#000000" font-family="sans-serif" font-size="11" lengthAdjust="spacingAndGlyphs" textLength="221" x="334.5" y="633.4526">wordnet_locate(term : String) : String[]</text><rect fill="#FEFECE" filter="url(#f1)" height="60.8047" style="stroke: #A80036; stroke-width: 1.5;" width="208" x="1219" y="94"/><ellipse cx="1264.25" cy="110" fill="#FF7700" rx="11" ry="11" style="stroke: #A80036; stroke-width: 1.0;"/><path d="M1259.9688,103.6094 L1262.8906,103.6094 L1264.3594,109.0469 L1265.8281,103.6094 L1268.7656,103.6094 L1268.7656,116 L1266.6563,116 L1266.6563,106.0781 L1265.3438,111.5 L1263.4063,111.5 L1262.0781,106.0781 L1262.0781,116 L1259.9688,116 L1259.9688,103.6094 Z "/><text fill="#000000" font-family="sans-serif" font-size="12" lengthAdjust="spacingAndGlyphs" textLength="109" x="1284.75" y="114.1543">IndexAbstractorM</text><line style="stroke: #A80036; stroke-width: 1.5;" x1="1220" x2="1426" y1="126" y2="126"/><line style="stroke: #A80036; stroke-width: 1.5;" x1="1220" x2="1426" y1="134" y2="134"/><ellipse cx="1230" cy="145.9023" fill="#84BE84" rx="3" ry="3" style="stroke: #038048; stroke-width: 1.0;"/><text fill="#000000" font-family="sans-serif" font-size="11" lengthAdjust="spacingAndGlyphs" textLength="182" x="1239" y="148.2104">normalize(term : String) : String</text><rect fill="#FEFECE" filter="url(#f1)" height="86.4141" style="stroke: #A80036; stroke-width: 1.5;" width="641" x="411.5" y="736.5"/><ellipse cx="682.25" cy="752.5" fill="#ADD1B2" rx="11" ry="11" style="stroke: #A80036; stroke-width: 1.0;"/><path d="M685.2188,758.1406 Q684.6406,758.4375 684,758.5859 Q683.3594,758.7344 682.6563,758.7344 Q680.1563,758.7344 678.8359,757.0859 Q677.5156,755.4375 677.5156,752.3125 Q677.5156,749.1875 678.8359,747.5313 Q680.1563,745.875 682.6563,745.875 Q683.3594,745.875 684.0078,746.0313 Q684.6563,746.1875 685.2188,746.4844 L685.2188,749.2031 Q684.5938,748.625 684,748.3516 Q683.4063,748.0781 682.7813,748.0781 Q681.4375,748.0781 680.75,749.1484 Q680.0625,750.2188 680.0625,752.3125 Q680.0625,754.4063 680.75,755.4766 Q681.4375,756.5469 682.7813,756.5469 Q683.4063,756.5469 684,756.2734 Q684.5938,756 685.2188,755.4219 L685.2188,758.1406 Z "/><text fill="#000000" font-family="sans-serif" font-size="12" lengthAdjust="spacingAndGlyphs" textLength="91" x="702.75" y="756.6543">AbstractGraph</text><line style="stroke: #A80036; stroke-width: 1.5;" x1="412.5" x2="1051.5" y1="768.5" y2="768.5"/><rect fill="none" height="6" style="stroke: #C82930; stroke-width: 1.0;" width="6" x="419.5" y="777.4023"/><text fill="#000000" font-family="sans-serif" font-size="11" lengthAdjust="spacingAndGlyphs" textLength="166" x="431.5" y="782.7104">nodes : AbstractGraphNode[]</text><rect fill="none" height="6" style="stroke: #C82930; stroke-width: 1.0;" width="6" x="419.5" y="790.207"/><text fill="#000000" font-family="sans-serif" font-size="11" lengthAdjust="spacingAndGlyphs" textLength="110" x="431.5" y="795.5151">relations : Enum[][]</text><line style="stroke: #A80036; stroke-width: 1.5;" x1="412.5" x2="1051.5" y1="802.1094" y2="802.1094"/><ellipse cx="422.5" cy="814.0117" fill="#84BE84" rx="3" ry="3" style="stroke: #038048; stroke-width: 1.0;"/><text fill="#000000" font-family="sans-serif" font-size="11" lengthAdjust="spacingAndGlyphs" textLength="615" x="431.5" y="816.3198">__init__(variant : (pos : int, term : String)[], major : int, minor : int, root : String, depth : int) : AbstractGraph</text><rect fill="#FEFECE" filter="url(#f1)" height="73.6094" style="stroke: #A80036; stroke-width: 1.5;" width="276" x="22" y="1004"/><ellipse cx="93.75" cy="1020" fill="#ADD1B2" rx="11" ry="11" style="stroke: #A80036; stroke-width: 1.0;"/><path d="M96.7188,1025.6406 Q96.1406,1025.9375 95.5,1026.0859 Q94.8594,1026.2344 94.1563,1026.2344 Q91.6563,1026.2344 90.3359,1024.5859 Q89.0156,1022.9375 89.0156,1019.8125 Q89.0156,1016.6875 90.3359,1015.0313 Q91.6563,1013.375 94.1563,1013.375 Q94.8594,1013.375 95.5078,1013.5313 Q96.1563,1013.6875 96.7188,1013.9844 L96.7188,1016.7031 Q96.0938,1016.125 95.5,1015.8516 Q94.9063,1015.5781 94.2813,1015.5781 Q92.9375,1015.5781 92.25,1016.6484 Q91.5625,1017.7188 91.5625,1019.8125 Q91.5625,1021.9063 92.25,1022.9766 Q92.9375,1024.0469 94.2813,1024.0469 Q94.9063,1024.0469 95.5,1023.7734 Q96.0938,1023.5 96.7188,1022.9219 L96.7188,1025.6406 Z "/><text fill="#000000" font-family="sans-serif" font-size="12" lengthAdjust="spacingAndGlyphs" textLength="124" x="114.25" y="1024.1543">AbstractGraphNode</text><line style="stroke: #A80036; stroke-width: 1.5;" x1="23" x2="297" y1="1036" y2="1036"/><rect fill="none" height="6" style="stroke: #C82930; stroke-width: 1.0;" width="6" x="30" y="1044.9023"/><text fill="#000000" font-family="sans-serif" font-size="11" lengthAdjust="spacingAndGlyphs" textLength="78" x="42" y="1050.2104">name : String</text><line style="stroke: #A80036; stroke-width: 1.5;" x1="23" x2="297" y1="1056.8047" y2="1056.8047"/><ellipse cx="33" cy="1068.707" fill="#84BE84" rx="3" ry="3" style="stroke: #038048; stroke-width: 1.0;"/><text fill="#000000" font-family="sans-serif" font-size="11" lengthAdjust="spacingAndGlyphs" textLength="250" x="42" y="1071.0151">__init__(name : String) : AbstractGraphNode</text><rect fill="#FEFECE" filter="url(#f1)" height="73.6094" style="stroke: #A80036; stroke-width: 1.5;" width="283" x="93.5" y="742.5"/><ellipse cx="203.75" cy="758.5" fill="#ADD1B2" rx="11" ry="11" style="stroke: #A80036; stroke-width: 1.0;"/><path d="M206.7188,764.1406 Q206.1406,764.4375 205.5,764.5859 Q204.8594,764.7344 204.1563,764.7344 Q201.6563,764.7344 200.3359,763.0859 Q199.0156,761.4375 199.0156,758.3125 Q199.0156,755.1875 200.3359,753.5313 Q201.6563,751.875 204.1563,751.875 Q204.8594,751.875 205.5078,752.0313 Q206.1563,752.1875 206.7188,752.4844 L206.7188,755.2031 Q206.0938,754.625 205.5,754.3516 Q204.9063,754.0781 204.2813,754.0781 Q202.9375,754.0781 202.25,755.1484 Q201.5625,756.2188 201.5625,758.3125 Q201.5625,760.4063 202.25,761.4766 Q202.9375,762.5469 204.2813,762.5469 Q204.9063,762.5469 205.5,762.2734 Q206.0938,762 206.7188,761.4219 L206.7188,764.1406 Z "/><text fill="#000000" font-family="sans-serif" font-size="12" lengthAdjust="spacingAndGlyphs" textLength="54" x="224.25" y="762.6543">WordNet</text><line style="stroke: #A80036; stroke-width: 1.5;" x1="94.5" x2="375.5" y1="774.5" y2="774.5"/><line style="stroke: #A80036; stroke-width: 1.5;" x1="94.5" x2="375.5" y1="782.5" y2="782.5"/><ellipse cx="104.5" cy="794.4023" fill="#84BE84" rx="3" ry="3" style="stroke: #038048; stroke-width: 1.0;"/><text fill="#000000" font-family="sans-serif" font-size="11" lengthAdjust="spacingAndGlyphs" textLength="257" x="113.5" y="796.7104">locate_term(term) : (String, SSType, String)[]</text><ellipse cx="104.5" cy="807.207" fill="#84BE84" rx="3" ry="3" style="stroke: #038048; stroke-width: 1.0;"/><text fill="#000000" font-family="sans-serif" font-size="11" lengthAdjust="spacingAndGlyphs" textLength="174" x="113.5" y="809.5151">find_synonyms(term) : String[]</text><rect fill="#FEFECE" filter="url(#f1)" height="163.2422" style="stroke: #A80036; stroke-width: 1.5;" width="312" x="872" y="43"/><ellipse cx="972.75" cy="59" fill="#ADD1B2" rx="11" ry="11" style="stroke: #A80036; stroke-width: 1.0;"/><path d="M975.7188,64.6406 Q975.1406,64.9375 974.5,65.0859 Q973.8594,65.2344 973.1563,65.2344 Q970.6563,65.2344 969.3359,63.5859 Q968.0156,61.9375 968.0156,58.8125 Q968.0156,55.6875 969.3359,54.0313 Q970.6563,52.375 973.1563,52.375 Q973.8594,52.375 974.5078,52.5313 Q975.1563,52.6875 975.7188,52.9844 L975.7188,55.7031 Q975.0938,55.125 974.5,54.8516 Q973.9063,54.5781 973.2813,54.5781 Q971.9375,54.5781 971.25,55.6484 Q970.5625,56.7188 970.5625,58.8125 Q970.5625,60.9063 971.25,61.9766 Q971.9375,63.0469 973.2813,63.0469 Q973.9063,63.0469 974.5,62.7734 Q975.0938,62.5 975.7188,61.9219 L975.7188,64.6406 Z "/><text fill="#000000" font-family="sans-serif" font-size="12" lengthAdjust="spacingAndGlyphs" textLength="102" x="993.25" y="63.1543">SyntaxController</text><line style="stroke: #A80036; stroke-width: 1.5;" x1="873" x2="1183" y1="75" y2="75"/><rect fill="none" height="6" style="stroke: #C82930; stroke-width: 1.0;" width="6" x="880" y="83.9023"/><text fill="#000000" font-family="sans-serif" font-size="11" lengthAdjust="spacingAndGlyphs" textLength="117" x="892" y="89.2104">actionlog : ActionLog</text><rect fill="none" height="6" style="stroke: #C82930; stroke-width: 1.0;" width="6" x="880" y="96.707"/><text fill="#000000" font-family="sans-serif" font-size="11" lengthAdjust="spacingAndGlyphs" textLength="131" x="892" y="102.0151">index : IndexAbstractor</text><line style="stroke: #A80036; stroke-width: 1.5;" x1="873" x2="1183" y1="108.6094" y2="108.6094"/><ellipse cx="883" cy="120.5117" fill="#84BE84" rx="3" ry="3" style="stroke: #038048; stroke-width: 1.0;"/><text fill="#000000" font-family="sans-serif" font-size="11" lengthAdjust="spacingAndGlyphs" textLength="286" x="892" y="122.8198">__init__(index : IndexAbstractor) : SyntaxController</text><ellipse cx="883" cy="133.3164" fill="#84BE84" rx="3" ry="3" style="stroke: #038048; stroke-width: 1.0;"/><text fill="#000000" font-family="sans-serif" font-size="11" lengthAdjust="spacingAndGlyphs" textLength="145" x="892" y="135.6245">parse_partial(code_block)</text><ellipse cx="883" cy="146.1211" fill="#84BE84" rx="3" ry="3" style="stroke: #038048; stroke-width: 1.0;"/><text fill="#000000" font-family="sans-serif" font-size="11" lengthAdjust="spacingAndGlyphs" textLength="140" x="892" y="148.4292">parse_patch(code_block)</text><ellipse cx="883" cy="158.9258" fill="#84BE84" rx="3" ry="3" style="stroke: #038048; stroke-width: 1.0;"/><text fill="#000000" font-family="sans-serif" font-size="11" lengthAdjust="spacingAndGlyphs" textLength="131" x="892" y="161.2339">add_ontology(ontology)</text><ellipse cx="883" cy="171.7305" fill="#84BE84" rx="3" ry="3" style="stroke: #038048; stroke-width: 1.0;"/><text fill="#000000" font-family="sans-serif" font-size="11" lengthAdjust="spacingAndGlyphs" textLength="153" x="892" y="174.0386">remove_ontology(ontology)</text><ellipse cx="883" cy="184.5352" fill="#84BE84" rx="3" ry="3" style="stroke: #038048; stroke-width: 1.0;"/><text fill="#000000" font-family="sans-serif" font-size="11" lengthAdjust="spacingAndGlyphs" textLength="84" x="892" y="186.8433">undo(ontology)</text><ellipse cx="883" cy="197.3398" fill="#84BE84" rx="3" ry="3" style="stroke: #038048; stroke-width: 1.0;"/><text fill="#000000" font-family="sans-serif" font-size="11" lengthAdjust="spacingAndGlyphs" textLength="82" x="892" y="199.6479">redo(ontology)</text><rect fill="#FEFECE" filter="url(#f1)" height="124.8281" style="stroke: #A80036; stroke-width: 1.5;" width="439" x="1087.5" y="717"/><ellipse cx="1275.25" cy="733" fill="#ADD1B2" rx="11" ry="11" style="stroke: #A80036; stroke-width: 1.0;"/><path d="M1278.2188,738.6406 Q1277.6406,738.9375 1277,739.0859 Q1276.3594,739.2344 1275.6563,739.2344 Q1273.1563,739.2344 1271.8359,737.5859 Q1270.5156,735.9375 1270.5156,732.8125 Q1270.5156,729.6875 1271.8359,728.0313 Q1273.1563,726.375 1275.6563,726.375 Q1276.3594,726.375 1277.0078,726.5313 Q1277.6563,726.6875 1278.2188,726.9844 L1278.2188,729.7031 Q1277.5938,729.125 1277,728.8516 Q1276.4063,728.5781 1275.7813,728.5781 Q1274.4375,728.5781 1273.75,729.6484 Q1273.0625,730.7188 1273.0625,732.8125 Q1273.0625,734.9063 1273.75,735.9766 Q1274.4375,737.0469 1275.7813,737.0469 Q1276.4063,737.0469 1277,736.7734 Q1277.5938,736.5 1278.2188,735.9219 L1278.2188,738.6406 Z "/><text fill="#000000" font-family="sans-serif" font-size="12" lengthAdjust="spacingAndGlyphs" textLength="55" x="1295.75" y="737.1543">Ontology</text><line style="stroke: #A80036; stroke-width: 1.5;" x1="1088.5" x2="1525.5" y1="749" y2="749"/><rect fill="none" height="6" style="stroke: #C82930; stroke-width: 1.0;" width="6" x="1095.5" y="757.9023"/><text fill="#000000" font-family="sans-serif" font-size="11" lengthAdjust="spacingAndGlyphs" textLength="78" x="1107.5" y="763.2104">name : String</text><rect fill="none" height="6" style="stroke: #C82930; stroke-width: 1.0;" width="6" x="1095.5" y="770.707"/><text fill="#000000" font-family="sans-serif" font-size="11" lengthAdjust="spacingAndGlyphs" textLength="84" x="1107.5" y="776.0151">revision : Float</text><rect fill="none" height="6" style="stroke: #C82930; stroke-width: 1.0;" width="6" x="1095.5" y="783.5117"/><text fill="#000000" font-family="sans-serif" font-size="11" lengthAdjust="spacingAndGlyphs" textLength="71" x="1107.5" y="788.8198">path : String</text><rect fill="none" height="6" style="stroke: #C82930; stroke-width: 1.0;" width="6" x="1095.5" y="796.3164"/><text fill="#000000" font-family="sans-serif" font-size="11" lengthAdjust="spacingAndGlyphs" textLength="61" x="1107.5" y="801.6245">url : String</text><rect fill="none" height="6" style="stroke: #C82930; stroke-width: 1.0;" width="6" x="1095.5" y="809.1211"/><text fill="#000000" font-family="sans-serif" font-size="11" lengthAdjust="spacingAndGlyphs" textLength="91" x="1107.5" y="814.4292">active : Boolean</text><line style="stroke: #A80036; stroke-width: 1.5;" x1="1088.5" x2="1525.5" y1="821.0234" y2="821.0234"/><ellipse cx="1098.5" cy="832.9258" fill="#84BE84" rx="3" ry="3" style="stroke: #038048; stroke-width: 1.0;"/><text fill="#000000" font-family="sans-serif" font-size="11" lengthAdjust="spacingAndGlyphs" textLength="413" x="1107.5" y="835.2339">__init__(path : String, name=None : String, url=None : String) : Ontology</text><rect fill="#FEFECE" filter="url(#f1)" height="86.4141" style="stroke: #A80036; stroke-width: 1.5;" width="270" x="847" y="294.5"/><ellipse cx="952.25" cy="310.5" fill="#ADD1B2" rx="11" ry="11" style="stroke: #A80036; stroke-width: 1.0;"/><path d="M955.2188,316.1406 Q954.6406,316.4375 954,316.5859 Q953.3594,316.7344 952.6563,316.7344 Q950.1563,316.7344 948.8359,315.0859 Q947.5156,313.4375 947.5156,310.3125 Q947.5156,307.1875 948.8359,305.5313 Q950.1563,303.875 952.6563,303.875 Q953.3594,303.875 954.0078,304.0313 Q954.6563,304.1875 955.2188,304.4844 L955.2188,307.2031 Q954.5938,306.625 954,306.3516 Q953.4063,306.0781 952.7813,306.0781 Q951.4375,306.0781 950.75,307.1484 Q950.0625,308.2188 950.0625,310.3125 Q950.0625,312.4063 950.75,313.4766 Q951.4375,314.5469 952.7813,314.5469 Q953.4063,314.5469 954,314.2734 Q954.5938,314 955.2188,313.4219 L955.2188,316.1406 Z "/><text fill="#000000" font-family="sans-serif" font-size="12" lengthAdjust="spacingAndGlyphs" textLength="51" x="972.75" y="314.6543">Updater</text><line style="stroke: #A80036; stroke-width: 1.5;" x1="848" x2="1116" y1="326.5" y2="326.5"/><line style="stroke: #A80036; stroke-width: 1.5;" x1="848" x2="1116" y1="334.5" y2="334.5"/><ellipse cx="858" cy="346.4023" fill="#84BE84" rx="3" ry="3" style="stroke: #038048; stroke-width: 1.0;"/><text fill="#000000" font-family="sans-serif" font-size="11" lengthAdjust="spacingAndGlyphs" textLength="155" x="867" y="348.7104">check_for_update(ontology,</text><text fill="#000000" font-family="sans-serif" font-size="11" lengthAdjust="spacingAndGlyphs" textLength="145" x="867" y="361.5151">function=None) : Boolean</text><ellipse cx="858" cy="372.0117" fill="#84BE84" rx="3" ry="3" style="stroke: #038048; stroke-width: 1.0;"/><text fill="#000000" font-family="sans-serif" font-size="11" lengthAdjust="spacingAndGlyphs" textLength="244" x="867" y="374.3198">update(ontology, function=None) : Boolean</text><rect fill="#FEFECE" filter="url(#f1)" height="99.2188" style="stroke: #A80036; stroke-width: 1.5;" width="245" x="1214.5" y="288"/><ellipse cx="1312.25" cy="304" fill="#FF7700" rx="11" ry="11" style="stroke: #A80036; stroke-width: 1.0;"/><path d="M1307.9688,297.6094 L1310.8906,297.6094 L1312.3594,303.0469 L1313.8281,297.6094 L1316.7656,297.6094 L1316.7656,310 L1314.6563,310 L1314.6563,300.0781 L1313.3438,305.5 L1311.4063,305.5 L1310.0781,300.0781 L1310.0781,310 L1307.9688,310 L1307.9688,297.6094 Z "/><text fill="#000000" font-family="sans-serif" font-size="12" lengthAdjust="spacingAndGlyphs" textLength="41" x="1332.75" y="308.1543">Parser</text><line style="stroke: #A80036; stroke-width: 1.5;" x1="1215.5" x2="1458.5" y1="320" y2="320"/><line style="stroke: #A80036; stroke-width: 1.5;" x1="1215.5" x2="1458.5" y1="328" y2="328"/><ellipse cx="1225.5" cy="339.9023" fill="#84BE84" rx="3" ry="3" style="stroke: #038048; stroke-width: 1.0;"/><text fill="#000000" font-family="sans-serif" font-size="11" lengthAdjust="spacingAndGlyphs" textLength="219" x="1234.5" y="342.2104">kifparse(Ontology, Graph=None) : AST</text><ellipse cx="1225.5" cy="352.707" fill="#84BE84" rx="3" ry="3" style="stroke: #038048; stroke-width: 1.0;"/><text fill="#000000" font-family="sans-serif" font-size="11" lengthAdjust="spacingAndGlyphs" textLength="171" x="1234.5" y="355.0151">astmerge((AST1, AST2)) : AST</text><ellipse cx="1225.5" cy="365.5117" fill="#84BE84" rx="3" ry="3" style="stroke: #038048; stroke-width: 1.0;"/><text fill="#000000" font-family="sans-serif" font-size="11" lengthAdjust="spacingAndGlyphs" textLength="148" x="1234.5" y="367.8198">kifserialize(AST, Ontology)</text><ellipse cx="1225.5" cy="378.3164" fill="#84BE84" rx="3" ry="3" style="stroke: #038048; stroke-width: 1.0;"/><text fill="#000000" font-family="sans-serif" font-size="11" lengthAdjust="spacingAndGlyphs" textLength="175" x="1234.5" y="380.6245">wparse(datafiles) : (File, Pos)[]</text><rect fill="#FEFECE" filter="url(#f1)" height="137.6328" style="stroke: #A80036; stroke-width: 1.5;" width="514" x="1214" y="483"/><ellipse cx="1405.75" cy="499" fill="#ADD1B2" rx="11" ry="11" style="stroke: #A80036; stroke-width: 1.0;"/><path d="M1408.7188,504.6406 Q1408.1406,504.9375 1407.5,505.0859 Q1406.8594,505.2344 1406.1563,505.2344 Q1403.6563,505.2344 1402.3359,503.5859 Q1401.0156,501.9375 1401.0156,498.8125 Q1401.0156,495.6875 1402.3359,494.0313 Q1403.6563,492.375 1406.1563,492.375 Q1406.8594,492.375 1407.5078,492.5313 Q1408.1563,492.6875 1408.7188,492.9844 L1408.7188,495.7031 Q1408.0938,495.125 1407.5,494.8516 Q1406.9063,494.5781 1406.2813,494.5781 Q1404.9375,494.5781 1404.25,495.6484 Q1403.5625,496.7188 1403.5625,498.8125 Q1403.5625,500.9063 1404.25,501.9766 Q1404.9375,503.0469 1406.2813,503.0469 Q1406.9063,503.0469 1407.5,502.7734 Q1408.0938,502.5 1408.7188,501.9219 L1408.7188,504.6406 Z "/><text fill="#000000" font-family="sans-serif" font-size="12" lengthAdjust="spacingAndGlyphs" textLength="122" x="1426.25" y="503.1543">AbstractSyntaxTree</text><line style="stroke: #A80036; stroke-width: 1.5;" x1="1215" x2="1727" y1="515" y2="515"/><rect fill="none" height="6" style="stroke: #C82930; stroke-width: 1.0;" width="6" x="1222" y="523.9023"/><text fill="#000000" font-family="sans-serif" font-size="11" lengthAdjust="spacingAndGlyphs" textLength="105" x="1234" y="529.2104">parent_node : AST</text><rect fill="none" height="6" style="stroke: #C82930; stroke-width: 1.0;" width="6" x="1222" y="536.707"/><text fill="#000000" font-family="sans-serif" font-size="11" lengthAdjust="spacingAndGlyphs" textLength="78" x="1234" y="542.0151">name : String</text><rect fill="none" height="6" style="stroke: #C82930; stroke-width: 1.0;" width="6" x="1222" y="549.5117"/><text fill="#000000" font-family="sans-serif" font-size="11" lengthAdjust="spacingAndGlyphs" textLength="120" x="1234" y="554.8198">element_type : Enum</text><line style="stroke: #A80036; stroke-width: 1.5;" x1="1215" x2="1727" y1="561.4141" y2="561.4141"/><ellipse cx="1225" cy="573.3164" fill="#84BE84" rx="3" ry="3" style="stroke: #038048; stroke-width: 1.0;"/><text fill="#000000" font-family="sans-serif" font-size="11" lengthAdjust="spacingAndGlyphs" textLength="488" x="1234" y="575.6245">__init__(ontology : Ontology, parent=None : AbstractSyntaxTree) : AbstractSyntaxTree</text><ellipse cx="1225" cy="586.1211" fill="#84BE84" rx="3" ry="3" style="stroke: #038048; stroke-width: 1.0;"/><text fill="#000000" font-family="sans-serif" font-size="11" lengthAdjust="spacingAndGlyphs" textLength="119" x="1234" y="588.4292">get_children() : AST[]</text><ellipse cx="1225" cy="598.9258" fill="#84BE84" rx="3" ry="3" style="stroke: #038048; stroke-width: 1.0;"/><text fill="#000000" font-family="sans-serif" font-size="11" lengthAdjust="spacingAndGlyphs" textLength="83" x="1234" y="601.2339">add_child(AST)</text><ellipse cx="1225" cy="611.7305" fill="#84BE84" rx="3" ry="3" style="stroke: #038048; stroke-width: 1.0;"/><text fill="#000000" font-family="sans-serif" font-size="11" lengthAdjust="spacingAndGlyphs" textLength="105" x="1234" y="614.0386">remove_child(AST)</text><rect fill="#FEFECE" filter="url(#f1)" height="163.2422" style="stroke: #A80036; stroke-width: 1.5;" width="336" x="1104" y="959.5"/><ellipse cx="1238.75" cy="975.5" fill="#ADD1B2" rx="11" ry="11" style="stroke: #A80036; stroke-width: 1.0;"/><path d="M1241.7188,981.1406 Q1241.1406,981.4375 1240.5,981.5859 Q1239.8594,981.7344 1239.1563,981.7344 Q1236.6563,981.7344 1235.3359,980.0859 Q1234.0156,978.4375 1234.0156,975.3125 Q1234.0156,972.1875 1235.3359,970.5313 Q1236.6563,968.875 1239.1563,968.875 Q1239.8594,968.875 1240.5078,969.0313 Q1241.1563,969.1875 1241.7188,969.4844 L1241.7188,972.2031 Q1241.0938,971.625 1240.5,971.3516 Q1239.9063,971.0781 1239.2813,971.0781 Q1237.9375,971.0781 1237.25,972.1484 Q1236.5625,973.2188 1236.5625,975.3125 Q1236.5625,977.4063 1237.25,978.4766 Q1237.9375,979.5469 1239.2813,979.5469 Q1239.9063,979.5469 1240.5,979.2734 Q1241.0938,979 1241.7188,978.4219 L1241.7188,981.1406 Z "/><text fill="#000000" font-family="sans-serif" font-size="12" lengthAdjust="spacingAndGlyphs" textLength="58" x="1259.25" y="979.6543">Actionlog</text><line style="stroke: #A80036; stroke-width: 1.5;" x1="1105" x2="1439" y1="991.5" y2="991.5"/><rect fill="none" height="6" style="stroke: #C82930; stroke-width: 1.0;" width="6" x="1112" y="1000.4023"/><text fill="#000000" font-family="sans-serif" font-size="11" lengthAdjust="spacingAndGlyphs" textLength="94" x="1124" y="1005.7104">actionlog : Stack</text><rect fill="none" height="6" style="stroke: #C82930; stroke-width: 1.0;" width="6" x="1112" y="1013.207"/><text fill="#000000" font-family="sans-serif" font-size="11" lengthAdjust="spacingAndGlyphs" textLength="86" x="1124" y="1018.5151">redolog : Stack</text><rect fill="none" height="6" style="stroke: #C82930; stroke-width: 1.0;" width="6" x="1112" y="1026.0117"/><text fill="#000000" font-family="sans-serif" font-size="11" lengthAdjust="spacingAndGlyphs" textLength="97" x="1124" y="1031.3198">current : BytesIO</text><line style="stroke: #A80036; stroke-width: 1.5;" x1="1105" x2="1439" y1="1037.9141" y2="1037.9141"/><rect fill="#F24D5C" height="6" style="stroke: #C82930; stroke-width: 1.0;" width="6" x="1112" y="1046.8164"/><text fill="#000000" font-family="sans-serif" font-size="11" lengthAdjust="spacingAndGlyphs" textLength="121" x="1124" y="1052.1245">queue : (int, BytesIO)</text><ellipse cx="1115" cy="1062.6211" fill="#84BE84" rx="3" ry="3" style="stroke: #038048; stroke-width: 1.0;"/><text fill="#000000" font-family="sans-serif" font-size="11" lengthAdjust="spacingAndGlyphs" textLength="310" x="1124" y="1064.9292">__init__(name : String, path=None : String) : ActionLog</text><ellipse cx="1115" cy="1075.4258" fill="#84BE84" rx="3" ry="3" style="stroke: #038048; stroke-width: 1.0;"/><text fill="#000000" font-family="sans-serif" font-size="11" lengthAdjust="spacingAndGlyphs" textLength="173" x="1124" y="1077.7339">queue_log(data : BytesIO) : int</text><ellipse cx="1115" cy="1088.2305" fill="#84BE84" rx="3" ry="3" style="stroke: #038048; stroke-width: 1.0;"/><text fill="#000000" font-family="sans-serif" font-size="11" lengthAdjust="spacingAndGlyphs" textLength="209" x="1124" y="1090.5386">ok_log_item(log_queue_ok_num : int)</text><ellipse cx="1115" cy="1101.0352" fill="#84BE84" rx="3" ry="3" style="stroke: #038048; stroke-width: 1.0;"/><text fill="#000000" font-family="sans-serif" font-size="11" lengthAdjust="spacingAndGlyphs" textLength="92" x="1124" y="1103.3433">undo() : BytesIO</text><ellipse cx="1115" cy="1113.8398" fill="#84BE84" rx="3" ry="3" style="stroke: #038048; stroke-width: 1.0;"/><text fill="#000000" font-family="sans-serif" font-size="11" lengthAdjust="spacingAndGlyphs" textLength="90" x="1124" y="1116.1479">redo() : BytesIO</text><rect fill="#FEFECE" filter="url(#f1)" height="265.6797" style="stroke: #A80036; stroke-width: 1.5;" width="383" x="1509.5" y="908"/><ellipse cx="1679.75" cy="924" fill="#ADD1B2" rx="11" ry="11" style="stroke: #A80036; stroke-width: 1.0;"/><path d="M1682.7188,929.6406 Q1682.1406,929.9375 1681.5,930.0859 Q1680.8594,930.2344 1680.1563,930.2344 Q1677.6563,930.2344 1676.3359,928.5859 Q1675.0156,926.9375 1675.0156,923.8125 Q1675.0156,920.6875 1676.3359,919.0313 Q1677.6563,917.375 1680.1563,917.375 Q1680.8594,917.375 1681.5078,917.5313 Q1682.1563,917.6875 1682.7188,917.9844 L1682.7188,920.7031 Q1682.0938,920.125 1681.5,919.8516 Q1680.9063,919.5781 1680.2813,919.5781 Q1678.9375,919.5781 1678.25,920.6484 Q1677.5625,921.7188 1677.5625,923.8125 Q1677.5625,925.9063 1678.25,926.9766 Q1678.9375,928.0469 1680.2813,928.0469 Q1680.9063,928.0469 1681.5,927.7734 Q1682.0938,927.5 1682.7188,926.9219 L1682.7188,929.6406 Z "/><text fill="#000000" font-family="sans-serif" font-size="12" lengthAdjust="spacingAndGlyphs" textLength="34" x="1700.25" y="928.1543">LogIO</text><line style="stroke: #A80036; stroke-width: 1.5;" x1="1510.5" x2="1891.5" y1="940" y2="940"/><rect fill="none" height="6" style="stroke: #C82930; stroke-width: 1.0;" width="6" x="1517.5" y="948.9023"/><text fill="#000000" font-family="sans-serif" font-size="11" lengthAdjust="spacingAndGlyphs" textLength="116" x="1529.5" y="954.2104">default_path : String</text><rect fill="none" height="6" style="stroke: #C82930; stroke-width: 1.0;" width="6" x="1517.5" y="961.707"/><text fill="#000000" font-family="sans-serif" font-size="11" lengthAdjust="spacingAndGlyphs" textLength="69" x="1529.5" y="967.0151">timeout : int</text><rect fill="none" height="6" style="stroke: #C82930; stroke-width: 1.0;" width="6" x="1517.5" y="974.5117"/><text fill="#000000" font-family="sans-serif" font-size="11" lengthAdjust="spacingAndGlyphs" textLength="78" x="1529.5" y="979.8198">max_size : int</text><rect fill="none" height="6" style="stroke: #C82930; stroke-width: 1.0;" width="6" x="1517.5" y="987.3164"/><text fill="#000000" font-family="sans-serif" font-size="11" lengthAdjust="spacingAndGlyphs" textLength="81" x="1529.5" y="992.6245">max_diffs : int</text><rect fill="none" height="6" style="stroke: #C82930; stroke-width: 1.0;" width="6" x="1517.5" y="1000.1211"/><text fill="#000000" font-family="sans-serif" font-size="11" lengthAdjust="spacingAndGlyphs" textLength="71" x="1529.5" y="1005.4292">path : String</text><rect fill="none" height="6" style="stroke: #C82930; stroke-width: 1.0;" width="6" x="1517.5" y="1012.9258"/><text fill="#000000" font-family="sans-serif" font-size="11" lengthAdjust="spacingAndGlyphs" textLength="78" x="1529.5" y="1018.2339">name : String</text><rect fill="none" height="6" style="stroke: #C82930; stroke-width: 1.0;" width="6" x="1517.5" y="1025.7305"/><text fill="#000000" font-family="sans-serif" font-size="11" lengthAdjust="spacingAndGlyphs" textLength="87" x="1529.5" y="1031.0386">current : String</text><rect fill="none" height="6" style="stroke: #C82930; stroke-width: 1.0;" width="6" x="1517.5" y="1038.5352"/><text fill="#000000" font-family="sans-serif" font-size="11" lengthAdjust="spacingAndGlyphs" textLength="136" x="1529.5" y="1043.8433">uwrite_queue: BytesIO[]</text><rect fill="none" height="6" style="stroke: #C82930; stroke-width: 1.0;" width="6" x="1517.5" y="1051.3398"/><text fill="#000000" font-family="sans-serif" font-size="11" lengthAdjust="spacingAndGlyphs" textLength="134" x="1529.5" y="1056.6479">rwrite_queue: BytesIO[]</text><line style="stroke: #A80036; stroke-width: 1.5;" x1="1510.5" x2="1891.5" y1="1063.2422" y2="1063.2422"/><ellipse cx="1520.5" cy="1075.1445" fill="#84BE84" rx="3" ry="3" style="stroke: #038048; stroke-width: 1.0;"/><text fill="#000000" font-family="sans-serif" font-size="11" lengthAdjust="spacingAndGlyphs" textLength="164" x="1529.5" y="1077.4526">__init__(path : String) : LogIO</text><ellipse cx="1520.5" cy="1087.9492" fill="#84BE84" rx="3" ry="3" style="stroke: #038048; stroke-width: 1.0;"/><text fill="#000000" font-family="sans-serif" font-size="11" lengthAdjust="spacingAndGlyphs" textLength="266" x="1529.5" y="1090.2573">diff(current : BytesIO, new : BytesIO) : BytesIO</text><ellipse cx="1520.5" cy="1100.7539" fill="#84BE84" rx="3" ry="3" style="stroke: #038048; stroke-width: 1.0;"/><text fill="#000000" font-family="sans-serif" font-size="11" lengthAdjust="spacingAndGlyphs" textLength="218" x="1529.5" y="1103.062">read() : (BytesIO, BytesIO[], BytesIO[])</text><ellipse cx="1520.5" cy="1113.5586" fill="#84BE84" rx="3" ry="3" style="stroke: #038048; stroke-width: 1.0;"/><text fill="#000000" font-family="sans-serif" font-size="11" lengthAdjust="spacingAndGlyphs" textLength="213" x="1529.5" y="1115.8667">flush_write_queue(_=None, __=None)</text><ellipse cx="1520.5" cy="1126.3633" fill="#84BE84" rx="3" ry="3" style="stroke: #038048; stroke-width: 1.0;"/><text fill="#000000" font-family="sans-serif" font-size="11" lengthAdjust="spacingAndGlyphs" textLength="117" x="1529.5" y="1128.6714">clear(queue : String)</text><ellipse cx="1520.5" cy="1139.168" fill="#84BE84" rx="3" ry="3" style="stroke: #038048; stroke-width: 1.0;"/><text fill="#000000" font-family="sans-serif" font-size="11" lengthAdjust="spacingAndGlyphs" textLength="110" x="1529.5" y="1141.4761">pop(queue : String)</text><ellipse cx="1520.5" cy="1151.9727" fill="#84BE84" rx="3" ry="3" style="stroke: #038048; stroke-width: 1.0;"/><text fill="#000000" font-family="sans-serif" font-size="11" lengthAdjust="spacingAndGlyphs" textLength="282" x="1529.5" y="1154.2808">undo(current : BytesIO, entry : BytesIO) : BytesIO</text><ellipse cx="1520.5" cy="1164.7773" fill="#84BE84" rx="3" ry="3" style="stroke: #038048; stroke-width: 1.0;"/><text fill="#000000" font-family="sans-serif" font-size="11" lengthAdjust="spacingAndGlyphs" textLength="357" x="1529.5" y="1167.0854">redo(current : BytesIO, entry : BytesIO, clean=False) : BytesIO</text><rect fill="#FEFECE" filter="url(#f1)" height="163.2422" style="stroke: #A80036; stroke-width: 1.5;" width="736" x="333" y="959.5"/><ellipse cx="674.25" cy="975.5" fill="#ADD1B2" rx="11" ry="11" style="stroke: #A80036; stroke-width: 1.0;"/><path d="M677.2188,981.1406 Q676.6406,981.4375 676,981.5859 Q675.3594,981.7344 674.6563,981.7344 Q672.1563,981.7344 670.8359,980.0859 Q669.5156,978.4375 669.5156,975.3125 Q669.5156,972.1875 670.8359,970.5313 Q672.1563,968.875 674.6563,968.875 Q675.3594,968.875 676.0078,969.0313 Q676.6563,969.1875 677.2188,969.4844 L677.2188,972.2031 Q676.5938,971.625 676,971.3516 Q675.4063,971.0781 674.7813,971.0781 Q673.4375,971.0781 672.75,972.1484 Q672.0625,973.2188 672.0625,975.3125 Q672.0625,977.4063 672.75,978.4766 Q673.4375,979.5469 674.7813,979.5469 Q675.4063,979.5469 676,979.2734 Q676.5938,979 677.2188,978.4219 L677.2188,981.1406 Z "/><text fill="#000000" font-family="sans-serif" font-size="12" lengthAdjust="spacingAndGlyphs" textLength="45" x="694.75" y="979.6543">InfoLog</text><line style="stroke: #A80036; stroke-width: 1.5;" x1="334" x2="1068" y1="991.5" y2="991.5"/><rect fill="none" height="6" style="stroke: #C82930; stroke-width: 1.0;" width="6" x="341" y="1000.4023"/><text fill="#000000" font-family="sans-serif" font-size="11" lengthAdjust="spacingAndGlyphs" textLength="139" x="353" y="1005.7104">default_log_path : String</text><rect fill="none" height="6" style="stroke: #C82930; stroke-width: 1.0;" width="6" x="341" y="1013.207"/><text fill="#000000" font-family="sans-serif" font-size="11" lengthAdjust="spacingAndGlyphs" textLength="159" x="353" y="1018.5151">default_socket_path : String</text><rect fill="none" height="6" style="stroke: #C82930; stroke-width: 1.0;" width="6" x="341" y="1026.0117"/><text fill="#000000" font-family="sans-serif" font-size="11" lengthAdjust="spacingAndGlyphs" textLength="95" x="353" y="1031.3198">filename : String</text><rect fill="none" height="6" style="stroke: #C82930; stroke-width: 1.0;" width="6" x="341" y="1038.8164"/><text fill="#000000" font-family="sans-serif" font-size="11" lengthAdjust="spacingAndGlyphs" textLength="83" x="353" y="1044.1245">socket : String</text><rect fill="none" height="6" style="stroke: #C82930; stroke-width: 1.0;" width="6" x="341" y="1051.6211"/><text fill="#000000" font-family="sans-serif" font-size="11" lengthAdjust="spacingAndGlyphs" textLength="113" x="353" y="1056.9292">root_logger : logger</text><rect fill="none" height="6" style="stroke: #C82930; stroke-width: 1.0;" width="6" x="341" y="1064.4258"/><text fill="#000000" font-family="sans-serif" font-size="11" lengthAdjust="spacingAndGlyphs" textLength="174" x="353" y="1069.7339">f_handler : RotatingFileHandler</text><rect fill="none" height="6" style="stroke: #C82930; stroke-width: 1.0;" width="6" x="341" y="1077.2305"/><text fill="#000000" font-family="sans-serif" font-size="11" lengthAdjust="spacingAndGlyphs" textLength="150" x="353" y="1082.5386">s_handler : SocketHandler</text><line style="stroke: #A80036; stroke-width: 1.5;" x1="334" x2="1068" y1="1089.1328" y2="1089.1328"/><ellipse cx="344" cy="1101.0352" fill="#84BE84" rx="3" ry="3" style="stroke: #038048; stroke-width: 1.0;"/><text fill="#000000" font-family="sans-serif" font-size="11" lengthAdjust="spacingAndGlyphs" textLength="710" x="353" y="1103.3433">__init__(loglevel="WARNING" : String, filename=default_log_path : String, socket_path=default_socket_path : String) : InfoLog</text><ellipse cx="344" cy="1113.8398" fill="#84BE84" rx="3" ry="3" style="stroke: #038048; stroke-width: 1.0;"/><text fill="#000000" font-family="sans-serif" font-size="11" lengthAdjust="spacingAndGlyphs" textLength="127" x="353" y="1116.1479">set_loglevel(level : int)</text><path d="M1346.35,387.011 C1350.84,410.036 1355.38,432.833 1356,434 C1365.19,451.371 1377.78,467.878 1391.27,482.725 " fill="none" style="stroke: #A80036; stroke-width: 1.0;"/><text fill="#000000" font-family="sans-serif" font-size="13" lengthAdjust="spacingAndGlyphs" textLength="30" x="1357" y="430.0669">uses</text><polygon fill="#000000" points="1367.5,439.1328,1370.5,445.1328,1373.5,439.1328,1367.5,439.1328" style="stroke: #000000; stroke-width: 1.0;"/><path d="M1741.08,536.629 C1754.86,540.435 1763,545.559 1763,552 C1763,560.244 1749.67,566.331 1728.23,570.259 " fill="none" style="stroke: #A80036; stroke-width: 1.0;"/><polygon fill="none" points="1728.23,533.741,1733.21,538.9564,1739.9395,536.3654,1734.9595,531.15,1728.23,533.741" style="stroke: #A80036; stroke-width: 1.0;"/><text fill="#000000" font-family="sans-serif" font-size="13" lengthAdjust="spacingAndGlyphs" textLength="24" x="1736.2228" y="530.0506">0..n</text><text fill="#000000" font-family="sans-serif" font-size="13" lengthAdjust="spacingAndGlyphs" textLength="8" x="1735.9853" y="567.6527">1</text><path d="M1453.62,1041 C1472.2,1041 1490.79,1041 1509.38,1041 " fill="none" style="stroke: #A80036; stroke-width: 1.0;"/><polygon fill="#A80036" points="1440.42,1041,1446.42,1045,1452.42,1041,1446.42,1037,1440.42,1041" style="stroke: #A80036; stroke-width: 1.0;"/><path d="M463.013,822.574 C412.563,836.778 361.686,855.73 317,881 C264.433,910.727 217.742,963.095 189.219,999.576 " fill="none" style="stroke: #A80036; stroke-width: 1.0;"/><polygon fill="#A80036" points="185.831,1003.943,194.5072,999.2822,188.8951,999.9919,188.1854,994.3797,185.831,1003.943" style="stroke: #A80036; stroke-width: 1.0;"/><text fill="#000000" font-family="sans-serif" font-size="13" lengthAdjust="spacingAndGlyphs" textLength="8" x="409.7995" y="842.9939">1</text><text fill="#000000" font-family="sans-serif" font-size="13" lengthAdjust="spacingAndGlyphs" textLength="24" x="164.3811" y="992.843">1..n</text><path d="M694.584,640.184 C702.98,671.22 712.113,704.983 719.254,731.382 " fill="none" style="stroke: #A80036; stroke-width: 1.0;"/><polygon fill="#A80036" points="720.564,736.224,722.0745,726.4917,719.2581,731.3976,714.3522,728.5811,720.564,736.224" style="stroke: #A80036; stroke-width: 1.0;"/><text fill="#000000" font-family="sans-serif" font-size="13" lengthAdjust="spacingAndGlyphs" textLength="30" x="708" y="683.0669">uses</text><polygon fill="#000000" points="718.5,692.1328,721.5,698.1328,724.5,692.1328,718.5,692.1328" style="stroke: #000000; stroke-width: 1.0;"/><path d="M1102.61,206.221 C1114.95,223.271 1126.23,241.913 1134,261 C1163.17,332.642 1126.57,361.304 1153,434 C1158.48,449.06 1167.29,449.028 1173,464 C1201.17,537.815 1166.95,567.351 1198,640 C1209.1,665.958 1226.35,691.194 1243.88,712.857 " fill="none" style="stroke: #A80036; stroke-width: 1.0;"/><polygon fill="#A80036" points="1247.16,716.86,1244.5573,707.3613,1243.994,712.99,1238.3653,712.4268,1247.16,716.86" style="stroke: #A80036; stroke-width: 1.0;"/><text fill="#000000" font-family="sans-serif" font-size="13" lengthAdjust="spacingAndGlyphs" textLength="30" x="1154" y="430.0669">uses</text><polygon fill="#000000" points="1164.5,439.1328,1167.5,445.1328,1170.5,439.1328,1164.5,439.1328" style="stroke: #000000; stroke-width: 1.0;"/><path d="M1296.89,855.449 C1293.06,883.839 1288.65,916.518 1284.62,946.414 " fill="none" style="stroke: #A80036; stroke-width: 1.0;"/><polygon fill="#A80036" points="1282.86,959.48,1288.0275,951.0957,1283.5286,954.5249,1280.0993,950.026,1282.86,959.48" style="stroke: #A80036; stroke-width: 1.0;"/><line style="stroke: #A80036; stroke-width: 1.0;" x1="1283.5286" x2="1284.6" y1="954.5249" y2="946.5965"/><polygon fill="none" points="1298.66,842.327,1293.8937,847.7383,1297.0555,854.2192,1301.8218,848.808,1298.66,842.327" style="stroke: #A80036; stroke-width: 1.0;"/><text fill="#000000" font-family="sans-serif" font-size="13" lengthAdjust="spacingAndGlyphs" textLength="8" x="1289.3103" y="862.1026">1</text><text fill="#000000" font-family="sans-serif" font-size="13" lengthAdjust="spacingAndGlyphs" textLength="8" x="1275.4924" y="948.3353">1</text><path d="M871.992,127.54 C597.513,135.38 57,171.75 57,336.5 C57,336.5 57,336.5 57,780.5 C57,809.108 53.3103,824.576 76,842 C165.072,910.401 981.414,840.08 1086,881 C1128.92,897.795 1168.88,928.914 1200.66,959.2 " fill="none" style="stroke: #A80036; stroke-width: 1.0;"/><text fill="#000000" font-family="sans-serif" font-size="13" lengthAdjust="spacingAndGlyphs" textLength="30" x="58" y="556.5669">uses</text><polygon fill="#000000" points="68.5,565.6328,71.5,571.6328,74.5,565.6328,68.5,565.6328" style="stroke: #000000; stroke-width: 1.0;"/><path d="M1146.14,206.173 C1184.94,232.669 1226.99,261.379 1261.72,285.092 " fill="none" style="stroke: #A80036; stroke-width: 1.0;"/><polygon fill="#A80036" points="1265.91,287.958,1260.7264,279.5836,1261.7786,285.1418,1256.2204,286.1939,1265.91,287.958" style="stroke: #A80036; stroke-width: 1.0;"/><text fill="#000000" font-family="sans-serif" font-size="13" lengthAdjust="spacingAndGlyphs" textLength="30" x="1212" y="249.0669">uses</text><polygon fill="#000000" points="1245,243.0664,1251,246.0664,1245,249.0664,1245,243.0664" style="stroke: #000000; stroke-width: 1.0;"/><path d="M1010.41,206.173 C1004.303,234.196 997.654,264.696 992.325,289.14 " fill="none" style="stroke: #A80036; stroke-width: 1.0;"/><polygon fill="#A80036" points="991.208,294.262,997.0324,286.32,992.2725,289.3766,989.2158,284.6167,991.208,294.262" style="stroke: #A80036; stroke-width: 1.0;"/><text fill="#000000" font-family="sans-serif" font-size="13" lengthAdjust="spacingAndGlyphs" textLength="8" x="1000.4893" y="226.177">1</text><text fill="#000000" font-family="sans-serif" font-size="13" lengthAdjust="spacingAndGlyphs" textLength="8" x="984.0055" y="283.5381">1</text><path d="M1196.86,204.624 C1198.24,205.091 1199.62,205.549 1201,206 C1319.88,244.883 1397.67,164.3 1477,261 C1524.14,318.458 1514.93,406.048 1498.68,469.932 " fill="none" style="stroke: #A80036; stroke-width: 1.0;"/><polygon fill="#A80036" points="1495.24,482.78,1501.4329,475.1218,1496.534,477.9503,1493.7054,473.0514,1495.24,482.78" style="stroke: #A80036; stroke-width: 1.0;"/><line style="stroke: #A80036; stroke-width: 1.0;" x1="1496.534" x2="1498.605" y1="477.9503" y2="470.2235"/><polygon fill="none" points="1184.34,200.23,1188.679,205.9896,1195.6644,204.1996,1191.3254,198.44,1184.34,200.23" style="stroke: #A80036; stroke-width: 1.0;"/><text fill="#000000" font-family="sans-serif" font-size="13" lengthAdjust="spacingAndGlyphs" textLength="8" x="1192.1065" y="200.5991">1</text><text fill="#000000" font-family="sans-serif" font-size="13" lengthAdjust="spacingAndGlyphs" textLength="8" x="1489.3273" y="471.9609">1</text><path d="M1003.747,380.682 C1016.1,404.929 1031.71,436.035 1045,464 C1093.67,566.428 1082,614.264 1169,687 C1181.24,697.233 1194.66,707.329 1208.17,716.868 " fill="none" style="stroke: #A80036; stroke-width: 1.0;"/><text fill="#000000" font-family="sans-serif" font-size="13" lengthAdjust="spacingAndGlyphs" textLength="30" x="1124" y="556.5669">uses</text><polygon fill="#000000" points="1134.5,565.6328,1137.5,571.6328,1140.5,565.6328,1134.5,565.6328" style="stroke: #000000; stroke-width: 1.0;"/><path d="M1348.76,482.856 C1301.48,459.81 1245.96,437.072 1192.5,425.5 C1086.62,402.581 969.337,426.58 872.85,459.604 " fill="none" style="stroke: #A80036; stroke-width: 1.0;"/><polygon fill="none" points="860.285,463.996,867.2687,465.7926,871.6131,460.0371,864.6294,458.2405,860.285,463.996" style="stroke: #A80036; stroke-width: 1.0;"/><path d="M911.479,640.106 C955.21,655.808 1000.445,671.961 1043,687 C1068.94,696.167 1096.35,705.764 1123.3,715.15 " fill="none" style="stroke: #A80036; stroke-width: 1.0;"/><polygon fill="#A80036" points="1128.32,716.9,1121.1338,710.1652,1123.5976,715.2573,1118.5054,717.7211,1128.32,716.9" style="stroke: #A80036; stroke-width: 1.0;"/><text fill="#000000" font-family="sans-serif" font-size="13" lengthAdjust="spacingAndGlyphs" textLength="30" x="1044" y="683.0669">uses</text><polygon fill="#000000" points="1077,677.0664,1083,680.0664,1077,683.0664,1077,677.0664" style="stroke: #000000; stroke-width: 1.0;"/><text fill="#000000" font-family="sans-serif" font-size="13" lengthAdjust="spacingAndGlyphs" textLength="23" x="1083.3304" y="705.8792">1..*</text><path d="M223.363,742.351 C204.69,676.513 177.232,537.116 252,464 C289.634,427.198 1149.01,450.484 1199,434 C1227.26,424.681 1254.94,407.595 1278,390.423 " fill="none" style="stroke: #A80036; stroke-width: 1.0;"/><polygon fill="#A80036" points="1282.25,387.218,1272.657,389.4481,1278.2594,390.2305,1277.477,395.833,1282.25,387.218" style="stroke: #A80036; stroke-width: 1.0;"/><text fill="#000000" font-family="sans-serif" font-size="13" lengthAdjust="spacingAndGlyphs" textLength="30" x="253" y="556.5669">uses</text><polygon fill="#000000" points="286,550.5664,292,553.5664,286,556.5664,286,550.5664" style="stroke: #000000; stroke-width: 1.0;"/><path d="M502.743,640.023 C433.932,675.612 358.136,714.814 304.808,742.395 " fill="none" style="stroke: #A80036; stroke-width: 1.0;"/><text fill="#000000" font-family="sans-serif" font-size="13" lengthAdjust="spacingAndGlyphs" textLength="8" x="480.478" y="660.004">1</text><text fill="#000000" font-family="sans-serif" font-size="13" lengthAdjust="spacingAndGlyphs" textLength="8" x="308.5301" y="731.5632">1</text><path d="M1421.35,621.269 C1399.19,651.732 1373.29,687.355 1351.74,716.982 " fill="none" style="stroke: #A80036; stroke-width: 1.0;"/></g></svg>