<?xml version="1.0" encoding="UTF-8" standalone="yes"?><svg xmlns="http://www.w3.org/2000/svg" xmlns:xlink="http://www.w3.org/1999/xlink" height="747pt" style="width:996px;height:747px;" version="1.1" viewBox="0 0 996 747" width="996pt"><defs><filter height="300%" id="f1" width="300%" x="-1" y="-1"><feGaussianBlur result="blurOut" stdDeviation="2.0"/><feColorMatrix in="blurOut" result="blurOut2" type="matrix" values="0 0 0 0 0 0 0 0 0 0 0 0 0 0 0 0 0 0 .4 0"/><feOffset dx="4.0" dy="4.0" in="blurOut2" result="blurOut3"/><feBlend in="SourceGraphic" in2="blurOut3" mode="normal"/></filter></defs><g><rect fill="#FFFFFF" filter="url(#f1)" height="548.8594" style="stroke: #A80036; stroke-width: 1.0;" width="10" x="22" y="96.2969"/><rect fill="#FFFFFF" filter="url(#f1)" height="527.8594" style="stroke: #A80036; stroke-width: 1.0;" width="10" x="145" y="117.2969"/><rect fill="#FFFFFF" filter="url(#f1)" height="68.2656" style="stroke: #A80036; stroke-width: 1.0;" width="10" x="150" y="314.0938"/><rect fill="#FFFFFF" filter="url(#f1)" height="130.5313" style="stroke: #A80036; stroke-width: 1.0;" width="10" x="434" y="146.4297"/><rect fill="#FFFFFF" filter="url(#f1)" height="72.2656" style="stroke: #A80036; stroke-width: 1.0;" width="10" x="637" y="175.5625"/><rect fill="#FFFFFF" filter="url(#f1)" height="14.1328" style="stroke: #A80036; stroke-width: 1.0;" width="10" x="774" y="204.6953"/><rect fill="#FFFFFF" filter="url(#f1)" height="14.1328" style="stroke: #A80036; stroke-width: 1.0;" width="10" x="923" y="348.2266"/><rect fill="#FFFFFF" filter="url(#f1)" height="29.1328" style="stroke: #A80036; stroke-width: 1.0;" width="10" x="923" y="418.3594"/><line style="stroke: #A80036; stroke-width: 1.0; stroke-dasharray: 5.0,5.0;" x1="27" x2="27" y1="86.2969" y2="663.2891"/><line style="stroke: #A80036; stroke-width: 1.0; stroke-dasharray: 5.0,5.0;" x1="150" x2="150" y1="86.2969" y2="663.2891"/><line style="stroke: #A80036; stroke-width: 1.0; stroke-dasharray: 5.0,5.0;" x1="439" x2="439" y1="86.2969" y2="663.2891"/><line style="stroke: #A80036; stroke-width: 1.0; stroke-dasharray: 5.0,5.0;" x1="642" x2="642" y1="86.2969" y2="663.2891"/><line style="stroke: #A80036; stroke-width: 1.0; stroke-dasharray: 5.0,5.0;" x1="779" x2="779" y1="86.2969" y2="663.2891"/><line style="stroke: #A80036; stroke-width: 1.0; stroke-dasharray: 5.0,5.0;" x1="928" x2="928" y1="86.2969" y2="663.2891"/><text fill="#000000" font-family="sans-serif" font-size="14" lengthAdjust="spacingAndGlyphs" textLength="32" x="8" y="82.9951">User</text><ellipse cx="27" cy="13" fill="#FEFECE" filter="url(#f1)" rx="8" ry="8" style="stroke: #A80036; stroke-width: 2.0;"/><path d="M27,21 L27,48 M14,29 L40,29 M27,48 L14,63 M27,48 L40,63 " fill="#FEFECE" filter="url(#f1)" style="stroke: #A80036; stroke-width: 2.0;"/><text fill="#000000" font-family="sans-serif" font-size="14" lengthAdjust="spacingAndGlyphs" textLength="32" x="8" y="675.2842">User</text><ellipse cx="27" cy="688.5859" fill="#FEFECE" filter="url(#f1)" rx="8" ry="8" style="stroke: #A80036; stroke-width: 2.0;"/><path d="M27,696.5859 L27,723.5859 M14,704.5859 L40,704.5859 M27,723.5859 L14,738.5859 M27,723.5859 L40,738.5859 " fill="#FEFECE" filter="url(#f1)" style="stroke: #A80036; stroke-width: 2.0;"/><rect fill="#FEFECE" filter="url(#f1)" height="30.2969" style="stroke: #A80036; stroke-width: 1.5;" width="104" x="96" y="51"/><text fill="#000000" font-family="sans-serif" font-size="14" lengthAdjust="spacingAndGlyphs" textLength="90" x="103" y="70.9951">GraphWidget</text><rect fill="#FEFECE" filter="url(#f1)" height="30.2969" style="stroke: #A80036; stroke-width: 1.5;" width="104" x="96" y="662.2891"/><text fill="#000000" font-family="sans-serif" font-size="14" lengthAdjust="spacingAndGlyphs" textLength="90" x="103" y="682.2842">GraphWidget</text><rect fill="#FEFECE" filter="url(#f1)" height="30.2969" style="stroke: #A80036; stroke-width: 1.5;" width="126" x="374" y="51"/><text fill="#000000" font-family="sans-serif" font-size="14" lengthAdjust="spacingAndGlyphs" textLength="112" x="381" y="70.9951">SyntaxController</text><rect fill="#FEFECE" filter="url(#f1)" height="30.2969" style="stroke: #A80036; stroke-width: 1.5;" width="126" x="374" y="662.2891"/><text fill="#000000" font-family="sans-serif" font-size="14" lengthAdjust="spacingAndGlyphs" textLength="112" x="381" y="682.2842">SyntaxController</text><rect fill="#FEFECE" filter="url(#f1)" height="30.2969" style="stroke: #A80036; stroke-width: 1.5;" width="58" x="611" y="51"/><text fill="#000000" font-family="sans-serif" font-size="14" lengthAdjust="spacingAndGlyphs" textLength="44" x="618" y="70.9951">Parser</text><rect fill="#FEFECE" filter="url(#f1)" height="30.2969" style="stroke: #A80036; stroke-width: 1.5;" width="58" x="611" y="662.2891"/><text fill="#000000" font-family="sans-serif" font-size="14" lengthAdjust="spacingAndGlyphs" textLength="44" x="618" y="682.2842">Parser</text><rect fill="#FEFECE" filter="url(#f1)" height="30.2969" style="stroke: #A80036; stroke-width: 1.5;" width="148" x="703" y="51"/><text fill="#000000" font-family="sans-serif" font-size="14" lengthAdjust="spacingAndGlyphs" textLength="134" x="710" y="70.9951">AbstractSyntaxTree</text><rect fill="#FEFECE" filter="url(#f1)" height="30.2969" style="stroke: #A80036; stroke-width: 1.5;" width="148" x="703" y="662.2891"/><text fill="#000000" font-family="sans-serif" font-size="14" lengthAdjust="spacingAndGlyphs" textLength="134" x="710" y="682.2842">AbstractSyntaxTree</text><rect fill="#FEFECE" filter="url(#f1)" height="30.2969" style="stroke: #A80036; stroke-width: 1.5;" width="122" x="865" y="51"/><text fill="#000000" font-family="sans-serif" font-size="14" lengthAdjust="spacingAndGlyphs" textLength="108" x="872" y="70.9951">IndexAbstractor</text><rect fill="#FEFECE" filter="url(#f1)" height="30.2969" style="stroke: #A80036; stroke-width: 1.5;" width="122" x="865" y="662.2891"/><text fill="#000000" font-family="sans-serif" font-size="14" lengthAdjust="spacingAndGlyphs" textLength="108" x="872" y="682.2842">IndexAbstractor</text><rect fill="#FFFFFF" filter="url(#f1)" height="548.8594" style="stroke: #A80036; stroke-width: 1.0;" width="10" x="22" y="96.2969"/><rect fill="#FFFFFF" filter="url(#f1)" height="527.8594" style="stroke: #A80036; stroke-width: 1.0;" width="10" x="145" y="117.2969"/><rect fill="#FFFFFF" filter="url(#f1)" height="68.2656" style="stroke: #A80036; stroke-width: 1.0;" width="10" x="150" y="314.0938"/><rect fill="#FFFFFF" filter="url(#f1)" height="130.5313" style="stroke: #A80036; stroke-width: 1.0;" width="10" x="434" y="146.4297"/><rect fill="#FFFFFF" filter="url(#f1)" height="72.2656" style="stroke: #A80036; stroke-width: 1.0;" width="10" x="637" y="175.5625"/><rect fill="#FFFFFF" filter="url(#f1)" height="14.1328" style="stroke: #A80036; stroke-width: 1.0;" width="10" x="774" y="204.6953"/><rect fill="#FFFFFF" filter="url(#f1)" height="14.1328" style="stroke: #A80036; stroke-width: 1.0;" width="10" x="923" y="348.2266"/><rect fill="#FFFFFF" filter="url(#f1)" height="29.1328" style="stroke: #A80036; stroke-width: 1.0;" width="10" x="923" y="418.3594"/><polygon fill="#A80036" points="133,113.2969,143,117.2969,133,121.2969,137,117.2969" style="stroke: #A80036; stroke-width: 1.0;"/><line style="stroke: #A80036; stroke-width: 1.0;" x1="32" x2="139" y1="117.2969" y2="117.2969"/><text fill="#000000" font-family="sans-serif" font-size="13" lengthAdjust="spacingAndGlyphs" textLength="70" x="39" y="112.3638">Adds Node</text><polygon fill="#A80036" points="422,142.4297,432,146.4297,422,150.4297,426,146.4297" style="stroke: #A80036; stroke-width: 1.0;"/><line style="stroke: #A80036; stroke-width: 1.0;" x1="155" x2="428" y1="146.4297" y2="146.4297"/><text fill="#000000" font-family="sans-serif" font-size="13" lengthAdjust="spacingAndGlyphs" textLength="255" x="162" y="141.4966">add_ontology(ontology, newversion=kif)</text><polygon fill="#A80036" points="625,171.5625,635,175.5625,625,179.5625,629,175.5625" style="stroke: #A80036; stroke-width: 1.0;"/><line style="stroke: #A80036; stroke-width: 1.0;" x1="444" x2="631" y1="175.5625" y2="175.5625"/><text fill="#000000" font-family="sans-serif" font-size="13" lengthAdjust="spacingAndGlyphs" textLength="169" x="451" y="170.6294">kifparse(file, ontology, ast)</text><polygon fill="#A80036" points="762,200.6953,772,204.6953,762,208.6953,766,204.6953" style="stroke: #A80036; stroke-width: 1.0;"/><line style="stroke: #A80036; stroke-width: 1.0;" x1="647" x2="768" y1="204.6953" y2="204.6953"/><text fill="#000000" font-family="sans-serif" font-size="13" lengthAdjust="spacingAndGlyphs" textLength="103" x="654" y="199.7622">add_child(entry)</text><polygon fill="#A80036" points="658,214.8281,648,218.8281,658,222.8281,654,218.8281" style="stroke: #A80036; stroke-width: 1.0;"/><line style="stroke: #A80036; stroke-width: 1.0;" x1="652" x2="778" y1="218.8281" y2="218.8281"/><polygon fill="#A80036" points="455,243.8281,445,247.8281,455,251.8281,451,247.8281" style="stroke: #A80036; stroke-width: 1.0;"/><line style="stroke: #A80036; stroke-width: 1.0; stroke-dasharray: 2.0,2.0;" x1="449" x2="641" y1="247.8281" y2="247.8281"/><text fill="#000000" font-family="sans-serif" font-size="13" lengthAdjust="spacingAndGlyphs" textLength="68" x="461" y="242.895">return AST</text><polygon fill="#A80036" points="166,272.9609,156,276.9609,166,280.9609,162,276.9609" style="stroke: #A80036; stroke-width: 1.0;"/><line style="stroke: #A80036; stroke-width: 1.0; stroke-dasharray: 2.0,2.0;" x1="160" x2="438" y1="276.9609" y2="276.9609"/><text fill="#000000" font-family="sans-serif" font-size="13" lengthAdjust="spacingAndGlyphs" textLength="68" x="172" y="272.0278">return AST</text><line style="stroke: #A80036; stroke-width: 1.0;" x1="155" x2="202" y1="301.2266" y2="301.2266"/><line style="stroke: #A80036; stroke-width: 1.0;" x1="202" x2="202" y1="301.2266" y2="314.2266"/><line style="stroke: #A80036; stroke-width: 1.0;" x1="161" x2="202" y1="314.2266" y2="314.2266"/><polygon fill="#A80036" points="171,310.2266,161,314.2266,171,318.2266,167,314.2266" style="stroke: #A80036; stroke-width: 1.0;"/><text fill="#000000" font-family="sans-serif" font-size="13" lengthAdjust="spacingAndGlyphs" textLength="59" x="167" y="296.1606">commit()</text><polygon fill="#A80036" points="911,344.2266,921,348.2266,911,352.2266,915,348.2266" style="stroke: #A80036; stroke-width: 1.0;"/><line style="stroke: #A80036; stroke-width: 1.0;" x1="160" x2="917" y1="348.2266" y2="348.2266"/><text fill="#000000" font-family="sans-serif" font-size="13" lengthAdjust="spacingAndGlyphs" textLength="191" x="167" y="343.2935">index.update_index(new_AST)</text><polygon fill="#A80036" points="171,358.3594,161,362.3594,171,366.3594,167,362.3594" style="stroke: #A80036; stroke-width: 1.0;"/><line style="stroke: #A80036; stroke-width: 1.0;" x1="165" x2="927" y1="362.3594" y2="362.3594"/><line style="stroke: #A80036; stroke-width: 1.0;" x1="160" x2="202" y1="381.3594" y2="381.3594"/><line style="stroke: #A80036; stroke-width: 1.0;" x1="202" x2="202" y1="381.3594" y2="394.3594"/><line style="stroke: #A80036; stroke-width: 1.0;" x1="155" x2="202" y1="394.3594" y2="394.3594"/><polygon fill="#A80036" points="165,390.3594,155,394.3594,165,398.3594,161,394.3594" style="stroke: #A80036; stroke-width: 1.0;"/><polygon fill="#A80036" points="911,414.3594,921,418.3594,911,422.3594,915,418.3594" style="stroke: #A80036; stroke-width: 1.0;"/><line style="stroke: #A80036; stroke-width: 1.0;" x1="155" x2="917" y1="418.3594" y2="418.3594"/><text fill="#000000" font-family="sans-serif" font-size="13" lengthAdjust="spacingAndGlyphs" textLength="288" x="162" y="413.4263">get_graph(variant, major, minor, root, depth)</text><polygon fill="#A80036" points="166,443.4922,156,447.4922,166,451.4922,162,447.4922" style="stroke: #A80036; stroke-width: 1.0;"/><line style="stroke: #A80036; stroke-width: 1.0; stroke-dasharray: 2.0,2.0;" x1="160" x2="927" y1="447.4922" y2="447.4922"/><text fill="#000000" font-family="sans-serif" font-size="13" lengthAdjust="spacingAndGlyphs" textLength="136" x="172" y="442.5591">return AbstractGraph</text><line style="stroke: #A80036; stroke-width: 1.0;" x1="155" x2="197" y1="476.7578" y2="476.7578"/><line style="stroke: #A80036; stroke-width: 1.0;" x1="197" x2="197" y1="476.7578" y2="489.7578"/><line style="stroke: #A80036; stroke-width: 1.0;" x1="156" x2="197" y1="489.7578" y2="489.7578"/><polygon fill="#A80036" points="166,485.7578,156,489.7578,166,493.7578,162,489.7578" style="stroke: #A80036; stroke-width: 1.0;"/><text fill="#000000" font-family="sans-serif" font-size="13" lengthAdjust="spacingAndGlyphs" textLength="81" x="162" y="471.6919">newVariant()</text><line style="stroke: #A80036; stroke-width: 1.0;" x1="155" x2="197" y1="518.8906" y2="518.8906"/><line style="stroke: #A80036; stroke-width: 1.0;" x1="197" x2="197" y1="518.8906" y2="531.8906"/><line style="stroke: #A80036; stroke-width: 1.0;" x1="156" x2="197" y1="531.8906" y2="531.8906"/><polygon fill="#A80036" points="166,527.8906,156,531.8906,166,535.8906,162,531.8906" style="stroke: #A80036; stroke-width: 1.0;"/><text fill="#000000" font-family="sans-serif" font-size="13" lengthAdjust="spacingAndGlyphs" textLength="64" x="162" y="513.8247">newRoot()</text><line style="stroke: #A80036; stroke-width: 1.0;" x1="155" x2="197" y1="561.0234" y2="561.0234"/><line style="stroke: #A80036; stroke-width: 1.0;" x1="197" x2="197" y1="561.0234" y2="574.0234"/><line style="stroke: #A80036; stroke-width: 1.0;" x1="156" x2="197" y1="574.0234" y2="574.0234"/><polygon fill="#A80036" points="166,570.0234,156,574.0234,166,578.0234,162,574.0234" style="stroke: #A80036; stroke-width: 1.0;"/><text fill="#000000" font-family="sans-serif" font-size="13" lengthAdjust="spacingAndGlyphs" textLength="70" x="162" y="555.9575">createGV()</text><line style="stroke: #A80036; stroke-width: 1.0;" x1="155" x2="197" y1="603.1563" y2="603.1563"/><line style="stroke: #A80036; stroke-width: 1.0;" x1="197" x2="197" y1="603.1563" y2="616.1563"/><line style="stroke: #A80036; stroke-width: 1.0;" x1="156" x2="197" y1="616.1563" y2="616.1563"/><polygon fill="#A80036" points="166,612.1563,156,616.1563,166,620.1563,162,616.1563" style="stroke: #A80036; stroke-width: 1.0;"/><text fill="#000000" font-family="sans-serif" font-size="13" lengthAdjust="spacingAndGlyphs" textLength="34" x="162" y="598.0903">plot()</text><polygon fill="#A80036" points="38,641.1563,28,645.1563,38,649.1563,34,645.1563" style="stroke: #A80036; stroke-width: 1.0;"/><line style="stroke: #A80036; stroke-width: 1.0;" x1="32" x2="149" y1="645.1563" y2="645.1563"/><text fill="#000000" font-family="sans-serif" font-size="13" lengthAdjust="spacingAndGlyphs" textLength="89" x="44" y="640.2231">Display Graph</text></g></svg>