<?xml version="1.0" encoding="UTF-8" standalone="yes"?><svg xmlns="http://www.w3.org/2000/svg" xmlns:xlink="http://www.w3.org/1999/xlink" height="282pt" style="width:768px;height:282px;" version="1.1" viewBox="0 0 768 282" width="768pt"><defs><filter height="300%" id="f1" width="300%" x="-1" y="-1"><feGaussianBlur result="blurOut" stdDeviation="2.0"/><feColorMatrix in="blurOut" result="blurOut2" type="matrix" values="0 0 0 0 0 0 0 0 0 0 0 0 0 0 0 0 0 0 .4 0"/><feOffset dx="4.0" dy="4.0" in="blurOut2" result="blurOut3"/><feBlend in="SourceGraphic" in2="blurOut3" mode="normal"/></filter></defs><g><rect fill="#FEFECE" filter="url(#f1)" height="163.2422" style="stroke: #A80036; stroke-width: 1.5;" width="336" x="6" y="59.5"/><ellipse cx="140.75" cy="75.5" fill="#ADD1B2" rx="11" ry="11" style="stroke: #A80036; stroke-width: 1.0;"/><path d="M143.7188,81.1406 Q143.1406,81.4375 142.5,81.5859 Q141.8594,81.7344 141.1563,81.7344 Q138.6563,81.7344 137.3359,80.0859 Q136.0156,78.4375 136.0156,75.3125 Q136.0156,72.1875 137.3359,70.5313 Q138.6563,68.875 141.1563,68.875 Q141.8594,68.875 142.5078,69.0313 Q143.1563,69.1875 143.7188,69.4844 L143.7188,72.2031 Q143.0938,71.625 142.5,71.3516 Q141.9063,71.0781 141.2813,71.0781 Q139.9375,71.0781 139.25,72.1484 Q138.5625,73.2188 138.5625,75.3125 Q138.5625,77.4063 139.25,78.4766 Q139.9375,79.5469 141.2813,79.5469 Q141.9063,79.5469 142.5,79.2734 Q143.0938,79 143.7188,78.4219 L143.7188,81.1406 Z "/><text fill="#000000" font-family="sans-serif" font-size="12" lengthAdjust="spacingAndGlyphs" textLength="58" x="161.25" y="79.6543">Actionlog</text><line style="stroke: #A80036; stroke-width: 1.5;" x1="7" x2="341" y1="91.5" y2="91.5"/><rect fill="none" height="6" style="stroke: #C82930; stroke-width: 1.0;" width="6" x="14" y="100.4023"/><text fill="#000000" font-family="sans-serif" font-size="11" lengthAdjust="spacingAndGlyphs" textLength="94" x="26" y="105.7104">actionlog : Stack</text><rect fill="none" height="6" style="stroke: #C82930; stroke-width: 1.0;" width="6" x="14" y="113.207"/><text fill="#000000" font-family="sans-serif" font-size="11" lengthAdjust="spacingAndGlyphs" textLength="86" x="26" y="118.5151">redolog : Stack</text><rect fill="none" height="6" style="stroke: #C82930; stroke-width: 1.0;" width="6" x="14" y="126.0117"/><text fill="#000000" font-family="sans-serif" font-size="11" lengthAdjust="spacingAndGlyphs" textLength="97" x="26" y="131.3198">current : BytesIO</text><line style="stroke: #A80036; stroke-width: 1.5;" x1="7" x2="341" y1="137.9141" y2="137.9141"/><rect fill="#F24D5C" height="6" style="stroke: #C82930; stroke-width: 1.0;" width="6" x="14" y="146.8164"/><text fill="#000000" font-family="sans-serif" font-size="11" lengthAdjust="spacingAndGlyphs" textLength="121" x="26" y="152.1245">queue : (int, BytesIO)</text><ellipse cx="17" cy="162.6211" fill="#84BE84" rx="3" ry="3" style="stroke: #038048; stroke-width: 1.0;"/><text fill="#000000" font-family="sans-serif" font-size="11" lengthAdjust="spacingAndGlyphs" textLength="310" x="26" y="164.9292">__init__(name : String, path=None : String) : ActionLog</text><ellipse cx="17" cy="175.4258" fill="#84BE84" rx="3" ry="3" style="stroke: #038048; stroke-width: 1.0;"/><text fill="#000000" font-family="sans-serif" font-size="11" lengthAdjust="spacingAndGlyphs" textLength="173" x="26" y="177.7339">queue_log(data : BytesIO) : int</text><ellipse cx="17" cy="188.2305" fill="#84BE84" rx="3" ry="3" style="stroke: #038048; stroke-width: 1.0;"/><text fill="#000000" font-family="sans-serif" font-size="11" lengthAdjust="spacingAndGlyphs" textLength="209" x="26" y="190.5386">ok_log_item(log_queue_ok_num : int)</text><ellipse cx="17" cy="201.0352" fill="#84BE84" rx="3" ry="3" style="stroke: #038048; stroke-width: 1.0;"/><text fill="#000000" font-family="sans-serif" font-size="11" lengthAdjust="spacingAndGlyphs" textLength="92" x="26" y="203.3433">undo() : BytesIO</text><ellipse cx="17" cy="213.8398" fill="#84BE84" rx="3" ry="3" style="stroke: #038048; stroke-width: 1.0;"/><text fill="#000000" font-family="sans-serif" font-size="11" lengthAdjust="spacingAndGlyphs" textLength="90" x="26" y="216.1479">redo() : BytesIO</text><rect fill="#FEFECE" filter="url(#f1)" height="265.6797" style="stroke: #A80036; stroke-width: 1.5;" width="383" x="376.5" y="8"/><ellipse cx="546.75" cy="24" fill="#ADD1B2" rx="11" ry="11" style="stroke: #A80036; stroke-width: 1.0;"/><path d="M549.7188,29.6406 Q549.1406,29.9375 548.5,30.0859 Q547.8594,30.2344 547.1563,30.2344 Q544.6563,30.2344 543.3359,28.5859 Q542.0156,26.9375 542.0156,23.8125 Q542.0156,20.6875 543.3359,19.0313 Q544.6563,17.375 547.1563,17.375 Q547.8594,17.375 548.5078,17.5313 Q549.1563,17.6875 549.7188,17.9844 L549.7188,20.7031 Q549.0938,20.125 548.5,19.8516 Q547.9063,19.5781 547.2813,19.5781 Q545.9375,19.5781 545.25,20.6484 Q544.5625,21.7188 544.5625,23.8125 Q544.5625,25.9063 545.25,26.9766 Q545.9375,28.0469 547.2813,28.0469 Q547.9063,28.0469 548.5,27.7734 Q549.0938,27.5 549.7188,26.9219 L549.7188,29.6406 Z "/><text fill="#000000" font-family="sans-serif" font-size="12" lengthAdjust="spacingAndGlyphs" textLength="34" x="567.25" y="28.1543">LogIO</text><line style="stroke: #A80036; stroke-width: 1.5;" x1="377.5" x2="758.5" y1="40" y2="40"/><rect fill="none" height="6" style="stroke: #C82930; stroke-width: 1.0;" width="6" x="384.5" y="48.9023"/><text fill="#000000" font-family="sans-serif" font-size="11" lengthAdjust="spacingAndGlyphs" textLength="116" x="396.5" y="54.2104">default_path : String</text><rect fill="none" height="6" style="stroke: #C82930; stroke-width: 1.0;" width="6" x="384.5" y="61.707"/><text fill="#000000" font-family="sans-serif" font-size="11" lengthAdjust="spacingAndGlyphs" textLength="69" x="396.5" y="67.0151">timeout : int</text><rect fill="none" height="6" style="stroke: #C82930; stroke-width: 1.0;" width="6" x="384.5" y="74.5117"/><text fill="#000000" font-family="sans-serif" font-size="11" lengthAdjust="spacingAndGlyphs" textLength="78" x="396.5" y="79.8198">max_size : int</text><rect fill="none" height="6" style="stroke: #C82930; stroke-width: 1.0;" width="6" x="384.5" y="87.3164"/><text fill="#000000" font-family="sans-serif" font-size="11" lengthAdjust="spacingAndGlyphs" textLength="81" x="396.5" y="92.6245">max_diffs : int</text><rect fill="none" height="6" style="stroke: #C82930; stroke-width: 1.0;" width="6" x="384.5" y="100.1211"/><text fill="#000000" font-family="sans-serif" font-size="11" lengthAdjust="spacingAndGlyphs" textLength="71" x="396.5" y="105.4292">path : String</text><rect fill="none" height="6" style="stroke: #C82930; stroke-width: 1.0;" width="6" x="384.5" y="112.9258"/><text fill="#000000" font-family="sans-serif" font-size="11" lengthAdjust="spacingAndGlyphs" textLength="78" x="396.5" y="118.2339">name : String</text><rect fill="none" height="6" style="stroke: #C82930; stroke-width: 1.0;" width="6" x="384.5" y="125.7305"/><text fill="#000000" font-family="sans-serif" font-size="11" lengthAdjust="spacingAndGlyphs" textLength="87" x="396.5" y="131.0386">current : String</text><rect fill="none" height="6" style="stroke: #C82930; stroke-width: 1.0;" width="6" x="384.5" y="138.5352"/><text fill="#000000" font-family="sans-serif" font-size="11" lengthAdjust="spacingAndGlyphs" textLength="136" x="396.5" y="143.8433">uwrite_queue: BytesIO[]</text><rect fill="none" height="6" style="stroke: #C82930; stroke-width: 1.0;" width="6" x="384.5" y="151.3398"/><text fill="#000000" font-family="sans-serif" font-size="11" lengthAdjust="spacingAndGlyphs" textLength="134" x="396.5" y="156.6479">rwrite_queue: BytesIO[]</text><line style="stroke: #A80036; stroke-width: 1.5;" x1="377.5" x2="758.5" y1="163.2422" y2="163.2422"/><ellipse cx="387.5" cy="175.1445" fill="#84BE84" rx="3" ry="3" style="stroke: #038048; stroke-width: 1.0;"/><text fill="#000000" font-family="sans-serif" font-size="11" lengthAdjust="spacingAndGlyphs" textLength="164" x="396.5" y="177.4526">__init__(path : String) : LogIO</text><ellipse cx="387.5" cy="187.9492" fill="#84BE84" rx="3" ry="3" style="stroke: #038048; stroke-width: 1.0;"/><text fill="#000000" font-family="sans-serif" font-size="11" lengthAdjust="spacingAndGlyphs" textLength="266" x="396.5" y="190.2573">diff(current : BytesIO, new : BytesIO) : BytesIO</text><ellipse cx="387.5" cy="200.7539" fill="#84BE84" rx="3" ry="3" style="stroke: #038048; stroke-width: 1.0;"/><text fill="#000000" font-family="sans-serif" font-size="11" lengthAdjust="spacingAndGlyphs" textLength="218" x="396.5" y="203.062">read() : (BytesIO, BytesIO[], BytesIO[])</text><ellipse cx="387.5" cy="213.5586" fill="#84BE84" rx="3" ry="3" style="stroke: #038048; stroke-width: 1.0;"/><text fill="#000000" font-family="sans-serif" font-size="11" lengthAdjust="spacingAndGlyphs" textLength="213" x="396.5" y="215.8667">flush_write_queue(_=None, __=None)</text><ellipse cx="387.5" cy="226.3633" fill="#84BE84" rx="3" ry="3" style="stroke: #038048; stroke-width: 1.0;"/><text fill="#000000" font-family="sans-serif" font-size="11" lengthAdjust="spacingAndGlyphs" textLength="117" x="396.5" y="228.6714">clear(queue : String)</text><ellipse cx="387.5" cy="239.168" fill="#84BE84" rx="3" ry="3" style="stroke: #038048; stroke-width: 1.0;"/><text fill="#000000" font-family="sans-serif" font-size="11" lengthAdjust="spacingAndGlyphs" textLength="110" x="396.5" y="241.4761">pop(queue : String)</text><ellipse cx="387.5" cy="251.9727" fill="#84BE84" rx="3" ry="3" style="stroke: #038048; stroke-width: 1.0;"/><text fill="#000000" font-family="sans-serif" font-size="11" lengthAdjust="spacingAndGlyphs" textLength="282" x="396.5" y="254.2808">undo(current : BytesIO, entry : BytesIO) : BytesIO</text><ellipse cx="387.5" cy="264.7773" fill="#84BE84" rx="3" ry="3" style="stroke: #038048; stroke-width: 1.0;"/><text fill="#000000" font-family="sans-serif" font-size="11" lengthAdjust="spacingAndGlyphs" textLength="357" x="396.5" y="267.0854">redo(current : BytesIO, entry : BytesIO, clean=False) : BytesIO</text><path d="M355.146,141 C362.133,141 369.121,141 376.109,141 " fill="none" style="stroke: #A80036; stroke-width: 1.0;"/><polygon fill="#A80036" points="342.143,141,348.143,145,354.143,141,348.143,137,342.143,141" style="stroke: #A80036; stroke-width: 1.0;"/></g></svg>