<?xml version="1.0" encoding="UTF-8" standalone="yes"?><svg xmlns="http://www.w3.org/2000/svg" xmlns:xlink="http://www.w3.org/1999/xlink" height="295pt" style="width:717px;height:295px;" version="1.1" viewBox="0 0 717 295" width="717pt"><defs><filter height="300%" id="f1" width="300%" x="-1" y="-1"><feGaussianBlur result="blurOut" stdDeviation="2.0"/><feColorMatrix in="blurOut" result="blurOut2" type="matrix" values="0 0 0 0 0 0 0 0 0 0 0 0 0 0 0 0 0 0 .4 0"/><feOffset dx="4.0" dy="4.0" in="blurOut2" result="blurOut3"/><feBlend in="SourceGraphic" in2="blurOut3" mode="normal"/></filter></defs><g><rect fill="#FEFECE" filter="url(#f1)" height="278.4844" style="stroke: #A80036; stroke-width: 1.5;" width="346" x="6" y="8"/><ellipse cx="126.75" cy="24" fill="#ADD1B2" rx="11" ry="11" style="stroke: #A80036; stroke-width: 1.0;"/><path d="M129.7188,29.6406 Q129.1406,29.9375 128.5,30.0859 Q127.8594,30.2344 127.1563,30.2344 Q124.6563,30.2344 123.3359,28.5859 Q122.0156,26.9375 122.0156,23.8125 Q122.0156,20.6875 123.3359,19.0313 Q124.6563,17.375 127.1563,17.375 Q127.8594,17.375 128.5078,17.5313 Q129.1563,17.6875 129.7188,17.9844 L129.7188,20.7031 Q129.0938,20.125 128.5,19.8516 Q127.9063,19.5781 127.2813,19.5781 Q125.9375,19.5781 125.25,20.6484 Q124.5625,21.7188 124.5625,23.8125 Q124.5625,25.9063 125.25,26.9766 Q125.9375,28.0469 127.2813,28.0469 Q127.9063,28.0469 128.5,27.7734 Q129.0938,27.5 129.7188,26.9219 L129.7188,29.6406 Z "/><text fill="#000000" font-family="sans-serif" font-size="12" lengthAdjust="spacingAndGlyphs" textLength="96" x="147.25" y="28.1543">LayoutManager</text><line style="stroke: #A80036; stroke-width: 1.5;" x1="7" x2="351" y1="40" y2="40"/><rect fill="none" height="6" style="stroke: #C82930; stroke-width: 1.0;" width="6" x="14" y="48.9023"/><text fill="#000000" font-family="sans-serif" font-size="11" lengthAdjust="spacingAndGlyphs" textLength="150" x="26" y="54.2104">mainwindow : MainWindow</text><line style="stroke: #A80036; stroke-width: 1.5;" x1="7" x2="351" y1="60.8047" y2="60.8047"/><ellipse cx="17" cy="72.707" fill="#84BE84" rx="3" ry="3" style="stroke: #038048; stroke-width: 1.0;"/><text fill="#000000" font-family="sans-serif" font-size="11" lengthAdjust="spacingAndGlyphs" textLength="199" x="26" y="75.0151">__init__(mainwindow : MainWindow)</text><ellipse cx="17" cy="85.5117" fill="#84BE84" rx="3" ry="3" style="stroke: #038048; stroke-width: 1.0;"/><text fill="#000000" font-family="sans-serif" font-size="11" lengthAdjust="spacingAndGlyphs" textLength="72" x="26" y="87.8198">saveLayout()</text><ellipse cx="17" cy="98.3164" fill="#84BE84" rx="3" ry="3" style="stroke: #038048; stroke-width: 1.0;"/><text fill="#000000" font-family="sans-serif" font-size="11" lengthAdjust="spacingAndGlyphs" textLength="87" x="26" y="100.6245">restoreLayout()</text><ellipse cx="17" cy="111.1211" fill="#84BE84" rx="3" ry="3" style="stroke: #038048; stroke-width: 1.0;"/><text fill="#000000" font-family="sans-serif" font-size="11" lengthAdjust="spacingAndGlyphs" textLength="163" x="26" y="113.4292">saveRecentOntologyHistory()</text><ellipse cx="17" cy="123.9258" fill="#84BE84" rx="3" ry="3" style="stroke: #038048; stroke-width: 1.0;"/><text fill="#000000" font-family="sans-serif" font-size="11" lengthAdjust="spacingAndGlyphs" textLength="178" x="26" y="126.2339">restoreRecentOntologyHistory()</text><ellipse cx="17" cy="136.7305" fill="#84BE84" rx="3" ry="3" style="stroke: #038048; stroke-width: 1.0;"/><text fill="#000000" font-family="sans-serif" font-size="11" lengthAdjust="spacingAndGlyphs" textLength="129" x="26" y="139.0386">restoreGraphWidgets()</text><ellipse cx="17" cy="149.5352" fill="#84BE84" rx="3" ry="3" style="stroke: #038048; stroke-width: 1.0;"/><text fill="#000000" font-family="sans-serif" font-size="11" lengthAdjust="spacingAndGlyphs" textLength="151" x="26" y="151.8433">restoreTextEditorWidgets()</text><ellipse cx="17" cy="162.3398" fill="#84BE84" rx="3" ry="3" style="stroke: #038048; stroke-width: 1.0;"/><text fill="#000000" font-family="sans-serif" font-size="11" lengthAdjust="spacingAndGlyphs" textLength="179" x="26" y="164.6479">restoreDocumentationWidgets()</text><ellipse cx="17" cy="175.1445" fill="#84BE84" rx="3" ry="3" style="stroke: #038048; stroke-width: 1.0;"/><text fill="#000000" font-family="sans-serif" font-size="11" lengthAdjust="spacingAndGlyphs" textLength="148" x="26" y="177.4526">restoreHierarchyWidgets()</text><ellipse cx="17" cy="187.9492" fill="#84BE84" rx="3" ry="3" style="stroke: #038048; stroke-width: 1.0;"/><text fill="#000000" font-family="sans-serif" font-size="11" lengthAdjust="spacingAndGlyphs" textLength="201" x="26" y="190.2573">saveVisibilityState(qItem : QWidget)</text><ellipse cx="17" cy="200.7539" fill="#84BE84" rx="3" ry="3" style="stroke: #038048; stroke-width: 1.0;"/><text fill="#000000" font-family="sans-serif" font-size="11" lengthAdjust="spacingAndGlyphs" textLength="320" x="26" y="203.062">restoreVisibilityState(qItem : QWidget, qAction : QAction)</text><ellipse cx="17" cy="213.5586" fill="#84BE84" rx="3" ry="3" style="stroke: #038048; stroke-width: 1.0;"/><text fill="#000000" font-family="sans-serif" font-size="11" lengthAdjust="spacingAndGlyphs" textLength="200" x="26" y="215.8667">savePositionState(qItem : QWidget)</text><ellipse cx="17" cy="226.3633" fill="#84BE84" rx="3" ry="3" style="stroke: #038048; stroke-width: 1.0;"/><text fill="#000000" font-family="sans-serif" font-size="11" lengthAdjust="spacingAndGlyphs" textLength="215" x="26" y="228.6714">restorePositionState(qItem : QWidget)</text><ellipse cx="17" cy="239.168" fill="#84BE84" rx="3" ry="3" style="stroke: #038048; stroke-width: 1.0;"/><text fill="#000000" font-family="sans-serif" font-size="11" lengthAdjust="spacingAndGlyphs" textLength="178" x="26" y="241.4761">saveSizeState(qItem : QWidget)</text><ellipse cx="17" cy="251.9727" fill="#84BE84" rx="3" ry="3" style="stroke: #038048; stroke-width: 1.0;"/><text fill="#000000" font-family="sans-serif" font-size="11" lengthAdjust="spacingAndGlyphs" textLength="193" x="26" y="254.2808">restoreSizeState(qItem : QWidget)</text><ellipse cx="17" cy="264.7773" fill="#84BE84" rx="3" ry="3" style="stroke: #038048; stroke-width: 1.0;"/><text fill="#000000" font-family="sans-serif" font-size="11" lengthAdjust="spacingAndGlyphs" textLength="122" x="26" y="267.0854">saveStatusBarState()</text><ellipse cx="17" cy="277.582" fill="#84BE84" rx="3" ry="3" style="stroke: #038048; stroke-width: 1.0;"/><text fill="#000000" font-family="sans-serif" font-size="11" lengthAdjust="spacingAndGlyphs" textLength="137" x="26" y="279.8901">restoreStatusBarState()</text><rect fill="#FEFECE" filter="url(#f1)" height="73.6094" style="stroke: #A80036; stroke-width: 1.5;" width="321" x="387.5" y="110"/><ellipse cx="493.25" cy="126" fill="#ADD1B2" rx="11" ry="11" style="stroke: #A80036; stroke-width: 1.0;"/><path d="M496.2188,131.6406 Q495.6406,131.9375 495,132.0859 Q494.3594,132.2344 493.6563,132.2344 Q491.1563,132.2344 489.8359,130.5859 Q488.5156,128.9375 488.5156,125.8125 Q488.5156,122.6875 489.8359,121.0313 Q491.1563,119.375 493.6563,119.375 Q494.3594,119.375 495.0078,119.5313 Q495.6563,119.6875 496.2188,119.9844 L496.2188,122.7031 Q495.5938,122.125 495,121.8516 Q494.4063,121.5781 493.7813,121.5781 Q492.4375,121.5781 491.75,122.6484 Q491.0625,123.7188 491.0625,125.8125 Q491.0625,127.9063 491.75,128.9766 Q492.4375,130.0469 493.7813,130.0469 Q494.4063,130.0469 495,129.7734 Q495.5938,129.5 496.2188,128.9219 L496.2188,131.6406 Z "/><text fill="#000000" font-family="sans-serif" font-size="12" lengthAdjust="spacingAndGlyphs" textLength="101" x="513.75" y="130.1543">PySumoSettings</text><line style="stroke: #A80036; stroke-width: 1.5;" x1="388.5" x2="707.5" y1="142" y2="142"/><line style="stroke: #A80036; stroke-width: 1.5;" x1="388.5" x2="707.5" y1="150" y2="150"/><ellipse cx="398.5" cy="161.9023" fill="#84BE84" rx="3" ry="3" style="stroke: #038048; stroke-width: 1.0;"/><text fill="#000000" font-family="sans-serif" font-size="11" lengthAdjust="spacingAndGlyphs" textLength="295" x="407.5" y="164.2104">__init__(mainwindow : MainWindow, filepath : String)</text><ellipse cx="398.5" cy="174.707" fill="#84BE84" rx="3" ry="3" style="stroke: #038048; stroke-width: 1.0;"/><text fill="#000000" font-family="sans-serif" font-size="11" lengthAdjust="spacingAndGlyphs" textLength="79" x="407.5" y="177.0151">loadDefaults()</text></g></svg>