<?xml version="1.0" encoding="UTF-8" standalone="yes"?><svg xmlns="http://www.w3.org/2000/svg" xmlns:xlink="http://www.w3.org/1999/xlink" height="835pt" style="width:765px;height:835px;" version="1.1" viewBox="0 0 765 835" width="765pt"><defs><filter height="300%" id="f1" width="300%" x="-1" y="-1"><feGaussianBlur result="blurOut" stdDeviation="2.0"/><feColorMatrix in="blurOut" result="blurOut2" type="matrix" values="0 0 0 0 0 0 0 0 0 0 0 0 0 0 0 0 0 0 .4 0"/><feOffset dx="4.0" dy="4.0" in="blurOut2" result="blurOut3"/><feBlend in="SourceGraphic" in2="blurOut3" mode="normal"/></filter></defs><g><text fill="#000000" font-family="sans-serif" font-size="18" lengthAdjust="spacingAndGlyphs" textLength="118" x="158" y="29.4531">GraphWidget</text><line style="stroke: #000000; stroke-width: 2.0;" x1="10" x2="10" y1="12.7451" y2="828.2056"/><ellipse cx="205" cy="43.6982" fill="#000000" filter="url(#f1)" rx="10" ry="10" style="stroke: none; stroke-width: 1.0;"/><rect fill="#FEFECE" filter="url(#f1)" height="33.9688" rx="12.5" ry="12.5" style="stroke: #A80036; stroke-width: 1.5;" width="158" x="126" y="173.4087"/><text fill="#000000" font-family="sans-serif" font-size="12" lengthAdjust="spacingAndGlyphs" textLength="138" x="136" y="194.5474">waitForMouseEvents()</text><polygon fill="#FEFECE" filter="url(#f1)" points="205,129.4087,217,141.4087,205,153.4087,193,141.4087,205,129.4087" style="stroke: #A80036; stroke-width: 1.5;"/><polygon fill="#FEFECE" filter="url(#f1)" points="48,244.3931,362,244.3931,374,256.3931,362,268.3931,48,268.3931,36,256.3931,48,244.3931" style="stroke: #A80036; stroke-width: 1.5;"/><text fill="#000000" font-family="sans-serif" font-size="11" lengthAdjust="spacingAndGlyphs" textLength="314" x="48" y="260.2012">Mouse events still incoming or no valid action occurred</text><polygon fill="#A80036" points="382,224.3931,386,214.3931,390,224.3931,386,220.3931" style="stroke: #A80036; stroke-width: 1.0;"/><rect fill="#000000" filter="url(#f1)" height="6" rx="2.5" ry="2.5" style="stroke: #000000; stroke-width: 1.0;" width="322" x="44" y="288.3931"/><rect fill="#FEFECE" filter="url(#f1)" height="33.9688" rx="12.5" ry="12.5" style="stroke: #A80036; stroke-width: 1.5;" width="50" x="58" y="516.8306"/><text fill="#000000" font-family="sans-serif" font-size="12" lengthAdjust="spacingAndGlyphs" textLength="30" x="68" y="537.9692">pass</text><rect fill="#FEFECE" filter="url(#f1)" height="33.9688" rx="12.5" ry="12.5" style="stroke: #A80036; stroke-width: 1.5;" width="146" x="171" y="314.3931"/><text fill="#000000" font-family="sans-serif" font-size="12" lengthAdjust="spacingAndGlyphs" textLength="126" x="181" y="335.5317">parse_graph(graph)</text><rect fill="#FEFECE" filter="url(#f1)" height="33.9688" rx="12.5" ry="12.5" style="stroke: #A80036; stroke-width: 1.5;" width="75" x="206.5" y="489.3306"/><text fill="#000000" font-family="sans-serif" font-size="12" lengthAdjust="spacingAndGlyphs" textLength="55" x="216.5" y="510.4692">commit()</text><rect fill="#FEFECE" filter="url(#f1)" height="33.9688" rx="12.5" ry="12.5" style="stroke: #A80036; stroke-width: 1.5;" width="216" x="136" y="558.2993"/><text fill="#000000" font-family="sans-serif" font-size="12" lengthAdjust="spacingAndGlyphs" textLength="196" x="146" y="579.438">get_graph(variant, root, depth)</text><rect fill="#FEFECE" filter="url(#f1)" height="33.9688" rx="12.5" ry="12.5" style="stroke: #A80036; stroke-width: 1.5;" width="75" x="206.5" y="612.2681"/><text fill="#000000" font-family="sans-serif" font-size="12" lengthAdjust="spacingAndGlyphs" textLength="55" x="216.5" y="633.4067">get_pic()</text><rect fill="#FEFECE" filter="url(#f1)" height="33.9688" rx="12.5" ry="12.5" style="stroke: #A80036; stroke-width: 1.5;" width="103" x="192.5" y="666.2368"/><text fill="#000000" font-family="sans-serif" font-size="12" lengthAdjust="spacingAndGlyphs" textLength="83" x="202.5" y="687.3755">draw_graph()</text><ellipse cx="244" cy="730.2056" fill="none" filter="url(#f1)" rx="10" ry="10" style="stroke: #000000; stroke-width: 1.0;"/><ellipse cx="244.5" cy="730.7056" fill="#000000" filter="url(#f1)" rx="6" ry="6" style="stroke: none; stroke-width: 1.0;"/><rect fill="#000000" filter="url(#f1)" height="6" rx="2.5" ry="2.5" style="stroke: #000000; stroke-width: 1.0;" width="322" x="44" y="760.2056"/><polygon fill="#FEFECE" filter="url(#f1)" points="167.5,73.6982,242.5,73.6982,254.5,85.6982,242.5,97.6982,167.5,97.6982,155.5,85.6982,167.5,73.6982" style="stroke: #A80036; stroke-width: 1.5;"/><text fill="#000000" font-family="sans-serif" font-size="11" lengthAdjust="spacingAndGlyphs" textLength="23" x="209" y="107.9087">true</text><text fill="#000000" font-family="sans-serif" font-size="11" lengthAdjust="spacingAndGlyphs" textLength="75" x="167.5" y="89.5063">gw.isVisible()</text><text fill="#000000" font-family="sans-serif" font-size="11" lengthAdjust="spacingAndGlyphs" textLength="28" x="127.5" y="83.104">false</text><polygon fill="#A80036" points="406,422.3306,410,412.3306,414,422.3306,410,418.3306" style="stroke: #A80036; stroke-width: 1.0;"/><polygon fill="#A80036" points="20,426.3306,24,436.3306,28,426.3306,24,430.3306" style="stroke: #A80036; stroke-width: 1.0;"/><ellipse cx="205" cy="818.2056" fill="none" filter="url(#f1)" rx="10" ry="10" style="stroke: #000000; stroke-width: 1.0;"/><ellipse cx="205.5" cy="818.7056" fill="#000000" filter="url(#f1)" rx="6" ry="6" style="stroke: none; stroke-width: 1.0;"/><text fill="#000000" font-family="sans-serif" font-size="18" lengthAdjust="spacingAndGlyphs" textLength="151" x="448" y="29.4531">SyntaxController</text><line style="stroke: #000000; stroke-width: 2.0;" x1="424" x2="424" y1="12.7451" y2="828.2056"/><rect fill="#FEFECE" filter="url(#f1)" height="33.9688" rx="12.5" ry="12.5" style="stroke: #A80036; stroke-width: 1.5;" width="179" x="434" y="368.3618"/><text fill="#000000" font-family="sans-serif" font-size="12" lengthAdjust="spacingAndGlyphs" textLength="159" x="444" y="389.5005">kifparse(ontology, graph)</text><text fill="#000000" font-family="sans-serif" font-size="18" lengthAdjust="spacingAndGlyphs" textLength="56" x="665.5" y="29.4531">Parser</text><line style="stroke: #000000; stroke-width: 2.0;" x1="623" x2="623" y1="12.7451" y2="828.2056"/><rect fill="#FEFECE" filter="url(#f1)" height="33.9688" rx="12.5" ry="12.5" style="stroke: #A80036; stroke-width: 1.5;" width="121" x="633" y="435.3618"/><text fill="#000000" font-family="sans-serif" font-size="12" lengthAdjust="spacingAndGlyphs" textLength="101" x="643" y="456.5005">add_child(entry)</text><line style="stroke: #000000; stroke-width: 2.0;" x1="764" x2="764" y1="12.7451" y2="828.2056"/><line style="stroke: #A80036; stroke-width: 1.5;" x1="205" x2="205" y1="153.4087" y2="173.4087"/><polygon fill="#A80036" points="201,163.4087,205,173.4087,209,163.4087,205,167.4087" style="stroke: #A80036; stroke-width: 1.0;"/><line style="stroke: #A80036; stroke-width: 1.5;" x1="374" x2="386" y1="256.3931" y2="256.3931"/><line style="stroke: #A80036; stroke-width: 1.5;" x1="386" x2="386" y1="141.4087" y2="256.3931"/><line style="stroke: #A80036; stroke-width: 1.5;" x1="217" x2="386" y1="141.4087" y2="141.4087"/><polygon fill="#A80036" points="227,137.4087,217,141.4087,227,145.4087,223,141.4087" style="stroke: #A80036; stroke-width: 1.0;"/><line style="stroke: #A80036; stroke-width: 1.5;" x1="205" x2="205" y1="207.3774" y2="244.3931"/><polygon fill="#A80036" points="201,234.3931,205,244.3931,209,234.3931,205,238.3931" style="stroke: #A80036; stroke-width: 1.0;"/><line style="stroke: #A80036; stroke-width: 1.5;" x1="244" x2="244" y1="523.2993" y2="558.2993"/><polygon fill="#A80036" points="240,548.2993,244,558.2993,248,548.2993,244,552.2993" style="stroke: #A80036; stroke-width: 1.0;"/><line style="stroke: #A80036; stroke-width: 1.5;" x1="244" x2="244" y1="592.2681" y2="612.2681"/><polygon fill="#A80036" points="240,602.2681,244,612.2681,248,602.2681,244,606.2681" style="stroke: #A80036; stroke-width: 1.0;"/><line style="stroke: #A80036; stroke-width: 1.5;" x1="244" x2="244" y1="646.2368" y2="666.2368"/><polygon fill="#A80036" points="240,656.2368,244,666.2368,248,656.2368,244,660.2368" style="stroke: #A80036; stroke-width: 1.0;"/><line style="stroke: #A80036; stroke-width: 1.5;" x1="244" x2="244" y1="700.2056" y2="720.2056"/><polygon fill="#A80036" points="240,710.2056,244,720.2056,248,710.2056,244,714.2056" style="stroke: #A80036; stroke-width: 1.0;"/><line style="stroke: #A80036; stroke-width: 1.5;" x1="83" x2="83" y1="294.3931" y2="516.8306"/><polygon fill="#A80036" points="79,506.8306,83,516.8306,87,506.8306,83,510.8306" style="stroke: #A80036; stroke-width: 1.0;"/><line style="stroke: #A80036; stroke-width: 1.5;" x1="83" x2="83" y1="550.7993" y2="760.2056"/><polygon fill="#A80036" points="79,750.2056,83,760.2056,87,750.2056,83,754.2056" style="stroke: #A80036; stroke-width: 1.0;"/><line style="stroke: #A80036; stroke-width: 1.5;" x1="244" x2="244" y1="294.3931" y2="314.3931"/><polygon fill="#A80036" points="240,304.3931,244,314.3931,248,304.3931,244,308.3931" style="stroke: #A80036; stroke-width: 1.0;"/><line style="stroke: #A80036; stroke-width: 1.5;" x1="205" x2="205" y1="268.3931" y2="288.3931"/><polygon fill="#A80036" points="201,278.3931,205,288.3931,209,278.3931,205,282.3931" style="stroke: #A80036; stroke-width: 1.0;"/><line style="stroke: #A80036; stroke-width: 1.5;" x1="205" x2="205" y1="97.6982" y2="129.4087"/><polygon fill="#A80036" points="201,119.4087,205,129.4087,209,119.4087,205,123.4087" style="stroke: #A80036; stroke-width: 1.0;"/><line style="stroke: #A80036; stroke-width: 1.5;" x1="205" x2="205" y1="766.2056" y2="776.2056"/><line style="stroke: #A80036; stroke-width: 1.5;" x1="205" x2="410" y1="776.2056" y2="776.2056"/><line style="stroke: #A80036; stroke-width: 1.5;" x1="410" x2="410" y1="85.6982" y2="776.2056"/><line style="stroke: #A80036; stroke-width: 1.5;" x1="254.5" x2="410" y1="85.6982" y2="85.6982"/><polygon fill="#A80036" points="264.5,81.6982,254.5,85.6982,264.5,89.6982,260.5,85.6982" style="stroke: #A80036; stroke-width: 1.0;"/><line style="stroke: #A80036; stroke-width: 1.5;" x1="24" x2="155.5" y1="85.6982" y2="85.6982"/><line style="stroke: #A80036; stroke-width: 1.5;" x1="24" x2="24" y1="85.6982" y2="793.2056"/><line style="stroke: #A80036; stroke-width: 1.5;" x1="24" x2="205" y1="793.2056" y2="793.2056"/><line style="stroke: #A80036; stroke-width: 1.5;" x1="205" x2="205" y1="53.6982" y2="73.6982"/><polygon fill="#A80036" points="201,63.6982,205,73.6982,209,63.6982,205,67.6982" style="stroke: #A80036; stroke-width: 1.0;"/><line style="stroke: #A80036; stroke-width: 1.5;" x1="205" x2="205" y1="793.2056" y2="808.2056"/><polygon fill="#A80036" points="201,798.2056,205,808.2056,209,798.2056,205,802.2056" style="stroke: #A80036; stroke-width: 1.0;"/><line style="stroke: #A80036; stroke-width: 1.5;" x1="244" x2="244" y1="348.3618" y2="353.3618"/><line style="stroke: #A80036; stroke-width: 1.5;" x1="244" x2="523.5" y1="353.3618" y2="353.3618"/><line style="stroke: #A80036; stroke-width: 1.5;" x1="523.5" x2="523.5" y1="353.3618" y2="368.3618"/><polygon fill="#A80036" points="519.5,358.3618,523.5,368.3618,527.5,358.3618,523.5,362.3618" style="stroke: #A80036; stroke-width: 1.0;"/><line style="stroke: #A80036; stroke-width: 1.5;" x1="523.5" x2="523.5" y1="402.3306" y2="417.8618"/><line style="stroke: #A80036; stroke-width: 1.5;" x1="523.5" x2="693.5" y1="417.8618" y2="417.8618"/><line style="stroke: #A80036; stroke-width: 1.5;" x1="693.5" x2="693.5" y1="417.8618" y2="435.3618"/><polygon fill="#A80036" points="689.5,425.3618,693.5,435.3618,697.5,425.3618,693.5,429.3618" style="stroke: #A80036; stroke-width: 1.0;"/><line style="stroke: #A80036; stroke-width: 1.5;" x1="693.5" x2="693.5" y1="469.3306" y2="474.3306"/><line style="stroke: #A80036; stroke-width: 1.5;" x1="244" x2="693.5" y1="474.3306" y2="474.3306"/><line style="stroke: #A80036; stroke-width: 1.5;" x1="244" x2="244" y1="474.3306" y2="489.3306"/><polygon fill="#A80036" points="240,479.3306,244,489.3306,248,479.3306,244,483.3306" style="stroke: #A80036; stroke-width: 1.0;"/></g></svg>