<?xml version="1.0" encoding="UTF-8" standalone="yes"?><svg xmlns="http://www.w3.org/2000/svg" xmlns:xlink="http://www.w3.org/1999/xlink" height="442pt" style="width:436px;height:442px;" version="1.1" viewBox="0 0 436 442" width="436pt"><defs><filter height="300%" id="f1" width="300%" x="-1" y="-1"><feGaussianBlur result="blurOut" stdDeviation="2.0"/><feColorMatrix in="blurOut" result="blurOut2" type="matrix" values="0 0 0 0 0 0 0 0 0 0 0 0 0 0 0 0 0 0 .4 0"/><feOffset dx="4.0" dy="4.0" in="blurOut2" result="blurOut3"/><feBlend in="SourceGraphic" in2="blurOut3" mode="normal"/></filter></defs><g><ellipse cx="258.25" cy="20" fill="#000000" filter="url(#f1)" rx="10" ry="10" style="stroke: none; stroke-width: 1.0;"/><rect fill="#FEFECE" filter="url(#f1)" height="33.9688" rx="12.5" ry="12.5" style="stroke: #A80036; stroke-width: 1.5;" width="104" x="206.25" y="105.7104"/><text fill="#000000" font-family="sans-serif" font-size="12" lengthAdjust="spacingAndGlyphs" textLength="84" x="216.25" y="126.8491">Wait for Input</text><polygon fill="#FEFECE" filter="url(#f1)" points="203.25,181.0781,313.25,181.0781,325.25,193.0781,313.25,205.0781,203.25,205.0781,191.25,193.0781,203.25,181.0781" style="stroke: #A80036; stroke-width: 1.5;"/><text fill="#000000" font-family="sans-serif" font-size="11" lengthAdjust="spacingAndGlyphs" textLength="110" x="203.25" y="196.8862">Check Parentheses</text><text fill="#000000" font-family="sans-serif" font-size="11" lengthAdjust="spacingAndGlyphs" textLength="40" x="151.25" y="190.4839">correct</text><text fill="#000000" font-family="sans-serif" font-size="11" lengthAdjust="spacingAndGlyphs" textLength="50" x="325.25" y="190.4839">incorrect</text><polygon fill="#FEFECE" filter="url(#f1)" points="96,225.0781,129,225.0781,141,237.0781,129,249.0781,96,249.0781,84,237.0781,96,225.0781" style="stroke: #A80036; stroke-width: 1.5;"/><text fill="#000000" font-family="sans-serif" font-size="11" lengthAdjust="spacingAndGlyphs" textLength="33" x="96" y="240.8862">Parse</text><text fill="#000000" font-family="sans-serif" font-size="11" lengthAdjust="spacingAndGlyphs" textLength="47" x="37" y="234.4839">no error</text><text fill="#000000" font-family="sans-serif" font-size="11" lengthAdjust="spacingAndGlyphs" textLength="29" x="141" y="234.4839">error</text><rect fill="#FEFECE" filter="url(#f1)" height="33.9688" rx="12.5" ry="12.5" style="stroke: #A80036; stroke-width: 1.5;" width="142" x="113" y="271.1758"/><text fill="#000000" font-family="sans-serif" font-size="12" lengthAdjust="spacingAndGlyphs" textLength="122" x="123" y="292.3145">Mark Error Location</text><polygon fill="#FEFECE" filter="url(#f1)" points="112.5,315.1445,124.5,327.1445,112.5,339.1445,100.5,327.1445,112.5,315.1445" style="stroke: #A80036; stroke-width: 1.5;"/><polygon fill="#FEFECE" filter="url(#f1)" points="258.25,349.1445,270.25,361.1445,258.25,373.1445,246.25,361.1445,258.25,349.1445" style="stroke: #A80036; stroke-width: 1.5;"/><polygon fill="#FEFECE" filter="url(#f1)" points="200.75,50,315.75,50,327.75,62,315.75,74,200.75,74,188.75,62,200.75,50" style="stroke: #A80036; stroke-width: 1.5;"/><text fill="#000000" font-family="sans-serif" font-size="11" lengthAdjust="spacingAndGlyphs" textLength="23" x="262.25" y="84.2104">true</text><text fill="#000000" font-family="sans-serif" font-size="11" lengthAdjust="spacingAndGlyphs" textLength="115" x="200.75" y="65.8081">Text Editor is visible</text><text fill="#000000" font-family="sans-serif" font-size="11" lengthAdjust="spacingAndGlyphs" textLength="28" x="160.75" y="59.4058">false</text><polygon fill="#A80036" points="427,237.1758,431,227.1758,435,237.1758,431,233.1758" style="stroke: #A80036; stroke-width: 1.0;"/><polygon fill="#A80036" points="10,241.1758,14,251.1758,18,241.1758,14,245.1758" style="stroke: #A80036; stroke-width: 1.0;"/><ellipse cx="258.25" cy="425.1445" fill="none" filter="url(#f1)" rx="10" ry="10" style="stroke: #000000; stroke-width: 1.0;"/><ellipse cx="258.75" cy="425.6445" fill="#000000" filter="url(#f1)" rx="6" ry="6" style="stroke: none; stroke-width: 1.0;"/><line style="stroke: #A80036; stroke-width: 1.5;" x1="41" x2="84" y1="237.0781" y2="237.0781"/><line style="stroke: #A80036; stroke-width: 1.5;" x1="41" x2="41" y1="237.0781" y2="288.1602"/><polygon fill="#A80036" points="37,278.1602,41,288.1602,45,278.1602,41,282.1602" style="stroke: #A80036; stroke-width: 1.0;"/><line style="stroke: #A80036; stroke-width: 1.5;" x1="141" x2="184" y1="237.0781" y2="237.0781"/><line style="stroke: #A80036; stroke-width: 1.5;" x1="184" x2="184" y1="237.0781" y2="271.1758"/><polygon fill="#A80036" points="180,261.1758,184,271.1758,188,261.1758,184,265.1758" style="stroke: #A80036; stroke-width: 1.0;"/><line style="stroke: #A80036; stroke-width: 1.5;" x1="41" x2="41" y1="288.1602" y2="327.1445"/><line style="stroke: #A80036; stroke-width: 1.5;" x1="41" x2="100.5" y1="327.1445" y2="327.1445"/><polygon fill="#A80036" points="90.5,323.1445,100.5,327.1445,90.5,331.1445,94.5,327.1445" style="stroke: #A80036; stroke-width: 1.0;"/><line style="stroke: #A80036; stroke-width: 1.5;" x1="184" x2="184" y1="305.1445" y2="327.1445"/><line style="stroke: #A80036; stroke-width: 1.5;" x1="124.5" x2="184" y1="327.1445" y2="327.1445"/><polygon fill="#A80036" points="134.5,323.1445,124.5,327.1445,134.5,331.1445,130.5,327.1445" style="stroke: #A80036; stroke-width: 1.0;"/><line style="stroke: #A80036; stroke-width: 1.5;" x1="112.5" x2="191.25" y1="193.0781" y2="193.0781"/><line style="stroke: #A80036; stroke-width: 1.5;" x1="112.5" x2="112.5" y1="193.0781" y2="225.0781"/><polygon fill="#A80036" points="108.5,215.0781,112.5,225.0781,116.5,215.0781,112.5,219.0781" style="stroke: #A80036; stroke-width: 1.0;"/><line style="stroke: #A80036; stroke-width: 1.5;" x1="325.25" x2="404" y1="193.0781" y2="193.0781"/><line style="stroke: #A80036; stroke-width: 1.5;" x1="404" x2="404" y1="193.0781" y2="288.1602"/><polygon fill="#A80036" points="400,278.1602,404,288.1602,408,278.1602,404,282.1602" style="stroke: #A80036; stroke-width: 1.0;"/><line style="stroke: #A80036; stroke-width: 1.5;" x1="112.5" x2="112.5" y1="339.1445" y2="361.1445"/><line style="stroke: #A80036; stroke-width: 1.5;" x1="112.5" x2="246.25" y1="361.1445" y2="361.1445"/><polygon fill="#A80036" points="236.25,357.1445,246.25,361.1445,236.25,365.1445,240.25,361.1445" style="stroke: #A80036; stroke-width: 1.0;"/><line style="stroke: #A80036; stroke-width: 1.5;" x1="404" x2="404" y1="288.1602" y2="361.1445"/><line style="stroke: #A80036; stroke-width: 1.5;" x1="270.25" x2="404" y1="361.1445" y2="361.1445"/><polygon fill="#A80036" points="280.25,357.1445,270.25,361.1445,280.25,365.1445,276.25,361.1445" style="stroke: #A80036; stroke-width: 1.0;"/><line style="stroke: #A80036; stroke-width: 1.5;" x1="258.25" x2="258.25" y1="139.6792" y2="181.0781"/><polygon fill="#A80036" points="254.25,171.0781,258.25,181.0781,262.25,171.0781,258.25,175.0781" style="stroke: #A80036; stroke-width: 1.0;"/><text fill="#000000" font-family="sans-serif" font-size="11" lengthAdjust="spacingAndGlyphs" textLength="28" x="262.25" y="160.9839">input</text><line style="stroke: #A80036; stroke-width: 1.5;" x1="258.25" x2="258.25" y1="74" y2="105.7104"/><polygon fill="#A80036" points="254.25,95.7104,258.25,105.7104,262.25,95.7104,258.25,99.7104" style="stroke: #A80036; stroke-width: 1.0;"/><line style="stroke: #A80036; stroke-width: 1.5;" x1="258.25" x2="258.25" y1="373.1445" y2="383.1445"/><line style="stroke: #A80036; stroke-width: 1.5;" x1="258.25" x2="431" y1="383.1445" y2="383.1445"/><line style="stroke: #A80036; stroke-width: 1.5;" x1="431" x2="431" y1="62" y2="383.1445"/><line style="stroke: #A80036; stroke-width: 1.5;" x1="327.75" x2="431" y1="62" y2="62"/><polygon fill="#A80036" points="337.75,58,327.75,62,337.75,66,333.75,62" style="stroke: #A80036; stroke-width: 1.0;"/><line style="stroke: #A80036; stroke-width: 1.5;" x1="14" x2="188.75" y1="62" y2="62"/><line style="stroke: #A80036; stroke-width: 1.5;" x1="14" x2="14" y1="62" y2="400.1445"/><line style="stroke: #A80036; stroke-width: 1.5;" x1="14" x2="258.25" y1="400.1445" y2="400.1445"/><line style="stroke: #A80036; stroke-width: 1.5;" x1="258.25" x2="258.25" y1="30" y2="50"/><polygon fill="#A80036" points="254.25,40,258.25,50,262.25,40,258.25,44" style="stroke: #A80036; stroke-width: 1.0;"/><line style="stroke: #A80036; stroke-width: 1.5;" x1="258.25" x2="258.25" y1="400.1445" y2="415.1445"/><polygon fill="#A80036" points="254.25,405.1445,258.25,415.1445,262.25,405.1445,258.25,409.1445" style="stroke: #A80036; stroke-width: 1.0;"/></g></svg>