<?xml version="1.0" encoding="UTF-8" standalone="yes"?><svg xmlns="http://www.w3.org/2000/svg" xmlns:xlink="http://www.w3.org/1999/xlink" height="372pt" style="width:1145px;height:372px;" version="1.1" viewBox="0 0 1145 372" width="1145pt"><defs><filter height="300%" id="f1" width="300%" x="-1" y="-1"><feGaussianBlur result="blurOut" stdDeviation="2.0"/><feColorMatrix in="blurOut" result="blurOut2" type="matrix" values="0 0 0 0 0 0 0 0 0 0 0 0 0 0 0 0 0 0 .4 0"/><feOffset dx="4.0" dy="4.0" in="blurOut2" result="blurOut3"/><feBlend in="SourceGraphic" in2="blurOut3" mode="normal"/></filter></defs><g><rect fill="#FEFECE" filter="url(#f1)" height="163.2422" style="stroke: #A80036; stroke-width: 1.5;" width="192" x="330.25" y="72.5"/><ellipse cx="384" cy="88.5" fill="#ADD1B2" rx="11" ry="11" style="stroke: #A80036; stroke-width: 1.0;"/><path d="M386.9688,94.1406 Q386.3906,94.4375 385.75,94.5859 Q385.1094,94.7344 384.4063,94.7344 Q381.9063,94.7344 380.5859,93.0859 Q379.2656,91.4375 379.2656,88.3125 Q379.2656,85.1875 380.5859,83.5313 Q381.9063,81.875 384.4063,81.875 Q385.1094,81.875 385.7578,82.0313 Q386.4063,82.1875 386.9688,82.4844 L386.9688,85.2031 Q386.3438,84.625 385.75,84.3516 Q385.1563,84.0781 384.5313,84.0781 Q383.1875,84.0781 382.5,85.1484 Q381.8125,86.2188 381.8125,88.3125 Q381.8125,90.4063 382.5,91.4766 Q383.1875,92.5469 384.5313,92.5469 Q385.1563,92.5469 385.75,92.2734 Q386.3438,92 386.9688,91.4219 L386.9688,94.1406 Z "/><text fill="#000000" font-family="sans-serif" font-size="12" lengthAdjust="spacingAndGlyphs" textLength="76" x="404.5" y="92.6543">MainWindow</text><line style="stroke: #A80036; stroke-width: 1.5;" x1="331.25" x2="521.25" y1="104.5" y2="104.5"/><rect fill="none" height="6" style="stroke: #C82930; stroke-width: 1.0;" width="6" x="338.25" y="113.4023"/><text fill="#000000" font-family="sans-serif" font-size="11" lengthAdjust="spacingAndGlyphs" textLength="101" x="350.25" y="118.7104">widgets : Widget[]</text><line style="stroke: #A80036; stroke-width: 1.5;" x1="331.25" x2="521.25" y1="125.3047" y2="125.3047"/><ellipse cx="341.25" cy="137.207" fill="#84BE84" rx="3" ry="3" style="stroke: #038048; stroke-width: 1.0;"/><text fill="#000000" font-family="sans-serif" font-size="11" lengthAdjust="spacingAndGlyphs" textLength="76" x="350.25" y="139.5151">loadOptions()</text><ellipse cx="341.25" cy="150.0117" fill="#84BE84" rx="3" ry="3" style="stroke: #038048; stroke-width: 1.0;"/><text fill="#000000" font-family="sans-serif" font-size="11" lengthAdjust="spacingAndGlyphs" textLength="75" x="350.25" y="152.3198">synchronize()</text><ellipse cx="341.25" cy="162.8164" fill="#84BE84" rx="3" ry="3" style="stroke: #038048; stroke-width: 1.0;"/><text fill="#000000" font-family="sans-serif" font-size="11" lengthAdjust="spacingAndGlyphs" textLength="152" x="350.25" y="165.1245">addWidget(widget : Widget)</text><ellipse cx="341.25" cy="175.6211" fill="#84BE84" rx="3" ry="3" style="stroke: #038048; stroke-width: 1.0;"/><text fill="#000000" font-family="sans-serif" font-size="11" lengthAdjust="spacingAndGlyphs" textLength="166" x="350.25" y="177.9292">deleteWidget(widget : Widget)</text><text fill="#000000" font-family="sans-serif" font-size="11" lengthAdjust="spacingAndGlyphs" textLength="0" x="354.25" y="190.7339"/><ellipse cx="341.25" cy="201.2305" fill="#84BE84" rx="3" ry="3" style="stroke: #038048; stroke-width: 1.0;"/><text fill="#000000" font-family="sans-serif" font-size="11" lengthAdjust="spacingAndGlyphs" textLength="55" x="350.25" y="203.5386">openFile()</text><ellipse cx="341.25" cy="214.0352" fill="#84BE84" rx="3" ry="3" style="stroke: #038048; stroke-width: 1.0;"/><text fill="#000000" font-family="sans-serif" font-size="11" lengthAdjust="spacingAndGlyphs" textLength="54" x="350.25" y="216.3433">saveFile()</text><ellipse cx="341.25" cy="226.8398" fill="#84BE84" rx="3" ry="3" style="stroke: #038048; stroke-width: 1.0;"/><text fill="#000000" font-family="sans-serif" font-size="11" lengthAdjust="spacingAndGlyphs" textLength="63" x="350.25" y="229.1479">showHelp()</text><rect fill="#FEFECE" filter="url(#f1)" height="176.0469" style="stroke: #A80036; stroke-width: 1.5;" width="284" x="852.25" y="66"/><ellipse cx="959" cy="82" fill="#ADD1B2" rx="11" ry="11" style="stroke: #A80036; stroke-width: 1.0;"/><path d="M961.9688,87.6406 Q961.3906,87.9375 960.75,88.0859 Q960.1094,88.2344 959.4063,88.2344 Q956.9063,88.2344 955.5859,86.5859 Q954.2656,84.9375 954.2656,81.8125 Q954.2656,78.6875 955.5859,77.0313 Q956.9063,75.375 959.4063,75.375 Q960.1094,75.375 960.7578,75.5313 Q961.4063,75.6875 961.9688,75.9844 L961.9688,78.7031 Q961.3438,78.125 960.75,77.8516 Q960.1563,77.5781 959.5313,77.5781 Q958.1875,77.5781 957.5,78.6484 Q956.8125,79.7188 956.8125,81.8125 Q956.8125,83.9063 957.5,84.9766 Q958.1875,86.0469 959.5313,86.0469 Q960.1563,86.0469 960.75,85.7734 Q961.3438,85.5 961.9688,84.9219 L961.9688,87.6406 Z "/><text fill="#000000" font-family="sans-serif" font-size="12" lengthAdjust="spacingAndGlyphs" textLength="62" x="979.5" y="86.1543">Statusbar</text><line style="stroke: #A80036; stroke-width: 1.5;" x1="853.25" x2="1135.25" y1="98" y2="98"/><rect fill="none" height="6" style="stroke: #C82930; stroke-width: 1.0;" width="6" x="860.25" y="106.9023"/><text fill="#000000" font-family="sans-serif" font-size="11" lengthAdjust="spacingAndGlyphs" textLength="70" x="872.25" y="112.2104">log : InfoLog</text><rect fill="none" height="6" style="stroke: #C82930; stroke-width: 1.0;" width="6" x="860.25" y="119.707"/><text fill="#000000" font-family="sans-serif" font-size="11" lengthAdjust="spacingAndGlyphs" textLength="134" x="872.25" y="125.0151">statusBar : QStatusBar</text><line style="stroke: #A80036; stroke-width: 1.5;" x1="853.25" x2="1135.25" y1="131.6094" y2="131.6094"/><ellipse cx="863.25" cy="143.5117" fill="#84BE84" rx="3" ry="3" style="stroke: #038048; stroke-width: 1.0;"/><text fill="#000000" font-family="sans-serif" font-size="11" lengthAdjust="spacingAndGlyphs" textLength="232" x="872.25" y="145.8198">__init__(QStatusBar, InfoLog) : Statusbar</text><ellipse cx="863.25" cy="156.3164" fill="#84BE84" rx="3" ry="3" style="stroke: #038048; stroke-width: 1.0;"/><text fill="#000000" font-family="sans-serif" font-size="11" lengthAdjust="spacingAndGlyphs" textLength="53" x="872.25" y="158.6245">initialize()</text><ellipse cx="863.25" cy="169.1211" fill="#84BE84" rx="3" ry="3" style="stroke: #038048; stroke-width: 1.0;"/><text fill="#000000" font-family="sans-serif" font-size="11" lengthAdjust="spacingAndGlyphs" textLength="47" x="872.25" y="171.4292">update()</text><ellipse cx="863.25" cy="181.9258" fill="#84BE84" rx="3" ry="3" style="stroke: #038048; stroke-width: 1.0;"/><text fill="#000000" font-family="sans-serif" font-size="11" lengthAdjust="spacingAndGlyphs" textLength="36" x="872.25" y="184.2339">clear()</text><ellipse cx="863.25" cy="194.7305" fill="#84BE84" rx="3" ry="3" style="stroke: #038048; stroke-width: 1.0;"/><text fill="#000000" font-family="sans-serif" font-size="11" lengthAdjust="spacingAndGlyphs" textLength="258" x="872.25" y="197.0386">setProgressBarActivated(activated : Boolean)</text><ellipse cx="863.25" cy="207.5352" fill="#84BE84" rx="3" ry="3" style="stroke: #038048; stroke-width: 1.0;"/><text fill="#000000" font-family="sans-serif" font-size="11" lengthAdjust="spacingAndGlyphs" textLength="193" x="872.25" y="209.8433">setProgressBarText(msg : String)</text><ellipse cx="863.25" cy="220.3398" fill="#84BE84" rx="3" ry="3" style="stroke: #038048; stroke-width: 1.0;"/><text fill="#000000" font-family="sans-serif" font-size="11" lengthAdjust="spacingAndGlyphs" textLength="132" x="872.25" y="222.6479">clearProgressBarText()</text><ellipse cx="863.25" cy="233.1445" fill="#84BE84" rx="3" ry="3" style="stroke: #038048; stroke-width: 1.0;"/><text fill="#000000" font-family="sans-serif" font-size="11" lengthAdjust="spacingAndGlyphs" textLength="177" x="872.25" y="235.4526">setProgressValue(val : Integer)</text><rect fill="#FEFECE" filter="url(#f1)" height="150.4375" style="stroke: #A80036; stroke-width: 1.5;" width="289" x="6" y="79"/><ellipse cx="122.75" cy="95" fill="#ADD1B2" rx="11" ry="11" style="stroke: #A80036; stroke-width: 1.0;"/><path d="M125.7188,100.6406 Q125.1406,100.9375 124.5,101.0859 Q123.8594,101.2344 123.1563,101.2344 Q120.6563,101.2344 119.3359,99.5859 Q118.0156,97.9375 118.0156,94.8125 Q118.0156,91.6875 119.3359,90.0313 Q120.6563,88.375 123.1563,88.375 Q123.8594,88.375 124.5078,88.5313 Q125.1563,88.6875 125.7188,88.9844 L125.7188,91.7031 Q125.0938,91.125 124.5,90.8516 Q123.9063,90.5781 123.2813,90.5781 Q121.9375,90.5781 121.25,91.6484 Q120.5625,92.7188 120.5625,94.8125 Q120.5625,96.9063 121.25,97.9766 Q121.9375,99.0469 123.2813,99.0469 Q123.9063,99.0469 124.5,98.7734 Q125.0938,98.5 125.7188,97.9219 L125.7188,100.6406 Z "/><text fill="#000000" font-family="sans-serif" font-size="12" lengthAdjust="spacingAndGlyphs" textLength="47" x="143.25" y="99.1543">Toolbar</text><line style="stroke: #A80036; stroke-width: 1.5;" x1="7" x2="294" y1="111" y2="111"/><rect fill="none" height="6" style="stroke: #C82930; stroke-width: 1.0;" width="6" x="14" y="119.9023"/><text fill="#000000" font-family="sans-serif" font-size="11" lengthAdjust="spacingAndGlyphs" textLength="159" x="26" y="125.2104">mainWindow : QMainWindow</text><line style="stroke: #A80036; stroke-width: 1.5;" x1="7" x2="294" y1="131.8047" y2="131.8047"/><ellipse cx="17" cy="143.707" fill="#84BE84" rx="3" ry="3" style="stroke: #038048; stroke-width: 1.0;"/><text fill="#000000" font-family="sans-serif" font-size="11" lengthAdjust="spacingAndGlyphs" textLength="263" x="26" y="146.0151">__init__(mainWindow : QMainWindow) : Toolbar</text><ellipse cx="17" cy="156.5117" fill="#84BE84" rx="3" ry="3" style="stroke: #038048; stroke-width: 1.0;"/><text fill="#000000" font-family="sans-serif" font-size="11" lengthAdjust="spacingAndGlyphs" textLength="88" x="26" y="158.8198">initFileToolBar()</text><ellipse cx="17" cy="169.3164" fill="#84BE84" rx="3" ry="3" style="stroke: #038048; stroke-width: 1.0;"/><text fill="#000000" font-family="sans-serif" font-size="11" lengthAdjust="spacingAndGlyphs" textLength="90" x="26" y="171.6245">initEditToolBar()</text><ellipse cx="17" cy="182.1211" fill="#84BE84" rx="3" ry="3" style="stroke: #038048; stroke-width: 1.0;"/><text fill="#000000" font-family="sans-serif" font-size="11" lengthAdjust="spacingAndGlyphs" textLength="119" x="26" y="184.4292">initOntologyToolBar()</text><ellipse cx="17" cy="194.9258" fill="#84BE84" rx="3" ry="3" style="stroke: #038048; stroke-width: 1.0;"/><text fill="#000000" font-family="sans-serif" font-size="11" lengthAdjust="spacingAndGlyphs" textLength="95" x="26" y="197.2339">initViewToolBar()</text><ellipse cx="17" cy="207.7305" fill="#84BE84" rx="3" ry="3" style="stroke: #038048; stroke-width: 1.0;"/><text fill="#000000" font-family="sans-serif" font-size="11" lengthAdjust="spacingAndGlyphs" textLength="100" x="26" y="210.0386">initToolsToolBar()</text><ellipse cx="17" cy="220.5352" fill="#84BE84" rx="3" ry="3" style="stroke: #038048; stroke-width: 1.0;"/><text fill="#000000" font-family="sans-serif" font-size="11" lengthAdjust="spacingAndGlyphs" textLength="94" x="26" y="222.8433">initHelpToolBar()</text><rect fill="#FEFECE" filter="url(#f1)" height="150.4375" style="stroke: #A80036; stroke-width: 1.5;" width="259" x="558" y="79"/><ellipse cx="655.75" cy="95" fill="#ADD1B2" rx="11" ry="11" style="stroke: #A80036; stroke-width: 1.0;"/><path d="M658.7188,100.6406 Q658.1406,100.9375 657.5,101.0859 Q656.8594,101.2344 656.1563,101.2344 Q653.6563,101.2344 652.3359,99.5859 Q651.0156,97.9375 651.0156,94.8125 Q651.0156,91.6875 652.3359,90.0313 Q653.6563,88.375 656.1563,88.375 Q656.8594,88.375 657.5078,88.5313 Q658.1563,88.6875 658.7188,88.9844 L658.7188,91.7031 Q658.0938,91.125 657.5,90.8516 Q656.9063,90.5781 656.2813,90.5781 Q654.9375,90.5781 654.25,91.6484 Q653.5625,92.7188 653.5625,94.8125 Q653.5625,96.9063 654.25,97.9766 Q654.9375,99.0469 656.2813,99.0469 Q656.9063,99.0469 657.5,98.7734 Q658.0938,98.5 658.7188,97.9219 L658.7188,100.6406 Z "/><text fill="#000000" font-family="sans-serif" font-size="12" lengthAdjust="spacingAndGlyphs" textLength="55" x="676.25" y="99.1543">Menubar</text><line style="stroke: #A80036; stroke-width: 1.5;" x1="559" x2="816" y1="111" y2="111"/><rect fill="none" height="6" style="stroke: #C82930; stroke-width: 1.0;" width="6" x="566" y="119.9023"/><text fill="#000000" font-family="sans-serif" font-size="11" lengthAdjust="spacingAndGlyphs" textLength="123" x="578" y="125.2104">menuBar : QMenuBar</text><line style="stroke: #A80036; stroke-width: 1.5;" x1="559" x2="816" y1="131.8047" y2="131.8047"/><ellipse cx="569" cy="143.707" fill="#84BE84" rx="3" ry="3" style="stroke: #038048; stroke-width: 1.0;"/><text fill="#000000" font-family="sans-serif" font-size="11" lengthAdjust="spacingAndGlyphs" textLength="233" x="578" y="146.0151">__init__(menuBar : QMenuBar) : Menubar</text><ellipse cx="569" cy="156.5117" fill="#84BE84" rx="3" ry="3" style="stroke: #038048; stroke-width: 1.0;"/><text fill="#000000" font-family="sans-serif" font-size="11" lengthAdjust="spacingAndGlyphs" textLength="74" x="578" y="158.8198">initFileMenu()</text><ellipse cx="569" cy="169.3164" fill="#84BE84" rx="3" ry="3" style="stroke: #038048; stroke-width: 1.0;"/><text fill="#000000" font-family="sans-serif" font-size="11" lengthAdjust="spacingAndGlyphs" textLength="76" x="578" y="171.6245">initEditMenu()</text><ellipse cx="569" cy="182.1211" fill="#84BE84" rx="3" ry="3" style="stroke: #038048; stroke-width: 1.0;"/><text fill="#000000" font-family="sans-serif" font-size="11" lengthAdjust="spacingAndGlyphs" textLength="105" x="578" y="184.4292">initOntologyMenu()</text><ellipse cx="569" cy="194.9258" fill="#84BE84" rx="3" ry="3" style="stroke: #038048; stroke-width: 1.0;"/><text fill="#000000" font-family="sans-serif" font-size="11" lengthAdjust="spacingAndGlyphs" textLength="81" x="578" y="197.2339">initViewMenu()</text><ellipse cx="569" cy="207.7305" fill="#84BE84" rx="3" ry="3" style="stroke: #038048; stroke-width: 1.0;"/><text fill="#000000" font-family="sans-serif" font-size="11" lengthAdjust="spacingAndGlyphs" textLength="86" x="578" y="210.0386">initToolsMenu()</text><ellipse cx="569" cy="220.5352" fill="#84BE84" rx="3" ry="3" style="stroke: #038048; stroke-width: 1.0;"/><text fill="#000000" font-family="sans-serif" font-size="11" lengthAdjust="spacingAndGlyphs" textLength="80" x="578" y="222.8433">initHelpMenu()</text><rect fill="#FEFECE" filter="url(#f1)" height="60.8047" style="stroke: #A80036; stroke-width: 1.5;" width="99" x="377" y="302.5"/><ellipse cx="392" cy="318.5" fill="#ADD1B2" rx="11" ry="11" style="stroke: #A80036; stroke-width: 1.0;"/><path d="M394.9688,324.1406 Q394.3906,324.4375 393.75,324.5859 Q393.1094,324.7344 392.4063,324.7344 Q389.9063,324.7344 388.5859,323.0859 Q387.2656,321.4375 387.2656,318.3125 Q387.2656,315.1875 388.5859,313.5313 Q389.9063,311.875 392.4063,311.875 Q393.1094,311.875 393.7578,312.0313 Q394.4063,312.1875 394.9688,312.4844 L394.9688,315.2031 Q394.3438,314.625 393.75,314.3516 Q393.1563,314.0781 392.5313,314.0781 Q391.1875,314.0781 390.5,315.1484 Q389.8125,316.2188 389.8125,318.3125 Q389.8125,320.4063 390.5,321.4766 Q391.1875,322.5469 392.5313,322.5469 Q393.1563,322.5469 393.75,322.2734 Q394.3438,322 394.9688,321.4219 L394.9688,324.1406 Z "/><text fill="#000000" font-family="sans-serif" font-size="12" lengthAdjust="spacingAndGlyphs" textLength="67" x="406" y="322.6543">HelpDialog</text><line style="stroke: #A80036; stroke-width: 1.5;" x1="378" x2="475" y1="334.5" y2="334.5"/><line style="stroke: #A80036; stroke-width: 1.5;" x1="378" x2="475" y1="342.5" y2="342.5"/><ellipse cx="388" cy="354.4023" fill="#84BE84" rx="3" ry="3" style="stroke: #038048; stroke-width: 1.0;"/><text fill="#000000" font-family="sans-serif" font-size="11" lengthAdjust="spacingAndGlyphs" textLength="51" x="397" y="356.7104">initView()</text><path d="M294.719,154 C302.197,154 309.675,154 317.153,154 " fill="none" style="stroke: #A80036; stroke-width: 1.0;"/><polygon fill="#A80036" points="330.171,154,324.171,150,318.171,154,324.171,158,330.171,154" style="stroke: #A80036; stroke-width: 1.0;"/><path d="M508.843,64.284 C523.919,52.736 540.41,42.639 557.75,36 C665.25,-5.161 706.556,2.714 816.75,36 C839.421,42.848 861.85,53.647 882.742,65.994 " fill="none" style="stroke: #A80036; stroke-width: 1.0;"/><polygon fill="#A80036" points="498.64,72.486,505.8225,71.8443,507.9926,64.9675,500.8102,65.6092,498.64,72.486" style="stroke: #A80036; stroke-width: 1.0;"/><path d="M535.35,154 C542.824,154 550.297,154 557.771,154 " fill="none" style="stroke: #A80036; stroke-width: 1.0;"/><polygon fill="#A80036" points="522.341,154,528.341,158,534.341,154,528.341,150,522.341,154" style="stroke: #A80036; stroke-width: 1.0;"/><path d="M426.25,248.82 C426.25,268.2094 426.25,287.2565 426.25,302.2214 " fill="none" style="stroke: #A80036; stroke-width: 1.0;"/><polygon fill="none" points="426.25,235.731,422.25,241.731,426.25,247.731,430.25,241.731,426.25,235.731" style="stroke: #A80036; stroke-width: 1.0;"/></g></svg>