<?xml version="1.0" encoding="UTF-8" standalone="yes"?><svg xmlns="http://www.w3.org/2000/svg" xmlns:xlink="http://www.w3.org/1999/xlink" height="78pt" style="width:276px;height:78px;" version="1.1" viewBox="0 0 276 78" width="276pt"><defs><filter height="300%" id="f1" width="300%" x="-1" y="-1"><feGaussianBlur result="blurOut" stdDeviation="2.0"/><feColorMatrix in="blurOut" result="blurOut2" type="matrix" values="0 0 0 0 0 0 0 0 0 0 0 0 0 0 0 0 0 0 .4 0"/><feOffset dx="4.0" dy="4.0" in="blurOut2" result="blurOut3"/><feBlend in="SourceGraphic" in2="blurOut3" mode="normal"/></filter></defs><g><rect fill="#FEFECE" filter="url(#f1)" height="60.8047" style="stroke: #A80036; stroke-width: 1.5;" width="261" x="6" y="8.5"/><ellipse cx="100.75" cy="24.5" fill="#ADD1B2" rx="11" ry="11" style="stroke: #A80036; stroke-width: 1.0;"/><path d="M103.7188,30.1406 Q103.1406,30.4375 102.5,30.5859 Q101.8594,30.7344 101.1563,30.7344 Q98.6563,30.7344 97.3359,29.0859 Q96.0156,27.4375 96.0156,24.3125 Q96.0156,21.1875 97.3359,19.5313 Q98.6563,17.875 101.1563,17.875 Q101.8594,17.875 102.5078,18.0313 Q103.1563,18.1875 103.7188,18.4844 L103.7188,21.2031 Q103.0938,20.625 102.5,20.3516 Q101.9063,20.0781 101.2813,20.0781 Q99.9375,20.0781 99.25,21.1484 Q98.5625,22.2188 98.5625,24.3125 Q98.5625,26.4063 99.25,27.4766 Q99.9375,28.5469 101.2813,28.5469 Q101.9063,28.5469 102.5,28.2734 Q103.0938,28 103.7188,27.4219 L103.7188,30.1406 Z "/><text fill="#000000" font-family="sans-serif" font-size="12" lengthAdjust="spacingAndGlyphs" textLength="63" x="121.25" y="28.6543">TextEditor</text><line style="stroke: #A80036; stroke-width: 1.5;" x1="7" x2="266" y1="40.5" y2="40.5"/><line style="stroke: #A80036; stroke-width: 1.5;" x1="7" x2="266" y1="48.5" y2="48.5"/><ellipse cx="17" cy="60.4023" fill="#84BE84" rx="3" ry="3" style="stroke: #038048; stroke-width: 1.0;"/><text fill="#000000" font-family="sans-serif" font-size="11" lengthAdjust="spacingAndGlyphs" textLength="235" x="26" y="62.7104">show_autocomplete(txt : String) : String[]</text></g></svg>