<?xml version="1.0" encoding="UTF-8" standalone="yes"?><svg xmlns="http://www.w3.org/2000/svg" xmlns:xlink="http://www.w3.org/1999/xlink" height="180pt" style="width:489px;height:180px;" version="1.1" viewBox="0 0 489 180" width="489pt"><defs><filter height="300%" id="f1" width="300%" x="-1" y="-1"><feGaussianBlur result="blurOut" stdDeviation="2.0"/><feColorMatrix in="blurOut" result="blurOut2" type="matrix" values="0 0 0 0 0 0 0 0 0 0 0 0 0 0 0 0 0 0 .4 0"/><feOffset dx="4.0" dy="4.0" in="blurOut2" result="blurOut3"/><feBlend in="SourceGraphic" in2="blurOut3" mode="normal"/></filter></defs><g><rect fill="#FEFECE" filter="url(#f1)" height="150.4375" style="stroke: #A80036; stroke-width: 1.5;" width="250" x="6" y="15"/><ellipse cx="97.75" cy="31" fill="#ADD1B2" rx="11" ry="11" style="stroke: #A80036; stroke-width: 1.0;"/><path d="M100.7188,36.6406 Q100.1406,36.9375 99.5,37.0859 Q98.8594,37.2344 98.1563,37.2344 Q95.6563,37.2344 94.3359,35.5859 Q93.0156,33.9375 93.0156,30.8125 Q93.0156,27.6875 94.3359,26.0313 Q95.6563,24.375 98.1563,24.375 Q98.8594,24.375 99.5078,24.5313 Q100.1563,24.6875 100.7188,24.9844 L100.7188,27.7031 Q100.0938,27.125 99.5,26.8516 Q98.9063,26.5781 98.2813,26.5781 Q96.9375,26.5781 96.25,27.6484 Q95.5625,28.7188 95.5625,30.8125 Q95.5625,32.9063 96.25,33.9766 Q96.9375,35.0469 98.2813,35.0469 Q98.9063,35.0469 99.5,34.7734 Q100.0938,34.5 100.7188,33.9219 L100.7188,36.6406 Z "/><text fill="#000000" font-family="sans-serif" font-size="12" lengthAdjust="spacingAndGlyphs" textLength="58" x="118.25" y="35.1543">Actionlog</text><line style="stroke: #A80036; stroke-width: 1.5;" x1="7" x2="255" y1="47" y2="47"/><rect fill="none" height="6" style="stroke: #C82930; stroke-width: 1.0;" width="6" x="14" y="55.9023"/><text fill="#000000" font-family="sans-serif" font-size="11" lengthAdjust="spacingAndGlyphs" textLength="94" x="26" y="61.2104">actionlog : Stack</text><rect fill="none" height="6" style="stroke: #C82930; stroke-width: 1.0;" width="6" x="14" y="68.707"/><text fill="#000000" font-family="sans-serif" font-size="11" lengthAdjust="spacingAndGlyphs" textLength="86" x="26" y="74.0151">redolog : Stack</text><rect fill="none" height="6" style="stroke: #C82930; stroke-width: 1.0;" width="6" x="14" y="81.5117"/><text fill="#000000" font-family="sans-serif" font-size="11" lengthAdjust="spacingAndGlyphs" textLength="103" x="26" y="86.8198">queue : Dictionary</text><line style="stroke: #A80036; stroke-width: 1.5;" x1="7" x2="255" y1="93.4141" y2="93.4141"/><ellipse cx="17" cy="105.3164" fill="#84BE84" rx="3" ry="3" style="stroke: #038048; stroke-width: 1.0;"/><text fill="#000000" font-family="sans-serif" font-size="11" lengthAdjust="spacingAndGlyphs" textLength="224" x="26" y="107.6245">__init__(path=None : String) : ActionLog</text><ellipse cx="17" cy="118.1211" fill="#84BE84" rx="3" ry="3" style="stroke: #038048; stroke-width: 1.0;"/><text fill="#000000" font-family="sans-serif" font-size="11" lengthAdjust="spacingAndGlyphs" textLength="117" x="26" y="120.4292">queue_log(data) : int</text><ellipse cx="17" cy="130.9258" fill="#84BE84" rx="3" ry="3" style="stroke: #038048; stroke-width: 1.0;"/><text fill="#000000" font-family="sans-serif" font-size="11" lengthAdjust="spacingAndGlyphs" textLength="209" x="26" y="133.2339">ok_log_item(log_queue_ok_num : int)</text><ellipse cx="17" cy="143.7305" fill="#84BE84" rx="3" ry="3" style="stroke: #038048; stroke-width: 1.0;"/><text fill="#000000" font-family="sans-serif" font-size="11" lengthAdjust="spacingAndGlyphs" textLength="36" x="26" y="146.0386">undo()</text><ellipse cx="17" cy="156.5352" fill="#84BE84" rx="3" ry="3" style="stroke: #038048; stroke-width: 1.0;"/><text fill="#000000" font-family="sans-serif" font-size="11" lengthAdjust="spacingAndGlyphs" textLength="34" x="26" y="158.8433">redo()</text><rect fill="#FEFECE" filter="url(#f1)" height="163.2422" style="stroke: #A80036; stroke-width: 1.5;" width="190" x="290.5" y="8.5"/><ellipse cx="364.25" cy="24.5" fill="#ADD1B2" rx="11" ry="11" style="stroke: #A80036; stroke-width: 1.0;"/><path d="M367.2188,30.1406 Q366.6406,30.4375 366,30.5859 Q365.3594,30.7344 364.6563,30.7344 Q362.1563,30.7344 360.8359,29.0859 Q359.5156,27.4375 359.5156,24.3125 Q359.5156,21.1875 360.8359,19.5313 Q362.1563,17.875 364.6563,17.875 Q365.3594,17.875 366.0078,18.0313 Q366.6563,18.1875 367.2188,18.4844 L367.2188,21.2031 Q366.5938,20.625 366,20.3516 Q365.4063,20.0781 364.7813,20.0781 Q363.4375,20.0781 362.75,21.1484 Q362.0625,22.2188 362.0625,24.3125 Q362.0625,26.4063 362.75,27.4766 Q363.4375,28.5469 364.7813,28.5469 Q365.4063,28.5469 366,28.2734 Q366.5938,28 367.2188,27.4219 L367.2188,30.1406 Z "/><text fill="#000000" font-family="sans-serif" font-size="12" lengthAdjust="spacingAndGlyphs" textLength="34" x="384.75" y="28.6543">LogIO</text><line style="stroke: #A80036; stroke-width: 1.5;" x1="291.5" x2="479.5" y1="40.5" y2="40.5"/><rect fill="none" height="6" style="stroke: #C82930; stroke-width: 1.0;" width="6" x="298.5" y="49.4023"/><text fill="#000000" font-family="sans-serif" font-size="11" lengthAdjust="spacingAndGlyphs" textLength="67" x="310.5" y="54.7104">path: String</text><rect fill="none" height="6" style="stroke: #C82930; stroke-width: 1.0;" width="6" x="298.5" y="62.207"/><text fill="#000000" font-family="sans-serif" font-size="11" lengthAdjust="spacingAndGlyphs" textLength="119" x="310.5" y="67.5151">write_queue: String[]</text><rect fill="none" height="6" style="stroke: #C82930; stroke-width: 1.0;" width="6" x="298.5" y="75.0117"/><text fill="#000000" font-family="sans-serif" font-size="11" lengthAdjust="spacingAndGlyphs" textLength="65" x="310.5" y="80.3198">timeout: Int</text><rect fill="none" height="6" style="stroke: #C82930; stroke-width: 1.0;" width="6" x="298.5" y="87.8164"/><text fill="#000000" font-family="sans-serif" font-size="11" lengthAdjust="spacingAndGlyphs" textLength="74" x="310.5" y="93.1245">max_size: Int</text><line style="stroke: #A80036; stroke-width: 1.5;" x1="291.5" x2="479.5" y1="99.7188" y2="99.7188"/><ellipse cx="301.5" cy="111.6211" fill="#84BE84" rx="3" ry="3" style="stroke: #038048; stroke-width: 1.0;"/><text fill="#000000" font-family="sans-serif" font-size="11" lengthAdjust="spacingAndGlyphs" textLength="164" x="310.5" y="113.9292">__init__(path : String) : LogIO</text><ellipse cx="301.5" cy="124.4258" fill="#84BE84" rx="3" ry="3" style="stroke: #038048; stroke-width: 1.0;"/><text fill="#000000" font-family="sans-serif" font-size="11" lengthAdjust="spacingAndGlyphs" textLength="36" x="310.5" y="126.7339">write()</text><ellipse cx="301.5" cy="137.2305" fill="#84BE84" rx="3" ry="3" style="stroke: #038048; stroke-width: 1.0;"/><text fill="#000000" font-family="sans-serif" font-size="11" lengthAdjust="spacingAndGlyphs" textLength="84" x="310.5" y="139.5386">read(): String[]</text><ellipse cx="301.5" cy="150.0352" fill="#84BE84" rx="3" ry="3" style="stroke: #038048; stroke-width: 1.0;"/><text fill="#000000" font-family="sans-serif" font-size="11" lengthAdjust="spacingAndGlyphs" textLength="111" x="310.5" y="152.3433">flush_write_queue()</text><ellipse cx="301.5" cy="162.8398" fill="#84BE84" rx="3" ry="3" style="stroke: #038048; stroke-width: 1.0;"/><text fill="#000000" font-family="sans-serif" font-size="11" lengthAdjust="spacingAndGlyphs" textLength="154" x="310.5" y="165.1479">append_write_queue(entry)</text><path d="M268.02,90 C275.492,90 282.965,90 290.437,90 " fill="none" style="stroke: #A80036; stroke-width: 1.0;"/><polygon fill="#A80036" points="255.012,90,261.012,94,267.012,90,261.012,86,255.012,90" style="stroke: #A80036; stroke-width: 1.0;"/></g></svg>