<?xml version="1.0" encoding="UTF-8" standalone="yes"?><svg xmlns="http://www.w3.org/2000/svg" xmlns:xlink="http://www.w3.org/1999/xlink" height="142pt" style="width:522px;height:142px;" version="1.1" viewBox="0 0 522 142" width="522pt"><defs><filter height="300%" id="f1" width="300%" x="-1" y="-1"><feGaussianBlur result="blurOut" stdDeviation="2.0"/><feColorMatrix in="blurOut" result="blurOut2" type="matrix" values="0 0 0 0 0 0 0 0 0 0 0 0 0 0 0 0 0 0 .4 0"/><feOffset dx="4.0" dy="4.0" in="blurOut2" result="blurOut3"/><feBlend in="SourceGraphic" in2="blurOut3" mode="normal"/></filter></defs><g><rect fill="#FEFECE" filter="url(#f1)" height="124.8281" style="stroke: #A80036; stroke-width: 1.5;" width="507" x="6" y="8.5"/><ellipse cx="232.75" cy="24.5" fill="#ADD1B2" rx="11" ry="11" style="stroke: #A80036; stroke-width: 1.0;"/><path d="M235.7188,30.1406 Q235.1406,30.4375 234.5,30.5859 Q233.8594,30.7344 233.1563,30.7344 Q230.6563,30.7344 229.3359,29.0859 Q228.0156,27.4375 228.0156,24.3125 Q228.0156,21.1875 229.3359,19.5313 Q230.6563,17.875 233.1563,17.875 Q233.8594,17.875 234.5078,18.0313 Q235.1563,18.1875 235.7188,18.4844 L235.7188,21.2031 Q235.0938,20.625 234.5,20.3516 Q233.9063,20.0781 233.2813,20.0781 Q231.9375,20.0781 231.25,21.1484 Q230.5625,22.2188 230.5625,24.3125 Q230.5625,26.4063 231.25,27.4766 Q231.9375,28.5469 233.2813,28.5469 Q233.9063,28.5469 234.5,28.2734 Q235.0938,28 235.7188,27.4219 L235.7188,30.1406 Z "/><text fill="#000000" font-family="sans-serif" font-size="12" lengthAdjust="spacingAndGlyphs" textLength="45" x="253.25" y="28.6543">InfoLog</text><line style="stroke: #A80036; stroke-width: 1.5;" x1="7" x2="512" y1="40.5" y2="40.5"/><rect fill="none" height="6" style="stroke: #C82930; stroke-width: 1.0;" width="6" x="14" y="49.4023"/><text fill="#000000" font-family="sans-serif" font-size="11" lengthAdjust="spacingAndGlyphs" textLength="101" x="26" y="54.7104">file_name : String</text><rect fill="none" height="6" style="stroke: #C82930; stroke-width: 1.0;" width="6" x="14" y="62.207"/><text fill="#000000" font-family="sans-serif" font-size="11" lengthAdjust="spacingAndGlyphs" textLength="102" x="26" y="67.5151">last_entry : String</text><line style="stroke: #A80036; stroke-width: 1.5;" x1="7" x2="512" y1="74.1094" y2="74.1094"/><ellipse cx="17" cy="86.0117" fill="#84BE84" rx="3" ry="3" style="stroke: #038048; stroke-width: 1.0;"/><text fill="#000000" font-family="sans-serif" font-size="11" lengthAdjust="spacingAndGlyphs" textLength="481" x="26" y="88.3198">__init__(loglevel=logging.WARNING : int, filename=default_log_path : String) : InfoLog</text><ellipse cx="17" cy="98.8164" fill="#84BE84" rx="3" ry="3" style="stroke: #038048; stroke-width: 1.0;"/><text fill="#000000" font-family="sans-serif" font-size="11" lengthAdjust="spacingAndGlyphs" textLength="127" x="26" y="101.1245">set_loglevel(level : int)</text><ellipse cx="17" cy="111.6211" fill="#84BE84" rx="3" ry="3" style="stroke: #038048; stroke-width: 1.0;"/><text fill="#000000" font-family="sans-serif" font-size="11" lengthAdjust="spacingAndGlyphs" textLength="103" x="26" y="113.9292">get_log() : String[]</text><ellipse cx="17" cy="124.4258" fill="#84BE84" rx="3" ry="3" style="stroke: #038048; stroke-width: 1.0;"/><text fill="#000000" font-family="sans-serif" font-size="11" lengthAdjust="spacingAndGlyphs" textLength="200" x="26" y="126.7339">get_log_tail(num=10 : int) : String[]</text></g></svg>