<?xml version="1.0" encoding="UTF-8" standalone="yes"?><svg xmlns="http://www.w3.org/2000/svg" xmlns:xlink="http://www.w3.org/1999/xlink" height="180pt" style="width:327px;height:180px;" version="1.1" viewBox="0 0 327 180" width="327pt"><defs><filter height="300%" id="f1" width="300%" x="-1" y="-1"><feGaussianBlur result="blurOut" stdDeviation="2.0"/><feColorMatrix in="blurOut" result="blurOut2" type="matrix" values="0 0 0 0 0 0 0 0 0 0 0 0 0 0 0 0 0 0 .4 0"/><feOffset dx="4.0" dy="4.0" in="blurOut2" result="blurOut3"/><feBlend in="SourceGraphic" in2="blurOut3" mode="normal"/></filter></defs><g><rect fill="#FEFECE" filter="url(#f1)" height="163.2422" style="stroke: #A80036; stroke-width: 1.5;" width="312" x="6" y="8.5"/><ellipse cx="106.75" cy="24.5" fill="#ADD1B2" rx="11" ry="11" style="stroke: #A80036; stroke-width: 1.0;"/><path d="M109.7188,30.1406 Q109.1406,30.4375 108.5,30.5859 Q107.8594,30.7344 107.1563,30.7344 Q104.6563,30.7344 103.3359,29.0859 Q102.0156,27.4375 102.0156,24.3125 Q102.0156,21.1875 103.3359,19.5313 Q104.6563,17.875 107.1563,17.875 Q107.8594,17.875 108.5078,18.0313 Q109.1563,18.1875 109.7188,18.4844 L109.7188,21.2031 Q109.0938,20.625 108.5,20.3516 Q107.9063,20.0781 107.2813,20.0781 Q105.9375,20.0781 105.25,21.1484 Q104.5625,22.2188 104.5625,24.3125 Q104.5625,26.4063 105.25,27.4766 Q105.9375,28.5469 107.2813,28.5469 Q107.9063,28.5469 108.5,28.2734 Q109.0938,28 109.7188,27.4219 L109.7188,30.1406 Z "/><text fill="#000000" font-family="sans-serif" font-size="12" lengthAdjust="spacingAndGlyphs" textLength="102" x="127.25" y="28.6543">SyntaxController</text><line style="stroke: #A80036; stroke-width: 1.5;" x1="7" x2="317" y1="40.5" y2="40.5"/><rect fill="none" height="6" style="stroke: #C82930; stroke-width: 1.0;" width="6" x="14" y="49.4023"/><text fill="#000000" font-family="sans-serif" font-size="11" lengthAdjust="spacingAndGlyphs" textLength="117" x="26" y="54.7104">actionlog : ActionLog</text><rect fill="none" height="6" style="stroke: #C82930; stroke-width: 1.0;" width="6" x="14" y="62.207"/><text fill="#000000" font-family="sans-serif" font-size="11" lengthAdjust="spacingAndGlyphs" textLength="131" x="26" y="67.5151">index : IndexAbstractor</text><line style="stroke: #A80036; stroke-width: 1.5;" x1="7" x2="317" y1="74.1094" y2="74.1094"/><ellipse cx="17" cy="86.0117" fill="#84BE84" rx="3" ry="3" style="stroke: #038048; stroke-width: 1.0;"/><text fill="#000000" font-family="sans-serif" font-size="11" lengthAdjust="spacingAndGlyphs" textLength="286" x="26" y="88.3198">__init__(index : IndexAbstractor) : SyntaxController</text><ellipse cx="17" cy="98.8164" fill="#84BE84" rx="3" ry="3" style="stroke: #038048; stroke-width: 1.0;"/><text fill="#000000" font-family="sans-serif" font-size="11" lengthAdjust="spacingAndGlyphs" textLength="145" x="26" y="101.1245">parse_partial(code_block)</text><ellipse cx="17" cy="111.6211" fill="#84BE84" rx="3" ry="3" style="stroke: #038048; stroke-width: 1.0;"/><text fill="#000000" font-family="sans-serif" font-size="11" lengthAdjust="spacingAndGlyphs" textLength="130" x="26" y="113.9292">parse_add(code_block)</text><ellipse cx="17" cy="124.4258" fill="#84BE84" rx="3" ry="3" style="stroke: #038048; stroke-width: 1.0;"/><text fill="#000000" font-family="sans-serif" font-size="11" lengthAdjust="spacingAndGlyphs" textLength="113" x="26" y="126.7339">parse_graph(graph)</text><ellipse cx="17" cy="137.2305" fill="#84BE84" rx="3" ry="3" style="stroke: #038048; stroke-width: 1.0;"/><text fill="#000000" font-family="sans-serif" font-size="11" lengthAdjust="spacingAndGlyphs" textLength="131" x="26" y="139.5386">add_ontology(ontology)</text><ellipse cx="17" cy="150.0352" fill="#84BE84" rx="3" ry="3" style="stroke: #038048; stroke-width: 1.0;"/><text fill="#000000" font-family="sans-serif" font-size="11" lengthAdjust="spacingAndGlyphs" textLength="153" x="26" y="152.3433">remove_ontology(ontology)</text><ellipse cx="17" cy="162.8398" fill="#84BE84" rx="3" ry="3" style="stroke: #038048; stroke-width: 1.0;"/><text fill="#000000" font-family="sans-serif" font-size="11" lengthAdjust="spacingAndGlyphs" textLength="174" x="26" y="165.1479">serialize(ontology, path=None)</text></g></svg>