<?xml version="1.0" encoding="UTF-8" standalone="yes"?><svg xmlns="http://www.w3.org/2000/svg" xmlns:xlink="http://www.w3.org/1999/xlink" height="899pt" style="width:1391px;height:899px;" version="1.1" viewBox="0 0 1391 899" width="1391pt"><defs><filter height="300%" id="f1" width="300%" x="-1" y="-1"><feGaussianBlur result="blurOut" stdDeviation="2.0"/><feColorMatrix in="blurOut" result="blurOut2" type="matrix" values="0 0 0 0 0 0 0 0 0 0 0 0 0 0 0 0 0 0 .4 0"/><feOffset dx="4.0" dy="4.0" in="blurOut2" result="blurOut3"/><feBlend in="SourceGraphic" in2="blurOut3" mode="normal"/></filter></defs><g><polygon fill="#FFFFFF" filter="url(#f1)" points="22,24,43,24,50,46.2969,1384,46.2969,1384,892,22,892,22,24" style="stroke: #000000; stroke-width: 2.0;"/><line style="stroke: #000000; stroke-width: 2.0;" x1="22" x2="50" y1="46.2969" y2="46.2969"/><text fill="#000000" font-family="sans-serif" font-size="14" font-weight="bold" lengthAdjust="spacingAndGlyphs" textLength="15" x="25" y="39.9951">UI</text><polygon fill="#FFFFFF" filter="url(#f1)" points="336,437,397,437,404,459.2969,1352,459.2969,1352,860,336,860,336,437" style="stroke: #000000; stroke-width: 2.0;"/><line style="stroke: #000000; stroke-width: 2.0;" x1="336" x2="404" y1="459.2969" y2="459.2969"/><text fill="#000000" font-family="sans-serif" font-size="14" font-weight="bold" lengthAdjust="spacingAndGlyphs" textLength="55" x="339" y="452.9951">Widget</text><polygon fill="#FBFB77" filter="url(#f1)" points="818.5,96,818.5,136.2656,1172.5,136.2656,1172.5,106,1162.5,96,818.5,96" style="stroke: #A80036; stroke-width: 1.0;"/><line style="stroke: #A80036; stroke-width: 1.0;" x1="1162.5" x2="1162.5" y1="96" y2="106"/><line style="stroke: #A80036; stroke-width: 1.0;" x1="1172.5" x2="1162.5" y1="106" y2="106"/><text fill="#000000" font-family="sans-serif" font-size="13" lengthAdjust="spacingAndGlyphs" textLength="276" x="824.5" y="113.0669">Note that almost every UI class has a class</text><text fill="#000000" font-family="sans-serif" font-size="13" lengthAdjust="spacingAndGlyphs" textLength="329" x="828.5" y="128.1997">created by Qt Designer and PySide which it inherits.</text><rect fill="#FEFECE" filter="url(#f1)" height="112.0234" style="stroke: #A80036; stroke-width: 1.5;" width="260" x="328" y="60"/><ellipse cx="407.25" cy="76" fill="#ADD1B2" rx="11" ry="11" style="stroke: #A80036; stroke-width: 1.0;"/><path d="M410.2188,81.6406 Q409.6406,81.9375 409,82.0859 Q408.3594,82.2344 407.6563,82.2344 Q405.1563,82.2344 403.8359,80.5859 Q402.5156,78.9375 402.5156,75.8125 Q402.5156,72.6875 403.8359,71.0313 Q405.1563,69.375 407.6563,69.375 Q408.3594,69.375 409.0078,69.5313 Q409.6563,69.6875 410.2188,69.9844 L410.2188,72.7031 Q409.5938,72.125 409,71.8516 Q408.4063,71.5781 407.7813,71.5781 Q406.4375,71.5781 405.75,72.6484 Q405.0625,73.7188 405.0625,75.8125 Q405.0625,77.9063 405.75,78.9766 Q406.4375,80.0469 407.7813,80.0469 Q408.4063,80.0469 409,79.7734 Q409.5938,79.5 410.2188,78.9219 L410.2188,81.6406 Z "/><text fill="#000000" font-family="sans-serif" font-size="12" lengthAdjust="spacingAndGlyphs" textLength="93" x="427.75" y="80.1543">PluginManager</text><line style="stroke: #A80036; stroke-width: 1.5;" x1="329" x2="587" y1="92" y2="92"/><line style="stroke: #A80036; stroke-width: 1.5;" x1="329" x2="587" y1="100" y2="100"/><rect fill="#F24D5C" height="6" style="stroke: #C82930; stroke-width: 1.0;" width="6" x="336" y="108.9023"/><text fill="#000000" font-family="sans-serif" font-size="11" lengthAdjust="spacingAndGlyphs" textLength="234" x="348" y="114.2104">plugins : (path : String, widget : Widget)[]</text><ellipse cx="339" cy="124.707" fill="#84BE84" rx="3" ry="3" style="stroke: #038048; stroke-width: 1.0;"/><text fill="#000000" font-family="sans-serif" font-size="11" lengthAdjust="spacingAndGlyphs" textLength="130" x="348" y="127.0151">get_plugins() : Widget[]</text><ellipse cx="339" cy="137.5117" fill="#84BE84" rx="3" ry="3" style="stroke: #038048; stroke-width: 1.0;"/><text fill="#000000" font-family="sans-serif" font-size="11" lengthAdjust="spacingAndGlyphs" textLength="198" x="348" y="139.8198">add_plugin(path : String) : Boolean</text><ellipse cx="339" cy="150.3164" fill="#84BE84" rx="3" ry="3" style="stroke: #038048; stroke-width: 1.0;"/><text fill="#000000" font-family="sans-serif" font-size="11" lengthAdjust="spacingAndGlyphs" textLength="227" x="348" y="152.6245">remove_plugin(name : String) : Boolean</text><ellipse cx="339" cy="163.1211" fill="#84BE84" rx="3" ry="3" style="stroke: #038048; stroke-width: 1.0;"/><text fill="#000000" font-family="sans-serif" font-size="11" lengthAdjust="spacingAndGlyphs" textLength="86" x="348" y="165.4292">show_options()</text><rect fill="#FEFECE" filter="url(#f1)" height="99.2188" style="stroke: #A80036; stroke-width: 1.5;" width="136" x="38" y="468.5"/><ellipse cx="63.8" cy="484.5" fill="#ADD1B2" rx="11" ry="11" style="stroke: #A80036; stroke-width: 1.0;"/><path d="M66.7688,490.1406 Q66.1906,490.4375 65.55,490.5859 Q64.9094,490.7344 64.2063,490.7344 Q61.7063,490.7344 60.3859,489.0859 Q59.0656,487.4375 59.0656,484.3125 Q59.0656,481.1875 60.3859,479.5313 Q61.7063,477.875 64.2063,477.875 Q64.9094,477.875 65.5578,478.0313 Q66.2063,478.1875 66.7688,478.4844 L66.7688,481.2031 Q66.1438,480.625 65.55,480.3516 Q64.9563,480.0781 64.3313,480.0781 Q62.9875,480.0781 62.3,481.1484 Q61.6125,482.2188 61.6125,484.3125 Q61.6125,486.4063 62.3,487.4766 Q62.9875,488.5469 64.3313,488.5469 Q64.9563,488.5469 65.55,488.2734 Q66.1438,488 66.7688,487.4219 L66.7688,490.1406 Z "/><text fill="#000000" font-family="sans-serif" font-size="12" lengthAdjust="spacingAndGlyphs" textLength="80" x="80.2" y="488.6543">OptionDialog</text><line style="stroke: #A80036; stroke-width: 1.5;" x1="39" x2="173" y1="500.5" y2="500.5"/><rect fill="none" height="6" style="stroke: #C82930; stroke-width: 1.0;" width="6" x="46" y="509.4023"/><text fill="#000000" font-family="sans-serif" font-size="11" lengthAdjust="spacingAndGlyphs" textLength="110" x="58" y="514.7104">options : Dictionary</text><line style="stroke: #A80036; stroke-width: 1.5;" x1="39" x2="173" y1="521.3047" y2="521.3047"/><ellipse cx="49" cy="533.207" fill="#84BE84" rx="3" ry="3" style="stroke: #038048; stroke-width: 1.0;"/><text fill="#000000" font-family="sans-serif" font-size="11" lengthAdjust="spacingAndGlyphs" textLength="70" x="58" y="535.5151">createView()</text><ellipse cx="49" cy="546.0117" fill="#84BE84" rx="3" ry="3" style="stroke: #038048; stroke-width: 1.0;"/><text fill="#000000" font-family="sans-serif" font-size="11" lengthAdjust="spacingAndGlyphs" textLength="106" x="58" y="548.3198">save(path : String)</text><ellipse cx="49" cy="558.8164" fill="#84BE84" rx="3" ry="3" style="stroke: #038048; stroke-width: 1.0;"/><text fill="#000000" font-family="sans-serif" font-size="11" lengthAdjust="spacingAndGlyphs" textLength="103" x="58" y="561.1245">load(path : String)</text><rect fill="#FEFECE" filter="url(#f1)" height="163.2422" style="stroke: #A80036; stroke-width: 1.5;" width="192" x="362" y="238.5"/><ellipse cx="415.75" cy="254.5" fill="#ADD1B2" rx="11" ry="11" style="stroke: #A80036; stroke-width: 1.0;"/><path d="M418.7188,260.1406 Q418.1406,260.4375 417.5,260.5859 Q416.8594,260.7344 416.1563,260.7344 Q413.6563,260.7344 412.3359,259.0859 Q411.0156,257.4375 411.0156,254.3125 Q411.0156,251.1875 412.3359,249.5313 Q413.6563,247.875 416.1563,247.875 Q416.8594,247.875 417.5078,248.0313 Q418.1563,248.1875 418.7188,248.4844 L418.7188,251.2031 Q418.0938,250.625 417.5,250.3516 Q416.9063,250.0781 416.2813,250.0781 Q414.9375,250.0781 414.25,251.1484 Q413.5625,252.2188 413.5625,254.3125 Q413.5625,256.4063 414.25,257.4766 Q414.9375,258.5469 416.2813,258.5469 Q416.9063,258.5469 417.5,258.2734 Q418.0938,258 418.7188,257.4219 L418.7188,260.1406 Z "/><text fill="#000000" font-family="sans-serif" font-size="12" lengthAdjust="spacingAndGlyphs" textLength="76" x="436.25" y="258.6543">MainWindow</text><line style="stroke: #A80036; stroke-width: 1.5;" x1="363" x2="553" y1="270.5" y2="270.5"/><rect fill="none" height="6" style="stroke: #C82930; stroke-width: 1.0;" width="6" x="370" y="279.4023"/><text fill="#000000" font-family="sans-serif" font-size="11" lengthAdjust="spacingAndGlyphs" textLength="101" x="382" y="284.7104">widgets : Widget[]</text><line style="stroke: #A80036; stroke-width: 1.5;" x1="363" x2="553" y1="291.3047" y2="291.3047"/><ellipse cx="373" cy="303.207" fill="#84BE84" rx="3" ry="3" style="stroke: #038048; stroke-width: 1.0;"/><text fill="#000000" font-family="sans-serif" font-size="11" lengthAdjust="spacingAndGlyphs" textLength="76" x="382" y="305.5151">loadOptions()</text><ellipse cx="373" cy="316.0117" fill="#84BE84" rx="3" ry="3" style="stroke: #038048; stroke-width: 1.0;"/><text fill="#000000" font-family="sans-serif" font-size="11" lengthAdjust="spacingAndGlyphs" textLength="75" x="382" y="318.3198">synchronize()</text><ellipse cx="373" cy="328.8164" fill="#84BE84" rx="3" ry="3" style="stroke: #038048; stroke-width: 1.0;"/><text fill="#000000" font-family="sans-serif" font-size="11" lengthAdjust="spacingAndGlyphs" textLength="152" x="382" y="331.1245">addWidget(widget : Widget)</text><ellipse cx="373" cy="341.6211" fill="#84BE84" rx="3" ry="3" style="stroke: #038048; stroke-width: 1.0;"/><text fill="#000000" font-family="sans-serif" font-size="11" lengthAdjust="spacingAndGlyphs" textLength="166" x="382" y="343.9292">deleteWidget(widget : Widget)</text><text fill="#000000" font-family="sans-serif" font-size="11" lengthAdjust="spacingAndGlyphs" textLength="0" x="386" y="356.7339"/><ellipse cx="373" cy="367.2305" fill="#84BE84" rx="3" ry="3" style="stroke: #038048; stroke-width: 1.0;"/><text fill="#000000" font-family="sans-serif" font-size="11" lengthAdjust="spacingAndGlyphs" textLength="55" x="382" y="369.5386">openFile()</text><ellipse cx="373" cy="380.0352" fill="#84BE84" rx="3" ry="3" style="stroke: #038048; stroke-width: 1.0;"/><text fill="#000000" font-family="sans-serif" font-size="11" lengthAdjust="spacingAndGlyphs" textLength="54" x="382" y="382.3433">saveFile()</text><ellipse cx="373" cy="392.8398" fill="#84BE84" rx="3" ry="3" style="stroke: #038048; stroke-width: 1.0;"/><text fill="#000000" font-family="sans-serif" font-size="11" lengthAdjust="spacingAndGlyphs" textLength="63" x="382" y="395.1479">showHelp()</text><rect fill="#FEFECE" filter="url(#f1)" height="176.0469" style="stroke: #A80036; stroke-width: 1.5;" width="284" x="884" y="232"/><ellipse cx="990.75" cy="248" fill="#ADD1B2" rx="11" ry="11" style="stroke: #A80036; stroke-width: 1.0;"/><path d="M993.7188,253.6406 Q993.1406,253.9375 992.5,254.0859 Q991.8594,254.2344 991.1563,254.2344 Q988.6563,254.2344 987.3359,252.5859 Q986.0156,250.9375 986.0156,247.8125 Q986.0156,244.6875 987.3359,243.0313 Q988.6563,241.375 991.1563,241.375 Q991.8594,241.375 992.5078,241.5313 Q993.1563,241.6875 993.7188,241.9844 L993.7188,244.7031 Q993.0938,244.125 992.5,243.8516 Q991.9063,243.5781 991.2813,243.5781 Q989.9375,243.5781 989.25,244.6484 Q988.5625,245.7188 988.5625,247.8125 Q988.5625,249.9063 989.25,250.9766 Q989.9375,252.0469 991.2813,252.0469 Q991.9063,252.0469 992.5,251.7734 Q993.0938,251.5 993.7188,250.9219 L993.7188,253.6406 Z "/><text fill="#000000" font-family="sans-serif" font-size="12" lengthAdjust="spacingAndGlyphs" textLength="62" x="1011.25" y="252.1543">Statusbar</text><line style="stroke: #A80036; stroke-width: 1.5;" x1="885" x2="1167" y1="264" y2="264"/><rect fill="none" height="6" style="stroke: #C82930; stroke-width: 1.0;" width="6" x="892" y="272.9023"/><text fill="#000000" font-family="sans-serif" font-size="11" lengthAdjust="spacingAndGlyphs" textLength="70" x="904" y="278.2104">log : InfoLog</text><rect fill="none" height="6" style="stroke: #C82930; stroke-width: 1.0;" width="6" x="892" y="285.707"/><text fill="#000000" font-family="sans-serif" font-size="11" lengthAdjust="spacingAndGlyphs" textLength="134" x="904" y="291.0151">statusBar : QStatusBar</text><line style="stroke: #A80036; stroke-width: 1.5;" x1="885" x2="1167" y1="297.6094" y2="297.6094"/><ellipse cx="895" cy="309.5117" fill="#84BE84" rx="3" ry="3" style="stroke: #038048; stroke-width: 1.0;"/><text fill="#000000" font-family="sans-serif" font-size="11" lengthAdjust="spacingAndGlyphs" textLength="232" x="904" y="311.8198">__init__(QStatusBar, InfoLog) : Statusbar</text><ellipse cx="895" cy="322.3164" fill="#84BE84" rx="3" ry="3" style="stroke: #038048; stroke-width: 1.0;"/><text fill="#000000" font-family="sans-serif" font-size="11" lengthAdjust="spacingAndGlyphs" textLength="53" x="904" y="324.6245">initialize()</text><ellipse cx="895" cy="335.1211" fill="#84BE84" rx="3" ry="3" style="stroke: #038048; stroke-width: 1.0;"/><text fill="#000000" font-family="sans-serif" font-size="11" lengthAdjust="spacingAndGlyphs" textLength="47" x="904" y="337.4292">update()</text><ellipse cx="895" cy="347.9258" fill="#84BE84" rx="3" ry="3" style="stroke: #038048; stroke-width: 1.0;"/><text fill="#000000" font-family="sans-serif" font-size="11" lengthAdjust="spacingAndGlyphs" textLength="36" x="904" y="350.2339">clear()</text><ellipse cx="895" cy="360.7305" fill="#84BE84" rx="3" ry="3" style="stroke: #038048; stroke-width: 1.0;"/><text fill="#000000" font-family="sans-serif" font-size="11" lengthAdjust="spacingAndGlyphs" textLength="258" x="904" y="363.0386">setProgressBarActivated(activated : Boolean)</text><ellipse cx="895" cy="373.5352" fill="#84BE84" rx="3" ry="3" style="stroke: #038048; stroke-width: 1.0;"/><text fill="#000000" font-family="sans-serif" font-size="11" lengthAdjust="spacingAndGlyphs" textLength="193" x="904" y="375.8433">setProgressBarText(msg : String)</text><ellipse cx="895" cy="386.3398" fill="#84BE84" rx="3" ry="3" style="stroke: #038048; stroke-width: 1.0;"/><text fill="#000000" font-family="sans-serif" font-size="11" lengthAdjust="spacingAndGlyphs" textLength="132" x="904" y="388.6479">clearProgressBarText()</text><ellipse cx="895" cy="399.1445" fill="#84BE84" rx="3" ry="3" style="stroke: #038048; stroke-width: 1.0;"/><text fill="#000000" font-family="sans-serif" font-size="11" lengthAdjust="spacingAndGlyphs" textLength="177" x="904" y="401.4526">setProgressValue(val : Integer)</text><rect fill="#FEFECE" filter="url(#f1)" height="150.4375" style="stroke: #A80036; stroke-width: 1.5;" width="289" x="37.75" y="245"/><ellipse cx="154.5" cy="261" fill="#ADD1B2" rx="11" ry="11" style="stroke: #A80036; stroke-width: 1.0;"/><path d="M157.4688,266.6406 Q156.8906,266.9375 156.25,267.0859 Q155.6094,267.2344 154.9063,267.2344 Q152.4063,267.2344 151.0859,265.5859 Q149.7656,263.9375 149.7656,260.8125 Q149.7656,257.6875 151.0859,256.0313 Q152.4063,254.375 154.9063,254.375 Q155.6094,254.375 156.2578,254.5313 Q156.9063,254.6875 157.4688,254.9844 L157.4688,257.7031 Q156.8438,257.125 156.25,256.8516 Q155.6563,256.5781 155.0313,256.5781 Q153.6875,256.5781 153,257.6484 Q152.3125,258.7188 152.3125,260.8125 Q152.3125,262.9063 153,263.9766 Q153.6875,265.0469 155.0313,265.0469 Q155.6563,265.0469 156.25,264.7734 Q156.8438,264.5 157.4688,263.9219 L157.4688,266.6406 Z "/><text fill="#000000" font-family="sans-serif" font-size="12" lengthAdjust="spacingAndGlyphs" textLength="47" x="175" y="265.1543">Toolbar</text><line style="stroke: #A80036; stroke-width: 1.5;" x1="38.75" x2="325.75" y1="277" y2="277"/><rect fill="none" height="6" style="stroke: #C82930; stroke-width: 1.0;" width="6" x="45.75" y="285.9023"/><text fill="#000000" font-family="sans-serif" font-size="11" lengthAdjust="spacingAndGlyphs" textLength="159" x="57.75" y="291.2104">mainWindow : QMainWindow</text><line style="stroke: #A80036; stroke-width: 1.5;" x1="38.75" x2="325.75" y1="297.8047" y2="297.8047"/><ellipse cx="48.75" cy="309.707" fill="#84BE84" rx="3" ry="3" style="stroke: #038048; stroke-width: 1.0;"/><text fill="#000000" font-family="sans-serif" font-size="11" lengthAdjust="spacingAndGlyphs" textLength="263" x="57.75" y="312.0151">__init__(mainWindow : QMainWindow) : Toolbar</text><ellipse cx="48.75" cy="322.5117" fill="#84BE84" rx="3" ry="3" style="stroke: #038048; stroke-width: 1.0;"/><text fill="#000000" font-family="sans-serif" font-size="11" lengthAdjust="spacingAndGlyphs" textLength="88" x="57.75" y="324.8198">initFileToolBar()</text><ellipse cx="48.75" cy="335.3164" fill="#84BE84" rx="3" ry="3" style="stroke: #038048; stroke-width: 1.0;"/><text fill="#000000" font-family="sans-serif" font-size="11" lengthAdjust="spacingAndGlyphs" textLength="90" x="57.75" y="337.6245">initEditToolBar()</text><ellipse cx="48.75" cy="348.1211" fill="#84BE84" rx="3" ry="3" style="stroke: #038048; stroke-width: 1.0;"/><text fill="#000000" font-family="sans-serif" font-size="11" lengthAdjust="spacingAndGlyphs" textLength="119" x="57.75" y="350.4292">initOntologyToolBar()</text><ellipse cx="48.75" cy="360.9258" fill="#84BE84" rx="3" ry="3" style="stroke: #038048; stroke-width: 1.0;"/><text fill="#000000" font-family="sans-serif" font-size="11" lengthAdjust="spacingAndGlyphs" textLength="95" x="57.75" y="363.2339">initViewToolBar()</text><ellipse cx="48.75" cy="373.7305" fill="#84BE84" rx="3" ry="3" style="stroke: #038048; stroke-width: 1.0;"/><text fill="#000000" font-family="sans-serif" font-size="11" lengthAdjust="spacingAndGlyphs" textLength="100" x="57.75" y="376.0386">initToolsToolBar()</text><ellipse cx="48.75" cy="386.5352" fill="#84BE84" rx="3" ry="3" style="stroke: #038048; stroke-width: 1.0;"/><text fill="#000000" font-family="sans-serif" font-size="11" lengthAdjust="spacingAndGlyphs" textLength="94" x="57.75" y="388.8433">initHelpToolBar()</text><rect fill="#FEFECE" filter="url(#f1)" height="150.4375" style="stroke: #A80036; stroke-width: 1.5;" width="259" x="589.75" y="245"/><ellipse cx="687.5" cy="261" fill="#ADD1B2" rx="11" ry="11" style="stroke: #A80036; stroke-width: 1.0;"/><path d="M690.4688,266.6406 Q689.8906,266.9375 689.25,267.0859 Q688.6094,267.2344 687.9063,267.2344 Q685.4063,267.2344 684.0859,265.5859 Q682.7656,263.9375 682.7656,260.8125 Q682.7656,257.6875 684.0859,256.0313 Q685.4063,254.375 687.9063,254.375 Q688.6094,254.375 689.2578,254.5313 Q689.9063,254.6875 690.4688,254.9844 L690.4688,257.7031 Q689.8438,257.125 689.25,256.8516 Q688.6563,256.5781 688.0313,256.5781 Q686.6875,256.5781 686,257.6484 Q685.3125,258.7188 685.3125,260.8125 Q685.3125,262.9063 686,263.9766 Q686.6875,265.0469 688.0313,265.0469 Q688.6563,265.0469 689.25,264.7734 Q689.8438,264.5 690.4688,263.9219 L690.4688,266.6406 Z "/><text fill="#000000" font-family="sans-serif" font-size="12" lengthAdjust="spacingAndGlyphs" textLength="55" x="708" y="265.1543">Menubar</text><line style="stroke: #A80036; stroke-width: 1.5;" x1="590.75" x2="847.75" y1="277" y2="277"/><rect fill="none" height="6" style="stroke: #C82930; stroke-width: 1.0;" width="6" x="597.75" y="285.9023"/><text fill="#000000" font-family="sans-serif" font-size="11" lengthAdjust="spacingAndGlyphs" textLength="123" x="609.75" y="291.2104">menuBar : QMenuBar</text><line style="stroke: #A80036; stroke-width: 1.5;" x1="590.75" x2="847.75" y1="297.8047" y2="297.8047"/><ellipse cx="600.75" cy="309.707" fill="#84BE84" rx="3" ry="3" style="stroke: #038048; stroke-width: 1.0;"/><text fill="#000000" font-family="sans-serif" font-size="11" lengthAdjust="spacingAndGlyphs" textLength="233" x="609.75" y="312.0151">__init__(menuBar : QMenuBar) : Menubar</text><ellipse cx="600.75" cy="322.5117" fill="#84BE84" rx="3" ry="3" style="stroke: #038048; stroke-width: 1.0;"/><text fill="#000000" font-family="sans-serif" font-size="11" lengthAdjust="spacingAndGlyphs" textLength="74" x="609.75" y="324.8198">initFileMenu()</text><ellipse cx="600.75" cy="335.3164" fill="#84BE84" rx="3" ry="3" style="stroke: #038048; stroke-width: 1.0;"/><text fill="#000000" font-family="sans-serif" font-size="11" lengthAdjust="spacingAndGlyphs" textLength="76" x="609.75" y="337.6245">initEditMenu()</text><ellipse cx="600.75" cy="348.1211" fill="#84BE84" rx="3" ry="3" style="stroke: #038048; stroke-width: 1.0;"/><text fill="#000000" font-family="sans-serif" font-size="11" lengthAdjust="spacingAndGlyphs" textLength="105" x="609.75" y="350.4292">initOntologyMenu()</text><ellipse cx="600.75" cy="360.9258" fill="#84BE84" rx="3" ry="3" style="stroke: #038048; stroke-width: 1.0;"/><text fill="#000000" font-family="sans-serif" font-size="11" lengthAdjust="spacingAndGlyphs" textLength="81" x="609.75" y="363.2339">initViewMenu()</text><ellipse cx="600.75" cy="373.7305" fill="#84BE84" rx="3" ry="3" style="stroke: #038048; stroke-width: 1.0;"/><text fill="#000000" font-family="sans-serif" font-size="11" lengthAdjust="spacingAndGlyphs" textLength="86" x="609.75" y="376.0386">initToolsMenu()</text><ellipse cx="600.75" cy="386.5352" fill="#84BE84" rx="3" ry="3" style="stroke: #038048; stroke-width: 1.0;"/><text fill="#000000" font-family="sans-serif" font-size="11" lengthAdjust="spacingAndGlyphs" textLength="80" x="609.75" y="388.8433">initHelpMenu()</text><rect fill="#FEFECE" filter="url(#f1)" height="60.8047" style="stroke: #A80036; stroke-width: 1.5;" width="99" x="209.75" y="487.5"/><ellipse cx="224.75" cy="503.5" fill="#ADD1B2" rx="11" ry="11" style="stroke: #A80036; stroke-width: 1.0;"/><path d="M227.7188,509.1406 Q227.1406,509.4375 226.5,509.5859 Q225.8594,509.7344 225.1563,509.7344 Q222.6563,509.7344 221.3359,508.0859 Q220.0156,506.4375 220.0156,503.3125 Q220.0156,500.1875 221.3359,498.5313 Q222.6563,496.875 225.1563,496.875 Q225.8594,496.875 226.5078,497.0313 Q227.1563,497.1875 227.7188,497.4844 L227.7188,500.2031 Q227.0938,499.625 226.5,499.3516 Q225.9063,499.0781 225.2813,499.0781 Q223.9375,499.0781 223.25,500.1484 Q222.5625,501.2188 222.5625,503.3125 Q222.5625,505.4063 223.25,506.4766 Q223.9375,507.5469 225.2813,507.5469 Q225.9063,507.5469 226.5,507.2734 Q227.0938,507 227.7188,506.4219 L227.7188,509.1406 Z "/><text fill="#000000" font-family="sans-serif" font-size="12" lengthAdjust="spacingAndGlyphs" textLength="67" x="238.75" y="507.6543">HelpDialog</text><line style="stroke: #A80036; stroke-width: 1.5;" x1="210.75" x2="307.75" y1="519.5" y2="519.5"/><line style="stroke: #A80036; stroke-width: 1.5;" x1="210.75" x2="307.75" y1="527.5" y2="527.5"/><ellipse cx="220.75" cy="539.4023" fill="#84BE84" rx="3" ry="3" style="stroke: #038048; stroke-width: 1.0;"/><text fill="#000000" font-family="sans-serif" font-size="11" lengthAdjust="spacingAndGlyphs" textLength="51" x="229.75" y="541.7104">initView()</text><rect fill="#FEFECE" filter="url(#f1)" height="73.6094" style="stroke: #A80036; stroke-width: 1.5;" width="236" x="647" y="762"/><ellipse cx="709.75" cy="778" fill="#ADD1B2" rx="11" ry="11" style="stroke: #A80036; stroke-width: 1.0;"/><path d="M712.7188,783.6406 Q712.1406,783.9375 711.5,784.0859 Q710.8594,784.2344 710.1563,784.2344 Q707.6563,784.2344 706.3359,782.5859 Q705.0156,780.9375 705.0156,777.8125 Q705.0156,774.6875 706.3359,773.0313 Q707.6563,771.375 710.1563,771.375 Q710.8594,771.375 711.5078,771.5313 Q712.1563,771.6875 712.7188,771.9844 L712.7188,774.7031 Q712.0938,774.125 711.5,773.8516 Q710.9063,773.5781 710.2813,773.5781 Q708.9375,773.5781 708.25,774.6484 Q707.5625,775.7188 707.5625,777.8125 Q707.5625,779.9063 708.25,780.9766 Q708.9375,782.0469 710.2813,782.0469 Q710.9063,782.0469 711.5,781.7734 Q712.0938,781.5 712.7188,780.9219 L712.7188,783.6406 Z "/><text fill="#000000" font-family="sans-serif" font-size="12" lengthAdjust="spacingAndGlyphs" textLength="102" x="730.25" y="782.1543">HierarchyWidget</text><line style="stroke: #A80036; stroke-width: 1.5;" x1="648" x2="882" y1="794" y2="794"/><line style="stroke: #A80036; stroke-width: 1.5;" x1="648" x2="882" y1="802" y2="802"/><ellipse cx="658" cy="813.9023" fill="#84BE84" rx="3" ry="3" style="stroke: #038048; stroke-width: 1.0;"/><text fill="#000000" font-family="sans-serif" font-size="11" lengthAdjust="spacingAndGlyphs" textLength="204" x="667" y="816.2104">hide(node : QTreeWidgetItem) : void</text><ellipse cx="658" cy="826.707" fill="#84BE84" rx="3" ry="3" style="stroke: #038048; stroke-width: 1.0;"/><text fill="#000000" font-family="sans-serif" font-size="11" lengthAdjust="spacingAndGlyphs" textLength="210" x="667" y="829.0151">show(node : QTreeWidgetItem) : void</text><rect fill="#FEFECE" filter="url(#f1)" height="60.8047" style="stroke: #A80036; stroke-width: 1.5;" width="261" x="918.75" y="768.5"/><ellipse cx="1013.5" cy="784.5" fill="#ADD1B2" rx="11" ry="11" style="stroke: #A80036; stroke-width: 1.0;"/><path d="M1016.4688,790.1406 Q1015.8906,790.4375 1015.25,790.5859 Q1014.6094,790.7344 1013.9063,790.7344 Q1011.4063,790.7344 1010.0859,789.0859 Q1008.7656,787.4375 1008.7656,784.3125 Q1008.7656,781.1875 1010.0859,779.5313 Q1011.4063,777.875 1013.9063,777.875 Q1014.6094,777.875 1015.2578,778.0313 Q1015.9063,778.1875 1016.4688,778.4844 L1016.4688,781.2031 Q1015.8438,780.625 1015.25,780.3516 Q1014.6563,780.0781 1014.0313,780.0781 Q1012.6875,780.0781 1012,781.1484 Q1011.3125,782.2188 1011.3125,784.3125 Q1011.3125,786.4063 1012,787.4766 Q1012.6875,788.5469 1014.0313,788.5469 Q1014.6563,788.5469 1015.25,788.2734 Q1015.8438,788 1016.4688,787.4219 L1016.4688,790.1406 Z "/><text fill="#000000" font-family="sans-serif" font-size="12" lengthAdjust="spacingAndGlyphs" textLength="63" x="1034" y="788.6543">TextEditor</text><line style="stroke: #A80036; stroke-width: 1.5;" x1="919.75" x2="1178.75" y1="800.5" y2="800.5"/><line style="stroke: #A80036; stroke-width: 1.5;" x1="919.75" x2="1178.75" y1="808.5" y2="808.5"/><ellipse cx="929.75" cy="820.4023" fill="#84BE84" rx="3" ry="3" style="stroke: #038048; stroke-width: 1.0;"/><text fill="#000000" font-family="sans-serif" font-size="11" lengthAdjust="spacingAndGlyphs" textLength="235" x="938.75" y="822.7104">show_autocomplete(txt : String) : String[]</text><rect fill="#FEFECE" filter="url(#f1)" height="73.6094" style="stroke: #A80036; stroke-width: 1.5;" width="244" x="368" y="762"/><ellipse cx="416.25" cy="778" fill="#ADD1B2" rx="11" ry="11" style="stroke: #A80036; stroke-width: 1.0;"/><path d="M419.2188,783.6406 Q418.6406,783.9375 418,784.0859 Q417.3594,784.2344 416.6563,784.2344 Q414.1563,784.2344 412.8359,782.5859 Q411.5156,780.9375 411.5156,777.8125 Q411.5156,774.6875 412.8359,773.0313 Q414.1563,771.375 416.6563,771.375 Q417.3594,771.375 418.0078,771.5313 Q418.6563,771.6875 419.2188,771.9844 L419.2188,774.7031 Q418.5938,774.125 418,773.8516 Q417.4063,773.5781 416.7813,773.5781 Q415.4375,773.5781 414.75,774.6484 Q414.0625,775.7188 414.0625,777.8125 Q414.0625,779.9063 414.75,780.9766 Q415.4375,782.0469 416.7813,782.0469 Q417.4063,782.0469 418,781.7734 Q418.5938,781.5 419.2188,780.9219 L419.2188,783.6406 Z "/><text fill="#000000" font-family="sans-serif" font-size="12" lengthAdjust="spacingAndGlyphs" textLength="139" x="436.75" y="782.1543">DocumentationWidget</text><line style="stroke: #A80036; stroke-width: 1.5;" x1="369" x2="611" y1="794" y2="794"/><line style="stroke: #A80036; stroke-width: 1.5;" x1="369" x2="611" y1="802" y2="802"/><ellipse cx="379" cy="813.9023" fill="#84BE84" rx="3" ry="3" style="stroke: #038048; stroke-width: 1.0;"/><text fill="#000000" font-family="sans-serif" font-size="11" lengthAdjust="spacingAndGlyphs" textLength="218" x="388" y="816.2104">search_wordnet(term : String) : String</text><ellipse cx="379" cy="826.707" fill="#84BE84" rx="3" ry="3" style="stroke: #038048; stroke-width: 1.0;"/><text fill="#000000" font-family="sans-serif" font-size="11" lengthAdjust="spacingAndGlyphs" textLength="172" x="388" y="829.0151">search(string : String) : String</text><rect fill="#FEFECE" filter="url(#f1)" height="60.8047" style="stroke: #A80036; stroke-width: 1.5;" width="113" x="1214.75" y="768.5"/><ellipse cx="1229.75" cy="784.5" fill="#ADD1B2" rx="11" ry="11" style="stroke: #A80036; stroke-width: 1.0;"/><path d="M1232.7188,790.1406 Q1232.1406,790.4375 1231.5,790.5859 Q1230.8594,790.7344 1230.1563,790.7344 Q1227.6563,790.7344 1226.3359,789.0859 Q1225.0156,787.4375 1225.0156,784.3125 Q1225.0156,781.1875 1226.3359,779.5313 Q1227.6563,777.875 1230.1563,777.875 Q1230.8594,777.875 1231.5078,778.0313 Q1232.1563,778.1875 1232.7188,778.4844 L1232.7188,781.2031 Q1232.0938,780.625 1231.5,780.3516 Q1230.9063,780.0781 1230.2813,780.0781 Q1228.9375,780.0781 1228.25,781.1484 Q1227.5625,782.2188 1227.5625,784.3125 Q1227.5625,786.4063 1228.25,787.4766 Q1228.9375,788.5469 1230.2813,788.5469 Q1230.9063,788.5469 1231.5,788.2734 Q1232.0938,788 1232.7188,787.4219 L1232.7188,790.1406 Z "/><text fill="#000000" font-family="sans-serif" font-size="12" lengthAdjust="spacingAndGlyphs" textLength="81" x="1243.75" y="788.6543">GraphWidget</text><line style="stroke: #A80036; stroke-width: 1.5;" x1="1215.75" x2="1326.75" y1="800.5" y2="800.5"/><line style="stroke: #A80036; stroke-width: 1.5;" x1="1215.75" x2="1326.75" y1="808.5" y2="808.5"/><ellipse cx="1225.75" cy="820.4023" fill="#84BE84" rx="3" ry="3" style="stroke: #038048; stroke-width: 1.0;"/><text fill="#000000" font-family="sans-serif" font-size="11" lengthAdjust="spacingAndGlyphs" textLength="75" x="1234.75" y="822.7104">draw_graph()</text><rect fill="#FEFECE" filter="url(#f1)" height="73.6094" style="stroke: #A80036; stroke-width: 1.5;" width="401" x="483.75" y="481"/><ellipse cx="658" cy="497" fill="#A9DCDF" rx="11" ry="11" style="stroke: #A80036; stroke-width: 1.0;"/><path d="M658.1094,492.3438 L656.9531,497.4219 L659.2813,497.4219 L658.1094,492.3438 Z M656.625,490.1094 L659.6094,490.1094 L662.9688,502.5 L660.5156,502.5 L659.75,499.4375 L656.4688,499.4375 L655.7188,502.5 L653.2813,502.5 L656.625,490.1094 Z "/><text fill="#000000" font-family="sans-serif" font-size="12" font-style="italic" lengthAdjust="spacingAndGlyphs" textLength="44" x="678.5" y="501.1543">Widget</text><line style="stroke: #A80036; stroke-width: 1.5;" x1="484.75" x2="883.75" y1="513" y2="513"/><line style="stroke: #A80036; stroke-width: 1.5;" x1="484.75" x2="883.75" y1="521" y2="521"/><ellipse cx="494.75" cy="532.9023" fill="#84BE84" rx="3" ry="3" style="stroke: #038048; stroke-width: 1.0;"/><text fill="#000000" font-family="sans-serif" font-size="11" lengthAdjust="spacingAndGlyphs" textLength="375" x="503.75" y="535.2104">__init__(mainWindow : MainWindow, ast : IndexAbstractor) : Widget</text><ellipse cx="494.75" cy="545.707" fill="#84BE84" rx="3" ry="3" style="stroke: #038048; stroke-width: 1.0;"/><text fill="#000000" font-family="sans-serif" font-size="11" lengthAdjust="spacingAndGlyphs" textLength="85" x="503.75" y="548.0151">refresh() : void</text><rect fill="#FEFECE" filter="url(#f1)" height="48" style="stroke: #A80036; stroke-width: 1.5;" width="84" x="396.5" y="641"/><ellipse cx="411.5" cy="657" fill="#A9DCDF" rx="11" ry="11" style="stroke: #A80036; stroke-width: 1.0;"/><path d="M411.6094,652.3438 L410.4531,657.4219 L412.7813,657.4219 L411.6094,652.3438 Z M410.125,650.1094 L413.1094,650.1094 L416.4688,662.5 L414.0156,662.5 L413.25,659.4375 L409.9688,659.4375 L409.2188,662.5 L406.7813,662.5 L410.125,650.1094 Z "/><text fill="#000000" font-family="sans-serif" font-size="12" font-style="italic" lengthAdjust="spacingAndGlyphs" textLength="52" x="425.5" y="661.1543">RWidget</text><line style="stroke: #A80036; stroke-width: 1.5;" x1="397.5" x2="479.5" y1="673" y2="673"/><line style="stroke: #A80036; stroke-width: 1.5;" x1="397.5" x2="479.5" y1="681" y2="681"/><rect fill="#FEFECE" filter="url(#f1)" height="73.6094" style="stroke: #A80036; stroke-width: 1.5;" width="548" x="515" y="628"/><ellipse cx="752.75" cy="644" fill="#A9DCDF" rx="11" ry="11" style="stroke: #A80036; stroke-width: 1.0;"/><path d="M752.8594,639.3438 L751.7031,644.4219 L754.0313,644.4219 L752.8594,639.3438 Z M751.375,637.1094 L754.3594,637.1094 L757.7188,649.5 L755.2656,649.5 L754.5,646.4375 L751.2188,646.4375 L750.4688,649.5 L748.0313,649.5 L751.375,637.1094 Z "/><text fill="#000000" font-family="sans-serif" font-size="12" font-style="italic" lengthAdjust="spacingAndGlyphs" textLength="64" x="773.25" y="648.1543">RWWidget</text><line style="stroke: #A80036; stroke-width: 1.5;" x1="516" x2="1062" y1="660" y2="660"/><line style="stroke: #A80036; stroke-width: 1.5;" x1="516" x2="1062" y1="668" y2="668"/><ellipse cx="526" cy="679.9023" fill="#84BE84" rx="3" ry="3" style="stroke: #038048; stroke-width: 1.0;"/><text fill="#000000" font-family="sans-serif" font-size="11" lengthAdjust="spacingAndGlyphs" textLength="522" x="535" y="682.2104">__init__( mainWindow : MainWindow, ast : IndexAbstractor, sc : SyntaxController) : RWWidget</text><ellipse cx="526" cy="692.707" fill="#84BE84" rx="3" ry="3" style="stroke: #038048; stroke-width: 1.0;"/><text fill="#000000" font-family="sans-serif" font-size="11" lengthAdjust="spacingAndGlyphs" textLength="85" x="535" y="695.0151">commit() : void</text><rect fill="#FEFECE" filter="url(#f1)" height="60.8047" style="stroke: #A80036; stroke-width: 1.5;" width="229" x="1098.75" y="634.5"/><ellipse cx="1177.5" cy="650.5" fill="#ADD1B2" rx="11" ry="11" style="stroke: #A80036; stroke-width: 1.0;"/><path d="M1180.4688,656.1406 Q1179.8906,656.4375 1179.25,656.5859 Q1178.6094,656.7344 1177.9063,656.7344 Q1175.4063,656.7344 1174.0859,655.0859 Q1172.7656,653.4375 1172.7656,650.3125 Q1172.7656,647.1875 1174.0859,645.5313 Q1175.4063,643.875 1177.9063,643.875 Q1178.6094,643.875 1179.2578,644.0313 Q1179.9063,644.1875 1180.4688,644.4844 L1180.4688,647.2031 Q1179.8438,646.625 1179.25,646.3516 Q1178.6563,646.0781 1178.0313,646.0781 Q1176.6875,646.0781 1176,647.1484 Q1175.3125,648.2188 1175.3125,650.3125 Q1175.3125,652.4063 1176,653.4766 Q1176.6875,654.5469 1178.0313,654.5469 Q1178.6563,654.5469 1179.25,654.2734 Q1179.8438,654 1180.4688,653.4219 L1180.4688,656.1406 Z "/><text fill="#000000" font-family="sans-serif" font-size="12" lengthAdjust="spacingAndGlyphs" textLength="63" x="1198" y="654.6543">WSettings</text><line style="stroke: #A80036; stroke-width: 1.5;" x1="1099.75" x2="1326.75" y1="666.5" y2="666.5"/><line style="stroke: #A80036; stroke-width: 1.5;" x1="1099.75" x2="1326.75" y1="674.5" y2="674.5"/><ellipse cx="1109.75" cy="686.4023" fill="#84BE84" rx="3" ry="3" style="stroke: #038048; stroke-width: 1.0;"/><text fill="#000000" font-family="sans-serif" font-size="11" lengthAdjust="spacingAndGlyphs" textLength="203" x="1118.75" y="688.7104">__init__(widget : Widget) : WSettings</text><path d="M722.16,571.697 C735.703,590.4 750.625,611.006 762.927,627.995 " fill="none" style="stroke: #A80036; stroke-width: 1.0;"/><polygon fill="none" points="716.286,575.52,710.225,555.216,727.625,567.309,716.286,575.52" style="stroke: #A80036; stroke-width: 1.0;"/><path d="M604.173,565.057 C570.942,584.353 532.016,607.115 497,628 C490.095,632.118 482.764,636.547 475.701,640.841 " fill="none" style="stroke: #A80036; stroke-width: 1.0;"/><polygon fill="none" points="600.669,558.997,621.482,555.021,607.692,571.109,600.669,558.997" style="stroke: #A80036; stroke-width: 1.0;"/><path d="M828.183,558.521 C915.667,582.5 1025.47,612.597 1105.37,634.497 " fill="none" style="stroke: #A80036; stroke-width: 1.0;"/><polygon fill="#A80036" points="815.444,555.029,820.173,560.4729,827.017,558.2015,822.288,552.7576,815.444,555.029" style="stroke: #A80036; stroke-width: 1.0;"/><text fill="#000000" font-family="sans-serif" font-size="13" lengthAdjust="spacingAndGlyphs" textLength="8" x="828.1336" y="574.7943">1</text><text fill="#000000" font-family="sans-serif" font-size="13" lengthAdjust="spacingAndGlyphs" textLength="8" x="1082.6127" y="625.8304">1</text><path d="M326.469,320 C333.947,320 341.425,320 348.903,320 " fill="none" style="stroke: #A80036; stroke-width: 1.0;"/><polygon fill="#A80036" points="361.921,320,355.921,316,349.921,320,355.921,324,361.921,320" style="stroke: #A80036; stroke-width: 1.0;"/><path d="M540.593,230.284 C555.669,218.736 572.16,208.639 589.5,202 C697,160.839 738.306,168.714 848.5,202 C871.171,208.848 893.6,219.647 914.492,231.994 " fill="none" style="stroke: #A80036; stroke-width: 1.0;"/><polygon fill="#A80036" points="530.39,238.486,537.5725,237.8443,539.7426,230.9675,532.5602,231.6092,530.39,238.486" style="stroke: #A80036; stroke-width: 1.0;"/><path d="M567.1,320 C574.574,320 582.047,320 589.521,320 " fill="none" style="stroke: #A80036; stroke-width: 1.0;"/><polygon fill="#A80036" points="554.091,320,560.091,324,566.091,320,560.091,316,554.091,320" style="stroke: #A80036; stroke-width: 1.0;"/><path d="M351.391,401.628 C339.735,410.771 330.978,417.923 328,421 C308.442,441.204 290.056,467.277 277.189,487.151 " fill="none" style="stroke: #A80036; stroke-width: 1.0;"/><polygon fill="none" points="361.8,393.525,354.6083,394.0542,352.3308,400.8962,359.5225,400.367,361.8,393.525" style="stroke: #A80036; stroke-width: 1.0;"/><path d="M454.571,708.065 C461.374,725.335 469.174,745.134 475.72,761.751 " fill="none" style="stroke: #A80036; stroke-width: 1.0;"/><polygon fill="none" points="447.995,710.469,447.177,689.295,461.02,705.338,447.995,710.469" style="stroke: #A80036; stroke-width: 1.0;"/><path d="M877.891,711.129 C915.191,730.066 957.525,751.559 990.752,768.428 " fill="none" style="stroke: #A80036; stroke-width: 1.0;"/><polygon fill="none" points="874.711,717.365,860.046,702.07,881.048,704.882,874.711,717.365" style="stroke: #A80036; stroke-width: 1.0;"/><path d="M778.836,721.9 C776.37,735.464 773.798,749.61 771.55,761.974 " fill="none" style="stroke: #A80036; stroke-width: 1.0;"/><polygon fill="none" points="771.977,720.495,782.442,702.07,785.751,722.999,771.977,720.495" style="stroke: #A80036; stroke-width: 1.0;"/><path d="M1000.839,706.468 C1064.73,721.17 1134.48,739.75 1197,762 C1202.79,764.06 1208.72,766.444 1214.58,768.984 " fill="none" style="stroke: #A80036; stroke-width: 1.0;"/><polygon fill="none" points="999.175,713.269,981.212,702.031,1002.263,699.614,999.175,713.269" style="stroke: #A80036; stroke-width: 1.0;"/><path d="M349.78,405.216 C347.529,406.199 345.268,407.129 343,408 C280.121,432.155 252.265,390.91 192,421 C170.479,431.745 151.867,450.394 137.517,468.415 " fill="none" style="stroke: #A80036; stroke-width: 1.0;"/><polygon fill="none" points="361.715,399.482,354.5747,398.4741,350.898,404.6775,358.0384,405.6854,361.715,399.482" style="stroke: #A80036; stroke-width: 1.0;"/><path d="M561.016,410.341 C589.749,435.261 619.35,460.932 642.31,480.844 " fill="none" style="stroke: #A80036; stroke-width: 1.0;"/><polygon fill="#A80036" points="550.901,401.569,552.8133,408.5219,559.9669,409.4309,558.0546,402.478,550.901,401.569" style="stroke: #A80036; stroke-width: 1.0;"/><path d="M458,172.197 C458,192.64 458,216.258 458,238.493 " fill="none" style="stroke: #A80036; stroke-width: 1.0;"/></g></svg>