<?xml version="1.0" encoding="UTF-8" standalone="yes"?><svg xmlns="http://www.w3.org/2000/svg" xmlns:xlink="http://www.w3.org/1999/xlink" height="1165pt" style="width:2745px;height:1165px;" version="1.1" viewBox="0 0 2745 1165" width="2745pt"><defs><filter height="300%" id="f1" width="300%" x="-1" y="-1"><feGaussianBlur result="blurOut" stdDeviation="2.0"/><feColorMatrix in="blurOut" result="blurOut2" type="matrix" values="0 0 0 0 0 0 0 0 0 0 0 0 0 0 0 0 0 0 .4 0"/><feOffset dx="4.0" dy="4.0" in="blurOut2" result="blurOut3"/><feBlend in="SourceGraphic" in2="blurOut3" mode="normal"/></filter></defs><g><polygon fill="#FFFFFF" filter="url(#f1)" points="22,24,51,24,58,46.2969,2738,46.2969,2738,1158,22,1158,22,24" style="stroke: #000000; stroke-width: 2.0;"/><line style="stroke: #000000; stroke-width: 2.0;" x1="22" x2="58" y1="46.2969" y2="46.2969"/><text fill="#000000" font-family="sans-serif" font-size="14" font-weight="bold" lengthAdjust="spacingAndGlyphs" textLength="23" x="25" y="39.9951">LIB</text><polygon fill="#FFFFFF" filter="url(#f1)" points="1435,320,1489,320,1496,342.2969,1999,342.2969,1999,952,1435,952,1435,320" style="stroke: #000000; stroke-width: 2.0;"/><line style="stroke: #000000; stroke-width: 2.0;" x1="1435" x2="1496" y1="342.2969" y2="342.2969"/><text fill="#000000" font-family="sans-serif" font-size="14" font-weight="bold" lengthAdjust="spacingAndGlyphs" textLength="48" x="1438" y="335.9951">model</text><polygon fill="#FFFFFF" filter="url(#f1)" points="46,288,103,288,110,310.2969,1130,310.2969,1130,504,46,504,46,288" style="stroke: #000000; stroke-width: 2.0;"/><line style="stroke: #000000; stroke-width: 2.0;" x1="46" x2="110" y1="310.2969" y2="310.2969"/><text fill="#000000" font-family="sans-serif" font-size="14" font-weight="bold" lengthAdjust="spacingAndGlyphs" textLength="51" x="49" y="303.9951">logger</text><polygon fill="#FBFB77" filter="url(#f1)" points="2134,129.5,2134,154.6328,2572,154.6328,2572,139.5,2562,129.5,2134,129.5" style="stroke: #A80036; stroke-width: 1.0;"/><line style="stroke: #A80036; stroke-width: 1.0;" x1="2562" x2="2562" y1="129.5" y2="139.5"/><line style="stroke: #A80036; stroke-width: 1.0;" x1="2572" x2="2562" y1="139.5" y2="139.5"/><text fill="#000000" font-family="sans-serif" font-size="13" lengthAdjust="spacingAndGlyphs" textLength="417" x="2140" y="146.5669">AbstractSyntaxTree may be shortened to AST for ease of reading</text><rect fill="#FEFECE" filter="url(#f1)" height="99.2188" style="stroke: #A80036; stroke-width: 1.5;" width="338" x="2055.5" y="600.5"/><ellipse cx="2170.75" cy="616.5" fill="#ADD1B2" rx="11" ry="11" style="stroke: #A80036; stroke-width: 1.0;"/><path d="M2173.7188,622.1406 Q2173.1406,622.4375 2172.5,622.5859 Q2171.8594,622.7344 2171.1563,622.7344 Q2168.6563,622.7344 2167.3359,621.0859 Q2166.0156,619.4375 2166.0156,616.3125 Q2166.0156,613.1875 2167.3359,611.5313 Q2168.6563,609.875 2171.1563,609.875 Q2171.8594,609.875 2172.5078,610.0313 Q2173.1563,610.1875 2173.7188,610.4844 L2173.7188,613.2031 Q2173.0938,612.625 2172.5,612.3516 Q2171.9063,612.0781 2171.2813,612.0781 Q2169.9375,612.0781 2169.25,613.1484 Q2168.5625,614.2188 2168.5625,616.3125 Q2168.5625,618.4063 2169.25,619.4766 Q2169.9375,620.5469 2171.2813,620.5469 Q2171.9063,620.5469 2172.5,620.2734 Q2173.0938,620 2173.7188,619.4219 L2173.7188,622.1406 Z "/><text fill="#000000" font-family="sans-serif" font-size="12" lengthAdjust="spacingAndGlyphs" textLength="99" x="2191.25" y="620.6543">IndexAbstractor</text><line style="stroke: #A80036; stroke-width: 1.5;" x1="2056.5" x2="2392.5" y1="632.5" y2="632.5"/><rect fill="none" height="6" style="stroke: #C82930; stroke-width: 1.0;" width="6" x="2063.5" y="641.4023"/><text fill="#000000" font-family="sans-serif" font-size="11" lengthAdjust="spacingAndGlyphs" textLength="257" x="2075.5" y="646.7104">index : HashMap&lt;String key, AST element&gt;[]</text><line style="stroke: #A80036; stroke-width: 1.5;" x1="2056.5" x2="2392.5" y1="653.3047" y2="653.3047"/><ellipse cx="2066.5" cy="665.207" fill="#84BE84" rx="3" ry="3" style="stroke: #038048; stroke-width: 1.0;"/><text fill="#000000" font-family="sans-serif" font-size="11" lengthAdjust="spacingAndGlyphs" textLength="154" x="2075.5" y="667.5151">search(term : String) : AST</text><ellipse cx="2066.5" cy="678.0117" fill="#84BE84" rx="3" ry="3" style="stroke: #038048; stroke-width: 1.0;"/><text fill="#000000" font-family="sans-serif" font-size="11" lengthAdjust="spacingAndGlyphs" textLength="312" x="2075.5" y="680.3198">get_graph(variant, node, depth=None) : AbstractGraph</text><ellipse cx="2066.5" cy="690.8164" fill="#84BE84" rx="3" ry="3" style="stroke: #038048; stroke-width: 1.0;"/><text fill="#000000" font-family="sans-serif" font-size="11" lengthAdjust="spacingAndGlyphs" textLength="209" x="2075.5" y="693.1245">wordnet_locate(term: String) : String</text><rect fill="#FEFECE" filter="url(#f1)" height="86.4141" style="stroke: #A80036; stroke-width: 1.5;" width="472" x="2015" y="830"/><ellipse cx="2201.25" cy="846" fill="#ADD1B2" rx="11" ry="11" style="stroke: #A80036; stroke-width: 1.0;"/><path d="M2204.2188,851.6406 Q2203.6406,851.9375 2203,852.0859 Q2202.3594,852.2344 2201.6563,852.2344 Q2199.1563,852.2344 2197.8359,850.5859 Q2196.5156,848.9375 2196.5156,845.8125 Q2196.5156,842.6875 2197.8359,841.0313 Q2199.1563,839.375 2201.6563,839.375 Q2202.3594,839.375 2203.0078,839.5313 Q2203.6563,839.6875 2204.2188,839.9844 L2204.2188,842.7031 Q2203.5938,842.125 2203,841.8516 Q2202.4063,841.5781 2201.7813,841.5781 Q2200.4375,841.5781 2199.75,842.6484 Q2199.0625,843.7188 2199.0625,845.8125 Q2199.0625,847.9063 2199.75,848.9766 Q2200.4375,850.0469 2201.7813,850.0469 Q2202.4063,850.0469 2203,849.7734 Q2203.5938,849.5 2204.2188,848.9219 L2204.2188,851.6406 Z "/><text fill="#000000" font-family="sans-serif" font-size="12" lengthAdjust="spacingAndGlyphs" textLength="91" x="2221.75" y="850.1543">AbstractGraph</text><line style="stroke: #A80036; stroke-width: 1.5;" x1="2016" x2="2486" y1="862" y2="862"/><rect fill="none" height="6" style="stroke: #C82930; stroke-width: 1.0;" width="6" x="2023" y="870.9023"/><text fill="#000000" font-family="sans-serif" font-size="11" lengthAdjust="spacingAndGlyphs" textLength="166" x="2035" y="876.2104">nodes : AbstractGraphNode[]</text><rect fill="none" height="6" style="stroke: #C82930; stroke-width: 1.0;" width="6" x="2023" y="883.707"/><text fill="#000000" font-family="sans-serif" font-size="11" lengthAdjust="spacingAndGlyphs" textLength="110" x="2035" y="889.0151">relations : Enum[][]</text><line style="stroke: #A80036; stroke-width: 1.5;" x1="2016" x2="2486" y1="895.6094" y2="895.6094"/><ellipse cx="2026" cy="907.5117" fill="#84BE84" rx="3" ry="3" style="stroke: #038048; stroke-width: 1.0;"/><text fill="#000000" font-family="sans-serif" font-size="11" lengthAdjust="spacingAndGlyphs" textLength="446" x="2035" y="909.8198">__init__(variant : Enum, root : AbstractGraphNode, depth : int) : AbstractGraph</text><rect fill="#FEFECE" filter="url(#f1)" height="73.6094" style="stroke: #A80036; stroke-width: 1.5;" width="276" x="1918" y="1042"/><ellipse cx="1989.75" cy="1058" fill="#ADD1B2" rx="11" ry="11" style="stroke: #A80036; stroke-width: 1.0;"/><path d="M1992.7188,1063.6406 Q1992.1406,1063.9375 1991.5,1064.0859 Q1990.8594,1064.2344 1990.1563,1064.2344 Q1987.6563,1064.2344 1986.3359,1062.5859 Q1985.0156,1060.9375 1985.0156,1057.8125 Q1985.0156,1054.6875 1986.3359,1053.0313 Q1987.6563,1051.375 1990.1563,1051.375 Q1990.8594,1051.375 1991.5078,1051.5313 Q1992.1563,1051.6875 1992.7188,1051.9844 L1992.7188,1054.7031 Q1992.0938,1054.125 1991.5,1053.8516 Q1990.9063,1053.5781 1990.2813,1053.5781 Q1988.9375,1053.5781 1988.25,1054.6484 Q1987.5625,1055.7188 1987.5625,1057.8125 Q1987.5625,1059.9063 1988.25,1060.9766 Q1988.9375,1062.0469 1990.2813,1062.0469 Q1990.9063,1062.0469 1991.5,1061.7734 Q1992.0938,1061.5 1992.7188,1060.9219 L1992.7188,1063.6406 Z "/><text fill="#000000" font-family="sans-serif" font-size="12" lengthAdjust="spacingAndGlyphs" textLength="124" x="2010.25" y="1062.1543">AbstractGraphNode</text><line style="stroke: #A80036; stroke-width: 1.5;" x1="1919" x2="2193" y1="1074" y2="1074"/><rect fill="none" height="6" style="stroke: #C82930; stroke-width: 1.0;" width="6" x="1926" y="1082.9023"/><text fill="#000000" font-family="sans-serif" font-size="11" lengthAdjust="spacingAndGlyphs" textLength="78" x="1938" y="1088.2104">name : String</text><line style="stroke: #A80036; stroke-width: 1.5;" x1="1919" x2="2193" y1="1094.8047" y2="1094.8047"/><ellipse cx="1929" cy="1106.707" fill="#84BE84" rx="3" ry="3" style="stroke: #038048; stroke-width: 1.0;"/><text fill="#000000" font-family="sans-serif" font-size="11" lengthAdjust="spacingAndGlyphs" textLength="250" x="1938" y="1109.0151">__init__(name : String) : AbstractGraphNode</text><rect fill="#FEFECE" filter="url(#f1)" height="124.8281" style="stroke: #A80036; stroke-width: 1.5;" width="427" x="2229.75" y="1016.5"/><ellipse cx="2409" cy="1032.5" fill="#ADD1B2" rx="11" ry="11" style="stroke: #A80036; stroke-width: 1.0;"/><path d="M2411.9688,1038.1406 Q2411.3906,1038.4375 2410.75,1038.5859 Q2410.1094,1038.7344 2409.4063,1038.7344 Q2406.9063,1038.7344 2405.5859,1037.0859 Q2404.2656,1035.4375 2404.2656,1032.3125 Q2404.2656,1029.1875 2405.5859,1027.5313 Q2406.9063,1025.875 2409.4063,1025.875 Q2410.1094,1025.875 2410.7578,1026.0313 Q2411.4063,1026.1875 2411.9688,1026.4844 L2411.9688,1029.2031 Q2411.3438,1028.625 2410.75,1028.3516 Q2410.1563,1028.0781 2409.5313,1028.0781 Q2408.1875,1028.0781 2407.5,1029.1484 Q2406.8125,1030.2188 2406.8125,1032.3125 Q2406.8125,1034.4063 2407.5,1035.4766 Q2408.1875,1036.5469 2409.5313,1036.5469 Q2410.1563,1036.5469 2410.75,1036.2734 Q2411.3438,1036 2411.9688,1035.4219 L2411.9688,1038.1406 Z "/><text fill="#000000" font-family="sans-serif" font-size="12" lengthAdjust="spacingAndGlyphs" textLength="60" x="2429.5" y="1036.6543">DotGraph</text><line style="stroke: #A80036; stroke-width: 1.5;" x1="2230.75" x2="2655.75" y1="1048.5" y2="1048.5"/><line style="stroke: #A80036; stroke-width: 1.5;" x1="2230.75" x2="2655.75" y1="1056.5" y2="1056.5"/><ellipse cx="2240.75" cy="1068.4023" fill="#84BE84" rx="3" ry="3" style="stroke: #038048; stroke-width: 1.0;"/><text fill="#000000" font-family="sans-serif" font-size="11" lengthAdjust="spacingAndGlyphs" textLength="242" x="2249.75" y="1070.7104">__init__(graph : AbstractGraph) : DotGraph</text><ellipse cx="2240.75" cy="1081.207" fill="#84BE84" rx="3" ry="3" style="stroke: #038048; stroke-width: 1.0;"/><text fill="#000000" font-family="sans-serif" font-size="11" lengthAdjust="spacingAndGlyphs" textLength="306" x="2249.75" y="1083.5151">get_node_from_position(x : double,y : double) : String</text><ellipse cx="2240.75" cy="1094.0117" fill="#84BE84" rx="3" ry="3" style="stroke: #038048; stroke-width: 1.0;"/><text fill="#000000" font-family="sans-serif" font-size="11" lengthAdjust="spacingAndGlyphs" textLength="306" x="2249.75" y="1096.3198">get_edge_from_position(x : double,y : double) : String</text><ellipse cx="2240.75" cy="1106.8164" fill="#84BE84" rx="3" ry="3" style="stroke: #038048; stroke-width: 1.0;"/><text fill="#000000" font-family="sans-serif" font-size="11" lengthAdjust="spacingAndGlyphs" textLength="401" x="2249.75" y="1109.1245">get_position_from_node(node : AbstractGraphNode) : (Double, Double)</text><text fill="#000000" font-family="sans-serif" font-size="11" lengthAdjust="spacingAndGlyphs" textLength="0" x="2253.75" y="1121.9292"/><ellipse cx="2240.75" cy="1132.4258" fill="#84BE84" rx="3" ry="3" style="stroke: #038048; stroke-width: 1.0;"/><text fill="#000000" font-family="sans-serif" font-size="11" lengthAdjust="spacingAndGlyphs" textLength="48" x="2249.75" y="1134.7339">get_pic()</text><rect fill="#FEFECE" filter="url(#f1)" height="73.6094" style="stroke: #A80036; stroke-width: 1.5;" width="200" x="2522" y="836"/><ellipse cx="2590.75" cy="852" fill="#ADD1B2" rx="11" ry="11" style="stroke: #A80036; stroke-width: 1.0;"/><path d="M2593.7188,857.6406 Q2593.1406,857.9375 2592.5,858.0859 Q2591.8594,858.2344 2591.1563,858.2344 Q2588.6563,858.2344 2587.3359,856.5859 Q2586.0156,854.9375 2586.0156,851.8125 Q2586.0156,848.6875 2587.3359,847.0313 Q2588.6563,845.375 2591.1563,845.375 Q2591.8594,845.375 2592.5078,845.5313 Q2593.1563,845.6875 2593.7188,845.9844 L2593.7188,848.7031 Q2593.0938,848.125 2592.5,847.8516 Q2591.9063,847.5781 2591.2813,847.5781 Q2589.9375,847.5781 2589.25,848.6484 Q2588.5625,849.7188 2588.5625,851.8125 Q2588.5625,853.9063 2589.25,854.9766 Q2589.9375,856.0469 2591.2813,856.0469 Q2591.9063,856.0469 2592.5,855.7734 Q2593.0938,855.5 2593.7188,854.9219 L2593.7188,857.6406 Z "/><text fill="#000000" font-family="sans-serif" font-size="12" lengthAdjust="spacingAndGlyphs" textLength="54" x="2611.25" y="856.1543">WordNet</text><line style="stroke: #A80036; stroke-width: 1.5;" x1="2523" x2="2721" y1="868" y2="868"/><line style="stroke: #A80036; stroke-width: 1.5;" x1="2523" x2="2721" y1="876" y2="876"/><ellipse cx="2533" cy="887.9023" fill="#84BE84" rx="3" ry="3" style="stroke: #038048; stroke-width: 1.0;"/><text fill="#000000" font-family="sans-serif" font-size="11" lengthAdjust="spacingAndGlyphs" textLength="148" x="2542" y="890.2104">locate_term(term) : String</text><ellipse cx="2533" cy="900.707" fill="#84BE84" rx="3" ry="3" style="stroke: #038048; stroke-width: 1.0;"/><text fill="#000000" font-family="sans-serif" font-size="11" lengthAdjust="spacingAndGlyphs" textLength="174" x="2542" y="903.0151">find_synonyms(term) : String[]</text><rect fill="#FEFECE" filter="url(#f1)" height="163.2422" style="stroke: #A80036; stroke-width: 1.5;" width="312" x="1638" y="60.5"/><ellipse cx="1738.75" cy="76.5" fill="#ADD1B2" rx="11" ry="11" style="stroke: #A80036; stroke-width: 1.0;"/><path d="M1741.7188,82.1406 Q1741.1406,82.4375 1740.5,82.5859 Q1739.8594,82.7344 1739.1563,82.7344 Q1736.6563,82.7344 1735.3359,81.0859 Q1734.0156,79.4375 1734.0156,76.3125 Q1734.0156,73.1875 1735.3359,71.5313 Q1736.6563,69.875 1739.1563,69.875 Q1739.8594,69.875 1740.5078,70.0313 Q1741.1563,70.1875 1741.7188,70.4844 L1741.7188,73.2031 Q1741.0938,72.625 1740.5,72.3516 Q1739.9063,72.0781 1739.2813,72.0781 Q1737.9375,72.0781 1737.25,73.1484 Q1736.5625,74.2188 1736.5625,76.3125 Q1736.5625,78.4063 1737.25,79.4766 Q1737.9375,80.5469 1739.2813,80.5469 Q1739.9063,80.5469 1740.5,80.2734 Q1741.0938,80 1741.7188,79.4219 L1741.7188,82.1406 Z "/><text fill="#000000" font-family="sans-serif" font-size="12" lengthAdjust="spacingAndGlyphs" textLength="102" x="1759.25" y="80.6543">SyntaxController</text><line style="stroke: #A80036; stroke-width: 1.5;" x1="1639" x2="1949" y1="92.5" y2="92.5"/><rect fill="none" height="6" style="stroke: #C82930; stroke-width: 1.0;" width="6" x="1646" y="101.4023"/><text fill="#000000" font-family="sans-serif" font-size="11" lengthAdjust="spacingAndGlyphs" textLength="117" x="1658" y="106.7104">actionlog : ActionLog</text><rect fill="none" height="6" style="stroke: #C82930; stroke-width: 1.0;" width="6" x="1646" y="114.207"/><text fill="#000000" font-family="sans-serif" font-size="11" lengthAdjust="spacingAndGlyphs" textLength="131" x="1658" y="119.5151">index : IndexAbstractor</text><line style="stroke: #A80036; stroke-width: 1.5;" x1="1639" x2="1949" y1="126.1094" y2="126.1094"/><ellipse cx="1649" cy="138.0117" fill="#84BE84" rx="3" ry="3" style="stroke: #038048; stroke-width: 1.0;"/><text fill="#000000" font-family="sans-serif" font-size="11" lengthAdjust="spacingAndGlyphs" textLength="286" x="1658" y="140.3198">__init__(index : IndexAbstractor) : SyntaxController</text><ellipse cx="1649" cy="150.8164" fill="#84BE84" rx="3" ry="3" style="stroke: #038048; stroke-width: 1.0;"/><text fill="#000000" font-family="sans-serif" font-size="11" lengthAdjust="spacingAndGlyphs" textLength="145" x="1658" y="153.1245">parse_partial(code_block)</text><ellipse cx="1649" cy="163.6211" fill="#84BE84" rx="3" ry="3" style="stroke: #038048; stroke-width: 1.0;"/><text fill="#000000" font-family="sans-serif" font-size="11" lengthAdjust="spacingAndGlyphs" textLength="130" x="1658" y="165.9292">parse_add(code_block)</text><ellipse cx="1649" cy="176.4258" fill="#84BE84" rx="3" ry="3" style="stroke: #038048; stroke-width: 1.0;"/><text fill="#000000" font-family="sans-serif" font-size="11" lengthAdjust="spacingAndGlyphs" textLength="113" x="1658" y="178.7339">parse_graph(graph)</text><ellipse cx="1649" cy="189.2305" fill="#84BE84" rx="3" ry="3" style="stroke: #038048; stroke-width: 1.0;"/><text fill="#000000" font-family="sans-serif" font-size="11" lengthAdjust="spacingAndGlyphs" textLength="131" x="1658" y="191.5386">add_ontology(ontology)</text><ellipse cx="1649" cy="202.0352" fill="#84BE84" rx="3" ry="3" style="stroke: #038048; stroke-width: 1.0;"/><text fill="#000000" font-family="sans-serif" font-size="11" lengthAdjust="spacingAndGlyphs" textLength="153" x="1658" y="204.3433">remove_ontology(ontology)</text><ellipse cx="1649" cy="214.8398" fill="#84BE84" rx="3" ry="3" style="stroke: #038048; stroke-width: 1.0;"/><text fill="#000000" font-family="sans-serif" font-size="11" lengthAdjust="spacingAndGlyphs" textLength="174" x="1658" y="217.1479">serialize(ontology, path=None)</text><rect fill="#FEFECE" filter="url(#f1)" height="86.4141" style="stroke: #A80036; stroke-width: 1.5;" width="270" x="1149" y="363"/><ellipse cx="1254.25" cy="379" fill="#ADD1B2" rx="11" ry="11" style="stroke: #A80036; stroke-width: 1.0;"/><path d="M1257.2188,384.6406 Q1256.6406,384.9375 1256,385.0859 Q1255.3594,385.2344 1254.6563,385.2344 Q1252.1563,385.2344 1250.8359,383.5859 Q1249.5156,381.9375 1249.5156,378.8125 Q1249.5156,375.6875 1250.8359,374.0313 Q1252.1563,372.375 1254.6563,372.375 Q1255.3594,372.375 1256.0078,372.5313 Q1256.6563,372.6875 1257.2188,372.9844 L1257.2188,375.7031 Q1256.5938,375.125 1256,374.8516 Q1255.4063,374.5781 1254.7813,374.5781 Q1253.4375,374.5781 1252.75,375.6484 Q1252.0625,376.7188 1252.0625,378.8125 Q1252.0625,380.9063 1252.75,381.9766 Q1253.4375,383.0469 1254.7813,383.0469 Q1255.4063,383.0469 1256,382.7734 Q1256.5938,382.5 1257.2188,381.9219 L1257.2188,384.6406 Z "/><text fill="#000000" font-family="sans-serif" font-size="12" lengthAdjust="spacingAndGlyphs" textLength="51" x="1274.75" y="383.1543">Updater</text><line style="stroke: #A80036; stroke-width: 1.5;" x1="1150" x2="1418" y1="395" y2="395"/><line style="stroke: #A80036; stroke-width: 1.5;" x1="1150" x2="1418" y1="403" y2="403"/><ellipse cx="1160" cy="414.9023" fill="#84BE84" rx="3" ry="3" style="stroke: #038048; stroke-width: 1.0;"/><text fill="#000000" font-family="sans-serif" font-size="11" lengthAdjust="spacingAndGlyphs" textLength="155" x="1169" y="417.2104">check_for_update(ontology,</text><text fill="#000000" font-family="sans-serif" font-size="11" lengthAdjust="spacingAndGlyphs" textLength="145" x="1169" y="430.0151">function=None) : Boolean</text><ellipse cx="1160" cy="440.5117" fill="#84BE84" rx="3" ry="3" style="stroke: #038048; stroke-width: 1.0;"/><text fill="#000000" font-family="sans-serif" font-size="11" lengthAdjust="spacingAndGlyphs" textLength="244" x="1169" y="442.8198">update(ontology, function=None) : Boolean</text><rect fill="#FEFECE" filter="url(#f1)" height="99.2188" style="stroke: #A80036; stroke-width: 1.5;" width="245" x="1671.75" y="356.5"/><ellipse cx="1769.5" cy="372.5" fill="#FF7700" rx="11" ry="11" style="stroke: #A80036; stroke-width: 1.0;"/><path d="M1765.2188,366.1094 L1768.1406,366.1094 L1769.6094,371.5469 L1771.0781,366.1094 L1774.0156,366.1094 L1774.0156,378.5 L1771.9063,378.5 L1771.9063,368.5781 L1770.5938,374 L1768.6563,374 L1767.3281,368.5781 L1767.3281,378.5 L1765.2188,378.5 L1765.2188,366.1094 Z "/><text fill="#000000" font-family="sans-serif" font-size="12" lengthAdjust="spacingAndGlyphs" textLength="41" x="1790" y="376.6543">Parser</text><line style="stroke: #A80036; stroke-width: 1.5;" x1="1672.75" x2="1915.75" y1="388.5" y2="388.5"/><line style="stroke: #A80036; stroke-width: 1.5;" x1="1672.75" x2="1915.75" y1="396.5" y2="396.5"/><ellipse cx="1682.75" cy="408.4023" fill="#84BE84" rx="3" ry="3" style="stroke: #038048; stroke-width: 1.0;"/><text fill="#000000" font-family="sans-serif" font-size="11" lengthAdjust="spacingAndGlyphs" textLength="219" x="1691.75" y="410.7104">kifparse(Ontology, Graph=None) : AST</text><ellipse cx="1682.75" cy="421.207" fill="#84BE84" rx="3" ry="3" style="stroke: #038048; stroke-width: 1.0;"/><text fill="#000000" font-family="sans-serif" font-size="11" lengthAdjust="spacingAndGlyphs" textLength="171" x="1691.75" y="423.5151">astmerge((AST1, AST2)) : AST</text><ellipse cx="1682.75" cy="434.0117" fill="#84BE84" rx="3" ry="3" style="stroke: #038048; stroke-width: 1.0;"/><text fill="#000000" font-family="sans-serif" font-size="11" lengthAdjust="spacingAndGlyphs" textLength="148" x="1691.75" y="436.3198">kifserialize(AST, Ontology)</text><ellipse cx="1682.75" cy="446.8164" fill="#84BE84" rx="3" ry="3" style="stroke: #038048; stroke-width: 1.0;"/><text fill="#000000" font-family="sans-serif" font-size="11" lengthAdjust="spacingAndGlyphs" textLength="167" x="1691.75" y="449.1245">wparse(mapping) : Dictionary</text><rect fill="#FEFECE" filter="url(#f1)" height="163.2422" style="stroke: #A80036; stroke-width: 1.5;" width="514" x="1451" y="568.5"/><ellipse cx="1642.75" cy="584.5" fill="#ADD1B2" rx="11" ry="11" style="stroke: #A80036; stroke-width: 1.0;"/><path d="M1645.7188,590.1406 Q1645.1406,590.4375 1644.5,590.5859 Q1643.8594,590.7344 1643.1563,590.7344 Q1640.6563,590.7344 1639.3359,589.0859 Q1638.0156,587.4375 1638.0156,584.3125 Q1638.0156,581.1875 1639.3359,579.5313 Q1640.6563,577.875 1643.1563,577.875 Q1643.8594,577.875 1644.5078,578.0313 Q1645.1563,578.1875 1645.7188,578.4844 L1645.7188,581.2031 Q1645.0938,580.625 1644.5,580.3516 Q1643.9063,580.0781 1643.2813,580.0781 Q1641.9375,580.0781 1641.25,581.1484 Q1640.5625,582.2188 1640.5625,584.3125 Q1640.5625,586.4063 1641.25,587.4766 Q1641.9375,588.5469 1643.2813,588.5469 Q1643.9063,588.5469 1644.5,588.2734 Q1645.0938,588 1645.7188,587.4219 L1645.7188,590.1406 Z "/><text fill="#000000" font-family="sans-serif" font-size="12" lengthAdjust="spacingAndGlyphs" textLength="122" x="1663.25" y="588.6543">AbstractSyntaxTree</text><line style="stroke: #A80036; stroke-width: 1.5;" x1="1452" x2="1964" y1="600.5" y2="600.5"/><rect fill="none" height="6" style="stroke: #C82930; stroke-width: 1.0;" width="6" x="1459" y="609.4023"/><text fill="#000000" font-family="sans-serif" font-size="11" lengthAdjust="spacingAndGlyphs" textLength="105" x="1471" y="614.7104">parent_node : AST</text><rect fill="none" height="6" style="stroke: #C82930; stroke-width: 1.0;" width="6" x="1459" y="622.207"/><text fill="#000000" font-family="sans-serif" font-size="11" lengthAdjust="spacingAndGlyphs" textLength="87" x="1471" y="627.5151">children : AST[]</text><rect fill="none" height="6" style="stroke: #C82930; stroke-width: 1.0;" width="6" x="1459" y="635.0117"/><text fill="#000000" font-family="sans-serif" font-size="11" lengthAdjust="spacingAndGlyphs" textLength="78" x="1471" y="640.3198">name : String</text><rect fill="none" height="6" style="stroke: #C82930; stroke-width: 1.0;" width="6" x="1459" y="647.8164"/><text fill="#000000" font-family="sans-serif" font-size="11" lengthAdjust="spacingAndGlyphs" textLength="120" x="1471" y="653.1245">element_type : Enum</text><rect fill="none" height="6" style="stroke: #C82930; stroke-width: 1.0;" width="6" x="1459" y="660.6211"/><text fill="#000000" font-family="sans-serif" font-size="11" lengthAdjust="spacingAndGlyphs" textLength="118" x="1471" y="665.9292">is_indexed : Boolean</text><line style="stroke: #A80036; stroke-width: 1.5;" x1="1452" x2="1964" y1="672.5234" y2="672.5234"/><ellipse cx="1462" cy="684.4258" fill="#84BE84" rx="3" ry="3" style="stroke: #038048; stroke-width: 1.0;"/><text fill="#000000" font-family="sans-serif" font-size="11" lengthAdjust="spacingAndGlyphs" textLength="488" x="1471" y="686.7339">__init__(ontology : Ontology, parent=None : AbstractSyntaxTree) : AbstractSyntaxTree</text><ellipse cx="1462" cy="697.2305" fill="#84BE84" rx="3" ry="3" style="stroke: #038048; stroke-width: 1.0;"/><text fill="#000000" font-family="sans-serif" font-size="11" lengthAdjust="spacingAndGlyphs" textLength="119" x="1471" y="699.5386">get_children() : AST[]</text><ellipse cx="1462" cy="710.0352" fill="#84BE84" rx="3" ry="3" style="stroke: #038048; stroke-width: 1.0;"/><text fill="#000000" font-family="sans-serif" font-size="11" lengthAdjust="spacingAndGlyphs" textLength="83" x="1471" y="712.3433">add_child(AST)</text><ellipse cx="1462" cy="722.8398" fill="#84BE84" rx="3" ry="3" style="stroke: #038048; stroke-width: 1.0;"/><text fill="#000000" font-family="sans-serif" font-size="11" lengthAdjust="spacingAndGlyphs" textLength="105" x="1471" y="725.1479">remove_child(AST)</text><rect fill="#FEFECE" filter="url(#f1)" height="124.8281" style="stroke: #A80036; stroke-width: 1.5;" width="439" x="1527.75" y="810.5"/><ellipse cx="1715.5" cy="826.5" fill="#ADD1B2" rx="11" ry="11" style="stroke: #A80036; stroke-width: 1.0;"/><path d="M1718.4688,832.1406 Q1717.8906,832.4375 1717.25,832.5859 Q1716.6094,832.7344 1715.9063,832.7344 Q1713.4063,832.7344 1712.0859,831.0859 Q1710.7656,829.4375 1710.7656,826.3125 Q1710.7656,823.1875 1712.0859,821.5313 Q1713.4063,819.875 1715.9063,819.875 Q1716.6094,819.875 1717.2578,820.0313 Q1717.9063,820.1875 1718.4688,820.4844 L1718.4688,823.2031 Q1717.8438,822.625 1717.25,822.3516 Q1716.6563,822.0781 1716.0313,822.0781 Q1714.6875,822.0781 1714,823.1484 Q1713.3125,824.2188 1713.3125,826.3125 Q1713.3125,828.4063 1714,829.4766 Q1714.6875,830.5469 1716.0313,830.5469 Q1716.6563,830.5469 1717.25,830.2734 Q1717.8438,830 1718.4688,829.4219 L1718.4688,832.1406 Z "/><text fill="#000000" font-family="sans-serif" font-size="12" lengthAdjust="spacingAndGlyphs" textLength="55" x="1736" y="830.6543">Ontology</text><line style="stroke: #A80036; stroke-width: 1.5;" x1="1528.75" x2="1965.75" y1="842.5" y2="842.5"/><rect fill="none" height="6" style="stroke: #C82930; stroke-width: 1.0;" width="6" x="1535.75" y="851.4023"/><text fill="#000000" font-family="sans-serif" font-size="11" lengthAdjust="spacingAndGlyphs" textLength="78" x="1547.75" y="856.7104">name : String</text><rect fill="none" height="6" style="stroke: #C82930; stroke-width: 1.0;" width="6" x="1535.75" y="864.207"/><text fill="#000000" font-family="sans-serif" font-size="11" lengthAdjust="spacingAndGlyphs" textLength="84" x="1547.75" y="869.5151">revision : Float</text><rect fill="none" height="6" style="stroke: #C82930; stroke-width: 1.0;" width="6" x="1535.75" y="877.0117"/><text fill="#000000" font-family="sans-serif" font-size="11" lengthAdjust="spacingAndGlyphs" textLength="71" x="1547.75" y="882.3198">path : String</text><rect fill="none" height="6" style="stroke: #C82930; stroke-width: 1.0;" width="6" x="1535.75" y="889.8164"/><text fill="#000000" font-family="sans-serif" font-size="11" lengthAdjust="spacingAndGlyphs" textLength="61" x="1547.75" y="895.1245">url : String</text><rect fill="none" height="6" style="stroke: #C82930; stroke-width: 1.0;" width="6" x="1535.75" y="902.6211"/><text fill="#000000" font-family="sans-serif" font-size="11" lengthAdjust="spacingAndGlyphs" textLength="91" x="1547.75" y="907.9292">active : Boolean</text><line style="stroke: #A80036; stroke-width: 1.5;" x1="1528.75" x2="1965.75" y1="914.5234" y2="914.5234"/><ellipse cx="1538.75" cy="926.4258" fill="#84BE84" rx="3" ry="3" style="stroke: #038048; stroke-width: 1.0;"/><text fill="#000000" font-family="sans-serif" font-size="11" lengthAdjust="spacingAndGlyphs" textLength="413" x="1547.75" y="928.7339">__init__(path : String, name=None : String, url=None : String) : Ontology</text><rect fill="#FEFECE" filter="url(#f1)" height="150.4375" style="stroke: #A80036; stroke-width: 1.5;" width="250" x="604.5" y="331"/><ellipse cx="696.25" cy="347" fill="#ADD1B2" rx="11" ry="11" style="stroke: #A80036; stroke-width: 1.0;"/><path d="M699.2188,352.6406 Q698.6406,352.9375 698,353.0859 Q697.3594,353.2344 696.6563,353.2344 Q694.1563,353.2344 692.8359,351.5859 Q691.5156,349.9375 691.5156,346.8125 Q691.5156,343.6875 692.8359,342.0313 Q694.1563,340.375 696.6563,340.375 Q697.3594,340.375 698.0078,340.5313 Q698.6563,340.6875 699.2188,340.9844 L699.2188,343.7031 Q698.5938,343.125 698,342.8516 Q697.4063,342.5781 696.7813,342.5781 Q695.4375,342.5781 694.75,343.6484 Q694.0625,344.7188 694.0625,346.8125 Q694.0625,348.9063 694.75,349.9766 Q695.4375,351.0469 696.7813,351.0469 Q697.4063,351.0469 698,350.7734 Q698.5938,350.5 699.2188,349.9219 L699.2188,352.6406 Z "/><text fill="#000000" font-family="sans-serif" font-size="12" lengthAdjust="spacingAndGlyphs" textLength="58" x="716.75" y="351.1543">Actionlog</text><line style="stroke: #A80036; stroke-width: 1.5;" x1="605.5" x2="853.5" y1="363" y2="363"/><rect fill="none" height="6" style="stroke: #C82930; stroke-width: 1.0;" width="6" x="612.5" y="371.9023"/><text fill="#000000" font-family="sans-serif" font-size="11" lengthAdjust="spacingAndGlyphs" textLength="94" x="624.5" y="377.2104">actionlog : Stack</text><rect fill="none" height="6" style="stroke: #C82930; stroke-width: 1.0;" width="6" x="612.5" y="384.707"/><text fill="#000000" font-family="sans-serif" font-size="11" lengthAdjust="spacingAndGlyphs" textLength="86" x="624.5" y="390.0151">redolog : Stack</text><rect fill="none" height="6" style="stroke: #C82930; stroke-width: 1.0;" width="6" x="612.5" y="397.5117"/><text fill="#000000" font-family="sans-serif" font-size="11" lengthAdjust="spacingAndGlyphs" textLength="103" x="624.5" y="402.8198">queue : Dictionary</text><line style="stroke: #A80036; stroke-width: 1.5;" x1="605.5" x2="853.5" y1="409.4141" y2="409.4141"/><ellipse cx="615.5" cy="421.3164" fill="#84BE84" rx="3" ry="3" style="stroke: #038048; stroke-width: 1.0;"/><text fill="#000000" font-family="sans-serif" font-size="11" lengthAdjust="spacingAndGlyphs" textLength="224" x="624.5" y="423.6245">__init__(path=None : String) : ActionLog</text><ellipse cx="615.5" cy="434.1211" fill="#84BE84" rx="3" ry="3" style="stroke: #038048; stroke-width: 1.0;"/><text fill="#000000" font-family="sans-serif" font-size="11" lengthAdjust="spacingAndGlyphs" textLength="117" x="624.5" y="436.4292">queue_log(data) : int</text><ellipse cx="615.5" cy="446.9258" fill="#84BE84" rx="3" ry="3" style="stroke: #038048; stroke-width: 1.0;"/><text fill="#000000" font-family="sans-serif" font-size="11" lengthAdjust="spacingAndGlyphs" textLength="209" x="624.5" y="449.2339">ok_log_item(log_queue_ok_num : int)</text><ellipse cx="615.5" cy="459.7305" fill="#84BE84" rx="3" ry="3" style="stroke: #038048; stroke-width: 1.0;"/><text fill="#000000" font-family="sans-serif" font-size="11" lengthAdjust="spacingAndGlyphs" textLength="36" x="624.5" y="462.0386">undo()</text><ellipse cx="615.5" cy="472.5352" fill="#84BE84" rx="3" ry="3" style="stroke: #038048; stroke-width: 1.0;"/><text fill="#000000" font-family="sans-serif" font-size="11" lengthAdjust="spacingAndGlyphs" textLength="34" x="624.5" y="474.8433">redo()</text><rect fill="#FEFECE" filter="url(#f1)" height="163.2422" style="stroke: #A80036; stroke-width: 1.5;" width="190" x="924" y="324.5"/><ellipse cx="997.75" cy="340.5" fill="#ADD1B2" rx="11" ry="11" style="stroke: #A80036; stroke-width: 1.0;"/><path d="M1000.7188,346.1406 Q1000.1406,346.4375 999.5,346.5859 Q998.8594,346.7344 998.1563,346.7344 Q995.6563,346.7344 994.3359,345.0859 Q993.0156,343.4375 993.0156,340.3125 Q993.0156,337.1875 994.3359,335.5313 Q995.6563,333.875 998.1563,333.875 Q998.8594,333.875 999.5078,334.0313 Q1000.1563,334.1875 1000.7188,334.4844 L1000.7188,337.2031 Q1000.0938,336.625 999.5,336.3516 Q998.9063,336.0781 998.2813,336.0781 Q996.9375,336.0781 996.25,337.1484 Q995.5625,338.2188 995.5625,340.3125 Q995.5625,342.4063 996.25,343.4766 Q996.9375,344.5469 998.2813,344.5469 Q998.9063,344.5469 999.5,344.2734 Q1000.0938,344 1000.7188,343.4219 L1000.7188,346.1406 Z "/><text fill="#000000" font-family="sans-serif" font-size="12" lengthAdjust="spacingAndGlyphs" textLength="34" x="1018.25" y="344.6543">LogIO</text><line style="stroke: #A80036; stroke-width: 1.5;" x1="925" x2="1113" y1="356.5" y2="356.5"/><rect fill="none" height="6" style="stroke: #C82930; stroke-width: 1.0;" width="6" x="932" y="365.4023"/><text fill="#000000" font-family="sans-serif" font-size="11" lengthAdjust="spacingAndGlyphs" textLength="67" x="944" y="370.7104">path: String</text><rect fill="none" height="6" style="stroke: #C82930; stroke-width: 1.0;" width="6" x="932" y="378.207"/><text fill="#000000" font-family="sans-serif" font-size="11" lengthAdjust="spacingAndGlyphs" textLength="119" x="944" y="383.5151">write_queue: String[]</text><rect fill="none" height="6" style="stroke: #C82930; stroke-width: 1.0;" width="6" x="932" y="391.0117"/><text fill="#000000" font-family="sans-serif" font-size="11" lengthAdjust="spacingAndGlyphs" textLength="65" x="944" y="396.3198">timeout: Int</text><rect fill="none" height="6" style="stroke: #C82930; stroke-width: 1.0;" width="6" x="932" y="403.8164"/><text fill="#000000" font-family="sans-serif" font-size="11" lengthAdjust="spacingAndGlyphs" textLength="74" x="944" y="409.1245">max_size: Int</text><line style="stroke: #A80036; stroke-width: 1.5;" x1="925" x2="1113" y1="415.7188" y2="415.7188"/><ellipse cx="935" cy="427.6211" fill="#84BE84" rx="3" ry="3" style="stroke: #038048; stroke-width: 1.0;"/><text fill="#000000" font-family="sans-serif" font-size="11" lengthAdjust="spacingAndGlyphs" textLength="164" x="944" y="429.9292">__init__(path : String) : LogIO</text><ellipse cx="935" cy="440.4258" fill="#84BE84" rx="3" ry="3" style="stroke: #038048; stroke-width: 1.0;"/><text fill="#000000" font-family="sans-serif" font-size="11" lengthAdjust="spacingAndGlyphs" textLength="36" x="944" y="442.7339">write()</text><ellipse cx="935" cy="453.2305" fill="#84BE84" rx="3" ry="3" style="stroke: #038048; stroke-width: 1.0;"/><text fill="#000000" font-family="sans-serif" font-size="11" lengthAdjust="spacingAndGlyphs" textLength="84" x="944" y="455.5386">read(): String[]</text><ellipse cx="935" cy="466.0352" fill="#84BE84" rx="3" ry="3" style="stroke: #038048; stroke-width: 1.0;"/><text fill="#000000" font-family="sans-serif" font-size="11" lengthAdjust="spacingAndGlyphs" textLength="111" x="944" y="468.3433">flush_write_queue()</text><ellipse cx="935" cy="478.8398" fill="#84BE84" rx="3" ry="3" style="stroke: #038048; stroke-width: 1.0;"/><text fill="#000000" font-family="sans-serif" font-size="11" lengthAdjust="spacingAndGlyphs" textLength="154" x="944" y="481.1479">append_write_queue(entry)</text><rect fill="#FEFECE" filter="url(#f1)" height="124.8281" style="stroke: #A80036; stroke-width: 1.5;" width="507" x="62.75" y="343.5"/><ellipse cx="289.5" cy="359.5" fill="#ADD1B2" rx="11" ry="11" style="stroke: #A80036; stroke-width: 1.0;"/><path d="M292.4688,365.1406 Q291.8906,365.4375 291.25,365.5859 Q290.6094,365.7344 289.9063,365.7344 Q287.4063,365.7344 286.0859,364.0859 Q284.7656,362.4375 284.7656,359.3125 Q284.7656,356.1875 286.0859,354.5313 Q287.4063,352.875 289.9063,352.875 Q290.6094,352.875 291.2578,353.0313 Q291.9063,353.1875 292.4688,353.4844 L292.4688,356.2031 Q291.8438,355.625 291.25,355.3516 Q290.6563,355.0781 290.0313,355.0781 Q288.6875,355.0781 288,356.1484 Q287.3125,357.2188 287.3125,359.3125 Q287.3125,361.4063 288,362.4766 Q288.6875,363.5469 290.0313,363.5469 Q290.6563,363.5469 291.25,363.2734 Q291.8438,363 292.4688,362.4219 L292.4688,365.1406 Z "/><text fill="#000000" font-family="sans-serif" font-size="12" lengthAdjust="spacingAndGlyphs" textLength="45" x="310" y="363.6543">InfoLog</text><line style="stroke: #A80036; stroke-width: 1.5;" x1="63.75" x2="568.75" y1="375.5" y2="375.5"/><rect fill="none" height="6" style="stroke: #C82930; stroke-width: 1.0;" width="6" x="70.75" y="384.4023"/><text fill="#000000" font-family="sans-serif" font-size="11" lengthAdjust="spacingAndGlyphs" textLength="101" x="82.75" y="389.7104">file_name : String</text><rect fill="none" height="6" style="stroke: #C82930; stroke-width: 1.0;" width="6" x="70.75" y="397.207"/><text fill="#000000" font-family="sans-serif" font-size="11" lengthAdjust="spacingAndGlyphs" textLength="102" x="82.75" y="402.5151">last_entry : String</text><line style="stroke: #A80036; stroke-width: 1.5;" x1="63.75" x2="568.75" y1="409.1094" y2="409.1094"/><ellipse cx="73.75" cy="421.0117" fill="#84BE84" rx="3" ry="3" style="stroke: #038048; stroke-width: 1.0;"/><text fill="#000000" font-family="sans-serif" font-size="11" lengthAdjust="spacingAndGlyphs" textLength="481" x="82.75" y="423.3198">__init__(loglevel=logging.WARNING : int, filename=default_log_path : String) : InfoLog</text><ellipse cx="73.75" cy="433.8164" fill="#84BE84" rx="3" ry="3" style="stroke: #038048; stroke-width: 1.0;"/><text fill="#000000" font-family="sans-serif" font-size="11" lengthAdjust="spacingAndGlyphs" textLength="127" x="82.75" y="436.1245">set_loglevel(level : int)</text><ellipse cx="73.75" cy="446.6211" fill="#84BE84" rx="3" ry="3" style="stroke: #038048; stroke-width: 1.0;"/><text fill="#000000" font-family="sans-serif" font-size="11" lengthAdjust="spacingAndGlyphs" textLength="103" x="82.75" y="448.9292">get_log() : String[]</text><ellipse cx="73.75" cy="459.4258" fill="#84BE84" rx="3" ry="3" style="stroke: #038048; stroke-width: 1.0;"/><text fill="#000000" font-family="sans-serif" font-size="11" lengthAdjust="spacingAndGlyphs" textLength="200" x="82.75" y="461.7339">get_log_tail(num=10 : int) : String[]</text><path d="M1760.81,455.75 C1749.09,475.016 1736.89,497.823 1729,520 C1728.87,520.354 1725.25,542.532 1721.05,568.4 " fill="none" style="stroke: #A80036; stroke-width: 1.0;"/><text fill="#000000" font-family="sans-serif" font-size="13" lengthAdjust="spacingAndGlyphs" textLength="30" x="1730" y="533.0669">uses</text><polygon fill="#000000" points="1740.5,542.1328,1743.5,548.1328,1746.5,542.1328,1740.5,542.1328" style="stroke: #000000; stroke-width: 1.0;"/><path d="M1978.08,635.361 C1991.86,638.986 2000,643.866 2000,650 C2000,657.852 1986.67,663.648 1965.23,667.39 " fill="none" style="stroke: #A80036; stroke-width: 1.0;"/><polygon fill="none" points="1965.23,632.61,1970.257,637.78,1976.9628,635.1282,1971.9358,629.9582,1965.23,632.61" style="stroke: #A80036; stroke-width: 1.0;"/><text fill="#000000" font-family="sans-serif" font-size="13" lengthAdjust="spacingAndGlyphs" textLength="24" x="1973.2228" y="627.9067">0..n</text><text fill="#000000" font-family="sans-serif" font-size="13" lengthAdjust="spacingAndGlyphs" textLength="8" x="1972.9853" y="663.7192">1</text><path d="M1718.17,731.683 C1720.5,747.731 1723.14,764.431 1726,780 C1727.8,789.829 1729.94,800.198 1732.15,810.291 " fill="none" style="stroke: #A80036; stroke-width: 1.0;"/><path d="M866.753,406 C885.737,406 904.722,406 923.707,406 " fill="none" style="stroke: #A80036; stroke-width: 1.0;"/><polygon fill="#A80036" points="853.609,406,859.609,410,865.609,406,859.609,402,853.609,406" style="stroke: #A80036; stroke-width: 1.0;"/><path d="M2290.78,916.269 C2316.96,944.081 2351.74,981.041 2381.45,1012.608 " fill="none" style="stroke: #A80036; stroke-width: 1.0;"/><polygon fill="#A80036" points="2385.05,1016.43,2381.7984,1007.1334,2381.6247,1012.7876,2375.9705,1012.6139,2385.05,1016.43" style="stroke: #A80036; stroke-width: 1.0;"/><text fill="#000000" font-family="sans-serif" font-size="13" lengthAdjust="spacingAndGlyphs" textLength="30" x="2353" y="981.0669">uses</text><polygon fill="#000000" points="2363.5,990.1328,2366.5,996.1328,2369.5,990.1328,2363.5,990.1328" style="stroke: #000000; stroke-width: 1.0;"/><path d="M2210.6,916.269 C2176.37,952.076 2127.65,1003.047 2094.09,1038.149 " fill="none" style="stroke: #A80036; stroke-width: 1.0;"/><polygon fill="#A80036" points="2090.49,1041.922,2099.6,1038.1794,2093.9446,1038.3074,2093.8166,1032.652,2090.49,1041.922" style="stroke: #A80036; stroke-width: 1.0;"/><text fill="#000000" font-family="sans-serif" font-size="13" lengthAdjust="spacingAndGlyphs" textLength="8" x="2194.3644" y="936.4048">1</text><text fill="#000000" font-family="sans-serif" font-size="13" lengthAdjust="spacingAndGlyphs" textLength="24" x="2068.7807" y="1031.0498">1..n</text><path d="M2229.96,699.773 C2234.49,736.846 2240.68,787.569 2245.18,824.36 " fill="none" style="stroke: #A80036; stroke-width: 1.0;"/><polygon fill="#A80036" points="2245.83,829.684,2248.7089,820.2653,2245.2236,824.7209,2240.7679,821.2356,2245.83,829.684" style="stroke: #A80036; stroke-width: 1.0;"/><text fill="#000000" font-family="sans-serif" font-size="13" lengthAdjust="spacingAndGlyphs" textLength="30" x="2240" y="775.0669">uses</text><polygon fill="#000000" points="2250.5,784.1328,2253.5,790.1328,2256.5,784.1328,2250.5,784.1328" style="stroke: #000000; stroke-width: 1.0;"/><path d="M1624.89,146.2 C1441.59,154.83 1143.46,184.057 906,280 C879.08,290.877 852.303,306.557 828.031,323.155 " fill="none" style="stroke: #A80036; stroke-width: 1.0;"/><polygon fill="#A80036" points="817.064,330.832,826.731,328.9482,821.1603,327.9649,822.1436,322.3941,817.064,330.832" style="stroke: #A80036; stroke-width: 1.0;"/><line style="stroke: #A80036; stroke-width: 1.0;" x1="821.1603" x2="827.714" y1="327.9649" y2="323.3775"/><polygon fill="none" points="1637.89,145.62,1631.7159,141.8944,1625.9022,146.1607,1632.0763,149.8863,1637.89,145.62" style="stroke: #A80036; stroke-width: 1.0;"/><text fill="#000000" font-family="sans-serif" font-size="13" lengthAdjust="spacingAndGlyphs" textLength="8" x="1622.0932" y="141.4787">1</text><text fill="#000000" font-family="sans-serif" font-size="13" lengthAdjust="spacingAndGlyphs" textLength="8" x="814.9013" y="319.9575">1</text><path d="M1794,223.746 C1794,265.019 1794,314.136 1794,350.822 " fill="none" style="stroke: #A80036; stroke-width: 1.0;"/><polygon fill="#A80036" points="1794,356.142,1798,347.142,1794,351.142,1790,347.142,1794,356.142" style="stroke: #A80036; stroke-width: 1.0;"/><text fill="#000000" font-family="sans-serif" font-size="13" lengthAdjust="spacingAndGlyphs" textLength="30" x="1795" y="267.0669">uses</text><polygon fill="#000000" points="1805.5,276.1328,1808.5,282.1328,1811.5,276.1328,1805.5,276.1328" style="stroke: #000000; stroke-width: 1.0;"/><path d="M1637.85,190.09 C1572.9,212.813 1498.1,243.197 1435,280 C1397.16,302.071 1359.2,333.549 1330.8,359.395 " fill="none" style="stroke: #A80036; stroke-width: 1.0;"/><polygon fill="#A80036" points="1327.03,362.841,1336.3724,359.7233,1330.7213,359.4684,1330.9762,353.8173,1327.03,362.841" style="stroke: #A80036; stroke-width: 1.0;"/><text fill="#000000" font-family="sans-serif" font-size="13" lengthAdjust="spacingAndGlyphs" textLength="8" x="1622.0515" y="187.8248">1</text><text fill="#000000" font-family="sans-serif" font-size="13" lengthAdjust="spacingAndGlyphs" textLength="8" x="1323.1403" y="351.9473">1</text><path d="M1904.71,233.802 C1916.16,248.027 1926.11,263.526 1933,280 C1972.8,375.119 1983.51,422.108 1933,512 C1922.98,529.825 1909.6,545.603 1894.34,559.504 " fill="none" style="stroke: #A80036; stroke-width: 1.0;"/><polygon fill="#A80036" points="1884.06,568.371,1893.489,565.5259,1887.8477,565.107,1888.2666,559.4657,1884.06,568.371" style="stroke: #A80036; stroke-width: 1.0;"/><line style="stroke: #A80036; stroke-width: 1.0;" x1="1887.8477" x2="1893.9" y1="565.107" y2="559.8825"/><polygon fill="none" points="1896.13,223.673,1896.9585,230.8363,1903.8895,232.8267,1903.061,225.6633,1896.13,223.673" style="stroke: #A80036; stroke-width: 1.0;"/><text fill="#000000" font-family="sans-serif" font-size="13" lengthAdjust="spacingAndGlyphs" textLength="8" x="1895.7806" y="243.677">1</text><text fill="#000000" font-family="sans-serif" font-size="13" lengthAdjust="spacingAndGlyphs" textLength="8" x="1888.1568" y="557.5332">1</text><path d="M1916.47,223.811 C1933.44,240.366 1948.6,259.184 1959,280 C2004.08,370.22 2051.22,645.117 2000,732 C1980.62,764.866 1950.46,790.556 1917.61,810.436 " fill="none" style="stroke: #A80036; stroke-width: 1.0;"/><text fill="#000000" font-family="sans-serif" font-size="13" lengthAdjust="spacingAndGlyphs" textLength="8" x="1917.9322" y="243.8273">1</text><text fill="#000000" font-family="sans-serif" font-size="13" lengthAdjust="spacingAndGlyphs" textLength="36" x="1895.5095" y="799.5225">many</text><path d="M1286.04,449.148 C1291.55,517.249 1311.89,651.919 1387,732 C1424.96,772.474 1476,801.41 1527.69,822.038 " fill="none" style="stroke: #A80036; stroke-width: 1.0;"/><text fill="#000000" font-family="sans-serif" font-size="13" lengthAdjust="spacingAndGlyphs" textLength="30" x="1388" y="654.0669">uses</text><polygon fill="#000000" points="1398.5,663.1328,1401.5,669.1328,1404.5,663.1328,1398.5,663.1328" style="stroke: #000000; stroke-width: 1.0;"/><path d="M1965.24,650 C1990.97,650 2016.69,650 2042.42,650 " fill="none" style="stroke: #A80036; stroke-width: 1.0;"/><polygon fill="none" points="2055.45,650,2049.45,646,2043.45,650,2049.45,654,2055.45,650" style="stroke: #A80036; stroke-width: 1.0;"/><path d="M2159.47,699.767 C2122.44,726.111 2074.23,757.709 2028,780 C2006.74,790.25 1984.05,799.786 1961.13,808.534 " fill="none" style="stroke: #A80036; stroke-width: 1.0;"/><polygon fill="#A80036" points="1956.24,810.389,1966.0734,810.941,1960.9157,808.6176,1963.2391,803.4599,1956.24,810.389" style="stroke: #A80036; stroke-width: 1.0;"/><polygon fill="#000000" points="2070,769.0664,2064,772.0664,2070,775.0664,2070,769.0664" style="stroke: #000000; stroke-width: 1.0;"/><text fill="#000000" font-family="sans-serif" font-size="13" lengthAdjust="spacingAndGlyphs" textLength="30" x="2076" y="775.0669">uses</text><text fill="#000000" font-family="sans-serif" font-size="13" lengthAdjust="spacingAndGlyphs" textLength="23" x="1951.582" y="799.4709">1..*</text><path d="M2607.1,835.994 C2578.67,771.855 2510.42,638.001 2410,568 C2262.61,465.263 2054.07,428.083 1921.44,414.628 " fill="none" style="stroke: #A80036; stroke-width: 1.0;"/><polygon fill="#A80036" points="1916.36,414.121,1924.9148,419.0011,1921.3349,414.6211,1925.7149,411.0412,1916.36,414.121" style="stroke: #A80036; stroke-width: 1.0;"/><polygon fill="#000000" points="2559,648.0664,2553,651.0664,2559,654.0664,2559,648.0664" style="stroke: #000000; stroke-width: 1.0;"/><text fill="#000000" font-family="sans-serif" font-size="13" lengthAdjust="spacingAndGlyphs" textLength="30" x="2565" y="654.0669">uses</text><path d="M2283.19,699.646 C2317.88,726.277 2363.51,758.195 2408,780 C2448.52,799.86 2463.33,792.693 2505,810 C2521.49,816.85 2538.75,825.253 2554.8,833.636 " fill="none" style="stroke: #A80036; stroke-width: 1.0;"/><polygon fill="#A80036" points="2559.29,835.998,2553.1877,828.2674,2554.8651,833.6699,2549.4627,835.3473,2559.29,835.998" style="stroke: #A80036; stroke-width: 1.0;"/><text fill="#000000" font-family="sans-serif" font-size="13" lengthAdjust="spacingAndGlyphs" textLength="30" x="2409" y="775.0669">uses</text><polygon fill="#000000" points="2442,769.0664,2448,772.0664,2442,775.0664,2442,769.0664" style="stroke: #000000; stroke-width: 1.0;"/></g></svg>