<?xml version="1.0" encoding="UTF-8" standalone="yes"?><svg xmlns="http://www.w3.org/2000/svg" xmlns:xlink="http://www.w3.org/1999/xlink" height="288pt" style="width:539px;height:288px;" version="1.1" viewBox="0 0 539 288" width="539pt"><defs><filter height="300%" id="f1" width="300%" x="-1" y="-1"><feGaussianBlur result="blurOut" stdDeviation="2.0"/><feColorMatrix in="blurOut" result="blurOut2" type="matrix" values="0 0 0 0 0 0 0 0 0 0 0 0 0 0 0 0 0 0 .4 0"/><feOffset dx="4.0" dy="4.0" in="blurOut2" result="blurOut3"/><feBlend in="SourceGraphic" in2="blurOut3" mode="normal"/></filter></defs><g><rect fill="#FEFECE" filter="url(#f1)" height="112.0234" style="stroke: #A80036; stroke-width: 1.5;" width="260" x="6" y="8"/><ellipse cx="85.25" cy="24" fill="#ADD1B2" rx="11" ry="11" style="stroke: #A80036; stroke-width: 1.0;"/><path d="M88.2188,29.6406 Q87.6406,29.9375 87,30.0859 Q86.3594,30.2344 85.6563,30.2344 Q83.1563,30.2344 81.8359,28.5859 Q80.5156,26.9375 80.5156,23.8125 Q80.5156,20.6875 81.8359,19.0313 Q83.1563,17.375 85.6563,17.375 Q86.3594,17.375 87.0078,17.5313 Q87.6563,17.6875 88.2188,17.9844 L88.2188,20.7031 Q87.5938,20.125 87,19.8516 Q86.4063,19.5781 85.7813,19.5781 Q84.4375,19.5781 83.75,20.6484 Q83.0625,21.7188 83.0625,23.8125 Q83.0625,25.9063 83.75,26.9766 Q84.4375,28.0469 85.7813,28.0469 Q86.4063,28.0469 87,27.7734 Q87.5938,27.5 88.2188,26.9219 L88.2188,29.6406 Z "/><text fill="#000000" font-family="sans-serif" font-size="12" lengthAdjust="spacingAndGlyphs" textLength="93" x="105.75" y="28.1543">PluginManager</text><line style="stroke: #A80036; stroke-width: 1.5;" x1="7" x2="265" y1="40" y2="40"/><line style="stroke: #A80036; stroke-width: 1.5;" x1="7" x2="265" y1="48" y2="48"/><rect fill="#F24D5C" height="6" style="stroke: #C82930; stroke-width: 1.0;" width="6" x="14" y="56.9023"/><text fill="#000000" font-family="sans-serif" font-size="11" lengthAdjust="spacingAndGlyphs" textLength="234" x="26" y="62.2104">plugins : (path : String, widget : Widget)[]</text><ellipse cx="17" cy="72.707" fill="#84BE84" rx="3" ry="3" style="stroke: #038048; stroke-width: 1.0;"/><text fill="#000000" font-family="sans-serif" font-size="11" lengthAdjust="spacingAndGlyphs" textLength="130" x="26" y="75.0151">get_plugins() : Widget[]</text><ellipse cx="17" cy="85.5117" fill="#84BE84" rx="3" ry="3" style="stroke: #038048; stroke-width: 1.0;"/><text fill="#000000" font-family="sans-serif" font-size="11" lengthAdjust="spacingAndGlyphs" textLength="198" x="26" y="87.8198">add_plugin(path : String) : Boolean</text><ellipse cx="17" cy="98.3164" fill="#84BE84" rx="3" ry="3" style="stroke: #038048; stroke-width: 1.0;"/><text fill="#000000" font-family="sans-serif" font-size="11" lengthAdjust="spacingAndGlyphs" textLength="227" x="26" y="100.6245">remove_plugin(name : String) : Boolean</text><ellipse cx="17" cy="111.1211" fill="#84BE84" rx="3" ry="3" style="stroke: #038048; stroke-width: 1.0;"/><text fill="#000000" font-family="sans-serif" font-size="11" lengthAdjust="spacingAndGlyphs" textLength="86" x="26" y="113.4292">show_options()</text><rect fill="#FEFECE" filter="url(#f1)" height="60.8047" style="stroke: #A80036; stroke-width: 1.5;" width="229" x="301.75" y="33.5"/><ellipse cx="380.5" cy="49.5" fill="#ADD1B2" rx="11" ry="11" style="stroke: #A80036; stroke-width: 1.0;"/><path d="M383.4688,55.1406 Q382.8906,55.4375 382.25,55.5859 Q381.6094,55.7344 380.9063,55.7344 Q378.4063,55.7344 377.0859,54.0859 Q375.7656,52.4375 375.7656,49.3125 Q375.7656,46.1875 377.0859,44.5313 Q378.4063,42.875 380.9063,42.875 Q381.6094,42.875 382.2578,43.0313 Q382.9063,43.1875 383.4688,43.4844 L383.4688,46.2031 Q382.8438,45.625 382.25,45.3516 Q381.6563,45.0781 381.0313,45.0781 Q379.6875,45.0781 379,46.1484 Q378.3125,47.2188 378.3125,49.3125 Q378.3125,51.4063 379,52.4766 Q379.6875,53.5469 381.0313,53.5469 Q381.6563,53.5469 382.25,53.2734 Q382.8438,53 383.4688,52.4219 L383.4688,55.1406 Z "/><text fill="#000000" font-family="sans-serif" font-size="12" lengthAdjust="spacingAndGlyphs" textLength="63" x="401" y="53.6543">WSettings</text><line style="stroke: #A80036; stroke-width: 1.5;" x1="302.75" x2="529.75" y1="65.5" y2="65.5"/><line style="stroke: #A80036; stroke-width: 1.5;" x1="302.75" x2="529.75" y1="73.5" y2="73.5"/><ellipse cx="312.75" cy="85.4023" fill="#84BE84" rx="3" ry="3" style="stroke: #038048; stroke-width: 1.0;"/><text fill="#000000" font-family="sans-serif" font-size="11" lengthAdjust="spacingAndGlyphs" textLength="203" x="321.75" y="87.7104">__init__(widget : Widget) : WSettings</text><rect fill="#FEFECE" filter="url(#f1)" height="99.2188" style="stroke: #A80036; stroke-width: 1.5;" width="136" x="68" y="180.5"/><ellipse cx="93.8" cy="196.5" fill="#ADD1B2" rx="11" ry="11" style="stroke: #A80036; stroke-width: 1.0;"/><path d="M96.7688,202.1406 Q96.1906,202.4375 95.55,202.5859 Q94.9094,202.7344 94.2063,202.7344 Q91.7063,202.7344 90.3859,201.0859 Q89.0656,199.4375 89.0656,196.3125 Q89.0656,193.1875 90.3859,191.5313 Q91.7063,189.875 94.2063,189.875 Q94.9094,189.875 95.5578,190.0313 Q96.2063,190.1875 96.7688,190.4844 L96.7688,193.2031 Q96.1438,192.625 95.55,192.3516 Q94.9563,192.0781 94.3313,192.0781 Q92.9875,192.0781 92.3,193.1484 Q91.6125,194.2188 91.6125,196.3125 Q91.6125,198.4063 92.3,199.4766 Q92.9875,200.5469 94.3313,200.5469 Q94.9563,200.5469 95.55,200.2734 Q96.1438,200 96.7688,199.4219 L96.7688,202.1406 Z "/><text fill="#000000" font-family="sans-serif" font-size="12" lengthAdjust="spacingAndGlyphs" textLength="80" x="110.2" y="200.6543">OptionDialog</text><line style="stroke: #A80036; stroke-width: 1.5;" x1="69" x2="203" y1="212.5" y2="212.5"/><rect fill="none" height="6" style="stroke: #C82930; stroke-width: 1.0;" width="6" x="76" y="221.4023"/><text fill="#000000" font-family="sans-serif" font-size="11" lengthAdjust="spacingAndGlyphs" textLength="110" x="88" y="226.7104">options : Dictionary</text><line style="stroke: #A80036; stroke-width: 1.5;" x1="69" x2="203" y1="233.3047" y2="233.3047"/><ellipse cx="79" cy="245.207" fill="#84BE84" rx="3" ry="3" style="stroke: #038048; stroke-width: 1.0;"/><text fill="#000000" font-family="sans-serif" font-size="11" lengthAdjust="spacingAndGlyphs" textLength="70" x="88" y="247.5151">createView()</text><ellipse cx="79" cy="258.0117" fill="#84BE84" rx="3" ry="3" style="stroke: #038048; stroke-width: 1.0;"/><text fill="#000000" font-family="sans-serif" font-size="11" lengthAdjust="spacingAndGlyphs" textLength="106" x="88" y="260.3198">save(path : String)</text><ellipse cx="79" cy="270.8164" fill="#84BE84" rx="3" ry="3" style="stroke: #038048; stroke-width: 1.0;"/><text fill="#000000" font-family="sans-serif" font-size="11" lengthAdjust="spacingAndGlyphs" textLength="103" x="88" y="273.1245">load(path : String)</text></g></svg>