<?xml version="1.0" encoding="UTF-8" standalone="yes"?><svg xmlns="http://www.w3.org/2000/svg" xmlns:xlink="http://www.w3.org/1999/xlink" height="546pt" style="width:556px;height:546px;" version="1.1" viewBox="0 0 556 546" width="556pt"><defs><filter height="300%" id="f1" width="300%" x="-1" y="-1"><feGaussianBlur result="blurOut" stdDeviation="2.0"/><feColorMatrix in="blurOut" result="blurOut2" type="matrix" values="0 0 0 0 0 0 0 0 0 0 0 0 0 0 0 0 0 0 .4 0"/><feOffset dx="4.0" dy="4.0" in="blurOut2" result="blurOut3"/><feBlend in="SourceGraphic" in2="blurOut3" mode="normal"/></filter></defs><g><rect fill="#FEFECE" filter="url(#f1)" height="99.2188" style="stroke: #A80036; stroke-width: 1.5;" width="245" x="140.75" y="8.5"/><ellipse cx="238.5" cy="24.5" fill="#FF7700" rx="11" ry="11" style="stroke: #A80036; stroke-width: 1.0;"/><path d="M234.2188,18.1094 L237.1406,18.1094 L238.6094,23.5469 L240.0781,18.1094 L243.0156,18.1094 L243.0156,30.5 L240.9063,30.5 L240.9063,20.5781 L239.5938,26 L237.6563,26 L236.3281,20.5781 L236.3281,30.5 L234.2188,30.5 L234.2188,18.1094 Z "/><text fill="#000000" font-family="sans-serif" font-size="12" lengthAdjust="spacingAndGlyphs" textLength="41" x="259" y="28.6543">Parser</text><line style="stroke: #A80036; stroke-width: 1.5;" x1="141.75" x2="384.75" y1="40.5" y2="40.5"/><line style="stroke: #A80036; stroke-width: 1.5;" x1="141.75" x2="384.75" y1="48.5" y2="48.5"/><ellipse cx="151.75" cy="60.4023" fill="#84BE84" rx="3" ry="3" style="stroke: #038048; stroke-width: 1.0;"/><text fill="#000000" font-family="sans-serif" font-size="11" lengthAdjust="spacingAndGlyphs" textLength="219" x="160.75" y="62.7104">kifparse(Ontology, Graph=None) : AST</text><ellipse cx="151.75" cy="73.207" fill="#84BE84" rx="3" ry="3" style="stroke: #038048; stroke-width: 1.0;"/><text fill="#000000" font-family="sans-serif" font-size="11" lengthAdjust="spacingAndGlyphs" textLength="171" x="160.75" y="75.5151">astmerge((AST1, AST2)) : AST</text><ellipse cx="151.75" cy="86.0117" fill="#84BE84" rx="3" ry="3" style="stroke: #038048; stroke-width: 1.0;"/><text fill="#000000" font-family="sans-serif" font-size="11" lengthAdjust="spacingAndGlyphs" textLength="148" x="160.75" y="88.3198">kifserialize(AST, Ontology)</text><ellipse cx="151.75" cy="98.8164" fill="#84BE84" rx="3" ry="3" style="stroke: #038048; stroke-width: 1.0;"/><text fill="#000000" font-family="sans-serif" font-size="11" lengthAdjust="spacingAndGlyphs" textLength="167" x="160.75" y="101.1245">wparse(mapping) : Dictionary</text><rect fill="#FEFECE" filter="url(#f1)" height="163.2422" style="stroke: #A80036; stroke-width: 1.5;" width="514" x="6" y="186.5"/><ellipse cx="197.75" cy="202.5" fill="#ADD1B2" rx="11" ry="11" style="stroke: #A80036; stroke-width: 1.0;"/><path d="M200.7188,208.1406 Q200.1406,208.4375 199.5,208.5859 Q198.8594,208.7344 198.1563,208.7344 Q195.6563,208.7344 194.3359,207.0859 Q193.0156,205.4375 193.0156,202.3125 Q193.0156,199.1875 194.3359,197.5313 Q195.6563,195.875 198.1563,195.875 Q198.8594,195.875 199.5078,196.0313 Q200.1563,196.1875 200.7188,196.4844 L200.7188,199.2031 Q200.0938,198.625 199.5,198.3516 Q198.9063,198.0781 198.2813,198.0781 Q196.9375,198.0781 196.25,199.1484 Q195.5625,200.2188 195.5625,202.3125 Q195.5625,204.4063 196.25,205.4766 Q196.9375,206.5469 198.2813,206.5469 Q198.9063,206.5469 199.5,206.2734 Q200.0938,206 200.7188,205.4219 L200.7188,208.1406 Z "/><text fill="#000000" font-family="sans-serif" font-size="12" lengthAdjust="spacingAndGlyphs" textLength="122" x="218.25" y="206.6543">AbstractSyntaxTree</text><line style="stroke: #A80036; stroke-width: 1.5;" x1="7" x2="519" y1="218.5" y2="218.5"/><rect fill="none" height="6" style="stroke: #C82930; stroke-width: 1.0;" width="6" x="14" y="227.4023"/><text fill="#000000" font-family="sans-serif" font-size="11" lengthAdjust="spacingAndGlyphs" textLength="105" x="26" y="232.7104">parent_node : AST</text><rect fill="none" height="6" style="stroke: #C82930; stroke-width: 1.0;" width="6" x="14" y="240.207"/><text fill="#000000" font-family="sans-serif" font-size="11" lengthAdjust="spacingAndGlyphs" textLength="87" x="26" y="245.5151">children : AST[]</text><rect fill="none" height="6" style="stroke: #C82930; stroke-width: 1.0;" width="6" x="14" y="253.0117"/><text fill="#000000" font-family="sans-serif" font-size="11" lengthAdjust="spacingAndGlyphs" textLength="78" x="26" y="258.3198">name : String</text><rect fill="none" height="6" style="stroke: #C82930; stroke-width: 1.0;" width="6" x="14" y="265.8164"/><text fill="#000000" font-family="sans-serif" font-size="11" lengthAdjust="spacingAndGlyphs" textLength="120" x="26" y="271.1245">element_type : Enum</text><rect fill="none" height="6" style="stroke: #C82930; stroke-width: 1.0;" width="6" x="14" y="278.6211"/><text fill="#000000" font-family="sans-serif" font-size="11" lengthAdjust="spacingAndGlyphs" textLength="118" x="26" y="283.9292">is_indexed : Boolean</text><line style="stroke: #A80036; stroke-width: 1.5;" x1="7" x2="519" y1="290.5234" y2="290.5234"/><ellipse cx="17" cy="302.4258" fill="#84BE84" rx="3" ry="3" style="stroke: #038048; stroke-width: 1.0;"/><text fill="#000000" font-family="sans-serif" font-size="11" lengthAdjust="spacingAndGlyphs" textLength="488" x="26" y="304.7339">__init__(ontology : Ontology, parent=None : AbstractSyntaxTree) : AbstractSyntaxTree</text><ellipse cx="17" cy="315.2305" fill="#84BE84" rx="3" ry="3" style="stroke: #038048; stroke-width: 1.0;"/><text fill="#000000" font-family="sans-serif" font-size="11" lengthAdjust="spacingAndGlyphs" textLength="119" x="26" y="317.5386">get_children() : AST[]</text><ellipse cx="17" cy="328.0352" fill="#84BE84" rx="3" ry="3" style="stroke: #038048; stroke-width: 1.0;"/><text fill="#000000" font-family="sans-serif" font-size="11" lengthAdjust="spacingAndGlyphs" textLength="83" x="26" y="330.3433">add_child(AST)</text><ellipse cx="17" cy="340.8398" fill="#84BE84" rx="3" ry="3" style="stroke: #038048; stroke-width: 1.0;"/><text fill="#000000" font-family="sans-serif" font-size="11" lengthAdjust="spacingAndGlyphs" textLength="105" x="26" y="343.1479">remove_child(AST)</text><rect fill="#FEFECE" filter="url(#f1)" height="124.8281" style="stroke: #A80036; stroke-width: 1.5;" width="439" x="43.75" y="412.5"/><ellipse cx="231.5" cy="428.5" fill="#ADD1B2" rx="11" ry="11" style="stroke: #A80036; stroke-width: 1.0;"/><path d="M234.4688,434.1406 Q233.8906,434.4375 233.25,434.5859 Q232.6094,434.7344 231.9063,434.7344 Q229.4063,434.7344 228.0859,433.0859 Q226.7656,431.4375 226.7656,428.3125 Q226.7656,425.1875 228.0859,423.5313 Q229.4063,421.875 231.9063,421.875 Q232.6094,421.875 233.2578,422.0313 Q233.9063,422.1875 234.4688,422.4844 L234.4688,425.2031 Q233.8438,424.625 233.25,424.3516 Q232.6563,424.0781 232.0313,424.0781 Q230.6875,424.0781 230,425.1484 Q229.3125,426.2188 229.3125,428.3125 Q229.3125,430.4063 230,431.4766 Q230.6875,432.5469 232.0313,432.5469 Q232.6563,432.5469 233.25,432.2734 Q233.8438,432 234.4688,431.4219 L234.4688,434.1406 Z "/><text fill="#000000" font-family="sans-serif" font-size="12" lengthAdjust="spacingAndGlyphs" textLength="55" x="252" y="432.6543">Ontology</text><line style="stroke: #A80036; stroke-width: 1.5;" x1="44.75" x2="481.75" y1="444.5" y2="444.5"/><rect fill="none" height="6" style="stroke: #C82930; stroke-width: 1.0;" width="6" x="51.75" y="453.4023"/><text fill="#000000" font-family="sans-serif" font-size="11" lengthAdjust="spacingAndGlyphs" textLength="78" x="63.75" y="458.7104">name : String</text><rect fill="none" height="6" style="stroke: #C82930; stroke-width: 1.0;" width="6" x="51.75" y="466.207"/><text fill="#000000" font-family="sans-serif" font-size="11" lengthAdjust="spacingAndGlyphs" textLength="84" x="63.75" y="471.5151">revision : Float</text><rect fill="none" height="6" style="stroke: #C82930; stroke-width: 1.0;" width="6" x="51.75" y="479.0117"/><text fill="#000000" font-family="sans-serif" font-size="11" lengthAdjust="spacingAndGlyphs" textLength="71" x="63.75" y="484.3198">path : String</text><rect fill="none" height="6" style="stroke: #C82930; stroke-width: 1.0;" width="6" x="51.75" y="491.8164"/><text fill="#000000" font-family="sans-serif" font-size="11" lengthAdjust="spacingAndGlyphs" textLength="61" x="63.75" y="497.1245">url : String</text><rect fill="none" height="6" style="stroke: #C82930; stroke-width: 1.0;" width="6" x="51.75" y="504.6211"/><text fill="#000000" font-family="sans-serif" font-size="11" lengthAdjust="spacingAndGlyphs" textLength="91" x="63.75" y="509.9292">active : Boolean</text><line style="stroke: #A80036; stroke-width: 1.5;" x1="44.75" x2="481.75" y1="516.5234" y2="516.5234"/><ellipse cx="54.75" cy="528.4258" fill="#84BE84" rx="3" ry="3" style="stroke: #038048; stroke-width: 1.0;"/><text fill="#000000" font-family="sans-serif" font-size="11" lengthAdjust="spacingAndGlyphs" textLength="413" x="63.75" y="530.7339">__init__(path : String, name=None : String, url=None : String) : Ontology</text><path d="M263,107.504 C263,130.913 263,159.626 263,186.208 " fill="none" style="stroke: #A80036; stroke-width: 1.0;"/><text fill="#000000" font-family="sans-serif" font-size="13" lengthAdjust="spacingAndGlyphs" textLength="30" x="264" y="151.0669">uses</text><polygon fill="#000000" points="274.5,160.1328,277.5,166.1328,280.5,160.1328,274.5,160.1328" style="stroke: #000000; stroke-width: 1.0;"/><path d="M533.081,254.337 C546.862,257.72 555,262.275 555,268 C555,275.328 541.666,280.738 520.233,284.231 " fill="none" style="stroke: #A80036; stroke-width: 1.0;"/><polygon fill="none" points="520.233,251.769,525.3329,256.8671,532.0004,254.1204,526.9005,249.0222,520.233,251.769" style="stroke: #A80036; stroke-width: 1.0;"/><text fill="#000000" font-family="sans-serif" font-size="13" lengthAdjust="spacingAndGlyphs" textLength="24" x="528.2259" y="247.1001">0..n</text><text fill="#000000" font-family="sans-serif" font-size="13" lengthAdjust="spacingAndGlyphs" textLength="8" x="527.9884" y="280.5258">1</text><path d="M263,349.727 C263,370.567 263,392.667 263,412.36 " fill="none" style="stroke: #A80036; stroke-width: 1.0;"/></g></svg>