<?xml version="1.0" encoding="UTF-8" standalone="yes"?><svg xmlns="http://www.w3.org/2000/svg" xmlns:xlink="http://www.w3.org/1999/xlink" height="764pt" style="width:954px;height:764px;" version="1.1" viewBox="0 0 954 764" width="954pt"><defs><filter height="300%" id="f1" width="300%" x="-1" y="-1"><feGaussianBlur result="blurOut" stdDeviation="2.0"/><feColorMatrix in="blurOut" result="blurOut2" type="matrix" values="0 0 0 0 0 0 0 0 0 0 0 0 0 0 0 0 0 0 .4 0"/><feOffset dx="4.0" dy="4.0" in="blurOut2" result="blurOut3"/><feBlend in="SourceGraphic" in2="blurOut3" mode="normal"/></filter></defs><g><rect fill="#FFFFFF" filter="url(#f1)" height="565.9922" style="stroke: #A80036; stroke-width: 1.0;" width="10" x="22" y="96.2969"/><rect fill="#FFFFFF" filter="url(#f1)" height="544.9922" style="stroke: #A80036; stroke-width: 1.0;" width="10" x="145" y="117.2969"/><rect fill="#FFFFFF" filter="url(#f1)" height="68.2656" style="stroke: #A80036; stroke-width: 1.0;" width="10" x="150" y="314.0938"/><rect fill="#FFFFFF" filter="url(#f1)" height="25.1328" style="stroke: #A80036; stroke-width: 1.0;" width="10" x="150" y="601.1563"/><rect fill="#FFFFFF" filter="url(#f1)" height="130.5313" style="stroke: #A80036; stroke-width: 1.0;" width="10" x="306" y="146.4297"/><rect fill="#FFFFFF" filter="url(#f1)" height="72.2656" style="stroke: #A80036; stroke-width: 1.0;" width="10" x="500" y="175.5625"/><rect fill="#FFFFFF" filter="url(#f1)" height="14.1328" style="stroke: #A80036; stroke-width: 1.0;" width="10" x="637" y="204.6953"/><rect fill="#FFFFFF" filter="url(#f1)" height="14.1328" style="stroke: #A80036; stroke-width: 1.0;" width="10" x="786" y="348.2266"/><rect fill="#FFFFFF" filter="url(#f1)" height="29.1328" style="stroke: #A80036; stroke-width: 1.0;" width="10" x="786" y="418.3594"/><rect fill="#FFFFFF" filter="url(#f1)" height="29.1328" style="stroke: #A80036; stroke-width: 1.0;" width="10" x="901.5" y="476.625"/><rect fill="#FFFFFF" filter="url(#f1)" height="29.1328" style="stroke: #A80036; stroke-width: 1.0;" width="10" x="901.5" y="534.8906"/><line style="stroke: #A80036; stroke-width: 1.0; stroke-dasharray: 5.0,5.0;" x1="27" x2="27" y1="86.2969" y2="680.4219"/><line style="stroke: #A80036; stroke-width: 1.0; stroke-dasharray: 5.0,5.0;" x1="150" x2="150" y1="86.2969" y2="680.4219"/><line style="stroke: #A80036; stroke-width: 1.0; stroke-dasharray: 5.0,5.0;" x1="311" x2="311" y1="86.2969" y2="680.4219"/><line style="stroke: #A80036; stroke-width: 1.0; stroke-dasharray: 5.0,5.0;" x1="505" x2="505" y1="86.2969" y2="680.4219"/><line style="stroke: #A80036; stroke-width: 1.0; stroke-dasharray: 5.0,5.0;" x1="642" x2="642" y1="86.2969" y2="680.4219"/><line style="stroke: #A80036; stroke-width: 1.0; stroke-dasharray: 5.0,5.0;" x1="791" x2="791" y1="86.2969" y2="680.4219"/><line style="stroke: #A80036; stroke-width: 1.0; stroke-dasharray: 5.0,5.0;" x1="906" x2="906" y1="86.2969" y2="680.4219"/><text fill="#000000" font-family="sans-serif" font-size="14" lengthAdjust="spacingAndGlyphs" textLength="32" x="8" y="82.9951">User</text><ellipse cx="27" cy="13" fill="#FEFECE" filter="url(#f1)" rx="8" ry="8" style="stroke: #A80036; stroke-width: 2.0;"/><path d="M27,21 L27,48 M14,29 L40,29 M27,48 L14,63 M27,48 L40,63 " fill="#FEFECE" filter="url(#f1)" style="stroke: #A80036; stroke-width: 2.0;"/><text fill="#000000" font-family="sans-serif" font-size="14" lengthAdjust="spacingAndGlyphs" textLength="32" x="8" y="692.417">User</text><ellipse cx="27" cy="705.7188" fill="#FEFECE" filter="url(#f1)" rx="8" ry="8" style="stroke: #A80036; stroke-width: 2.0;"/><path d="M27,713.7188 L27,740.7188 M14,721.7188 L40,721.7188 M27,740.7188 L14,755.7188 M27,740.7188 L40,755.7188 " fill="#FEFECE" filter="url(#f1)" style="stroke: #A80036; stroke-width: 2.0;"/><rect fill="#FEFECE" filter="url(#f1)" height="30.2969" style="stroke: #A80036; stroke-width: 1.5;" width="104" x="96" y="51"/><text fill="#000000" font-family="sans-serif" font-size="14" lengthAdjust="spacingAndGlyphs" textLength="90" x="103" y="70.9951">GraphWidget</text><rect fill="#FEFECE" filter="url(#f1)" height="30.2969" style="stroke: #A80036; stroke-width: 1.5;" width="104" x="96" y="679.4219"/><text fill="#000000" font-family="sans-serif" font-size="14" lengthAdjust="spacingAndGlyphs" textLength="90" x="103" y="699.417">GraphWidget</text><rect fill="#FEFECE" filter="url(#f1)" height="30.2969" style="stroke: #A80036; stroke-width: 1.5;" width="126" x="246" y="51"/><text fill="#000000" font-family="sans-serif" font-size="14" lengthAdjust="spacingAndGlyphs" textLength="112" x="253" y="70.9951">SyntaxController</text><rect fill="#FEFECE" filter="url(#f1)" height="30.2969" style="stroke: #A80036; stroke-width: 1.5;" width="126" x="246" y="679.4219"/><text fill="#000000" font-family="sans-serif" font-size="14" lengthAdjust="spacingAndGlyphs" textLength="112" x="253" y="699.417">SyntaxController</text><rect fill="#FEFECE" filter="url(#f1)" height="30.2969" style="stroke: #A80036; stroke-width: 1.5;" width="58" x="474" y="51"/><text fill="#000000" font-family="sans-serif" font-size="14" lengthAdjust="spacingAndGlyphs" textLength="44" x="481" y="70.9951">Parser</text><rect fill="#FEFECE" filter="url(#f1)" height="30.2969" style="stroke: #A80036; stroke-width: 1.5;" width="58" x="474" y="679.4219"/><text fill="#000000" font-family="sans-serif" font-size="14" lengthAdjust="spacingAndGlyphs" textLength="44" x="481" y="699.417">Parser</text><rect fill="#FEFECE" filter="url(#f1)" height="30.2969" style="stroke: #A80036; stroke-width: 1.5;" width="148" x="566" y="51"/><text fill="#000000" font-family="sans-serif" font-size="14" lengthAdjust="spacingAndGlyphs" textLength="134" x="573" y="70.9951">AbstractSyntaxTree</text><rect fill="#FEFECE" filter="url(#f1)" height="30.2969" style="stroke: #A80036; stroke-width: 1.5;" width="148" x="566" y="679.4219"/><text fill="#000000" font-family="sans-serif" font-size="14" lengthAdjust="spacingAndGlyphs" textLength="134" x="573" y="699.417">AbstractSyntaxTree</text><rect fill="#FEFECE" filter="url(#f1)" height="30.2969" style="stroke: #A80036; stroke-width: 1.5;" width="122" x="728" y="51"/><text fill="#000000" font-family="sans-serif" font-size="14" lengthAdjust="spacingAndGlyphs" textLength="108" x="735" y="70.9951">IndexAbstractor</text><rect fill="#FEFECE" filter="url(#f1)" height="30.2969" style="stroke: #A80036; stroke-width: 1.5;" width="122" x="728" y="679.4219"/><text fill="#000000" font-family="sans-serif" font-size="14" lengthAdjust="spacingAndGlyphs" textLength="108" x="735" y="699.417">IndexAbstractor</text><rect fill="#FEFECE" filter="url(#f1)" height="30.2969" style="stroke: #A80036; stroke-width: 1.5;" width="81" x="864" y="51"/><text fill="#000000" font-family="sans-serif" font-size="14" lengthAdjust="spacingAndGlyphs" textLength="67" x="871" y="70.9951">DotGraph</text><rect fill="#FEFECE" filter="url(#f1)" height="30.2969" style="stroke: #A80036; stroke-width: 1.5;" width="81" x="864" y="679.4219"/><text fill="#000000" font-family="sans-serif" font-size="14" lengthAdjust="spacingAndGlyphs" textLength="67" x="871" y="699.417">DotGraph</text><rect fill="#FFFFFF" filter="url(#f1)" height="565.9922" style="stroke: #A80036; stroke-width: 1.0;" width="10" x="22" y="96.2969"/><rect fill="#FFFFFF" filter="url(#f1)" height="544.9922" style="stroke: #A80036; stroke-width: 1.0;" width="10" x="145" y="117.2969"/><rect fill="#FFFFFF" filter="url(#f1)" height="68.2656" style="stroke: #A80036; stroke-width: 1.0;" width="10" x="150" y="314.0938"/><rect fill="#FFFFFF" filter="url(#f1)" height="25.1328" style="stroke: #A80036; stroke-width: 1.0;" width="10" x="150" y="601.1563"/><rect fill="#FFFFFF" filter="url(#f1)" height="130.5313" style="stroke: #A80036; stroke-width: 1.0;" width="10" x="306" y="146.4297"/><rect fill="#FFFFFF" filter="url(#f1)" height="72.2656" style="stroke: #A80036; stroke-width: 1.0;" width="10" x="500" y="175.5625"/><rect fill="#FFFFFF" filter="url(#f1)" height="14.1328" style="stroke: #A80036; stroke-width: 1.0;" width="10" x="637" y="204.6953"/><rect fill="#FFFFFF" filter="url(#f1)" height="14.1328" style="stroke: #A80036; stroke-width: 1.0;" width="10" x="786" y="348.2266"/><rect fill="#FFFFFF" filter="url(#f1)" height="29.1328" style="stroke: #A80036; stroke-width: 1.0;" width="10" x="786" y="418.3594"/><rect fill="#FFFFFF" filter="url(#f1)" height="29.1328" style="stroke: #A80036; stroke-width: 1.0;" width="10" x="901.5" y="476.625"/><rect fill="#FFFFFF" filter="url(#f1)" height="29.1328" style="stroke: #A80036; stroke-width: 1.0;" width="10" x="901.5" y="534.8906"/><polygon fill="#A80036" points="133,113.2969,143,117.2969,133,121.2969,137,117.2969" style="stroke: #A80036; stroke-width: 1.0;"/><line style="stroke: #A80036; stroke-width: 1.0;" x1="32" x2="139" y1="117.2969" y2="117.2969"/><text fill="#000000" font-family="sans-serif" font-size="13" lengthAdjust="spacingAndGlyphs" textLength="70" x="39" y="112.3638">Adds Node</text><polygon fill="#A80036" points="294,142.4297,304,146.4297,294,150.4297,298,146.4297" style="stroke: #A80036; stroke-width: 1.0;"/><line style="stroke: #A80036; stroke-width: 1.0;" x1="155" x2="300" y1="146.4297" y2="146.4297"/><text fill="#000000" font-family="sans-serif" font-size="13" lengthAdjust="spacingAndGlyphs" textLength="127" x="162" y="141.4966">parse_graph(graph)</text><polygon fill="#A80036" points="488,171.5625,498,175.5625,488,179.5625,492,175.5625" style="stroke: #A80036; stroke-width: 1.0;"/><line style="stroke: #A80036; stroke-width: 1.0;" x1="316" x2="494" y1="175.5625" y2="175.5625"/><text fill="#000000" font-family="sans-serif" font-size="13" lengthAdjust="spacingAndGlyphs" textLength="160" x="323" y="170.6294">kifparse(ontology, graph)</text><polygon fill="#A80036" points="625,200.6953,635,204.6953,625,208.6953,629,204.6953" style="stroke: #A80036; stroke-width: 1.0;"/><line style="stroke: #A80036; stroke-width: 1.0;" x1="510" x2="631" y1="204.6953" y2="204.6953"/><text fill="#000000" font-family="sans-serif" font-size="13" lengthAdjust="spacingAndGlyphs" textLength="103" x="517" y="199.7622">add_child(entry)</text><polygon fill="#A80036" points="521,214.8281,511,218.8281,521,222.8281,517,218.8281" style="stroke: #A80036; stroke-width: 1.0;"/><line style="stroke: #A80036; stroke-width: 1.0;" x1="515" x2="641" y1="218.8281" y2="218.8281"/><polygon fill="#A80036" points="327,243.8281,317,247.8281,327,251.8281,323,247.8281" style="stroke: #A80036; stroke-width: 1.0;"/><line style="stroke: #A80036; stroke-width: 1.0; stroke-dasharray: 2.0,2.0;" x1="321" x2="504" y1="247.8281" y2="247.8281"/><text fill="#000000" font-family="sans-serif" font-size="13" lengthAdjust="spacingAndGlyphs" textLength="68" x="333" y="242.895">return AST</text><polygon fill="#A80036" points="166,272.9609,156,276.9609,166,280.9609,162,276.9609" style="stroke: #A80036; stroke-width: 1.0;"/><line style="stroke: #A80036; stroke-width: 1.0; stroke-dasharray: 2.0,2.0;" x1="160" x2="310" y1="276.9609" y2="276.9609"/><text fill="#000000" font-family="sans-serif" font-size="13" lengthAdjust="spacingAndGlyphs" textLength="68" x="172" y="272.0278">return AST</text><line style="stroke: #A80036; stroke-width: 1.0;" x1="155" x2="202" y1="301.2266" y2="301.2266"/><line style="stroke: #A80036; stroke-width: 1.0;" x1="202" x2="202" y1="301.2266" y2="314.2266"/><line style="stroke: #A80036; stroke-width: 1.0;" x1="161" x2="202" y1="314.2266" y2="314.2266"/><polygon fill="#A80036" points="171,310.2266,161,314.2266,171,318.2266,167,314.2266" style="stroke: #A80036; stroke-width: 1.0;"/><text fill="#000000" font-family="sans-serif" font-size="13" lengthAdjust="spacingAndGlyphs" textLength="59" x="167" y="296.1606">commit()</text><polygon fill="#A80036" points="774,344.2266,784,348.2266,774,352.2266,778,348.2266" style="stroke: #A80036; stroke-width: 1.0;"/><line style="stroke: #A80036; stroke-width: 1.0;" x1="160" x2="780" y1="348.2266" y2="348.2266"/><text fill="#000000" font-family="sans-serif" font-size="13" lengthAdjust="spacingAndGlyphs" textLength="211" x="167" y="343.2935">index.replace(old_AST, new_AST)</text><polygon fill="#A80036" points="171,358.3594,161,362.3594,171,366.3594,167,362.3594" style="stroke: #A80036; stroke-width: 1.0;"/><line style="stroke: #A80036; stroke-width: 1.0;" x1="165" x2="790" y1="362.3594" y2="362.3594"/><line style="stroke: #A80036; stroke-width: 1.0;" x1="160" x2="202" y1="381.3594" y2="381.3594"/><line style="stroke: #A80036; stroke-width: 1.0;" x1="202" x2="202" y1="381.3594" y2="394.3594"/><line style="stroke: #A80036; stroke-width: 1.0;" x1="155" x2="202" y1="394.3594" y2="394.3594"/><polygon fill="#A80036" points="165,390.3594,155,394.3594,165,398.3594,161,394.3594" style="stroke: #A80036; stroke-width: 1.0;"/><polygon fill="#A80036" points="774,414.3594,784,418.3594,774,422.3594,778,418.3594" style="stroke: #A80036; stroke-width: 1.0;"/><line style="stroke: #A80036; stroke-width: 1.0;" x1="155" x2="780" y1="418.3594" y2="418.3594"/><text fill="#000000" font-family="sans-serif" font-size="13" lengthAdjust="spacingAndGlyphs" textLength="198" x="162" y="413.4263">get_graph(variant, root, depth)</text><polygon fill="#A80036" points="166,443.4922,156,447.4922,166,451.4922,162,447.4922" style="stroke: #A80036; stroke-width: 1.0;"/><line style="stroke: #A80036; stroke-width: 1.0; stroke-dasharray: 2.0,2.0;" x1="160" x2="790" y1="447.4922" y2="447.4922"/><text fill="#000000" font-family="sans-serif" font-size="13" lengthAdjust="spacingAndGlyphs" textLength="136" x="172" y="442.5591">return AbstractGraph</text><line style="stroke: #A80036; stroke-width: 2.0;" x1="897.5" x2="915.5" y1="438.4922" y2="456.4922"/><line style="stroke: #A80036; stroke-width: 2.0;" x1="897.5" x2="915.5" y1="456.4922" y2="438.4922"/><polygon fill="#A80036" points="889.5,472.625,899.5,476.625,889.5,480.625,893.5,476.625" style="stroke: #A80036; stroke-width: 1.0;"/><line style="stroke: #A80036; stroke-width: 1.0;" x1="155" x2="895.5" y1="476.625" y2="476.625"/><text fill="#000000" font-family="sans-serif" font-size="13" lengthAdjust="spacingAndGlyphs" textLength="29" x="162" y="471.6919">init()</text><polygon fill="#A80036" points="166,501.7578,156,505.7578,166,509.7578,162,505.7578" style="stroke: #A80036; stroke-width: 1.0;"/><line style="stroke: #A80036; stroke-width: 1.0;" x1="160" x2="905.5" y1="505.7578" y2="505.7578"/><text fill="#000000" font-family="sans-serif" font-size="13" lengthAdjust="spacingAndGlyphs" textLength="65" x="172" y="500.8247">return self</text><polygon fill="#A80036" points="889.5,530.8906,899.5,534.8906,889.5,538.8906,893.5,534.8906" style="stroke: #A80036; stroke-width: 1.0;"/><line style="stroke: #A80036; stroke-width: 1.0;" x1="155" x2="895.5" y1="534.8906" y2="534.8906"/><text fill="#000000" font-family="sans-serif" font-size="13" lengthAdjust="spacingAndGlyphs" textLength="56" x="162" y="529.9575">get_pic()</text><polygon fill="#A80036" points="166,560.0234,156,564.0234,166,568.0234,162,564.0234" style="stroke: #A80036; stroke-width: 1.0;"/><line style="stroke: #A80036; stroke-width: 1.0; stroke-dasharray: 2.0,2.0;" x1="160" x2="905.5" y1="564.0234" y2="564.0234"/><text fill="#000000" font-family="sans-serif" font-size="13" lengthAdjust="spacingAndGlyphs" textLength="87" x="172" y="559.0903">return picture</text><line style="stroke: #A80036; stroke-width: 1.0;" x1="155" x2="202" y1="588.2891" y2="588.2891"/><line style="stroke: #A80036; stroke-width: 1.0;" x1="202" x2="202" y1="588.2891" y2="601.2891"/><line style="stroke: #A80036; stroke-width: 1.0;" x1="161" x2="202" y1="601.2891" y2="601.2891"/><polygon fill="#A80036" points="171,597.2891,161,601.2891,171,605.2891,167,601.2891" style="stroke: #A80036; stroke-width: 1.0;"/><text fill="#000000" font-family="sans-serif" font-size="13" lengthAdjust="spacingAndGlyphs" textLength="84" x="167" y="583.2231">draw_graph()</text><line style="stroke: #A80036; stroke-width: 1.0;" x1="160" x2="202" y1="625.2891" y2="625.2891"/><line style="stroke: #A80036; stroke-width: 1.0;" x1="202" x2="202" y1="625.2891" y2="638.2891"/><line style="stroke: #A80036; stroke-width: 1.0;" x1="155" x2="202" y1="638.2891" y2="638.2891"/><polygon fill="#A80036" points="165,634.2891,155,638.2891,165,642.2891,161,638.2891" style="stroke: #A80036; stroke-width: 1.0;"/><polygon fill="#A80036" points="38,658.2891,28,662.2891,38,666.2891,34,662.2891" style="stroke: #A80036; stroke-width: 1.0;"/><line style="stroke: #A80036; stroke-width: 1.0;" x1="32" x2="149" y1="662.2891" y2="662.2891"/><text fill="#000000" font-family="sans-serif" font-size="13" lengthAdjust="spacingAndGlyphs" textLength="89" x="44" y="657.356">Display Graph</text></g></svg>