<?xml version="1.0" encoding="UTF-8" standalone="yes"?><svg xmlns="http://www.w3.org/2000/svg" xmlns:xlink="http://www.w3.org/1999/xlink" height="514pt" style="width:716px;height:514px;" version="1.1" viewBox="0 0 716 514" width="716pt"><defs><filter height="300%" id="f1" width="300%" x="-1" y="-1"><feGaussianBlur result="blurOut" stdDeviation="2.0"/><feColorMatrix in="blurOut" result="blurOut2" type="matrix" values="0 0 0 0 0 0 0 0 0 0 0 0 0 0 0 0 0 0 .4 0"/><feOffset dx="4.0" dy="4.0" in="blurOut2" result="blurOut3"/><feBlend in="SourceGraphic" in2="blurOut3" mode="normal"/></filter></defs><g><ellipse cx="482.5" cy="20" fill="#000000" filter="url(#f1)" rx="10" ry="10" style="stroke: none; stroke-width: 1.0;"/><rect fill="#FEFECE" filter="url(#f1)" height="33.9688" rx="12.5" ry="12.5" style="stroke: #A80036; stroke-width: 1.5;" width="206" x="379.5" y="50"/><text fill="#000000" font-family="sans-serif" font-size="12" lengthAdjust="spacingAndGlyphs" textLength="186" x="389.5" y="71.1387">User triggers the "Exit" action</text><polygon fill="#FEFECE" filter="url(#f1)" points="395.5,103.9688,569.5,103.9688,581.5,115.9688,569.5,127.9688,395.5,127.9688,383.5,115.9688,395.5,103.9688" style="stroke: #A80036; stroke-width: 1.5;"/><text fill="#000000" font-family="sans-serif" font-size="11" lengthAdjust="spacingAndGlyphs" textLength="174" x="395.5" y="119.7769">Are there unsaved ontologies?</text><text fill="#000000" font-family="sans-serif" font-size="11" lengthAdjust="spacingAndGlyphs" textLength="20" x="363.5" y="113.3745">yes</text><text fill="#000000" font-family="sans-serif" font-size="11" lengthAdjust="spacingAndGlyphs" textLength="14" x="581.5" y="113.3745">no</text><rect fill="#FEFECE" filter="url(#f1)" height="33.9688" rx="12.5" ry="12.5" style="stroke: #A80036; stroke-width: 1.5;" width="488" x="10" y="147.9688"/><text fill="#000000" font-family="sans-serif" font-size="12" lengthAdjust="spacingAndGlyphs" textLength="468" x="20" y="169.1074">Display warning dialog with message: "Would you like to save all changes?"</text><polygon fill="#FEFECE" filter="url(#f1)" points="202.5,201.9375,305.5,201.9375,317.5,213.9375,305.5,225.9375,202.5,225.9375,190.5,213.9375,202.5,201.9375" style="stroke: #A80036; stroke-width: 1.5;"/><text fill="#000000" font-family="sans-serif" font-size="11" lengthAdjust="spacingAndGlyphs" textLength="103" x="202.5" y="217.7456">Save all changes?</text><text fill="#000000" font-family="sans-serif" font-size="11" lengthAdjust="spacingAndGlyphs" textLength="20" x="170.5" y="211.3433">yes</text><text fill="#000000" font-family="sans-serif" font-size="11" lengthAdjust="spacingAndGlyphs" textLength="14" x="317.5" y="211.3433">no</text><rect fill="#FEFECE" filter="url(#f1)" height="33.9688" rx="12.5" ry="12.5" style="stroke: #A80036; stroke-width: 1.5;" width="195" x="36.75" y="257.9375"/><text fill="#000000" font-family="sans-serif" font-size="12" lengthAdjust="spacingAndGlyphs" textLength="175" x="46.75" y="279.0762">Save all unsaved ontologies</text><polygon fill="#FEFECE" filter="url(#f1)" points="254,301.9063,266,313.9063,254,325.9063,242,313.9063,254,301.9063" style="stroke: #A80036; stroke-width: 1.5;"/><polygon fill="#FEFECE" filter="url(#f1)" points="482.5,335.9063,494.5,347.9063,482.5,359.9063,470.5,347.9063,482.5,335.9063" style="stroke: #A80036; stroke-width: 1.5;"/><rect fill="#FEFECE" filter="url(#f1)" height="33.9688" rx="12.5" ry="12.5" style="stroke: #A80036; stroke-width: 1.5;" width="153" x="406" y="379.9063"/><text fill="#000000" font-family="sans-serif" font-size="12" lengthAdjust="spacingAndGlyphs" textLength="133" x="416" y="401.0449">Save the gui settings</text><rect fill="#FEFECE" filter="url(#f1)" height="33.9688" rx="12.5" ry="12.5" style="stroke: #A80036; stroke-width: 1.5;" width="152" x="406.5" y="433.875"/><text fill="#000000" font-family="sans-serif" font-size="12" lengthAdjust="spacingAndGlyphs" textLength="132" x="416.5" y="455.0137">Close the application</text><ellipse cx="482.5" cy="497.8438" fill="none" filter="url(#f1)" rx="10" ry="10" style="stroke: #000000; stroke-width: 1.0;"/><ellipse cx="483" cy="498.3438" fill="#000000" filter="url(#f1)" rx="6" ry="6" style="stroke: none; stroke-width: 1.0;"/><line style="stroke: #A80036; stroke-width: 1.5;" x1="482.5" x2="482.5" y1="30" y2="50"/><polygon fill="#A80036" points="478.5,40,482.5,50,486.5,40,482.5,44" style="stroke: #A80036; stroke-width: 1.0;"/><line style="stroke: #A80036; stroke-width: 1.5;" x1="134.25" x2="190.5" y1="213.9375" y2="213.9375"/><line style="stroke: #A80036; stroke-width: 1.5;" x1="134.25" x2="134.25" y1="213.9375" y2="257.9375"/><polygon fill="#A80036" points="130.25,247.9375,134.25,257.9375,138.25,247.9375,134.25,251.9375" style="stroke: #A80036; stroke-width: 1.0;"/><line style="stroke: #A80036; stroke-width: 1.5;" x1="317.5" x2="373.75" y1="213.9375" y2="213.9375"/><line style="stroke: #A80036; stroke-width: 1.5;" x1="373.75" x2="373.75" y1="213.9375" y2="274.9219"/><polygon fill="#A80036" points="369.75,264.9219,373.75,274.9219,377.75,264.9219,373.75,268.9219" style="stroke: #A80036; stroke-width: 1.0;"/><line style="stroke: #A80036; stroke-width: 1.5;" x1="134.25" x2="134.25" y1="291.9063" y2="313.9063"/><line style="stroke: #A80036; stroke-width: 1.5;" x1="134.25" x2="242" y1="313.9063" y2="313.9063"/><polygon fill="#A80036" points="232,309.9063,242,313.9063,232,317.9063,236,313.9063" style="stroke: #A80036; stroke-width: 1.0;"/><line style="stroke: #A80036; stroke-width: 1.5;" x1="373.75" x2="373.75" y1="274.9219" y2="313.9063"/><line style="stroke: #A80036; stroke-width: 1.5;" x1="266" x2="373.75" y1="313.9063" y2="313.9063"/><polygon fill="#A80036" points="276,309.9063,266,313.9063,276,317.9063,272,313.9063" style="stroke: #A80036; stroke-width: 1.0;"/><line style="stroke: #A80036; stroke-width: 1.5;" x1="254" x2="254" y1="181.9375" y2="201.9375"/><polygon fill="#A80036" points="250,191.9375,254,201.9375,258,191.9375,254,195.9375" style="stroke: #A80036; stroke-width: 1.0;"/><line style="stroke: #A80036; stroke-width: 1.5;" x1="254" x2="383.5" y1="115.9688" y2="115.9688"/><line style="stroke: #A80036; stroke-width: 1.5;" x1="254" x2="254" y1="115.9688" y2="147.9688"/><polygon fill="#A80036" points="250,137.9688,254,147.9688,258,137.9688,254,141.9688" style="stroke: #A80036; stroke-width: 1.0;"/><line style="stroke: #A80036; stroke-width: 1.5;" x1="581.5" x2="711" y1="115.9688" y2="115.9688"/><line style="stroke: #A80036; stroke-width: 1.5;" x1="711" x2="711" y1="115.9688" y2="240.4375"/><polygon fill="#A80036" points="707,230.4375,711,240.4375,715,230.4375,711,234.4375" style="stroke: #A80036; stroke-width: 1.0;"/><line style="stroke: #A80036; stroke-width: 1.5;" x1="254" x2="254" y1="325.9063" y2="347.9063"/><line style="stroke: #A80036; stroke-width: 1.5;" x1="254" x2="470.5" y1="347.9063" y2="347.9063"/><polygon fill="#A80036" points="460.5,343.9063,470.5,347.9063,460.5,351.9063,464.5,347.9063" style="stroke: #A80036; stroke-width: 1.0;"/><line style="stroke: #A80036; stroke-width: 1.5;" x1="711" x2="711" y1="240.4375" y2="347.9063"/><line style="stroke: #A80036; stroke-width: 1.5;" x1="494.5" x2="711" y1="347.9063" y2="347.9063"/><polygon fill="#A80036" points="504.5,343.9063,494.5,347.9063,504.5,351.9063,500.5,347.9063" style="stroke: #A80036; stroke-width: 1.0;"/><line style="stroke: #A80036; stroke-width: 1.5;" x1="482.5" x2="482.5" y1="83.9688" y2="103.9688"/><polygon fill="#A80036" points="478.5,93.9688,482.5,103.9688,486.5,93.9688,482.5,97.9688" style="stroke: #A80036; stroke-width: 1.0;"/><line style="stroke: #A80036; stroke-width: 1.5;" x1="482.5" x2="482.5" y1="359.9063" y2="379.9063"/><polygon fill="#A80036" points="478.5,369.9063,482.5,379.9063,486.5,369.9063,482.5,373.9063" style="stroke: #A80036; stroke-width: 1.0;"/><line style="stroke: #A80036; stroke-width: 1.5;" x1="482.5" x2="482.5" y1="413.875" y2="433.875"/><polygon fill="#A80036" points="478.5,423.875,482.5,433.875,486.5,423.875,482.5,427.875" style="stroke: #A80036; stroke-width: 1.0;"/><line style="stroke: #A80036; stroke-width: 1.5;" x1="482.5" x2="482.5" y1="467.8438" y2="487.8438"/><polygon fill="#A80036" points="478.5,477.8438,482.5,487.8438,486.5,477.8438,482.5,481.8438" style="stroke: #A80036; stroke-width: 1.0;"/></g></svg>