<?xml version="1.0" encoding="UTF-8" standalone="yes"?><svg xmlns="http://www.w3.org/2000/svg" xmlns:xlink="http://www.w3.org/1999/xlink" height="484pt" style="width:753px;height:484px;" version="1.1" viewBox="0 0 753 484" width="753pt"><defs><filter height="300%" id="f1" width="300%" x="-1" y="-1"><feGaussianBlur result="blurOut" stdDeviation="2.0"/><feColorMatrix in="blurOut" result="blurOut2" type="matrix" values="0 0 0 0 0 0 0 0 0 0 0 0 0 0 0 0 0 0 .4 0"/><feOffset dx="4.0" dy="4.0" in="blurOut2" result="blurOut3"/><feBlend in="SourceGraphic" in2="blurOut3" mode="normal"/></filter></defs><g><rect fill="#FEFECE" filter="url(#f1)" height="99.2188" style="stroke: #A80036; stroke-width: 1.5;" width="338" x="168.5" y="8.5"/><ellipse cx="283.75" cy="24.5" fill="#ADD1B2" rx="11" ry="11" style="stroke: #A80036; stroke-width: 1.0;"/><path d="M286.7188,30.1406 Q286.1406,30.4375 285.5,30.5859 Q284.8594,30.7344 284.1563,30.7344 Q281.6563,30.7344 280.3359,29.0859 Q279.0156,27.4375 279.0156,24.3125 Q279.0156,21.1875 280.3359,19.5313 Q281.6563,17.875 284.1563,17.875 Q284.8594,17.875 285.5078,18.0313 Q286.1563,18.1875 286.7188,18.4844 L286.7188,21.2031 Q286.0938,20.625 285.5,20.3516 Q284.9063,20.0781 284.2813,20.0781 Q282.9375,20.0781 282.25,21.1484 Q281.5625,22.2188 281.5625,24.3125 Q281.5625,26.4063 282.25,27.4766 Q282.9375,28.5469 284.2813,28.5469 Q284.9063,28.5469 285.5,28.2734 Q286.0938,28 286.7188,27.4219 L286.7188,30.1406 Z "/><text fill="#000000" font-family="sans-serif" font-size="12" lengthAdjust="spacingAndGlyphs" textLength="99" x="304.25" y="28.6543">IndexAbstractor</text><line style="stroke: #A80036; stroke-width: 1.5;" x1="169.5" x2="505.5" y1="40.5" y2="40.5"/><rect fill="none" height="6" style="stroke: #C82930; stroke-width: 1.0;" width="6" x="176.5" y="49.4023"/><text fill="#000000" font-family="sans-serif" font-size="11" lengthAdjust="spacingAndGlyphs" textLength="257" x="188.5" y="54.7104">index : HashMap&lt;String key, AST element&gt;[]</text><line style="stroke: #A80036; stroke-width: 1.5;" x1="169.5" x2="505.5" y1="61.3047" y2="61.3047"/><ellipse cx="179.5" cy="73.207" fill="#84BE84" rx="3" ry="3" style="stroke: #038048; stroke-width: 1.0;"/><text fill="#000000" font-family="sans-serif" font-size="11" lengthAdjust="spacingAndGlyphs" textLength="154" x="188.5" y="75.5151">search(term : String) : AST</text><ellipse cx="179.5" cy="86.0117" fill="#84BE84" rx="3" ry="3" style="stroke: #038048; stroke-width: 1.0;"/><text fill="#000000" font-family="sans-serif" font-size="11" lengthAdjust="spacingAndGlyphs" textLength="312" x="188.5" y="88.3198">get_graph(variant, node, depth=None) : AbstractGraph</text><ellipse cx="179.5" cy="98.8164" fill="#84BE84" rx="3" ry="3" style="stroke: #038048; stroke-width: 1.0;"/><text fill="#000000" font-family="sans-serif" font-size="11" lengthAdjust="spacingAndGlyphs" textLength="209" x="188.5" y="101.1245">wordnet_locate(term: String) : String</text><rect fill="#FEFECE" filter="url(#f1)" height="86.4141" style="stroke: #A80036; stroke-width: 1.5;" width="472" x="101" y="186"/><ellipse cx="287.25" cy="202" fill="#ADD1B2" rx="11" ry="11" style="stroke: #A80036; stroke-width: 1.0;"/><path d="M290.2188,207.6406 Q289.6406,207.9375 289,208.0859 Q288.3594,208.2344 287.6563,208.2344 Q285.1563,208.2344 283.8359,206.5859 Q282.5156,204.9375 282.5156,201.8125 Q282.5156,198.6875 283.8359,197.0313 Q285.1563,195.375 287.6563,195.375 Q288.3594,195.375 289.0078,195.5313 Q289.6563,195.6875 290.2188,195.9844 L290.2188,198.7031 Q289.5938,198.125 289,197.8516 Q288.4063,197.5781 287.7813,197.5781 Q286.4375,197.5781 285.75,198.6484 Q285.0625,199.7188 285.0625,201.8125 Q285.0625,203.9063 285.75,204.9766 Q286.4375,206.0469 287.7813,206.0469 Q288.4063,206.0469 289,205.7734 Q289.5938,205.5 290.2188,204.9219 L290.2188,207.6406 Z "/><text fill="#000000" font-family="sans-serif" font-size="12" lengthAdjust="spacingAndGlyphs" textLength="91" x="307.75" y="206.1543">AbstractGraph</text><line style="stroke: #A80036; stroke-width: 1.5;" x1="102" x2="572" y1="218" y2="218"/><rect fill="none" height="6" style="stroke: #C82930; stroke-width: 1.0;" width="6" x="109" y="226.9023"/><text fill="#000000" font-family="sans-serif" font-size="11" lengthAdjust="spacingAndGlyphs" textLength="166" x="121" y="232.2104">nodes : AbstractGraphNode[]</text><rect fill="none" height="6" style="stroke: #C82930; stroke-width: 1.0;" width="6" x="109" y="239.707"/><text fill="#000000" font-family="sans-serif" font-size="11" lengthAdjust="spacingAndGlyphs" textLength="110" x="121" y="245.0151">relations : Enum[][]</text><line style="stroke: #A80036; stroke-width: 1.5;" x1="102" x2="572" y1="251.6094" y2="251.6094"/><ellipse cx="112" cy="263.5117" fill="#84BE84" rx="3" ry="3" style="stroke: #038048; stroke-width: 1.0;"/><text fill="#000000" font-family="sans-serif" font-size="11" lengthAdjust="spacingAndGlyphs" textLength="446" x="121" y="265.8198">__init__(variant : Enum, root : AbstractGraphNode, depth : int) : AbstractGraph</text><rect fill="#FEFECE" filter="url(#f1)" height="73.6094" style="stroke: #A80036; stroke-width: 1.5;" width="276" x="6" y="376"/><ellipse cx="77.75" cy="392" fill="#ADD1B2" rx="11" ry="11" style="stroke: #A80036; stroke-width: 1.0;"/><path d="M80.7188,397.6406 Q80.1406,397.9375 79.5,398.0859 Q78.8594,398.2344 78.1563,398.2344 Q75.6563,398.2344 74.3359,396.5859 Q73.0156,394.9375 73.0156,391.8125 Q73.0156,388.6875 74.3359,387.0313 Q75.6563,385.375 78.1563,385.375 Q78.8594,385.375 79.5078,385.5313 Q80.1563,385.6875 80.7188,385.9844 L80.7188,388.7031 Q80.0938,388.125 79.5,387.8516 Q78.9063,387.5781 78.2813,387.5781 Q76.9375,387.5781 76.25,388.6484 Q75.5625,389.7188 75.5625,391.8125 Q75.5625,393.9063 76.25,394.9766 Q76.9375,396.0469 78.2813,396.0469 Q78.9063,396.0469 79.5,395.7734 Q80.0938,395.5 80.7188,394.9219 L80.7188,397.6406 Z "/><text fill="#000000" font-family="sans-serif" font-size="12" lengthAdjust="spacingAndGlyphs" textLength="124" x="98.25" y="396.1543">AbstractGraphNode</text><line style="stroke: #A80036; stroke-width: 1.5;" x1="7" x2="281" y1="408" y2="408"/><rect fill="none" height="6" style="stroke: #C82930; stroke-width: 1.0;" width="6" x="14" y="416.9023"/><text fill="#000000" font-family="sans-serif" font-size="11" lengthAdjust="spacingAndGlyphs" textLength="78" x="26" y="422.2104">name : String</text><line style="stroke: #A80036; stroke-width: 1.5;" x1="7" x2="281" y1="428.8047" y2="428.8047"/><ellipse cx="17" cy="440.707" fill="#84BE84" rx="3" ry="3" style="stroke: #038048; stroke-width: 1.0;"/><text fill="#000000" font-family="sans-serif" font-size="11" lengthAdjust="spacingAndGlyphs" textLength="250" x="26" y="443.0151">__init__(name : String) : AbstractGraphNode</text><rect fill="#FEFECE" filter="url(#f1)" height="124.8281" style="stroke: #A80036; stroke-width: 1.5;" width="427" x="317.75" y="350.5"/><ellipse cx="497" cy="366.5" fill="#ADD1B2" rx="11" ry="11" style="stroke: #A80036; stroke-width: 1.0;"/><path d="M499.9688,372.1406 Q499.3906,372.4375 498.75,372.5859 Q498.1094,372.7344 497.4063,372.7344 Q494.9063,372.7344 493.5859,371.0859 Q492.2656,369.4375 492.2656,366.3125 Q492.2656,363.1875 493.5859,361.5313 Q494.9063,359.875 497.4063,359.875 Q498.1094,359.875 498.7578,360.0313 Q499.4063,360.1875 499.9688,360.4844 L499.9688,363.2031 Q499.3438,362.625 498.75,362.3516 Q498.1563,362.0781 497.5313,362.0781 Q496.1875,362.0781 495.5,363.1484 Q494.8125,364.2188 494.8125,366.3125 Q494.8125,368.4063 495.5,369.4766 Q496.1875,370.5469 497.5313,370.5469 Q498.1563,370.5469 498.75,370.2734 Q499.3438,370 499.9688,369.4219 L499.9688,372.1406 Z "/><text fill="#000000" font-family="sans-serif" font-size="12" lengthAdjust="spacingAndGlyphs" textLength="60" x="517.5" y="370.6543">DotGraph</text><line style="stroke: #A80036; stroke-width: 1.5;" x1="318.75" x2="743.75" y1="382.5" y2="382.5"/><line style="stroke: #A80036; stroke-width: 1.5;" x1="318.75" x2="743.75" y1="390.5" y2="390.5"/><ellipse cx="328.75" cy="402.4023" fill="#84BE84" rx="3" ry="3" style="stroke: #038048; stroke-width: 1.0;"/><text fill="#000000" font-family="sans-serif" font-size="11" lengthAdjust="spacingAndGlyphs" textLength="242" x="337.75" y="404.7104">__init__(graph : AbstractGraph) : DotGraph</text><ellipse cx="328.75" cy="415.207" fill="#84BE84" rx="3" ry="3" style="stroke: #038048; stroke-width: 1.0;"/><text fill="#000000" font-family="sans-serif" font-size="11" lengthAdjust="spacingAndGlyphs" textLength="306" x="337.75" y="417.5151">get_node_from_position(x : double,y : double) : String</text><ellipse cx="328.75" cy="428.0117" fill="#84BE84" rx="3" ry="3" style="stroke: #038048; stroke-width: 1.0;"/><text fill="#000000" font-family="sans-serif" font-size="11" lengthAdjust="spacingAndGlyphs" textLength="306" x="337.75" y="430.3198">get_edge_from_position(x : double,y : double) : String</text><ellipse cx="328.75" cy="440.8164" fill="#84BE84" rx="3" ry="3" style="stroke: #038048; stroke-width: 1.0;"/><text fill="#000000" font-family="sans-serif" font-size="11" lengthAdjust="spacingAndGlyphs" textLength="401" x="337.75" y="443.1245">get_position_from_node(node : AbstractGraphNode) : (Double, Double)</text><text fill="#000000" font-family="sans-serif" font-size="11" lengthAdjust="spacingAndGlyphs" textLength="0" x="341.75" y="455.9292"/><ellipse cx="328.75" cy="466.4258" fill="#84BE84" rx="3" ry="3" style="stroke: #038048; stroke-width: 1.0;"/><text fill="#000000" font-family="sans-serif" font-size="11" lengthAdjust="spacingAndGlyphs" textLength="48" x="337.75" y="468.7339">get_pic()</text><path d="M381.995,272.212 C405.573,294.331 434.97,321.91 461.408,346.713 " fill="none" style="stroke: #A80036; stroke-width: 1.0;"/><polygon fill="#A80036" points="465.287,350.351,461.458,341.2769,461.6397,346.9309,455.9858,347.1126,465.287,350.351" style="stroke: #A80036; stroke-width: 1.0;"/><text fill="#000000" font-family="sans-serif" font-size="13" lengthAdjust="spacingAndGlyphs" textLength="30" x="430" y="315.0669">uses</text><polygon fill="#000000" points="463,309.0664,469,312.0664,463,315.0664,463,309.0664" style="stroke: #000000; stroke-width: 1.0;"/><path d="M292.237,272.212 C260.242,302.383 217.475,342.713 186.101,372.299 " fill="none" style="stroke: #A80036; stroke-width: 1.0;"/><polygon fill="#A80036" points="182.332,375.852,191.624,372.5873,185.9696,372.4216,186.1353,366.7671,182.332,375.852" style="stroke: #A80036; stroke-width: 1.0;"/><text fill="#000000" font-family="sans-serif" font-size="13" lengthAdjust="spacingAndGlyphs" textLength="8" x="275.306" y="292.3387">1</text><text fill="#000000" font-family="sans-serif" font-size="13" lengthAdjust="spacingAndGlyphs" textLength="24" x="161.211" y="364.9691">1..n</text><path d="M337,107.882 C337,130.811 337,158.024 337,180.745 " fill="none" style="stroke: #A80036; stroke-width: 1.0;"/><polygon fill="#A80036" points="337,185.819,341,176.819,337,180.819,333,176.819,337,185.819" style="stroke: #A80036; stroke-width: 1.0;"/><text fill="#000000" font-family="sans-serif" font-size="13" lengthAdjust="spacingAndGlyphs" textLength="30" x="338" y="151.0669">uses</text><polygon fill="#000000" points="348.5,160.1328,351.5,166.1328,354.5,160.1328,348.5,160.1328" style="stroke: #000000; stroke-width: 1.0;"/></g></svg>