<?xml version="1.0" encoding="UTF-8" standalone="yes"?><svg xmlns="http://www.w3.org/2000/svg" xmlns:xlink="http://www.w3.org/1999/xlink" height="224pt" style="width:682px;height:224px;" version="1.1" viewBox="0 0 682 224" width="682pt"><defs><filter height="300%" id="f1" width="300%" x="-1" y="-1"><feGaussianBlur result="blurOut" stdDeviation="2.0"/><feColorMatrix in="blurOut" result="blurOut2" type="matrix" values="0 0 0 0 0 0 0 0 0 0 0 0 0 0 0 0 0 0 .4 0"/><feOffset dx="4.0" dy="4.0" in="blurOut2" result="blurOut3"/><feBlend in="SourceGraphic" in2="blurOut3" mode="normal"/></filter></defs><g><rect fill="#FEFECE" filter="url(#f1)" height="73.6094" style="stroke: #A80036; stroke-width: 1.5;" width="401" x="22.75" y="8"/><ellipse cx="197" cy="24" fill="#A9DCDF" rx="11" ry="11" style="stroke: #A80036; stroke-width: 1.0;"/><path d="M197.1094,19.3438 L195.9531,24.4219 L198.2813,24.4219 L197.1094,19.3438 Z M195.625,17.1094 L198.6094,17.1094 L201.9688,29.5 L199.5156,29.5 L198.75,26.4375 L195.4688,26.4375 L194.7188,29.5 L192.2813,29.5 L195.625,17.1094 Z "/><text fill="#000000" font-family="sans-serif" font-size="12" font-style="italic" lengthAdjust="spacingAndGlyphs" textLength="44" x="217.5" y="28.1543">Widget</text><line style="stroke: #A80036; stroke-width: 1.5;" x1="23.75" x2="422.75" y1="40" y2="40"/><line style="stroke: #A80036; stroke-width: 1.5;" x1="23.75" x2="422.75" y1="48" y2="48"/><ellipse cx="33.75" cy="59.9023" fill="#84BE84" rx="3" ry="3" style="stroke: #038048; stroke-width: 1.0;"/><text fill="#000000" font-family="sans-serif" font-size="11" lengthAdjust="spacingAndGlyphs" textLength="375" x="42.75" y="62.2104">__init__(mainWindow : MainWindow, ast : IndexAbstractor) : Widget</text><ellipse cx="33.75" cy="72.707" fill="#84BE84" rx="3" ry="3" style="stroke: #038048; stroke-width: 1.0;"/><text fill="#000000" font-family="sans-serif" font-size="11" lengthAdjust="spacingAndGlyphs" textLength="85" x="42.75" y="75.0151">refresh() : void</text><rect fill="#FEFECE" filter="url(#f1)" height="48" style="stroke: #A80036; stroke-width: 1.5;" width="84" x="6.5" y="155"/><ellipse cx="21.5" cy="171" fill="#A9DCDF" rx="11" ry="11" style="stroke: #A80036; stroke-width: 1.0;"/><path d="M21.6094,166.3438 L20.4531,171.4219 L22.7813,171.4219 L21.6094,166.3438 Z M20.125,164.1094 L23.1094,164.1094 L26.4688,176.5 L24.0156,176.5 L23.25,173.4375 L19.9688,173.4375 L19.2188,176.5 L16.7813,176.5 L20.125,164.1094 Z "/><text fill="#000000" font-family="sans-serif" font-size="12" font-style="italic" lengthAdjust="spacingAndGlyphs" textLength="52" x="35.5" y="175.1543">RWidget</text><line style="stroke: #A80036; stroke-width: 1.5;" x1="7.5" x2="89.5" y1="187" y2="187"/><line style="stroke: #A80036; stroke-width: 1.5;" x1="7.5" x2="89.5" y1="195" y2="195"/><rect fill="#FEFECE" filter="url(#f1)" height="73.6094" style="stroke: #A80036; stroke-width: 1.5;" width="548" x="125" y="142"/><ellipse cx="362.75" cy="158" fill="#A9DCDF" rx="11" ry="11" style="stroke: #A80036; stroke-width: 1.0;"/><path d="M362.8594,153.3438 L361.7031,158.4219 L364.0313,158.4219 L362.8594,153.3438 Z M361.375,151.1094 L364.3594,151.1094 L367.7188,163.5 L365.2656,163.5 L364.5,160.4375 L361.2188,160.4375 L360.4688,163.5 L358.0313,163.5 L361.375,151.1094 Z "/><text fill="#000000" font-family="sans-serif" font-size="12" font-style="italic" lengthAdjust="spacingAndGlyphs" textLength="64" x="383.25" y="162.1543">RWWidget</text><line style="stroke: #A80036; stroke-width: 1.5;" x1="126" x2="672" y1="174" y2="174"/><line style="stroke: #A80036; stroke-width: 1.5;" x1="126" x2="672" y1="182" y2="182"/><ellipse cx="136" cy="193.9023" fill="#84BE84" rx="3" ry="3" style="stroke: #038048; stroke-width: 1.0;"/><text fill="#000000" font-family="sans-serif" font-size="11" lengthAdjust="spacingAndGlyphs" textLength="522" x="145" y="196.2104">__init__( mainWindow : MainWindow, ast : IndexAbstractor, sc : SyntaxController) : RWWidget</text><ellipse cx="136" cy="206.707" fill="#84BE84" rx="3" ry="3" style="stroke: #038048; stroke-width: 1.0;"/><text fill="#000000" font-family="sans-serif" font-size="11" lengthAdjust="spacingAndGlyphs" textLength="85" x="145" y="209.0151">commit() : void</text><path d="M287.113,94.085 C308.206,109.904 331.28,127.2097 350.965,141.974 " fill="none" style="stroke: #A80036; stroke-width: 1.0;"/><polygon fill="none" points="282.893,99.67,271.093,82.07,291.293,88.47,282.893,99.67" style="stroke: #A80036; stroke-width: 1.0;"/><path d="M159.073,94.219 C131.641,114.911 100.8691,138.1216 78.6829,154.8563 " fill="none" style="stroke: #A80036; stroke-width: 1.0;"/><polygon fill="none" points="154.998,88.525,175.18,82.07,163.429,99.702,154.998,88.525" style="stroke: #A80036; stroke-width: 1.0;"/></g></svg>